<svg width="1527" height="972" viewBox="0 0 1527 972" fill="none" xmlns="http://www.w3.org/2000/svg">
<rect x="80" y="1" width="486" height="870" fill="#B3B470" fill-opacity="0.3"/>
<rect x="566" y="449" width="480" height="418" fill="#E00BCD" fill-opacity="0.5"/>
<rect x="1046" y="1" width="480" height="866" fill="#E0110B" fill-opacity="0.45"/>
<circle cx="458.023" cy="86.9371" r="19.9143" fill="#FFD700" stroke="black" stroke-width="2"/>
<path d="M453.385 92.169C452.878 92.161 452.371 92.0644 451.864 91.8793C451.357 91.6941 450.894 91.3822 450.475 90.9435C450.057 90.5008 449.721 89.9032 449.467 89.1506C449.213 88.3939 449.087 87.4441 449.087 86.3011C449.087 85.2064 449.189 84.2365 449.395 83.3913C449.6 82.5421 449.898 81.8278 450.288 81.2482C450.678 80.6647 451.149 80.2219 451.701 79.9201C452.256 79.6183 452.882 79.4673 453.578 79.4673C454.27 79.4673 454.886 79.6062 455.425 79.8839C455.969 80.1576 456.411 80.5399 456.754 81.0309C457.096 81.5219 457.317 82.0874 457.418 82.7273H455.945C455.808 82.1719 455.542 81.7111 455.148 81.3448C454.753 80.9786 454.23 80.7955 453.578 80.7955C452.62 80.7955 451.866 81.212 451.314 82.0451C450.767 82.8782 450.491 84.0473 450.487 85.5526H450.584C450.809 85.2105 451.077 84.9187 451.387 84.6772C451.701 84.4317 452.047 84.2425 452.425 84.1097C452.803 83.9769 453.204 83.9105 453.626 83.9105C454.335 83.9105 454.983 84.0876 455.57 84.4418C456.158 84.7919 456.629 85.2769 456.983 85.8967C457.337 86.5124 457.514 87.2188 457.514 88.0156C457.514 88.7803 457.343 89.4806 457.001 90.1165C456.659 90.7483 456.178 91.2514 455.558 91.6257C454.942 91.996 454.218 92.1771 453.385 92.169ZM453.385 90.8409C453.892 90.8409 454.347 90.7141 454.749 90.4606C455.156 90.207 455.476 89.867 455.709 89.4403C455.947 89.0137 456.065 88.5388 456.065 88.0156C456.065 87.5045 455.951 87.0397 455.721 86.6211C455.496 86.1985 455.184 85.8625 454.786 85.6129C454.391 85.3634 453.94 85.2386 453.433 85.2386C453.051 85.2386 452.695 85.3151 452.365 85.468C452.035 85.617 451.745 85.8222 451.495 86.0838C451.25 86.3454 451.057 86.6452 450.916 86.9833C450.775 87.3174 450.705 87.6695 450.705 88.0398C450.705 88.5308 450.819 88.9896 451.049 89.4162C451.282 89.8428 451.6 90.1869 452.002 90.4485C452.409 90.7101 452.87 90.8409 453.385 90.8409ZM460.275 92L465.804 81.0611V80.9645H459.429V79.6364H467.35V81.0369L461.844 92H460.275Z" fill="black"/>
<circle cx="524.948" cy="86.9371" r="19.9143" fill="#FFD700" stroke="black" stroke-width="2"/>
<path d="M520.385 93.169C519.878 93.161 519.371 93.0644 518.864 92.8793C518.357 92.6941 517.894 92.3822 517.475 91.9435C517.057 91.5008 516.721 90.9032 516.467 90.1506C516.213 89.3939 516.087 88.4441 516.087 87.3011C516.087 86.2064 516.189 85.2365 516.395 84.3913C516.6 83.5421 516.898 82.8278 517.288 82.2482C517.678 81.6647 518.149 81.2219 518.701 80.9201C519.256 80.6183 519.882 80.4673 520.578 80.4673C521.27 80.4673 521.886 80.6062 522.425 80.8839C522.969 81.1576 523.411 81.5399 523.754 82.0309C524.096 82.5219 524.317 83.0874 524.418 83.7273H522.945C522.808 83.1719 522.542 82.7111 522.148 82.3448C521.753 81.9786 521.23 81.7955 520.578 81.7955C519.62 81.7955 518.866 82.212 518.314 83.0451C517.767 83.8782 517.491 85.0473 517.487 86.5526H517.584C517.809 86.2105 518.077 85.9187 518.387 85.6772C518.701 85.4317 519.047 85.2425 519.425 85.1097C519.803 84.9769 520.204 84.9105 520.626 84.9105C521.335 84.9105 521.983 85.0876 522.57 85.4418C523.158 85.7919 523.629 86.2769 523.983 86.8967C524.337 87.5124 524.514 88.2188 524.514 89.0156C524.514 89.7803 524.343 90.4806 524.001 91.1165C523.659 91.7483 523.178 92.2514 522.558 92.6257C521.942 92.996 521.218 93.1771 520.385 93.169ZM520.385 91.8409C520.892 91.8409 521.347 91.7141 521.749 91.4606C522.156 91.207 522.476 90.867 522.709 90.4403C522.947 90.0137 523.065 89.5388 523.065 89.0156C523.065 88.5045 522.951 88.0397 522.721 87.6211C522.496 87.1985 522.184 86.8625 521.786 86.6129C521.391 86.3634 520.94 86.2386 520.433 86.2386C520.051 86.2386 519.695 86.3151 519.365 86.468C519.035 86.617 518.745 86.8222 518.495 87.0838C518.25 87.3454 518.057 87.6452 517.916 87.9833C517.775 88.3174 517.705 88.6695 517.705 89.0398C517.705 89.5308 517.819 89.9896 518.049 90.4162C518.282 90.8428 518.6 91.1869 519.002 91.4485C519.409 91.7101 519.87 91.8409 520.385 91.8409ZM530.848 93.169C530.019 93.169 529.287 93.0221 528.651 92.7283C528.019 92.4305 527.526 92.022 527.172 91.5028C526.818 90.9796 526.643 90.384 526.647 89.7159C526.643 89.1927 526.745 88.7098 526.955 88.267C527.164 87.8203 527.45 87.448 527.812 87.1502C528.178 86.8484 528.587 86.6572 529.037 86.5767V86.5043C528.446 86.3513 527.975 86.0193 527.625 85.5082C527.275 84.993 527.102 84.4074 527.106 83.7514C527.102 83.1236 527.261 82.5621 527.582 82.0671C527.904 81.5721 528.347 81.1817 528.911 80.896C529.478 80.6102 530.124 80.4673 530.848 80.4673C531.565 80.4673 532.205 80.6102 532.768 80.896C533.332 81.1817 533.774 81.5721 534.096 82.0671C534.422 82.5621 534.587 83.1236 534.591 83.7514C534.587 84.4074 534.408 84.993 534.054 85.5082C533.704 86.0193 533.239 86.3513 532.66 86.5043V86.5767C533.106 86.6572 533.509 86.8484 533.867 87.1502C534.225 87.448 534.511 87.8203 534.724 88.267C534.937 88.7098 535.046 89.1927 535.05 89.7159C535.046 90.384 534.865 90.9796 534.507 91.5028C534.153 92.022 533.66 92.4305 533.028 92.7283C532.4 93.0221 531.674 93.169 530.848 93.169ZM530.848 91.8409C531.408 91.8409 531.891 91.7504 532.297 91.5692C532.704 91.3881 533.018 91.1326 533.239 90.8026C533.46 90.4725 533.573 90.0862 533.577 89.6435C533.573 89.1766 533.452 88.7641 533.215 88.4059C532.977 88.0477 532.653 87.766 532.243 87.5607C531.836 87.3555 531.372 87.2528 530.848 87.2528C530.321 87.2528 529.85 87.3555 529.436 87.5607C529.025 87.766 528.701 88.0477 528.464 88.4059C528.23 88.7641 528.116 89.1766 528.12 89.6435C528.116 90.0862 528.222 90.4725 528.44 90.8026C528.661 91.1326 528.977 91.3881 529.388 91.5692C529.798 91.7504 530.285 91.8409 530.848 91.8409ZM530.848 85.973C531.291 85.973 531.684 85.8845 532.026 85.7074C532.372 85.5303 532.643 85.2828 532.841 84.9648C533.038 84.6469 533.138 84.2746 533.142 83.848C533.138 83.4295 533.04 83.0652 532.847 82.7553C532.653 82.4414 532.386 82.1999 532.044 82.0309C531.702 81.8578 531.303 81.7713 530.848 81.7713C530.386 81.7713 529.981 81.8578 529.635 82.0309C529.289 82.1999 529.021 82.4414 528.832 82.7553C528.643 83.0652 528.55 83.4295 528.554 83.848C528.55 84.2746 528.645 84.6469 528.838 84.9648C529.035 85.2828 529.307 85.5303 529.653 85.7074C529.999 85.8845 530.398 85.973 530.848 85.973Z" fill="black"/>
<circle cx="458.023" cy="153.863" r="19.9143" fill="#FFD700" stroke="black" stroke-width="2"/>
<path d="M453.385 161.169C452.878 161.161 452.371 161.064 451.864 160.879C451.357 160.694 450.894 160.382 450.475 159.944C450.057 159.501 449.721 158.903 449.467 158.151C449.213 157.394 449.087 156.444 449.087 155.301C449.087 154.206 449.189 153.237 449.395 152.391C449.6 151.542 449.898 150.828 450.288 150.248C450.678 149.665 451.149 149.222 451.701 148.92C452.256 148.618 452.882 148.467 453.578 148.467C454.27 148.467 454.886 148.606 455.425 148.884C455.969 149.158 456.411 149.54 456.754 150.031C457.096 150.522 457.317 151.087 457.418 151.727H455.945C455.808 151.172 455.542 150.711 455.148 150.345C454.753 149.979 454.23 149.795 453.578 149.795C452.62 149.795 451.866 150.212 451.314 151.045C450.767 151.878 450.491 153.047 450.487 154.553H450.584C450.809 154.21 451.077 153.919 451.387 153.677C451.701 153.432 452.047 153.243 452.425 153.11C452.803 152.977 453.204 152.911 453.626 152.911C454.335 152.911 454.983 153.088 455.57 153.442C456.158 153.792 456.629 154.277 456.983 154.897C457.337 155.512 457.514 156.219 457.514 157.016C457.514 157.78 457.343 158.481 457.001 159.116C456.659 159.748 456.178 160.251 455.558 160.626C454.942 160.996 454.218 161.177 453.385 161.169ZM453.385 159.841C453.892 159.841 454.347 159.714 454.749 159.461C455.156 159.207 455.476 158.867 455.709 158.44C455.947 158.014 456.065 157.539 456.065 157.016C456.065 156.504 455.951 156.04 455.721 155.621C455.496 155.199 455.184 154.862 454.786 154.613C454.391 154.363 453.94 154.239 453.433 154.239C453.051 154.239 452.695 154.315 452.365 154.468C452.035 154.617 451.745 154.822 451.495 155.084C451.25 155.345 451.057 155.645 450.916 155.983C450.775 156.317 450.705 156.67 450.705 157.04C450.705 157.531 450.819 157.99 451.049 158.416C451.282 158.843 451.6 159.187 452.002 159.449C452.409 159.71 452.87 159.841 453.385 159.841ZM463.824 148.467C464.331 148.471 464.839 148.568 465.346 148.757C465.853 148.946 466.316 149.26 466.734 149.699C467.153 150.134 467.489 150.727 467.742 151.48C467.996 152.232 468.123 153.176 468.123 154.311C468.123 155.41 468.018 156.386 467.809 157.239C467.603 158.088 467.306 158.805 466.915 159.388C466.529 159.972 466.058 160.414 465.503 160.716C464.951 161.018 464.327 161.169 463.631 161.169C462.939 161.169 462.321 161.032 461.778 160.759C461.238 160.481 460.796 160.096 460.45 159.605C460.108 159.11 459.888 158.537 459.792 157.885H461.265C461.397 158.452 461.661 158.921 462.055 159.292C462.454 159.658 462.979 159.841 463.631 159.841C464.585 159.841 465.338 159.424 465.889 158.591C466.444 157.758 466.722 156.581 466.722 155.06H466.625C466.4 155.398 466.132 155.69 465.823 155.935C465.513 156.181 465.169 156.37 464.79 156.502C464.412 156.635 464.009 156.702 463.583 156.702C462.874 156.702 462.225 156.527 461.633 156.176C461.045 155.822 460.574 155.337 460.22 154.722C459.87 154.102 459.695 153.393 459.695 152.597C459.695 151.84 459.864 151.148 460.202 150.52C460.544 149.888 461.023 149.385 461.639 149.011C462.259 148.636 462.987 148.455 463.824 148.467ZM463.824 149.795C463.317 149.795 462.86 149.922 462.454 150.176C462.051 150.425 461.732 150.763 461.494 151.19C461.261 151.613 461.144 152.081 461.144 152.597C461.144 153.112 461.257 153.581 461.482 154.003C461.711 154.422 462.023 154.756 462.418 155.005C462.816 155.251 463.269 155.374 463.776 155.374C464.158 155.374 464.515 155.299 464.845 155.15C465.175 154.997 465.462 154.79 465.708 154.528C465.957 154.263 466.153 153.963 466.293 153.629C466.434 153.291 466.505 152.939 466.505 152.572C466.505 152.089 466.388 151.637 466.155 151.214C465.925 150.792 465.607 150.449 465.201 150.188C464.798 149.926 464.339 149.795 463.824 149.795Z" fill="black"/>
<circle cx="524.949" cy="153.863" r="19.9143" fill="#FFD700" stroke="black" stroke-width="2"/>
<path d="M516.666 161L522.196 150.061V149.964H515.821V148.636H523.741V150.037L518.236 161H516.666ZM529.759 161.169C528.849 161.169 528.074 160.922 527.435 160.426C526.795 159.927 526.306 159.205 525.968 158.259C525.63 157.309 525.46 156.162 525.46 154.818C525.46 153.482 525.63 152.341 525.968 151.395C526.31 150.445 526.801 149.721 527.441 149.222C528.085 148.719 528.857 148.467 529.759 148.467C530.66 148.467 531.431 148.719 532.071 149.222C532.715 149.721 533.206 150.445 533.544 151.395C533.886 152.341 534.057 153.482 534.057 154.818C534.057 156.162 533.888 157.309 533.55 158.259C533.212 159.205 532.723 159.927 532.083 160.426C531.443 160.922 530.668 161.169 529.759 161.169ZM529.759 159.841C530.66 159.841 531.361 159.406 531.86 158.537C532.359 157.668 532.608 156.428 532.608 154.818C532.608 153.748 532.494 152.836 532.264 152.083C532.039 151.331 531.713 150.757 531.286 150.363C530.864 149.969 530.354 149.771 529.759 149.771C528.865 149.771 528.167 150.212 527.664 151.093C527.161 151.971 526.909 153.212 526.909 154.818C526.909 155.889 527.022 156.798 527.247 157.547C527.473 158.295 527.797 158.865 528.219 159.255C528.646 159.646 529.159 159.841 529.759 159.841Z" fill="black"/>
<circle cx="458.023" cy="220.789" r="19.9143" fill="#FFD700" stroke="black" stroke-width="2"/>
<path d="M450.666 228L456.196 217.061V216.964H449.821V215.636H457.741V217.037L452.236 228H450.666ZM464.338 215.636V228H462.841V217.206H462.769L459.75 219.21V217.689L462.841 215.636H464.338Z" fill="black"/>
<circle cx="524.948" cy="220.789" r="19.9143" fill="#FFD700" stroke="black" stroke-width="2"/>
<path d="M516.666 227L522.196 216.061V215.964H515.821V214.636H523.741V216.037L518.236 227H516.666ZM525.992 227V225.913L530.073 221.446C530.552 220.923 530.946 220.468 531.256 220.082C531.566 219.691 531.795 219.325 531.944 218.983C532.097 218.637 532.174 218.275 532.174 217.896C532.174 217.462 532.069 217.085 531.86 216.767C531.654 216.449 531.373 216.204 531.014 216.031C530.656 215.858 530.254 215.771 529.807 215.771C529.332 215.771 528.918 215.87 528.563 216.067C528.213 216.26 527.942 216.532 527.748 216.882C527.559 217.232 527.465 217.643 527.465 218.114H526.04C526.04 217.389 526.207 216.753 526.541 216.206C526.875 215.659 527.33 215.232 527.905 214.926C528.485 214.62 529.135 214.467 529.855 214.467C530.58 214.467 531.222 214.62 531.781 214.926C532.341 215.232 532.779 215.645 533.097 216.164C533.415 216.683 533.574 217.26 533.574 217.896C533.574 218.351 533.492 218.796 533.327 219.23C533.166 219.661 532.884 220.142 532.481 220.673C532.083 221.201 531.53 221.844 530.821 222.605L528.044 225.575V225.672H533.791V227H525.992Z" fill="black"/>
<circle cx="458.023" cy="287.714" r="19.9143" fill="#FFD700" stroke="black" stroke-width="2"/>
<path d="M449.666 294L455.196 283.061V282.964H448.821V281.636H456.741V283.037L451.236 294H449.666ZM462.887 294.169C462.09 294.169 461.38 294.032 460.756 293.759C460.136 293.485 459.643 293.105 459.277 292.618C458.915 292.127 458.718 291.557 458.685 290.909H460.207C460.239 291.308 460.376 291.652 460.617 291.941C460.859 292.227 461.175 292.449 461.565 292.605C461.955 292.762 462.388 292.841 462.863 292.841C463.394 292.841 463.865 292.748 464.276 292.563C464.686 292.378 465.008 292.121 465.241 291.79C465.475 291.46 465.592 291.078 465.592 290.643C465.592 290.189 465.479 289.788 465.254 289.442C465.028 289.092 464.698 288.818 464.263 288.621C463.829 288.424 463.298 288.325 462.67 288.325H461.68V286.997H462.67C463.161 286.997 463.591 286.909 463.962 286.732C464.336 286.554 464.628 286.305 464.837 285.983C465.05 285.661 465.157 285.283 465.157 284.848C465.157 284.429 465.064 284.065 464.879 283.755C464.694 283.445 464.433 283.204 464.094 283.031C463.76 282.858 463.366 282.771 462.911 282.771C462.485 282.771 462.082 282.85 461.704 283.007C461.33 283.16 461.024 283.383 460.786 283.677C460.549 283.967 460.42 284.317 460.4 284.727H458.951C458.975 284.079 459.17 283.512 459.537 283.025C459.903 282.534 460.382 282.152 460.973 281.878C461.569 281.604 462.223 281.467 462.935 281.467C463.7 281.467 464.356 281.622 464.903 281.932C465.451 282.238 465.871 282.643 466.165 283.146C466.459 283.649 466.606 284.192 466.606 284.776C466.606 285.472 466.423 286.065 466.056 286.556C465.694 287.047 465.201 287.388 464.577 287.577V287.673C465.358 287.802 465.968 288.134 466.407 288.669C466.845 289.201 467.065 289.859 467.065 290.643C467.065 291.316 466.882 291.919 466.515 292.455C466.153 292.986 465.658 293.404 465.03 293.71C464.402 294.016 463.688 294.169 462.887 294.169Z" fill="black"/>
<circle cx="524.948" cy="287.714" r="19.9143" fill="#FFD700" stroke="black" stroke-width="2"/>
<path d="M516.666 294L522.196 283.061V282.964H515.821V281.636H523.741V283.037L518.236 294H516.666ZM524.706 291.464V290.233L530.139 281.636H531.033V283.544H530.429L526.324 290.04V290.136H533.641V291.464H524.706ZM530.525 294V291.09V290.517V281.636H531.95V294H530.525Z" fill="black"/>
<circle cx="458.023" cy="354.64" r="19.9143" fill="#FFD700" stroke="black" stroke-width="2"/>
<path d="M449.666 361L455.196 350.061V349.964H448.821V348.636H456.741V350.037L451.236 361H449.666ZM462.689 361.169C461.981 361.169 461.343 361.028 460.776 360.746C460.208 360.465 459.753 360.078 459.411 359.587C459.069 359.096 458.882 358.537 458.85 357.909H460.299C460.355 358.469 460.609 358.931 461.059 359.298C461.514 359.66 462.057 359.841 462.689 359.841C463.196 359.841 463.647 359.722 464.042 359.485C464.44 359.247 464.752 358.921 464.977 358.507C465.207 358.088 465.321 357.615 465.321 357.088C465.321 356.549 465.203 356.068 464.965 355.645C464.732 355.219 464.41 354.883 463.999 354.637C463.589 354.392 463.12 354.267 462.593 354.263C462.214 354.259 461.826 354.317 461.428 354.438C461.029 354.555 460.701 354.705 460.444 354.891L459.043 354.722L459.792 348.636H466.215V349.964H461.047L460.613 353.611H460.685C460.939 353.41 461.257 353.243 461.639 353.11C462.021 352.977 462.42 352.911 462.834 352.911C463.591 352.911 464.265 353.092 464.857 353.454C465.452 353.812 465.919 354.303 466.257 354.927C466.599 355.551 466.77 356.263 466.77 357.064C466.77 357.853 466.593 358.557 466.239 359.177C465.889 359.793 465.406 360.28 464.79 360.638C464.174 360.992 463.474 361.169 462.689 361.169Z" fill="black"/>
<circle cx="524.948" cy="354.64" r="19.9143" fill="#FFD700" stroke="black" stroke-width="2"/>
<path d="M516.666 361L522.196 350.061V349.964H515.821V348.636H523.741V350.037L518.236 361H516.666ZM529.831 361.169C529.324 361.161 528.817 361.064 528.31 360.879C527.803 360.694 527.34 360.382 526.921 359.944C526.503 359.501 526.167 358.903 525.913 358.151C525.66 357.394 525.533 356.444 525.533 355.301C525.533 354.206 525.636 353.237 525.841 352.391C526.046 351.542 526.344 350.828 526.734 350.248C527.125 349.665 527.596 349.222 528.147 348.92C528.702 348.618 529.328 348.467 530.024 348.467C530.717 348.467 531.332 348.606 531.872 348.884C532.415 349.158 532.858 349.54 533.2 350.031C533.542 350.522 533.763 351.087 533.864 351.727H532.391C532.254 351.172 531.988 350.711 531.594 350.345C531.2 349.979 530.676 349.795 530.024 349.795C529.067 349.795 528.312 350.212 527.761 351.045C527.213 351.878 526.938 353.047 526.934 354.553H527.03C527.255 354.21 527.523 353.919 527.833 353.677C528.147 353.432 528.493 353.243 528.871 353.11C529.25 352.977 529.65 352.911 530.073 352.911C530.781 352.911 531.429 353.088 532.017 353.442C532.604 353.792 533.075 354.277 533.429 354.897C533.783 355.512 533.96 356.219 533.96 357.016C533.96 357.78 533.789 358.481 533.447 359.116C533.105 359.748 532.624 360.251 532.005 360.626C531.389 360.996 530.664 361.177 529.831 361.169ZM529.831 359.841C530.338 359.841 530.793 359.714 531.196 359.461C531.602 359.207 531.922 358.867 532.155 358.44C532.393 358.014 532.512 357.539 532.512 357.016C532.512 356.504 532.397 356.04 532.168 355.621C531.942 355.199 531.63 354.862 531.232 354.613C530.837 354.363 530.387 354.239 529.88 354.239C529.497 354.239 529.141 354.315 528.811 354.468C528.481 354.617 528.191 354.822 527.942 355.084C527.696 355.345 527.503 355.645 527.362 355.983C527.221 356.317 527.151 356.67 527.151 357.04C527.151 357.531 527.266 357.99 527.495 358.416C527.728 358.843 528.046 359.187 528.449 359.449C528.855 359.71 529.316 359.841 529.831 359.841Z" fill="black"/>
<circle cx="458.023" cy="421.566" r="19.9143" fill="#FFD700" stroke="black" stroke-width="2"/>
<path d="M450.666 429L456.196 418.061V417.964H449.821V416.636H457.741V418.037L452.236 429H450.666ZM460.71 429L466.24 418.061V417.964H459.865V416.636H467.785V418.037L462.28 429H460.71Z" fill="black"/>
<circle cx="524.948" cy="421.566" r="19.9143" fill="#FFD700" stroke="black" stroke-width="2"/>
<path d="M516.666 429L522.196 418.061V417.964H515.821V416.636H523.741V418.037L518.236 429H516.666ZM529.703 429.169C528.874 429.169 528.141 429.022 527.506 428.728C526.874 428.431 526.381 428.022 526.026 427.503C525.672 426.98 525.497 426.384 525.501 425.716C525.497 425.193 525.6 424.71 525.809 424.267C526.018 423.82 526.304 423.448 526.666 423.15C527.033 422.848 527.441 422.657 527.892 422.577V422.504C527.3 422.351 526.829 422.019 526.479 421.508C526.129 420.993 525.956 420.407 525.96 419.751C525.956 419.124 526.115 418.562 526.437 418.067C526.759 417.572 527.202 417.182 527.765 416.896C528.333 416.61 528.979 416.467 529.703 416.467C530.419 416.467 531.059 416.61 531.623 416.896C532.186 417.182 532.629 417.572 532.951 418.067C533.277 418.562 533.442 419.124 533.446 419.751C533.442 420.407 533.263 420.993 532.909 421.508C532.558 422.019 532.094 422.351 531.514 422.504V422.577C531.961 422.657 532.363 422.848 532.721 423.15C533.08 423.448 533.365 423.82 533.579 424.267C533.792 424.71 533.901 425.193 533.905 425.716C533.901 426.384 533.72 426.98 533.361 427.503C533.007 428.022 532.514 428.431 531.882 428.728C531.254 429.022 530.528 429.169 529.703 429.169ZM529.703 427.841C530.262 427.841 530.745 427.75 531.152 427.569C531.558 427.388 531.872 427.133 532.094 426.803C532.315 426.473 532.428 426.086 532.432 425.643C532.428 425.177 532.307 424.764 532.069 424.406C531.832 424.048 531.508 423.766 531.097 423.561C530.691 423.355 530.226 423.253 529.703 423.253C529.176 423.253 528.705 423.355 528.29 423.561C527.88 423.766 527.556 424.048 527.318 424.406C527.085 424.764 526.97 425.177 526.974 425.643C526.97 426.086 527.077 426.473 527.294 426.803C527.516 427.133 527.831 427.388 528.242 427.569C528.653 427.75 529.14 427.841 529.703 427.841ZM529.703 421.973C530.146 421.973 530.538 421.884 530.88 421.707C531.226 421.53 531.498 421.283 531.695 420.965C531.892 420.647 531.993 420.275 531.997 419.848C531.993 419.429 531.894 419.065 531.701 418.755C531.508 418.441 531.24 418.2 530.898 418.031C530.556 417.858 530.158 417.771 529.703 417.771C529.24 417.771 528.836 417.858 528.49 418.031C528.143 418.2 527.876 418.441 527.687 418.755C527.497 419.065 527.405 419.429 527.409 419.848C527.405 420.275 527.499 420.647 527.693 420.965C527.89 421.283 528.162 421.53 528.508 421.707C528.854 421.884 529.252 421.973 529.703 421.973Z" fill="black"/>
<circle cx="458.023" cy="488.491" r="19.9143" fill="#FFD700" stroke="black" stroke-width="2"/>
<path d="M449.666 495L455.196 484.061V483.964H448.821V482.636H456.741V484.037L451.236 495H449.666ZM462.762 482.467C463.269 482.471 463.776 482.568 464.283 482.757C464.79 482.946 465.253 483.26 465.672 483.699C466.09 484.134 466.426 484.727 466.68 485.48C466.933 486.232 467.06 487.176 467.06 488.311C467.06 489.41 466.955 490.386 466.746 491.239C466.541 492.088 466.243 492.805 465.853 493.388C465.466 493.972 464.995 494.414 464.44 494.716C463.889 495.018 463.265 495.169 462.569 495.169C461.876 495.169 461.259 495.032 460.715 494.759C460.176 494.481 459.733 494.096 459.387 493.605C459.045 493.11 458.826 492.537 458.729 491.885H460.202C460.335 492.452 460.599 492.921 460.993 493.292C461.391 493.658 461.917 493.841 462.569 493.841C463.522 493.841 464.275 493.424 464.826 492.591C465.382 491.758 465.66 490.581 465.66 489.06H465.563C465.338 489.398 465.07 489.69 464.76 489.935C464.45 490.181 464.106 490.37 463.728 490.502C463.349 490.635 462.947 490.702 462.52 490.702C461.812 490.702 461.162 490.527 460.57 490.176C459.983 489.822 459.512 489.337 459.158 488.722C458.808 488.102 458.633 487.393 458.633 486.597C458.633 485.84 458.802 485.148 459.14 484.52C459.482 483.888 459.961 483.385 460.576 483.011C461.196 482.636 461.925 482.455 462.762 482.467ZM462.762 483.795C462.255 483.795 461.798 483.922 461.391 484.176C460.989 484.425 460.669 484.763 460.432 485.19C460.198 485.613 460.081 486.081 460.081 486.597C460.081 487.112 460.194 487.581 460.419 488.003C460.649 488.422 460.961 488.756 461.355 489.005C461.754 489.251 462.206 489.374 462.714 489.374C463.096 489.374 463.452 489.299 463.782 489.15C464.112 488.997 464.4 488.79 464.645 488.528C464.895 488.263 465.09 487.963 465.231 487.629C465.372 487.291 465.442 486.939 465.442 486.572C465.442 486.089 465.325 485.637 465.092 485.214C464.863 484.792 464.545 484.449 464.138 484.188C463.736 483.926 463.277 483.795 462.762 483.795Z" fill="black"/>
<circle cx="524.949" cy="488.491" r="19.9143" fill="#FFD700" stroke="black" stroke-width="2"/>
<path d="M520.24 495.169C519.411 495.169 518.679 495.022 518.043 494.728C517.411 494.431 516.918 494.022 516.564 493.503C516.209 492.98 516.034 492.384 516.038 491.716C516.034 491.193 516.137 490.71 516.346 490.267C516.556 489.82 516.841 489.448 517.203 489.15C517.57 488.848 517.978 488.657 518.429 488.577V488.504C517.837 488.351 517.366 488.019 517.016 487.508C516.666 486.993 516.493 486.407 516.497 485.751C516.493 485.124 516.652 484.562 516.974 484.067C517.296 483.572 517.739 483.182 518.302 482.896C518.87 482.61 519.516 482.467 520.24 482.467C520.956 482.467 521.596 482.61 522.16 482.896C522.723 483.182 523.166 483.572 523.488 484.067C523.814 484.562 523.979 485.124 523.983 485.751C523.979 486.407 523.8 486.993 523.446 487.508C523.096 488.019 522.631 488.351 522.051 488.504V488.577C522.498 488.657 522.9 488.848 523.259 489.15C523.617 489.448 523.902 489.82 524.116 490.267C524.329 490.71 524.438 491.193 524.442 491.716C524.438 492.384 524.257 492.98 523.898 493.503C523.544 494.022 523.051 494.431 522.419 494.728C521.792 495.022 521.065 495.169 520.24 495.169ZM520.24 493.841C520.799 493.841 521.282 493.75 521.689 493.569C522.095 493.388 522.409 493.133 522.631 492.803C522.852 492.473 522.965 492.086 522.969 491.643C522.965 491.177 522.844 490.764 522.607 490.406C522.369 490.048 522.045 489.766 521.635 489.561C521.228 489.355 520.763 489.253 520.24 489.253C519.713 489.253 519.242 489.355 518.827 489.561C518.417 489.766 518.093 490.048 517.855 490.406C517.622 490.764 517.507 491.177 517.511 491.643C517.507 492.086 517.614 492.473 517.831 492.803C518.053 493.133 518.369 493.388 518.779 493.569C519.19 493.75 519.677 493.841 520.24 493.841ZM520.24 487.973C520.683 487.973 521.075 487.884 521.417 487.707C521.763 487.53 522.035 487.283 522.232 486.965C522.429 486.647 522.53 486.275 522.534 485.848C522.53 485.429 522.431 485.065 522.238 484.755C522.045 484.441 521.777 484.2 521.435 484.031C521.093 483.858 520.695 483.771 520.24 483.771C519.777 483.771 519.373 483.858 519.027 484.031C518.681 484.2 518.413 484.441 518.224 484.755C518.035 485.065 517.942 485.429 517.946 485.848C517.942 486.275 518.037 486.647 518.23 486.965C518.427 487.283 518.699 487.53 519.045 487.707C519.391 487.884 519.789 487.973 520.24 487.973ZM530.788 495.169C529.879 495.169 529.104 494.922 528.464 494.426C527.824 493.927 527.335 493.205 526.997 492.259C526.659 491.309 526.49 490.162 526.49 488.818C526.49 487.482 526.659 486.341 526.997 485.395C527.339 484.445 527.83 483.721 528.47 483.222C529.114 482.719 529.887 482.467 530.788 482.467C531.69 482.467 532.46 482.719 533.1 483.222C533.744 483.721 534.235 484.445 534.573 485.395C534.915 486.341 535.086 487.482 535.086 488.818C535.086 490.162 534.917 491.309 534.579 492.259C534.241 493.205 533.752 493.927 533.112 494.426C532.472 494.922 531.698 495.169 530.788 495.169ZM530.788 493.841C531.69 493.841 532.39 493.406 532.889 492.537C533.388 491.668 533.638 490.428 533.638 488.818C533.638 487.748 533.523 486.836 533.293 486.083C533.068 485.331 532.742 484.757 532.315 484.363C531.893 483.969 531.384 483.771 530.788 483.771C529.895 483.771 529.196 484.212 528.693 485.093C528.19 485.971 527.939 487.212 527.939 488.818C527.939 489.889 528.051 490.798 528.277 491.547C528.502 492.295 528.826 492.865 529.249 493.255C529.675 493.646 530.188 493.841 530.788 493.841Z" fill="black"/>
<circle cx="458.023" cy="555.417" r="19.9143" fill="#FFD700" stroke="black" stroke-width="2"/>
<path d="M454.24 562.169C453.411 562.169 452.678 562.022 452.042 561.728C451.411 561.431 450.918 561.022 450.563 560.503C450.209 559.98 450.034 559.384 450.038 558.716C450.034 558.193 450.137 557.71 450.346 557.267C450.555 556.82 450.841 556.448 451.203 556.15C451.57 555.848 451.978 555.657 452.429 555.577V555.504C451.837 555.351 451.366 555.019 451.016 554.508C450.666 553.993 450.493 553.407 450.497 552.751C450.493 552.124 450.652 551.562 450.974 551.067C451.296 550.572 451.739 550.182 452.302 549.896C452.87 549.61 453.516 549.467 454.24 549.467C454.956 549.467 455.596 549.61 456.16 549.896C456.723 550.182 457.166 550.572 457.488 551.067C457.814 551.562 457.979 552.124 457.983 552.751C457.979 553.407 457.8 553.993 457.446 554.508C457.095 555.019 456.631 555.351 456.051 555.504V555.577C456.498 555.657 456.9 555.848 457.258 556.15C457.617 556.448 457.902 556.82 458.116 557.267C458.329 557.71 458.438 558.193 458.442 558.716C458.438 559.384 458.257 559.98 457.898 560.503C457.544 561.022 457.051 561.431 456.419 561.728C455.791 562.022 455.065 562.169 454.24 562.169ZM454.24 560.841C454.799 560.841 455.282 560.75 455.689 560.569C456.095 560.388 456.409 560.133 456.631 559.803C456.852 559.473 456.965 559.086 456.969 558.643C456.965 558.177 456.844 557.764 456.606 557.406C456.369 557.048 456.045 556.766 455.634 556.561C455.228 556.355 454.763 556.253 454.24 556.253C453.713 556.253 453.242 556.355 452.827 556.561C452.417 556.766 452.093 557.048 451.855 557.406C451.622 557.764 451.507 558.177 451.511 558.643C451.507 559.086 451.614 559.473 451.831 559.803C452.053 560.133 452.368 560.388 452.779 560.569C453.19 560.75 453.676 560.841 454.24 560.841ZM454.24 554.973C454.683 554.973 455.075 554.884 455.417 554.707C455.763 554.53 456.035 554.283 456.232 553.965C456.429 553.647 456.53 553.275 456.534 552.848C456.53 552.429 456.431 552.065 456.238 551.755C456.045 551.441 455.777 551.2 455.435 551.031C455.093 550.858 454.695 550.771 454.24 550.771C453.777 550.771 453.373 550.858 453.027 551.031C452.68 551.2 452.413 551.441 452.224 551.755C452.034 552.065 451.942 552.429 451.946 552.848C451.942 553.275 452.036 553.647 452.23 553.965C452.427 554.283 452.699 554.53 453.045 554.707C453.391 554.884 453.789 554.973 454.24 554.973ZM465.102 549.636V562H463.605V551.206H463.532L460.514 553.21V551.689L463.605 549.636H465.102Z" fill="black"/>
<circle cx="524.949" cy="555.417" r="19.9143" fill="#FFD700" stroke="black" stroke-width="2"/>
<path d="M520.24 562.169C519.411 562.169 518.679 562.022 518.043 561.728C517.411 561.431 516.918 561.022 516.564 560.503C516.209 559.98 516.034 559.384 516.038 558.716C516.034 558.193 516.137 557.71 516.346 557.267C516.556 556.82 516.841 556.448 517.203 556.15C517.57 555.848 517.978 555.657 518.429 555.577V555.504C517.837 555.351 517.366 555.019 517.016 554.508C516.666 553.993 516.493 553.407 516.497 552.751C516.493 552.124 516.652 551.562 516.974 551.067C517.296 550.572 517.739 550.182 518.302 549.896C518.87 549.61 519.516 549.467 520.24 549.467C520.956 549.467 521.596 549.61 522.16 549.896C522.723 550.182 523.166 550.572 523.488 551.067C523.814 551.562 523.979 552.124 523.983 552.751C523.979 553.407 523.8 553.993 523.446 554.508C523.096 555.019 522.631 555.351 522.051 555.504V555.577C522.498 555.657 522.9 555.848 523.259 556.15C523.617 556.448 523.902 556.82 524.116 557.267C524.329 557.71 524.438 558.193 524.442 558.716C524.438 559.384 524.257 559.98 523.898 560.503C523.544 561.022 523.051 561.431 522.419 561.728C521.792 562.022 521.065 562.169 520.24 562.169ZM520.24 560.841C520.799 560.841 521.282 560.75 521.689 560.569C522.095 560.388 522.409 560.133 522.631 559.803C522.852 559.473 522.965 559.086 522.969 558.643C522.965 558.177 522.844 557.764 522.607 557.406C522.369 557.048 522.045 556.766 521.635 556.561C521.228 556.355 520.763 556.253 520.24 556.253C519.713 556.253 519.242 556.355 518.827 556.561C518.417 556.766 518.093 557.048 517.855 557.406C517.622 557.764 517.507 558.177 517.511 558.643C517.507 559.086 517.614 559.473 517.831 559.803C518.053 560.133 518.369 560.388 518.779 560.569C519.19 560.75 519.677 560.841 520.24 560.841ZM520.24 554.973C520.683 554.973 521.075 554.884 521.417 554.707C521.763 554.53 522.035 554.283 522.232 553.965C522.429 553.647 522.53 553.275 522.534 552.848C522.53 552.429 522.431 552.065 522.238 551.755C522.045 551.441 521.777 551.2 521.435 551.031C521.093 550.858 520.695 550.771 520.24 550.771C519.777 550.771 519.373 550.858 519.027 551.031C518.681 551.2 518.413 551.441 518.224 551.755C518.035 552.065 517.942 552.429 517.946 552.848C517.942 553.275 518.037 553.647 518.23 553.965C518.427 554.283 518.699 554.53 519.045 554.707C519.391 554.884 519.789 554.973 520.24 554.973ZM526.755 562V560.913L530.836 556.446C531.315 555.923 531.71 555.468 532.02 555.082C532.33 554.691 532.559 554.325 532.708 553.983C532.861 553.637 532.937 553.275 532.937 552.896C532.937 552.462 532.833 552.085 532.623 551.767C532.418 551.449 532.136 551.204 531.778 551.031C531.42 550.858 531.017 550.771 530.571 550.771C530.096 550.771 529.681 550.87 529.327 551.067C528.977 551.26 528.705 551.532 528.512 551.882C528.323 552.232 528.228 552.643 528.228 553.114H526.804C526.804 552.389 526.971 551.753 527.305 551.206C527.639 550.659 528.094 550.232 528.669 549.926C529.249 549.62 529.899 549.467 530.619 549.467C531.343 549.467 531.985 549.62 532.545 549.926C533.104 550.232 533.543 550.645 533.861 551.164C534.179 551.683 534.338 552.26 534.338 552.896C534.338 553.351 534.255 553.796 534.09 554.23C533.929 554.661 533.648 555.142 533.245 555.673C532.847 556.201 532.293 556.844 531.585 557.605L528.808 560.575V560.672H534.555V562H526.755Z" fill="black"/>
<path d="M88.1037 1V476H4.51819" stroke="black" stroke-width="2"/>
<path d="M77.9572 540.777H0" stroke="black" stroke-width="2"/>
<path d="M6.77722 614.292H79.1711V870H1526V1H79.1711" stroke="black" stroke-width="2"/>
<g filter="url(#filter0_d_1893_1452)">
<rect x="669.257" y="122.491" width="253.063" height="242.606" fill="#D9D9D9"/>
<rect x="669.757" y="122.991" width="252.063" height="241.606" stroke="black"/>
</g>
<path d="M1016.43 22.1028V391.24H1031.07V22.1028H1016.43Z" stroke="black" stroke-width="2"/>
<path d="M1016.43 391.24H602.332V406.926H1016.43V391.24Z" stroke="black" stroke-width="2"/>
<path d="M601.286 15.8286V391.24H585.6V15.8286H601.286Z" stroke="black" stroke-width="2"/>
<path d="M995.52 249.023H924.411V244.84V196.737L995.52 200.92V249.023Z" fill="#D9D9D9"/>
<path d="M924.411 244.84L995.52 249.023M995.52 249.023H924.411V196.737L995.52 200.92V249.023Z" stroke="#BFBFBF" stroke-width="2"/>
<path d="M715.578 257V220.636H729.925C732.683 220.636 735.033 221.163 736.974 222.217C738.915 223.258 740.395 224.708 741.413 226.567C742.443 228.413 742.958 230.544 742.958 232.959C742.958 235.374 742.437 237.504 741.395 239.351C740.354 241.197 738.844 242.636 736.868 243.665C734.903 244.695 732.523 245.21 729.73 245.21H720.586V239.049H728.487C729.967 239.049 731.186 238.795 732.145 238.286C733.115 237.765 733.837 237.049 734.311 236.137C734.796 235.214 735.039 234.154 735.039 232.959C735.039 231.751 734.796 230.698 734.311 229.798C733.837 228.887 733.115 228.183 732.145 227.685C731.174 227.176 729.943 226.922 728.451 226.922H723.267V257H715.578ZM750.02 257H741.781L754.335 220.636H764.242L776.778 257H768.539L759.431 228.946H759.146L750.02 257ZM749.505 242.707H768.965V248.708H749.505V242.707ZM781.155 257V220.636H788.843V250.661H804.432V257H781.155ZM840.192 233.367H832.415C832.273 232.361 831.983 231.467 831.545 230.686C831.107 229.893 830.545 229.218 829.858 228.662C829.172 228.106 828.379 227.679 827.479 227.384C826.591 227.088 825.627 226.94 824.585 226.94C822.703 226.94 821.064 227.407 819.667 228.342C818.27 229.266 817.187 230.615 816.417 232.391C815.648 234.154 815.263 236.297 815.263 238.818C815.263 241.411 815.648 243.589 816.417 245.352C817.199 247.116 818.288 248.448 819.684 249.347C821.081 250.247 822.697 250.697 824.532 250.697C825.562 250.697 826.515 250.561 827.39 250.288C828.278 250.016 829.065 249.62 829.752 249.099C830.439 248.566 831.007 247.921 831.456 247.163C831.918 246.406 832.238 245.542 832.415 244.571L840.192 244.607C839.991 246.276 839.488 247.885 838.683 249.436C837.89 250.975 836.819 252.354 835.469 253.573C834.132 254.781 832.534 255.739 830.675 256.45C828.829 257.148 826.739 257.497 824.407 257.497C821.164 257.497 818.264 256.763 815.707 255.295C813.162 253.828 811.15 251.703 809.67 248.921C808.202 246.139 807.469 242.772 807.469 238.818C807.469 234.853 808.214 231.479 809.706 228.697C811.197 225.916 813.221 223.797 815.778 222.341C818.335 220.873 821.211 220.139 824.407 220.139C826.515 220.139 828.468 220.435 830.267 221.027C832.078 221.619 833.682 222.483 835.079 223.619C836.475 224.744 837.612 226.123 838.488 227.756C839.376 229.39 839.944 231.26 840.192 233.367ZM879.122 238.818C879.122 242.784 878.37 246.157 876.867 248.939C875.375 251.721 873.339 253.845 870.759 255.313C868.19 256.769 865.302 257.497 862.094 257.497C858.862 257.497 855.962 256.763 853.394 255.295C850.825 253.828 848.795 251.703 847.303 248.921C845.812 246.139 845.066 242.772 845.066 238.818C845.066 234.853 845.812 231.479 847.303 228.697C848.795 225.916 850.825 223.797 853.394 222.341C855.962 220.873 858.862 220.139 862.094 220.139C865.302 220.139 868.19 220.873 870.759 222.341C873.339 223.797 875.375 225.916 876.867 228.697C878.37 231.479 879.122 234.853 879.122 238.818ZM871.327 238.818C871.327 236.25 870.942 234.083 870.173 232.32C869.415 230.556 868.344 229.218 866.959 228.307C865.574 227.395 863.952 226.94 862.094 226.94C860.235 226.94 858.614 227.395 857.229 228.307C855.844 229.218 854.767 230.556 853.997 232.32C853.24 234.083 852.861 236.25 852.861 238.818C852.861 241.387 853.24 243.553 853.997 245.317C854.767 247.08 855.844 248.418 857.229 249.33C858.614 250.241 860.235 250.697 862.094 250.697C863.952 250.697 865.574 250.241 866.959 249.33C868.344 248.418 869.415 247.08 870.173 245.317C870.942 243.553 871.327 241.387 871.327 238.818Z" fill="black"/>
<path d="M257.224 913.182C257.053 911.742 256.362 910.625 255.15 909.83C253.938 909.034 252.451 908.636 250.69 908.636C249.402 908.636 248.275 908.845 247.309 909.261C246.353 909.678 245.605 910.251 245.065 910.98C244.534 911.709 244.269 912.538 244.269 913.466C244.269 914.242 244.454 914.91 244.823 915.469C245.202 916.018 245.685 916.477 246.272 916.847C246.859 917.206 247.475 917.505 248.119 917.741C248.763 917.969 249.355 918.153 249.894 918.295L252.849 919.091C253.606 919.29 254.449 919.564 255.377 919.915C256.315 920.265 257.21 920.743 258.062 921.349C258.924 921.946 259.634 922.713 260.193 923.651C260.751 924.588 261.031 925.739 261.031 927.102C261.031 928.674 260.619 930.095 259.795 931.364C258.98 932.633 257.787 933.641 256.215 934.389C254.653 935.137 252.754 935.511 250.519 935.511C248.436 935.511 246.632 935.175 245.107 934.503C243.592 933.83 242.399 932.893 241.528 931.69C240.666 930.488 240.178 929.091 240.065 927.5H243.701C243.796 928.598 244.165 929.508 244.809 930.227C245.462 930.937 246.286 931.468 247.281 931.818C248.284 932.159 249.364 932.33 250.519 932.33C251.864 932.33 253.071 932.112 254.141 931.676C255.212 931.231 256.059 930.616 256.684 929.83C257.309 929.034 257.622 928.106 257.622 927.045C257.622 926.08 257.352 925.294 256.812 924.688C256.272 924.081 255.562 923.589 254.681 923.21C253.801 922.831 252.849 922.5 251.826 922.216L248.247 921.193C245.974 920.54 244.175 919.607 242.849 918.395C241.523 917.183 240.86 915.597 240.86 913.636C240.86 912.008 241.301 910.587 242.181 909.375C243.071 908.153 244.265 907.206 245.761 906.534C247.266 905.852 248.947 905.511 250.803 905.511C252.678 905.511 254.345 905.848 255.803 906.52C257.262 907.183 258.417 908.092 259.269 909.247C260.131 910.402 260.586 911.714 260.633 913.182H257.224ZM266.823 935V905.909H284.379V909.034H270.345V918.864H283.47V921.989H270.345V931.875H284.607V935H266.823ZM289.138 909.034V905.909H310.956V909.034H301.808V935H298.286V909.034H289.138ZM339.727 920.455C339.727 923.523 339.173 926.174 338.065 928.409C336.958 930.644 335.438 932.367 333.506 933.58C331.574 934.792 329.368 935.398 326.886 935.398C324.405 935.398 322.199 934.792 320.267 933.58C318.335 932.367 316.815 930.644 315.708 928.409C314.6 926.174 314.046 923.523 314.046 920.455C314.046 917.386 314.6 914.735 315.708 912.5C316.815 910.265 318.335 908.542 320.267 907.33C322.199 906.117 324.405 905.511 326.886 905.511C329.368 905.511 331.574 906.117 333.506 907.33C335.438 908.542 336.958 910.265 338.065 912.5C339.173 914.735 339.727 917.386 339.727 920.455ZM336.318 920.455C336.318 917.936 335.897 915.81 335.054 914.077C334.221 912.344 333.089 911.032 331.659 910.142C330.239 909.252 328.648 908.807 326.886 908.807C325.125 908.807 323.529 909.252 322.1 910.142C320.679 911.032 319.547 912.344 318.705 914.077C317.871 915.81 317.455 917.936 317.455 920.455C317.455 922.973 317.871 925.099 318.705 926.832C319.547 928.565 320.679 929.877 322.1 930.767C323.529 931.657 325.125 932.102 326.886 932.102C328.648 932.102 330.239 931.657 331.659 930.767C333.089 929.877 334.221 928.565 335.054 926.832C335.897 925.099 336.318 922.973 336.318 920.455ZM345.651 935V905.909H355.48C357.753 905.909 359.619 906.297 361.077 907.074C362.535 907.841 363.615 908.897 364.315 910.241C365.016 911.586 365.367 913.116 365.367 914.83C365.367 916.544 365.016 918.063 364.315 919.389C363.615 920.715 362.54 921.757 361.091 922.514C359.642 923.262 357.791 923.636 355.537 923.636H347.583V920.455H355.423C356.976 920.455 358.226 920.227 359.173 919.773C360.13 919.318 360.821 918.674 361.247 917.841C361.683 916.998 361.901 915.994 361.901 914.83C361.901 913.665 361.683 912.647 361.247 911.776C360.812 910.904 360.116 910.232 359.159 909.759C358.203 909.276 356.939 909.034 355.367 909.034H349.173V935H345.651ZM359.344 921.932L366.503 935H362.412L355.367 921.932H359.344ZM384.514 935H377.923L387.966 905.909H395.892L405.921 935H399.33L392.043 912.557H391.815L384.514 935ZM384.102 923.565H399.671V928.366H384.102V923.565Z" fill="black"/>
<path d="M731.871 905.182C731.7 903.742 731.009 902.625 729.797 901.83C728.585 901.034 727.098 900.636 725.337 900.636C724.049 900.636 722.922 900.845 721.956 901.261C720.999 901.678 720.251 902.251 719.712 902.98C719.181 903.709 718.916 904.538 718.916 905.466C718.916 906.242 719.101 906.91 719.47 907.469C719.849 908.018 720.332 908.477 720.919 908.847C721.506 909.206 722.122 909.505 722.766 909.741C723.41 909.969 724.001 910.153 724.541 910.295L727.496 911.091C728.253 911.29 729.096 911.564 730.024 911.915C730.962 912.265 731.857 912.743 732.709 913.349C733.571 913.946 734.281 914.713 734.839 915.651C735.398 916.588 735.678 917.739 735.678 919.102C735.678 920.674 735.266 922.095 734.442 923.364C733.627 924.633 732.434 925.641 730.862 926.389C729.3 927.137 727.401 927.511 725.166 927.511C723.083 927.511 721.279 927.175 719.754 926.503C718.239 925.83 717.046 924.893 716.175 923.69C715.313 922.488 714.825 921.091 714.712 919.5H718.348C718.443 920.598 718.812 921.508 719.456 922.227C720.109 922.937 720.933 923.468 721.928 923.818C722.931 924.159 724.011 924.33 725.166 924.33C726.511 924.33 727.718 924.112 728.788 923.676C729.858 923.231 730.706 922.616 731.331 921.83C731.956 921.034 732.268 920.106 732.268 919.045C732.268 918.08 731.999 917.294 731.459 916.688C730.919 916.081 730.209 915.589 729.328 915.21C728.447 914.831 727.496 914.5 726.473 914.216L722.893 913.193C720.621 912.54 718.821 911.607 717.496 910.395C716.17 909.183 715.507 907.597 715.507 905.636C715.507 904.008 715.947 902.587 716.828 901.375C717.718 900.153 718.911 899.206 720.408 898.534C721.913 897.852 723.594 897.511 725.45 897.511C727.325 897.511 728.992 897.848 730.45 898.52C731.909 899.183 733.064 900.092 733.916 901.247C734.778 902.402 735.232 903.714 735.28 905.182H731.871ZM741.469 927V897.909H759.026V901.034H744.992V910.864H758.117V913.989H744.992V923.875H759.254V927H741.469ZM763.785 901.034V897.909H785.603V901.034H776.455V927H772.932V901.034H763.785ZM814.374 912.455C814.374 915.523 813.82 918.174 812.712 920.409C811.604 922.644 810.084 924.367 808.153 925.58C806.221 926.792 804.014 927.398 801.533 927.398C799.052 927.398 796.846 926.792 794.914 925.58C792.982 924.367 791.462 922.644 790.354 920.409C789.246 918.174 788.692 915.523 788.692 912.455C788.692 909.386 789.246 906.735 790.354 904.5C791.462 902.265 792.982 900.542 794.914 899.33C796.846 898.117 799.052 897.511 801.533 897.511C804.014 897.511 806.221 898.117 808.153 899.33C810.084 900.542 811.604 902.265 812.712 904.5C813.82 906.735 814.374 909.386 814.374 912.455ZM810.965 912.455C810.965 909.936 810.544 907.81 809.701 906.077C808.868 904.344 807.736 903.032 806.306 902.142C804.886 901.252 803.295 900.807 801.533 900.807C799.772 900.807 798.176 901.252 796.746 902.142C795.326 903.032 794.194 904.344 793.352 906.077C792.518 907.81 792.102 909.936 792.102 912.455C792.102 914.973 792.518 917.099 793.352 918.832C794.194 920.565 795.326 921.877 796.746 922.767C798.176 923.657 799.772 924.102 801.533 924.102C803.295 924.102 804.886 923.657 806.306 922.767C807.736 921.877 808.868 920.565 809.701 918.832C810.544 917.099 810.965 914.973 810.965 912.455ZM820.298 927V897.909H830.127C832.4 897.909 834.265 898.297 835.724 899.074C837.182 899.841 838.262 900.897 838.962 902.241C839.663 903.586 840.013 905.116 840.013 906.83C840.013 908.544 839.663 910.063 838.962 911.389C838.262 912.715 837.187 913.757 835.738 914.514C834.289 915.262 832.438 915.636 830.184 915.636H822.229V912.455H830.07C831.623 912.455 832.873 912.227 833.82 911.773C834.777 911.318 835.468 910.674 835.894 909.841C836.33 908.998 836.548 907.994 836.548 906.83C836.548 905.665 836.33 904.647 835.894 903.776C835.459 902.904 834.763 902.232 833.806 901.759C832.85 901.276 831.585 901.034 830.013 901.034H823.82V927H820.298ZM833.991 913.932L841.15 927H837.059L830.013 913.932H833.991ZM854.147 927V897.909H865.795C867.935 897.909 869.72 898.226 871.15 898.861C872.58 899.495 873.655 900.376 874.374 901.503C875.094 902.62 875.454 903.908 875.454 905.366C875.454 906.503 875.227 907.502 874.772 908.364C874.317 909.216 873.692 909.917 872.897 910.466C872.111 911.006 871.211 911.389 870.198 911.616V911.901C871.306 911.948 872.343 912.26 873.309 912.838C874.284 913.416 875.075 914.225 875.681 915.267C876.287 916.299 876.59 917.53 876.59 918.96C876.59 920.504 876.207 921.882 875.44 923.094C874.682 924.296 873.56 925.248 872.073 925.949C870.586 926.65 868.754 927 866.576 927H854.147ZM860.298 921.972H865.312C867.026 921.972 868.276 921.645 869.062 920.991C869.848 920.329 870.241 919.448 870.241 918.349C870.241 917.545 870.047 916.834 869.658 916.219C869.27 915.603 868.716 915.12 867.996 914.77C867.286 914.42 866.439 914.244 865.454 914.244H860.298V921.972ZM860.298 910.082H864.857C865.7 910.082 866.448 909.936 867.102 909.642C867.764 909.339 868.285 908.913 868.664 908.364C869.052 907.814 869.246 907.156 869.246 906.389C869.246 905.338 868.872 904.491 868.124 903.847C867.386 903.203 866.334 902.881 864.971 902.881H860.298V910.082Z" fill="black"/>
<path d="M1218.15 902.182C1217.98 900.742 1217.28 899.625 1216.07 898.83C1214.86 898.034 1213.37 897.636 1211.61 897.636C1210.32 897.636 1209.2 897.845 1208.23 898.261C1207.27 898.678 1206.53 899.251 1205.99 899.98C1205.46 900.709 1205.19 901.538 1205.19 902.466C1205.19 903.242 1205.38 903.91 1205.75 904.469C1206.12 905.018 1206.61 905.477 1207.19 905.847C1207.78 906.206 1208.4 906.505 1209.04 906.741C1209.68 906.969 1210.28 907.153 1210.82 907.295L1213.77 908.091C1214.53 908.29 1215.37 908.564 1216.3 908.915C1217.24 909.265 1218.13 909.743 1218.98 910.349C1219.85 910.946 1220.56 911.713 1221.11 912.651C1221.67 913.588 1221.95 914.739 1221.95 916.102C1221.95 917.674 1221.54 919.095 1220.72 920.364C1219.9 921.633 1218.71 922.641 1217.14 923.389C1215.57 924.137 1213.68 924.511 1211.44 924.511C1209.36 924.511 1207.55 924.175 1206.03 923.503C1204.51 922.83 1203.32 921.893 1202.45 920.69C1201.59 919.488 1201.1 918.091 1200.99 916.5H1204.62C1204.72 917.598 1205.09 918.508 1205.73 919.227C1206.38 919.937 1207.21 920.468 1208.2 920.818C1209.21 921.159 1210.29 921.33 1211.44 921.33C1212.79 921.33 1213.99 921.112 1215.06 920.676C1216.13 920.231 1216.98 919.616 1217.61 918.83C1218.23 918.034 1218.54 917.106 1218.54 916.045C1218.54 915.08 1218.27 914.294 1217.73 913.688C1217.19 913.081 1216.48 912.589 1215.6 912.21C1214.72 911.831 1213.77 911.5 1212.75 911.216L1209.17 910.193C1206.9 909.54 1205.1 908.607 1203.77 907.395C1202.44 906.183 1201.78 904.597 1201.78 902.636C1201.78 901.008 1202.22 899.587 1203.1 898.375C1203.99 897.153 1205.19 896.206 1206.68 895.534C1208.19 894.852 1209.87 894.511 1211.73 894.511C1213.6 894.511 1215.27 894.848 1216.73 895.52C1218.18 896.183 1219.34 897.092 1220.19 898.247C1221.05 899.402 1221.51 900.714 1221.55 902.182H1218.15ZM1227.74 924V894.909H1245.3V898.034H1231.27V907.864H1244.39V910.989H1231.27V920.875H1245.53V924H1227.74ZM1250.06 898.034V894.909H1271.88V898.034H1262.73V924H1259.21V898.034H1250.06ZM1300.65 909.455C1300.65 912.523 1300.1 915.174 1298.99 917.409C1297.88 919.644 1296.36 921.367 1294.43 922.58C1292.5 923.792 1290.29 924.398 1287.81 924.398C1285.33 924.398 1283.12 923.792 1281.19 922.58C1279.26 921.367 1277.74 919.644 1276.63 917.409C1275.52 915.174 1274.97 912.523 1274.97 909.455C1274.97 906.386 1275.52 903.735 1276.63 901.5C1277.74 899.265 1279.26 897.542 1281.19 896.33C1283.12 895.117 1285.33 894.511 1287.81 894.511C1290.29 894.511 1292.5 895.117 1294.43 896.33C1296.36 897.542 1297.88 899.265 1298.99 901.5C1300.1 903.735 1300.65 906.386 1300.65 909.455ZM1297.24 909.455C1297.24 906.936 1296.82 904.81 1295.98 903.077C1295.14 901.344 1294.01 900.032 1292.58 899.142C1291.16 898.252 1289.57 897.807 1287.81 897.807C1286.05 897.807 1284.45 898.252 1283.02 899.142C1281.6 900.032 1280.47 901.344 1279.63 903.077C1278.79 904.81 1278.38 906.936 1278.38 909.455C1278.38 911.973 1278.79 914.099 1279.63 915.832C1280.47 917.565 1281.6 918.877 1283.02 919.767C1284.45 920.657 1286.05 921.102 1287.81 921.102C1289.57 921.102 1291.16 920.657 1292.58 919.767C1294.01 918.877 1295.14 917.565 1295.98 915.832C1296.82 914.099 1297.24 911.973 1297.24 909.455ZM1306.57 924V894.909H1316.4C1318.67 894.909 1320.54 895.297 1322 896.074C1323.46 896.841 1324.54 897.897 1325.24 899.241C1325.94 900.586 1326.29 902.116 1326.29 903.83C1326.29 905.544 1325.94 907.063 1325.24 908.389C1324.54 909.715 1323.46 910.757 1322.01 911.514C1320.56 912.262 1318.71 912.636 1316.46 912.636H1308.5V909.455H1316.35C1317.9 909.455 1319.15 909.227 1320.1 908.773C1321.05 908.318 1321.74 907.674 1322.17 906.841C1322.6 905.998 1322.82 904.994 1322.82 903.83C1322.82 902.665 1322.6 901.647 1322.17 900.776C1321.73 899.904 1321.04 899.232 1320.08 898.759C1319.12 898.276 1317.86 898.034 1316.29 898.034H1310.1V924H1306.57ZM1320.27 910.932L1327.42 924H1323.33L1316.29 910.932H1320.27ZM1366.09 905.094H1359.87C1359.75 904.289 1359.52 903.574 1359.17 902.949C1358.82 902.314 1358.37 901.775 1357.82 901.33C1357.27 900.884 1356.64 900.544 1355.92 900.307C1355.21 900.07 1354.44 899.952 1353.6 899.952C1352.1 899.952 1350.79 900.326 1349.67 901.074C1348.55 901.812 1347.69 902.892 1347.07 904.312C1346.45 905.723 1346.15 907.437 1346.15 909.455C1346.15 911.528 1346.45 913.271 1347.07 914.682C1347.69 916.093 1348.57 917.158 1349.68 917.878C1350.8 918.598 1352.09 918.957 1353.56 918.957C1354.39 918.957 1355.15 918.848 1355.85 918.631C1356.56 918.413 1357.19 918.096 1357.74 917.679C1358.29 917.253 1358.74 916.737 1359.1 916.131C1359.47 915.525 1359.73 914.833 1359.87 914.057L1366.09 914.085C1365.93 915.42 1365.53 916.708 1364.88 917.949C1364.25 919.18 1363.39 920.283 1362.31 921.259C1361.24 922.224 1359.96 922.991 1358.48 923.56C1357 924.118 1355.33 924.398 1353.46 924.398C1350.87 924.398 1348.55 923.811 1346.5 922.636C1344.47 921.462 1342.86 919.762 1341.67 917.537C1340.5 915.312 1339.91 912.617 1339.91 909.455C1339.91 906.282 1340.51 903.583 1341.7 901.358C1342.89 899.133 1344.51 897.437 1346.56 896.273C1348.6 895.098 1350.9 894.511 1353.46 894.511C1355.15 894.511 1356.71 894.748 1358.15 895.222C1359.6 895.695 1360.88 896.386 1362 897.295C1363.12 898.195 1364.03 899.298 1364.73 900.605C1365.44 901.912 1365.89 903.408 1366.09 905.094Z" fill="black"/>
<defs>
<filter id="filter0_d_1893_1452" x="669.257" y="122.491" width="257.063" height="246.606" filterUnits="userSpaceOnUse" color-interpolation-filters="sRGB">
<feFlood flood-opacity="0" result="BackgroundImageFix"/>
<feColorMatrix in="SourceAlpha" type="matrix" values="0 0 0 0 0 0 0 0 0 0 0 0 0 0 0 0 0 0 127 0" result="hardAlpha"/>
<feOffset dx="4" dy="4"/>
<feComposite in2="hardAlpha" operator="out"/>
<feColorMatrix type="matrix" values="0 0 0 0 0 0 0 0 0 0 0 0 0 0 0 0 0 0 0.25 0"/>
<feBlend mode="normal" in2="BackgroundImageFix" result="effect1_dropShadow_1893_1452"/>
<feBlend mode="normal" in="SourceGraphic" in2="effect1_dropShadow_1893_1452" result="shape"/>
</filter>
</defs>
</svg>
