<svg width="518" height="403" viewBox="0 0 518 403" fill="none" xmlns="http://www.w3.org/2000/svg">
<rect x="5" y="5" width="508" height="306" fill="#E4E1D9" stroke="#42494B" stroke-width="10"/>
<mask id="path-2-inside-1_1756_1584" fill="white">
<path d="M455 10H509V306H455V10Z"/>
</mask>
<path d="M455 10H509V306H455V10Z" fill="#D9D9D9"/>
<path d="M458 306V10H452V306H458Z" fill="#434A4A" mask="url(#path-2-inside-1_1756_1584)"/>
<rect x="10" y="10" width="50" height="296" fill="#D9D9D9"/>
<rect x="156" y="110" width="204" height="84" fill="#D4AB74"/>
<path d="M429.938 297.562C423.034 297.562 417.438 291.966 417.438 285.062C417.438 278.159 423.034 272.562 429.938 272.562H441.656V297.562H429.938Z" fill="#C07F43"/>
<mask id="path-7-inside-2_1756_1584" fill="white">
<path d="M429.937 296.781C423.465 296.781 418.219 291.535 418.219 285.062C418.219 278.59 423.465 273.344 429.938 273.344H445.562V296.781H429.937Z"/>
</mask>
<path d="M429.938 298.781C422.361 298.781 416.219 292.639 416.219 285.062C416.219 277.486 422.361 271.344 429.938 271.344V275.344C424.57 275.344 420.219 279.695 420.219 285.062C420.219 290.43 424.57 294.781 429.938 294.781V298.781ZM445.562 273.344V296.781V273.344ZM445.562 298.781H429.938C422.361 298.781 416.219 292.639 416.219 285.062H420.219C420.219 290.43 424.57 294.781 429.938 294.781H445.562V298.781ZM416.219 285.062C416.219 277.486 422.361 271.344 429.938 271.344H445.562V275.344H429.938C424.57 275.344 420.219 279.695 420.219 285.062H416.219Z" fill="#42494B" mask="url(#path-7-inside-2_1756_1584)"/>
<path d="M429.5 265C422.596 265 417 259.404 417 252.5C417 245.596 422.596 240 429.5 240H441.219V265H429.5Z" fill="#C07F43"/>
<mask id="path-10-inside-3_1756_1584" fill="white">
<path d="M429.5 264.219C423.028 264.219 417.781 258.972 417.781 252.5C417.781 246.028 423.028 240.781 429.5 240.781H445.125V264.219H429.5Z"/>
</mask>
<path d="M429.5 266.219C421.923 266.219 415.781 260.077 415.781 252.5C415.781 244.923 421.923 238.781 429.5 238.781V242.781C424.132 242.781 419.781 247.132 419.781 252.5C419.781 257.868 424.132 262.219 429.5 262.219V266.219ZM445.125 240.781V264.219V240.781ZM445.125 266.219H429.5C421.923 266.219 415.781 260.077 415.781 252.5H419.781C419.781 257.868 424.132 262.219 429.5 262.219H445.125V266.219ZM415.781 252.5C415.781 244.923 421.923 238.781 429.5 238.781H445.125V242.781H429.5C424.132 242.781 419.781 247.132 419.781 252.5H415.781Z" fill="#42494B" mask="url(#path-10-inside-3_1756_1584)"/>
<path d="M430.5 49C423.596 49 418 43.4036 418 36.5C418 29.5964 423.596 24 430.5 24L442.219 24V49H430.5Z" fill="#C07F43"/>
<mask id="path-13-inside-4_1756_1584" fill="white">
<path d="M430.5 48.2188C424.028 48.2188 418.781 42.9721 418.781 36.5C418.781 30.0279 424.028 24.7812 430.5 24.7812L446.125 24.7813V48.2188H430.5Z"/>
</mask>
<path d="M430.5 50.2188C422.923 50.2188 416.781 44.0767 416.781 36.5C416.781 28.9233 422.923 22.7812 430.5 22.7812V26.7812C425.132 26.7812 420.781 31.1325 420.781 36.5C420.781 41.8675 425.132 46.2188 430.5 46.2188V50.2188ZM446.125 24.7813V48.2188V24.7813ZM446.125 50.2188H430.5C422.923 50.2188 416.781 44.0767 416.781 36.5H420.781C420.781 41.8675 425.132 46.2188 430.5 46.2188H446.125V50.2188ZM416.781 36.5C416.781 28.9233 422.923 22.7812 430.5 22.7812L446.125 22.7813V26.7813L430.5 26.7812C425.132 26.7812 420.781 31.1325 420.781 36.5H416.781Z" fill="#42494B" mask="url(#path-13-inside-4_1756_1584)"/>
<rect x="173" y="86" width="22" height="18" fill="#43494C"/>
<rect x="173" y="77" width="22" height="8" fill="#43494C"/>
<rect x="195" y="218" width="22" height="18" transform="rotate(-180 195 218)" fill="#43494C"/>
<rect x="195" y="227" width="22" height="8" transform="rotate(-180 195 227)" fill="#43494C"/>
<rect x="203" y="86" width="22" height="18" fill="#43494C"/>
<rect x="203" y="77" width="22" height="8" fill="#43494C"/>
<rect x="225" y="218" width="22" height="18" transform="rotate(-180 225 218)" fill="#43494C"/>
<rect x="225" y="227" width="22" height="8" transform="rotate(-180 225 227)" fill="#43494C"/>
<rect x="233" y="86" width="22" height="18" fill="#43494C"/>
<rect x="233" y="77" width="22" height="8" fill="#43494C"/>
<rect x="255" y="218" width="22" height="18" transform="rotate(-180 255 218)" fill="#43494C"/>
<rect x="255" y="227" width="22" height="8" transform="rotate(-180 255 227)" fill="#43494C"/>
<rect x="263" y="86" width="22" height="18" fill="#43494C"/>
<rect x="263" y="77" width="22" height="8" fill="#43494C"/>
<rect x="285" y="218" width="22" height="18" transform="rotate(-180 285 218)" fill="#43494C"/>
<rect x="285" y="227" width="22" height="8" transform="rotate(-180 285 227)" fill="#43494C"/>
<rect x="293" y="86" width="22" height="18" fill="#43494C"/>
<rect x="293" y="77" width="22" height="8" fill="#43494C"/>
<rect x="315" y="218" width="22" height="18" transform="rotate(-180 315 218)" fill="#43494C"/>
<rect x="315" y="227" width="22" height="8" transform="rotate(-180 315 227)" fill="#43494C"/>
<rect x="323" y="86" width="22" height="18" fill="#43494C"/>
<rect x="323" y="77" width="22" height="8" fill="#43494C"/>
<rect x="345" y="218" width="22" height="18" transform="rotate(-180 345 218)" fill="#43494C"/>
<rect x="345" y="227" width="22" height="8" transform="rotate(-180 345 227)" fill="#43494C"/>
<path d="M10 86H40H70V158.5V231H40H25H10V193.432H40V122.25H10V86Z" fill="#D3AA73"/>
<path d="M182.808 71V58.292H185.616V71H182.808ZM180.36 60.686V58.292H185.436V60.686H180.36Z" fill="black"/>
<path d="M177.808 246V233.292H180.616V246H177.808ZM175.36 235.686V233.292H180.436V235.686H175.36ZM182.235 244.416L187.113 239.376C187.413 239.076 187.653 238.8 187.833 238.548C188.013 238.296 188.145 238.062 188.229 237.846C188.313 237.618 188.355 237.39 188.355 237.162C188.355 236.67 188.193 236.286 187.869 236.01C187.557 235.722 187.143 235.578 186.627 235.578C186.123 235.578 185.667 235.716 185.259 235.992C184.863 236.256 184.479 236.694 184.107 237.306L182.217 235.668C182.721 234.816 183.363 234.174 184.143 233.742C184.923 233.31 185.817 233.094 186.825 233.094C187.701 233.094 188.457 233.256 189.093 233.58C189.741 233.904 190.239 234.366 190.587 234.966C190.947 235.566 191.127 236.268 191.127 237.072C191.127 237.576 191.061 238.044 190.929 238.476C190.797 238.896 190.581 239.316 190.281 239.736C189.993 240.144 189.603 240.594 189.111 241.086L185.727 244.452L182.235 244.416ZM182.235 246V244.416L184.629 243.588H191.379V246H182.235Z" fill="black"/>
<path d="M210.432 69.416L215.31 64.376C215.61 64.076 215.85 63.8 216.03 63.548C216.21 63.296 216.342 63.062 216.426 62.846C216.51 62.618 216.552 62.39 216.552 62.162C216.552 61.67 216.39 61.286 216.066 61.01C215.754 60.722 215.34 60.578 214.824 60.578C214.32 60.578 213.864 60.716 213.456 60.992C213.06 61.256 212.676 61.694 212.304 62.306L210.414 60.668C210.918 59.816 211.56 59.174 212.34 58.742C213.12 58.31 214.014 58.094 215.022 58.094C215.898 58.094 216.654 58.256 217.29 58.58C217.938 58.904 218.436 59.366 218.784 59.966C219.144 60.566 219.324 61.268 219.324 62.072C219.324 62.576 219.258 63.044 219.126 63.476C218.994 63.896 218.778 64.316 218.478 64.736C218.19 65.144 217.8 65.594 217.308 66.086L213.924 69.452L210.432 69.416ZM210.432 71V69.416L212.826 68.588H219.576V71H210.432Z" fill="black"/>
<path d="M209.808 246V233.292H212.616V246H209.808ZM207.36 235.686V233.292H212.436V235.686H207.36ZM216.611 246V233.292H219.419V246H216.611ZM214.163 235.686V233.292H219.239V235.686H214.163Z" fill="black"/>
<path d="M244.554 71.198C243.678 71.198 242.874 71.048 242.142 70.748C241.41 70.436 240.792 69.992 240.288 69.416L242.106 67.598C242.334 67.934 242.664 68.21 243.096 68.426C243.54 68.63 244.008 68.732 244.5 68.732C244.944 68.732 245.328 68.654 245.652 68.498C245.976 68.342 246.228 68.12 246.408 67.832C246.6 67.544 246.696 67.202 246.696 66.806C246.696 66.41 246.6 66.074 246.408 65.798C246.228 65.51 245.958 65.288 245.598 65.132C245.25 64.976 244.83 64.898 244.338 64.898C244.11 64.898 243.87 64.916 243.618 64.952C243.378 64.976 243.174 65.018 243.006 65.078L244.248 63.512C244.584 63.416 244.902 63.338 245.202 63.278C245.514 63.206 245.802 63.17 246.066 63.17C246.714 63.17 247.296 63.326 247.812 63.638C248.328 63.938 248.736 64.37 249.036 64.934C249.348 65.486 249.504 66.146 249.504 66.914C249.504 67.754 249.294 68.498 248.874 69.146C248.466 69.794 247.89 70.298 247.146 70.658C246.414 71.018 245.55 71.198 244.554 71.198ZM243.006 65.078V63.512L246.102 59.876L249.27 59.858L246.048 63.53L243.006 65.078ZM241.08 60.686V58.292H249.27V59.858L247.056 60.686H241.08Z" fill="black"/>
<path d="M236.808 246V233.292H239.616V246H236.808ZM234.36 235.686V233.292H239.436V235.686H234.36ZM246.815 246.198C245.795 246.198 244.871 245.922 244.043 245.37C243.215 244.818 242.561 244.05 242.081 243.066C241.613 242.07 241.379 240.924 241.379 239.628C241.379 238.32 241.613 237.18 242.081 236.208C242.549 235.224 243.191 234.462 244.007 233.922C244.823 233.37 245.747 233.094 246.779 233.094C247.823 233.094 248.753 233.37 249.569 233.922C250.385 234.462 251.027 235.224 251.495 236.208C251.975 237.192 252.215 238.338 252.215 239.646C252.215 240.954 251.975 242.1 251.495 243.084C251.027 244.068 250.385 244.836 249.569 245.388C248.765 245.928 247.847 246.198 246.815 246.198ZM246.797 243.696C247.325 243.696 247.781 243.546 248.165 243.246C248.549 242.934 248.843 242.478 249.047 241.878C249.263 241.266 249.371 240.522 249.371 239.646C249.371 238.758 249.263 238.014 249.047 237.414C248.843 236.814 248.549 236.364 248.165 236.064C247.781 235.752 247.319 235.596 246.779 235.596C246.263 235.596 245.807 235.746 245.411 236.046C245.027 236.346 244.733 236.796 244.529 237.396C244.325 237.996 244.223 238.74 244.223 239.628C244.223 240.516 244.325 241.26 244.529 241.86C244.733 242.46 245.027 242.916 245.411 243.228C245.807 243.54 246.269 243.696 246.797 243.696Z" fill="black"/>
<path d="M270.378 66.59L274.554 58.292H277.632L273.366 66.59H270.378ZM270.378 68.174V66.59L271.314 65.78H280.566V68.174H270.378ZM276.372 71V63.134H279.144V71H276.372Z" fill="black"/>
<path d="M271.962 246L275.958 240.438L277.002 240.366C276.846 240.642 276.672 240.888 276.48 241.104C276.3 241.308 276.066 241.47 275.778 241.59C275.502 241.698 275.13 241.752 274.662 241.752C273.894 241.752 273.186 241.572 272.538 241.212C271.902 240.84 271.392 240.342 271.008 239.718C270.636 239.082 270.45 238.362 270.45 237.558C270.45 236.718 270.66 235.962 271.08 235.29C271.5 234.618 272.064 234.084 272.772 233.688C273.48 233.292 274.278 233.094 275.166 233.094C276.054 233.094 276.852 233.292 277.56 233.688C278.268 234.072 278.826 234.6 279.234 235.272C279.654 235.932 279.864 236.682 279.864 237.522C279.864 238.602 279.492 239.688 278.748 240.78L275.166 246H271.962ZM275.166 239.646C275.538 239.646 275.874 239.556 276.174 239.376C276.474 239.196 276.708 238.956 276.876 238.656C277.044 238.344 277.128 237.996 277.128 237.612C277.128 237.216 277.044 236.862 276.876 236.55C276.708 236.238 276.474 235.998 276.174 235.83C275.874 235.65 275.538 235.56 275.166 235.56C274.782 235.56 274.44 235.65 274.14 235.83C273.852 235.998 273.618 236.238 273.438 236.55C273.27 236.862 273.186 237.216 273.186 237.612C273.186 237.996 273.27 238.344 273.438 238.656C273.618 238.956 273.858 239.196 274.158 239.376C274.458 239.556 274.794 239.646 275.166 239.646Z" fill="black"/>
<path d="M304.572 71.198C303.696 71.198 302.874 71.048 302.106 70.748C301.35 70.436 300.72 69.992 300.216 69.416L302.052 67.598C302.28 67.934 302.61 68.21 303.042 68.426C303.486 68.63 303.966 68.732 304.482 68.732C304.938 68.732 305.334 68.654 305.67 68.498C306.006 68.33 306.27 68.096 306.462 67.796C306.654 67.484 306.75 67.124 306.75 66.716C306.75 66.296 306.654 65.936 306.462 65.636C306.27 65.336 306 65.108 305.652 64.952C305.316 64.784 304.932 64.7 304.5 64.7C304.068 64.7 303.672 64.76 303.312 64.88C302.952 64.988 302.622 65.156 302.322 65.384L302.556 63.584C302.832 63.368 303.096 63.194 303.348 63.062C303.6 62.918 303.876 62.81 304.176 62.738C304.476 62.666 304.83 62.63 305.238 62.63C306.174 62.63 306.96 62.822 307.596 63.206C308.244 63.59 308.73 64.1 309.054 64.736C309.39 65.372 309.558 66.074 309.558 66.842C309.558 67.682 309.348 68.432 308.928 69.092C308.52 69.752 307.944 70.268 307.2 70.64C306.456 71.012 305.58 71.198 304.572 71.198ZM302.322 65.384L301.098 64.25L301.71 58.292H304.266L303.6 64.196L302.322 65.384ZM302.088 60.686L301.71 58.292H308.856V60.686H302.088Z" fill="black"/>
<path d="M305.058 246.198C304.146 246.198 303.348 246.036 302.664 245.712C301.992 245.388 301.464 244.944 301.08 244.38C300.708 243.816 300.522 243.174 300.522 242.454C300.522 241.854 300.636 241.314 300.864 240.834C301.104 240.354 301.434 239.952 301.854 239.628C302.286 239.304 302.784 239.082 303.348 238.962L303.294 239.538C302.814 239.43 302.406 239.232 302.07 238.944C301.734 238.644 301.476 238.284 301.296 237.864C301.116 237.444 301.026 237.006 301.026 236.55C301.026 235.878 301.194 235.284 301.53 234.768C301.878 234.24 302.358 233.826 302.97 233.526C303.582 233.226 304.278 233.076 305.058 233.076C305.85 233.076 306.546 233.226 307.146 233.526C307.758 233.826 308.232 234.24 308.568 234.768C308.916 235.284 309.09 235.878 309.09 236.55C309.09 237.006 309 237.444 308.82 237.864C308.652 238.284 308.4 238.644 308.064 238.944C307.728 239.232 307.32 239.43 306.84 239.538L306.768 238.962C307.344 239.082 307.842 239.304 308.262 239.628C308.694 239.952 309.024 240.354 309.252 240.834C309.48 241.314 309.594 241.854 309.594 242.454C309.594 243.174 309.408 243.816 309.036 244.38C308.664 244.944 308.136 245.388 307.452 245.712C306.78 246.036 305.982 246.198 305.058 246.198ZM305.058 243.786C305.418 243.786 305.736 243.714 306.012 243.57C306.288 243.414 306.504 243.204 306.66 242.94C306.828 242.676 306.912 242.382 306.912 242.058C306.912 241.722 306.828 241.428 306.66 241.176C306.504 240.912 306.288 240.708 306.012 240.564C305.736 240.408 305.418 240.33 305.058 240.33C304.698 240.33 304.38 240.408 304.104 240.564C303.828 240.708 303.612 240.912 303.456 241.176C303.3 241.428 303.222 241.722 303.222 242.058C303.222 242.382 303.3 242.676 303.456 242.94C303.612 243.204 303.828 243.414 304.104 243.57C304.38 243.714 304.698 243.786 305.058 243.786ZM305.058 238.278C305.478 238.278 305.82 238.146 306.084 237.882C306.36 237.606 306.498 237.264 306.498 236.856C306.498 236.436 306.36 236.094 306.084 235.83C305.82 235.554 305.478 235.416 305.058 235.416C304.65 235.416 304.308 235.548 304.032 235.812C303.756 236.076 303.618 236.418 303.618 236.838C303.618 237.246 303.756 237.588 304.032 237.864C304.308 238.14 304.65 238.278 305.058 238.278Z" fill="black"/>
<path d="M335.166 71.198C334.278 71.198 333.474 71 332.754 70.604C332.046 70.208 331.482 69.68 331.062 69.02C330.654 68.348 330.45 67.598 330.45 66.77C330.45 65.69 330.828 64.598 331.584 63.494L335.166 58.292H338.352L334.374 63.836L333.312 63.926C333.48 63.638 333.654 63.392 333.834 63.188C334.026 62.972 334.266 62.81 334.554 62.702C334.842 62.582 335.208 62.522 335.652 62.522C336.444 62.522 337.152 62.708 337.776 63.08C338.412 63.44 338.922 63.938 339.306 64.574C339.69 65.198 339.882 65.918 339.882 66.734C339.882 67.562 339.672 68.318 339.252 69.002C338.832 69.674 338.268 70.208 337.56 70.604C336.852 71 336.054 71.198 335.166 71.198ZM335.166 68.732C335.538 68.732 335.874 68.642 336.174 68.462C336.474 68.282 336.708 68.036 336.876 67.724C337.044 67.412 337.128 67.064 337.128 66.68C337.128 66.284 337.044 65.936 336.876 65.636C336.708 65.324 336.474 65.084 336.174 64.916C335.874 64.736 335.538 64.646 335.166 64.646C334.782 64.646 334.44 64.736 334.14 64.916C333.852 65.084 333.624 65.324 333.456 65.636C333.288 65.936 333.204 66.284 333.204 66.68C333.204 67.064 333.288 67.412 333.456 67.724C333.624 68.036 333.852 68.282 334.14 68.462C334.44 68.642 334.782 68.732 335.166 68.732Z" fill="black"/>
<path d="M331.052 246L335.372 234.876H338.126L333.968 246H331.052ZM329.36 235.686V233.292H338.126V234.876L337.19 235.686H329.36Z" fill="black"/>
<rect x="181" y="336" width="148" height="66" fill="#F1F1EF" stroke="#42494B" stroke-width="2"/>
<path d="M213.48 362V360.32H216.424C217.192 360.32 217.864 360.155 218.44 359.824C219.027 359.493 219.48 359.035 219.8 358.448C220.131 357.851 220.296 357.163 220.296 356.384C220.296 355.616 220.131 354.939 219.8 354.352C219.469 353.765 219.011 353.307 218.424 352.976C217.848 352.645 217.181 352.48 216.424 352.48H213.48V350.8H216.472C217.283 350.8 218.035 350.944 218.728 351.232C219.421 351.509 220.024 351.904 220.536 352.416C221.059 352.917 221.464 353.509 221.752 354.192C222.04 354.864 222.184 355.6 222.184 356.4C222.184 357.189 222.04 357.925 221.752 358.608C221.464 359.291 221.064 359.888 220.552 360.4C220.04 360.901 219.437 361.296 218.744 361.584C218.051 361.861 217.304 362 216.504 362H213.48ZM212.216 362V350.8H214.056V362H212.216ZM223.836 362V354.32H225.596V362H223.836ZM224.716 352.912C224.417 352.912 224.166 352.811 223.964 352.608C223.772 352.405 223.676 352.155 223.676 351.856C223.676 351.557 223.772 351.307 223.964 351.104C224.166 350.901 224.417 350.8 224.716 350.8C225.025 350.8 225.276 350.901 225.468 351.104C225.66 351.307 225.756 351.557 225.756 351.856C225.756 352.155 225.66 352.405 225.468 352.608C225.276 352.811 225.025 352.912 224.716 352.912ZM230.082 362.16C229.655 362.16 229.244 362.107 228.85 362C228.455 361.883 228.092 361.723 227.762 361.52C227.431 361.307 227.143 361.051 226.898 360.752L228.018 359.632C228.284 359.941 228.588 360.176 228.93 360.336C229.282 360.485 229.676 360.56 230.114 360.56C230.508 360.56 230.807 360.501 231.01 360.384C231.212 360.267 231.314 360.096 231.314 359.872C231.314 359.637 231.218 359.456 231.026 359.328C230.834 359.2 230.583 359.093 230.274 359.008C229.975 358.912 229.655 358.816 229.314 358.72C228.983 358.624 228.663 358.496 228.354 358.336C228.055 358.165 227.81 357.936 227.618 357.648C227.426 357.36 227.33 356.987 227.33 356.528C227.33 356.037 227.442 355.616 227.666 355.264C227.9 354.912 228.226 354.64 228.642 354.448C229.068 354.256 229.575 354.16 230.162 354.16C230.78 354.16 231.324 354.272 231.794 354.496C232.274 354.709 232.674 355.035 232.994 355.472L231.874 356.592C231.65 356.315 231.394 356.107 231.106 355.968C230.818 355.829 230.487 355.76 230.114 355.76C229.762 355.76 229.49 355.813 229.298 355.92C229.106 356.027 229.01 356.181 229.01 356.384C229.01 356.597 229.106 356.763 229.298 356.88C229.49 356.997 229.735 357.099 230.034 357.184C230.343 357.269 230.663 357.365 230.994 357.472C231.335 357.568 231.655 357.707 231.954 357.888C232.263 358.059 232.514 358.293 232.706 358.592C232.898 358.88 232.994 359.259 232.994 359.728C232.994 360.475 232.732 361.067 232.21 361.504C231.687 361.941 230.978 362.16 230.082 362.16ZM238.557 362.16C237.97 362.16 237.447 362.037 236.989 361.792C236.53 361.536 236.167 361.189 235.901 360.752C235.645 360.315 235.517 359.819 235.517 359.264V357.056C235.517 356.501 235.65 356.005 235.917 355.568C236.183 355.131 236.546 354.789 237.005 354.544C237.463 354.288 237.981 354.16 238.557 354.16C239.25 354.16 239.874 354.341 240.429 354.704C240.994 355.056 241.437 355.536 241.757 356.144C242.087 356.741 242.253 357.419 242.253 358.176C242.253 358.923 242.087 359.6 241.757 360.208C241.437 360.805 240.994 361.28 240.429 361.632C239.874 361.984 239.25 362.16 238.557 362.16ZM238.269 360.496C238.695 360.496 239.069 360.4 239.389 360.208C239.719 360.005 239.975 359.728 240.157 359.376C240.349 359.024 240.445 358.619 240.445 358.16C240.445 357.701 240.349 357.296 240.157 356.944C239.975 356.592 239.719 356.32 239.389 356.128C239.069 355.925 238.695 355.824 238.269 355.824C237.842 355.824 237.463 355.925 237.133 356.128C236.802 356.32 236.546 356.592 236.365 356.944C236.183 357.296 236.093 357.701 236.093 358.16C236.093 358.619 236.183 359.024 236.365 359.376C236.546 359.728 236.802 360.005 237.133 360.208C237.463 360.4 237.842 360.496 238.269 360.496ZM234.445 365.2V354.32H236.205V356.384L235.901 358.256L236.205 360.112V365.2H234.445ZM247.246 362.16C246.499 362.16 245.822 361.984 245.214 361.632C244.606 361.269 244.121 360.784 243.758 360.176C243.406 359.568 243.23 358.891 243.23 358.144C243.23 357.397 243.406 356.725 243.758 356.128C244.121 355.531 244.606 355.056 245.214 354.704C245.822 354.341 246.499 354.16 247.246 354.16C248.003 354.16 248.686 354.336 249.294 354.688C249.902 355.04 250.382 355.52 250.734 356.128C251.097 356.725 251.278 357.397 251.278 358.144C251.278 358.891 251.097 359.568 250.734 360.176C250.382 360.784 249.902 361.269 249.294 361.632C248.686 361.984 248.003 362.16 247.246 362.16ZM247.246 360.464C247.683 360.464 248.067 360.368 248.398 360.176C248.739 359.973 249.001 359.696 249.182 359.344C249.374 358.992 249.47 358.592 249.47 358.144C249.47 357.696 249.374 357.301 249.182 356.96C248.99 356.619 248.729 356.352 248.398 356.16C248.067 355.957 247.683 355.856 247.246 355.856C246.819 355.856 246.435 355.957 246.094 356.16C245.763 356.352 245.502 356.619 245.31 356.96C245.129 357.301 245.038 357.696 245.038 358.144C245.038 358.592 245.129 358.992 245.31 359.344C245.502 359.696 245.763 359.973 246.094 360.176C246.435 360.368 246.819 360.464 247.246 360.464ZM258.006 362V357.568C258.006 357.056 257.84 356.635 257.51 356.304C257.19 355.973 256.774 355.808 256.262 355.808C255.92 355.808 255.616 355.883 255.35 356.032C255.083 356.181 254.875 356.389 254.726 356.656C254.576 356.923 254.502 357.227 254.502 357.568L253.814 357.184C253.814 356.597 253.942 356.08 254.198 355.632C254.454 355.173 254.806 354.816 255.254 354.56C255.712 354.293 256.224 354.16 256.79 354.16C257.366 354.16 257.878 354.309 258.326 354.608C258.774 354.896 259.126 355.275 259.382 355.744C259.638 356.203 259.766 356.683 259.766 357.184V362H258.006ZM252.742 362V354.32H254.502V362H252.742ZM261.554 362V354.32H263.314V362H261.554ZM261.522 353.216L260.722 352.416L262.77 349.808L264.13 351.168L261.522 353.216ZM267.865 362L264.361 354.32H266.313L268.985 360.576H267.833L270.521 354.32H272.393L268.889 362H267.865ZM276.732 362.16C275.964 362.16 275.27 361.989 274.652 361.648C274.044 361.296 273.558 360.816 273.196 360.208C272.844 359.6 272.668 358.917 272.668 358.16C272.668 357.403 272.844 356.725 273.196 356.128C273.548 355.52 274.022 355.04 274.62 354.688C275.228 354.336 275.9 354.16 276.636 354.16C277.35 354.16 277.98 354.325 278.524 354.656C279.078 354.987 279.51 355.44 279.82 356.016C280.14 356.592 280.3 357.248 280.3 357.984C280.3 358.112 280.289 358.245 280.267 358.384C280.257 358.512 280.236 358.656 280.204 358.816H273.9V357.376H279.292L278.636 357.952C278.614 357.483 278.524 357.088 278.364 356.768C278.204 356.448 277.974 356.203 277.676 356.032C277.388 355.861 277.03 355.776 276.604 355.776C276.156 355.776 275.766 355.872 275.436 356.064C275.105 356.256 274.849 356.528 274.668 356.88C274.486 357.221 274.396 357.632 274.396 358.112C274.396 358.592 274.492 359.013 274.684 359.376C274.876 359.739 275.148 360.021 275.5 360.224C275.852 360.416 276.257 360.512 276.716 360.512C277.11 360.512 277.473 360.443 277.804 360.304C278.145 360.165 278.433 359.963 278.668 359.696L279.788 360.832C279.414 361.269 278.961 361.6 278.428 361.824C277.894 362.048 277.329 362.16 276.732 362.16ZM281.71 362V350.48H283.47V362H281.71Z" fill="black"/>
<path d="M214.328 391.16C213.677 391.16 213.096 391.032 212.584 390.776C212.083 390.509 211.677 390.157 211.368 389.72L212.664 388.536C212.845 388.813 213.075 389.027 213.352 389.176C213.629 389.325 213.933 389.4 214.264 389.4C214.627 389.4 214.936 389.325 215.192 389.176C215.448 389.027 215.645 388.813 215.784 388.536C215.923 388.259 215.992 387.928 215.992 387.544V379.8H217.832V387.4C217.832 388.147 217.683 388.803 217.384 389.368C217.096 389.933 216.691 390.376 216.168 390.696C215.645 391.005 215.032 391.16 214.328 391.16ZM223.098 391.16C222.405 391.16 221.776 390.984 221.21 390.632C220.656 390.28 220.213 389.805 219.882 389.208C219.562 388.6 219.402 387.923 219.402 387.176C219.402 386.419 219.562 385.741 219.882 385.144C220.213 384.536 220.656 384.056 221.21 383.704C221.776 383.341 222.405 383.16 223.098 383.16C223.685 383.16 224.202 383.288 224.65 383.544C225.109 383.789 225.472 384.131 225.738 384.568C226.005 385.005 226.138 385.501 226.138 386.056V388.264C226.138 388.819 226.005 389.315 225.738 389.752C225.482 390.189 225.125 390.536 224.666 390.792C224.208 391.037 223.685 391.16 223.098 391.16ZM223.386 389.496C224.037 389.496 224.56 389.277 224.954 388.84C225.36 388.403 225.562 387.843 225.562 387.16C225.562 386.701 225.472 386.296 225.29 385.944C225.109 385.592 224.853 385.32 224.522 385.128C224.202 384.925 223.824 384.824 223.386 384.824C222.96 384.824 222.581 384.925 222.25 385.128C221.93 385.32 221.674 385.592 221.482 385.944C221.301 386.296 221.21 386.701 221.21 387.16C221.21 387.619 221.301 388.024 221.482 388.376C221.674 388.728 221.93 389.005 222.25 389.208C222.581 389.4 222.96 389.496 223.386 389.496ZM225.45 391V388.936L225.754 387.064L225.45 385.208V383.32H227.21V391H225.45ZM222.474 382.216L221.674 381.416L223.722 378.808L225.082 380.168L222.474 382.216ZM232.367 391V383.32H234.127V391H232.367ZM234.127 386.728L233.519 386.424C233.519 385.453 233.732 384.669 234.159 384.072C234.596 383.464 235.252 383.16 236.127 383.16C236.511 383.16 236.857 383.229 237.167 383.368C237.476 383.507 237.764 383.731 238.031 384.04L236.879 385.224C236.74 385.075 236.585 384.968 236.415 384.904C236.244 384.84 236.047 384.808 235.823 384.808C235.332 384.808 234.927 384.963 234.607 385.272C234.287 385.581 234.127 386.067 234.127 386.728ZM242.216 391.16C241.448 391.16 240.755 390.989 240.136 390.648C239.528 390.296 239.043 389.816 238.68 389.208C238.328 388.6 238.152 387.917 238.152 387.16C238.152 386.403 238.328 385.725 238.68 385.128C239.032 384.52 239.507 384.04 240.104 383.688C240.712 383.336 241.384 383.16 242.12 383.16C242.835 383.16 243.464 383.325 244.008 383.656C244.563 383.987 244.995 384.44 245.304 385.016C245.624 385.592 245.784 386.248 245.784 386.984C245.784 387.112 245.773 387.245 245.752 387.384C245.741 387.512 245.72 387.656 245.688 387.816H239.384V386.376H244.776L244.12 386.952C244.099 386.483 244.008 386.088 243.848 385.768C243.688 385.448 243.459 385.203 243.16 385.032C242.872 384.861 242.515 384.776 242.088 384.776C241.64 384.776 241.251 384.872 240.92 385.064C240.589 385.256 240.333 385.528 240.152 385.88C239.971 386.221 239.88 386.632 239.88 387.112C239.88 387.592 239.976 388.013 240.168 388.376C240.36 388.739 240.632 389.021 240.984 389.224C241.336 389.416 241.741 389.512 242.2 389.512C242.595 389.512 242.957 389.443 243.288 389.304C243.629 389.165 243.917 388.963 244.152 388.696L245.272 389.832C244.899 390.269 244.445 390.6 243.912 390.824C243.379 391.048 242.813 391.16 242.216 391.16ZM249.707 391.16C249.28 391.16 248.869 391.107 248.475 391C248.08 390.883 247.717 390.723 247.387 390.52C247.056 390.307 246.768 390.051 246.523 389.752L247.643 388.632C247.909 388.941 248.213 389.176 248.555 389.336C248.907 389.485 249.301 389.56 249.739 389.56C250.133 389.56 250.432 389.501 250.635 389.384C250.837 389.267 250.939 389.096 250.939 388.872C250.939 388.637 250.843 388.456 250.651 388.328C250.459 388.2 250.208 388.093 249.899 388.008C249.6 387.912 249.28 387.816 248.939 387.72C248.608 387.624 248.288 387.496 247.979 387.336C247.68 387.165 247.435 386.936 247.243 386.648C247.051 386.36 246.955 385.987 246.955 385.528C246.955 385.037 247.067 384.616 247.291 384.264C247.525 383.912 247.851 383.64 248.267 383.448C248.693 383.256 249.2 383.16 249.787 383.16C250.405 383.16 250.949 383.272 251.419 383.496C251.899 383.709 252.299 384.035 252.619 384.472L251.499 385.592C251.275 385.315 251.019 385.107 250.731 384.968C250.443 384.829 250.112 384.76 249.739 384.76C249.387 384.76 249.115 384.813 248.923 384.92C248.731 385.027 248.635 385.181 248.635 385.384C248.635 385.597 248.731 385.763 248.923 385.88C249.115 385.997 249.36 386.099 249.659 386.184C249.968 386.269 250.288 386.365 250.619 386.472C250.96 386.568 251.28 386.707 251.579 386.888C251.888 387.059 252.139 387.293 252.331 387.592C252.523 387.88 252.619 388.259 252.619 388.728C252.619 389.475 252.357 390.067 251.835 390.504C251.312 390.941 250.603 391.16 249.707 391.16ZM257.638 391.16C256.87 391.16 256.176 390.989 255.558 390.648C254.95 390.296 254.464 389.816 254.102 389.208C253.75 388.6 253.574 387.917 253.574 387.16C253.574 386.403 253.75 385.725 254.102 385.128C254.454 384.52 254.928 384.04 255.526 383.688C256.134 383.336 256.806 383.16 257.542 383.16C258.256 383.16 258.886 383.325 259.43 383.656C259.984 383.987 260.416 384.44 260.726 385.016C261.046 385.592 261.206 386.248 261.206 386.984C261.206 387.112 261.195 387.245 261.174 387.384C261.163 387.512 261.142 387.656 261.11 387.816H254.806V386.376H260.198L259.542 386.952C259.52 386.483 259.43 386.088 259.27 385.768C259.11 385.448 258.88 385.203 258.582 385.032C258.294 384.861 257.936 384.776 257.51 384.776C257.062 384.776 256.672 384.872 256.342 385.064C256.011 385.256 255.755 385.528 255.574 385.88C255.392 386.221 255.302 386.632 255.302 387.112C255.302 387.592 255.398 388.013 255.59 388.376C255.782 388.739 256.054 389.021 256.406 389.224C256.758 389.416 257.163 389.512 257.622 389.512C258.016 389.512 258.379 389.443 258.71 389.304C259.051 389.165 259.339 388.963 259.574 388.696L260.694 389.832C260.32 390.269 259.867 390.6 259.334 390.824C258.8 391.048 258.235 391.16 257.638 391.16ZM262.617 391V383.32H264.377V391H262.617ZM264.377 386.728L263.769 386.424C263.769 385.453 263.982 384.669 264.409 384.072C264.846 383.464 265.502 383.16 266.377 383.16C266.761 383.16 267.107 383.229 267.417 383.368C267.726 383.507 268.014 383.731 268.281 384.04L267.129 385.224C266.99 385.075 266.835 384.968 266.665 384.904C266.494 384.84 266.297 384.808 266.073 384.808C265.582 384.808 265.177 384.963 264.857 385.272C264.537 385.581 264.377 386.067 264.377 386.728ZM271.615 391L268.111 383.32H270.063L272.735 389.576H271.583L274.271 383.32H276.143L272.639 391H271.615ZM280.13 391.16C279.436 391.16 278.807 390.984 278.242 390.632C277.687 390.28 277.244 389.805 276.914 389.208C276.594 388.6 276.434 387.923 276.434 387.176C276.434 386.419 276.594 385.741 276.914 385.144C277.244 384.536 277.687 384.056 278.242 383.704C278.807 383.341 279.436 383.16 280.13 383.16C280.716 383.16 281.234 383.288 281.682 383.544C282.14 383.789 282.503 384.131 282.77 384.568C283.036 385.005 283.17 385.501 283.17 386.056V388.264C283.17 388.819 283.036 389.315 282.77 389.752C282.514 390.189 282.156 390.536 281.698 390.792C281.239 391.037 280.716 391.16 280.13 391.16ZM280.418 389.496C281.068 389.496 281.591 389.277 281.986 388.84C282.391 388.403 282.594 387.843 282.594 387.16C282.594 386.701 282.503 386.296 282.322 385.944C282.14 385.592 281.884 385.32 281.554 385.128C281.234 384.925 280.855 384.824 280.418 384.824C279.991 384.824 279.612 384.925 279.282 385.128C278.962 385.32 278.706 385.592 278.514 385.944C278.332 386.296 278.242 386.701 278.242 387.16C278.242 387.619 278.332 388.024 278.514 388.376C278.706 388.728 278.962 389.005 279.282 389.208C279.612 389.4 279.991 389.496 280.418 389.496ZM282.482 391V388.936L282.786 387.064L282.482 385.208V383.32H284.242V391H282.482ZM289.411 391.16C288.717 391.16 288.088 390.984 287.523 390.632C286.968 390.28 286.525 389.805 286.195 389.208C285.875 388.6 285.715 387.923 285.715 387.176C285.715 386.419 285.875 385.741 286.195 385.144C286.525 384.536 286.968 384.056 287.523 383.704C288.088 383.341 288.717 383.16 289.411 383.16C289.997 383.16 290.515 383.288 290.963 383.544C291.421 383.789 291.784 384.131 292.051 384.568C292.317 385.005 292.451 385.501 292.451 386.056V388.264C292.451 388.819 292.317 389.315 292.051 389.752C291.795 390.189 291.437 390.536 290.979 390.792C290.52 391.037 289.997 391.16 289.411 391.16ZM289.699 389.496C290.136 389.496 290.515 389.4 290.835 389.208C291.165 389.005 291.421 388.728 291.603 388.376C291.784 388.024 291.875 387.619 291.875 387.16C291.875 386.701 291.784 386.296 291.603 385.944C291.421 385.592 291.165 385.32 290.835 385.128C290.515 384.925 290.136 384.824 289.699 384.824C289.272 384.824 288.893 384.925 288.563 385.128C288.243 385.32 287.987 385.592 287.795 385.944C287.613 386.296 287.523 386.701 287.523 387.16C287.523 387.619 287.613 388.024 287.795 388.376C287.987 388.728 288.243 389.005 288.563 389.208C288.893 389.4 289.272 389.496 289.699 389.496ZM293.523 391H291.763V388.936L292.067 387.064L291.763 385.208V379.48H293.523V391ZM298.996 391.16C298.249 391.16 297.572 390.984 296.964 390.632C296.356 390.269 295.871 389.784 295.508 389.176C295.156 388.568 294.98 387.891 294.98 387.144C294.98 386.397 295.156 385.725 295.508 385.128C295.871 384.531 296.356 384.056 296.964 383.704C297.572 383.341 298.249 383.16 298.996 383.16C299.753 383.16 300.436 383.336 301.044 383.688C301.652 384.04 302.132 384.52 302.484 385.128C302.847 385.725 303.028 386.397 303.028 387.144C303.028 387.891 302.847 388.568 302.484 389.176C302.132 389.784 301.652 390.269 301.044 390.632C300.436 390.984 299.753 391.16 298.996 391.16ZM298.996 389.464C299.433 389.464 299.817 389.368 300.148 389.176C300.489 388.973 300.751 388.696 300.932 388.344C301.124 387.992 301.22 387.592 301.22 387.144C301.22 386.696 301.124 386.301 300.932 385.96C300.74 385.619 300.479 385.352 300.148 385.16C299.817 384.957 299.433 384.856 298.996 384.856C298.569 384.856 298.185 384.957 297.844 385.16C297.513 385.352 297.252 385.619 297.06 385.96C296.879 386.301 296.788 386.696 296.788 387.144C296.788 387.592 296.879 387.992 297.06 388.344C297.252 388.696 297.513 388.973 297.844 389.176C298.185 389.368 298.569 389.464 298.996 389.464Z" fill="black"/>
<rect x="192" y="350" width="13" height="12" fill="#57C203"/>
<rect x="192" y="379" width="13" height="12" fill="#939393"/>
<path d="M470.098 167V152.42H473.68C474.328 152.42 474.91 152.48 475.426 152.6C475.954 152.72 476.404 152.924 476.776 153.212C477.16 153.488 477.454 153.866 477.658 154.346C477.862 154.826 477.964 155.432 477.964 156.164C477.964 156.752 477.88 157.256 477.712 157.676C477.556 158.096 477.322 158.432 477.01 158.684C476.698 158.924 476.308 159.086 475.84 159.17C476.416 159.266 476.89 159.47 477.262 159.782C477.646 160.082 477.928 160.478 478.108 160.97C478.3 161.462 478.396 162.056 478.396 162.752C478.396 163.448 478.306 164.066 478.126 164.606C477.958 165.134 477.7 165.578 477.352 165.938C477.016 166.286 476.59 166.55 476.074 166.73C475.57 166.91 474.976 167 474.292 167H470.098ZM472.762 165.128H473.77C474.574 165.128 475.12 164.936 475.408 164.552C475.696 164.156 475.84 163.55 475.84 162.734C475.84 162.146 475.768 161.672 475.624 161.312C475.492 160.94 475.264 160.664 474.94 160.484C474.628 160.304 474.208 160.214 473.68 160.214H472.762V165.128ZM472.762 158.378H473.662C474.19 158.378 474.598 158.3 474.886 158.144C475.174 157.988 475.372 157.748 475.48 157.424C475.6 157.1 475.66 156.692 475.66 156.2C475.66 155.684 475.57 155.288 475.39 155.012C475.222 154.724 474.964 154.532 474.616 154.436C474.268 154.328 473.824 154.274 473.284 154.274H472.762V158.378ZM481.972 167.162C481.504 167.162 481.102 167.042 480.766 166.802C480.43 166.55 480.172 166.238 479.992 165.866C479.812 165.482 479.722 165.086 479.722 164.678C479.722 164.03 479.842 163.484 480.082 163.04C480.322 162.596 480.64 162.224 481.036 161.924C481.432 161.624 481.882 161.366 482.386 161.15C482.89 160.922 483.4 160.718 483.916 160.538V159.638C483.916 159.338 483.892 159.086 483.844 158.882C483.808 158.678 483.73 158.522 483.61 158.414C483.502 158.306 483.328 158.252 483.088 158.252C482.884 158.252 482.716 158.3 482.584 158.396C482.464 158.492 482.374 158.63 482.314 158.81C482.266 158.978 482.236 159.176 482.224 159.404L482.188 160.034L479.866 159.944C479.902 158.744 480.196 157.862 480.748 157.298C481.312 156.722 482.164 156.434 483.304 156.434C484.348 156.434 485.104 156.722 485.572 157.298C486.052 157.874 486.292 158.654 486.292 159.638V164.444C486.292 164.828 486.298 165.176 486.31 165.488C486.334 165.8 486.358 166.082 486.382 166.334C486.418 166.586 486.448 166.808 486.472 167H484.276C484.24 166.76 484.192 166.49 484.132 166.19C484.084 165.878 484.048 165.65 484.024 165.506C483.904 165.926 483.676 166.31 483.34 166.658C483.004 166.994 482.548 167.162 481.972 167.162ZM482.872 165.344C483.028 165.344 483.172 165.308 483.304 165.236C483.448 165.152 483.574 165.056 483.682 164.948C483.79 164.84 483.868 164.744 483.916 164.66V161.762C483.652 161.918 483.4 162.074 483.16 162.23C482.932 162.386 482.728 162.56 482.548 162.752C482.38 162.932 482.248 163.13 482.152 163.346C482.068 163.562 482.026 163.814 482.026 164.102C482.026 164.486 482.098 164.792 482.242 165.02C482.398 165.236 482.608 165.344 482.872 165.344ZM488.148 167V156.596H490.596V158.198C490.956 157.586 491.316 157.148 491.676 156.884C492.036 156.608 492.432 156.47 492.864 156.47C492.936 156.47 492.996 156.476 493.044 156.488C493.104 156.488 493.17 156.494 493.242 156.506V159.044C493.098 158.984 492.936 158.936 492.756 158.9C492.588 158.852 492.414 158.828 492.234 158.828C491.91 158.828 491.616 158.906 491.352 159.062C491.088 159.218 490.836 159.476 490.596 159.836V167H488.148Z" fill="black"/>
<path d="M22.098 162V147.42H26.382C27.258 147.42 27.966 147.582 28.506 147.906C29.058 148.23 29.46 148.704 29.712 149.328C29.976 149.94 30.108 150.684 30.108 151.56C30.108 152.508 29.946 153.276 29.622 153.864C29.298 154.44 28.842 154.86 28.254 155.124C27.678 155.388 26.994 155.52 26.202 155.52H24.762V162H22.098ZM24.762 153.648H25.77C26.25 153.648 26.622 153.582 26.886 153.45C27.162 153.306 27.348 153.084 27.444 152.784C27.552 152.472 27.606 152.058 27.606 151.542C27.606 151.014 27.564 150.588 27.48 150.264C27.408 149.928 27.24 149.682 26.976 149.526C26.724 149.37 26.322 149.292 25.77 149.292H24.762V153.648ZM33.3036 162.162C32.8356 162.162 32.4336 162.042 32.0976 161.802C31.7616 161.55 31.5036 161.238 31.3236 160.866C31.1436 160.482 31.0536 160.086 31.0536 159.678C31.0536 159.03 31.1736 158.484 31.4136 158.04C31.6536 157.596 31.9716 157.224 32.3676 156.924C32.7636 156.624 33.2136 156.366 33.7176 156.15C34.2216 155.922 34.7316 155.718 35.2476 155.538V154.638C35.2476 154.338 35.2236 154.086 35.1756 153.882C35.1396 153.678 35.0616 153.522 34.9416 153.414C34.8336 153.306 34.6596 153.252 34.4196 153.252C34.2156 153.252 34.0476 153.3 33.9156 153.396C33.7956 153.492 33.7056 153.63 33.6456 153.81C33.5976 153.978 33.5676 154.176 33.5556 154.404L33.5196 155.034L31.1976 154.944C31.2336 153.744 31.5276 152.862 32.0796 152.298C32.6436 151.722 33.4956 151.434 34.6356 151.434C35.6796 151.434 36.4356 151.722 36.9036 152.298C37.3836 152.874 37.6236 153.654 37.6236 154.638V159.444C37.6236 159.828 37.6296 160.176 37.6416 160.488C37.6656 160.8 37.6896 161.082 37.7136 161.334C37.7496 161.586 37.7796 161.808 37.8036 162H35.6076C35.5716 161.76 35.5236 161.49 35.4636 161.19C35.4156 160.878 35.3796 160.65 35.3556 160.506C35.2356 160.926 35.0076 161.31 34.6716 161.658C34.3356 161.994 33.8796 162.162 33.3036 162.162ZM34.2036 160.344C34.3596 160.344 34.5036 160.308 34.6356 160.236C34.7796 160.152 34.9056 160.056 35.0136 159.948C35.1216 159.84 35.1996 159.744 35.2476 159.66V156.762C34.9836 156.918 34.7316 157.074 34.4916 157.23C34.2636 157.386 34.0596 157.56 33.8796 157.752C33.7116 157.932 33.5796 158.13 33.4836 158.346C33.3996 158.562 33.3576 158.814 33.3576 159.102C33.3576 159.486 33.4296 159.792 33.5736 160.02C33.7296 160.236 33.9396 160.344 34.2036 160.344ZM39.5882 162V147.42H42.0182V162H39.5882ZM47.0934 162.162C46.2894 162.162 45.6414 162.012 45.1494 161.712C44.6694 161.4 44.3154 160.962 44.0874 160.398C43.8714 159.822 43.7634 159.144 43.7634 158.364V155.232C43.7634 154.428 43.8714 153.744 44.0874 153.18C44.3154 152.616 44.6754 152.184 45.1674 151.884C45.6594 151.584 46.3014 151.434 47.0934 151.434C47.8374 151.434 48.4434 151.554 48.9114 151.794C49.3914 152.022 49.7394 152.376 49.9554 152.856C50.1714 153.324 50.2794 153.918 50.2794 154.638V155.502H47.9754V154.584C47.9754 154.224 47.9454 153.942 47.8854 153.738C47.8374 153.522 47.7474 153.372 47.6154 153.288C47.4834 153.192 47.3094 153.144 47.0934 153.144C46.8774 153.144 46.7034 153.204 46.5714 153.324C46.4394 153.432 46.3434 153.612 46.2834 153.864C46.2354 154.116 46.2114 154.464 46.2114 154.908V158.724C46.2114 159.396 46.2834 159.852 46.4274 160.092C46.5714 160.32 46.7994 160.434 47.1114 160.434C47.3514 160.434 47.5314 160.38 47.6514 160.272C47.7834 160.164 47.8674 160.008 47.9034 159.804C47.9514 159.588 47.9754 159.33 47.9754 159.03V157.914H50.2794V158.904C50.2794 159.6 50.1654 160.194 49.9374 160.686C49.7214 161.178 49.3734 161.55 48.8934 161.802C48.4254 162.042 47.8254 162.162 47.0934 162.162ZM55.0391 162.162C54.2831 162.162 53.6591 162.024 53.1671 161.748C52.6751 161.46 52.3031 161.046 52.0511 160.506C51.8111 159.966 51.6911 159.312 51.6911 158.544V155.052C51.6911 154.284 51.8111 153.63 52.0511 153.09C52.3031 152.55 52.6751 152.142 53.1671 151.866C53.6591 151.578 54.2831 151.434 55.0391 151.434C55.7951 151.434 56.4191 151.578 56.9111 151.866C57.4151 152.142 57.7871 152.55 58.0271 153.09C58.2791 153.63 58.4051 154.284 58.4051 155.052V158.544C58.4051 159.312 58.2791 159.966 58.0271 160.506C57.7871 161.046 57.4151 161.46 56.9111 161.748C56.4191 162.024 55.7951 162.162 55.0391 162.162ZM55.0571 160.47C55.3331 160.47 55.5371 160.392 55.6691 160.236C55.8011 160.08 55.8851 159.87 55.9211 159.606C55.9571 159.33 55.9751 159.03 55.9751 158.706V154.89C55.9751 154.566 55.9571 154.272 55.9211 154.008C55.8851 153.744 55.8011 153.534 55.6691 153.378C55.5371 153.21 55.3331 153.126 55.0571 153.126C54.7811 153.126 54.5771 153.21 54.4451 153.378C54.3131 153.534 54.2231 153.744 54.1751 154.008C54.1391 154.272 54.1211 154.566 54.1211 154.89V158.706C54.1211 159.03 54.1391 159.33 54.1751 159.606C54.2231 159.87 54.3131 160.08 54.4451 160.236C54.5771 160.392 54.7811 160.47 55.0571 160.47Z" fill="black"/>
</svg>
