<svg width="1758" height="1032" viewBox="0 0 1758 1032" fill="none" xmlns="http://www.w3.org/2000/svg">
<rect x="83" y="2" width="556" height="1030" fill="#B3B470" fill-opacity="0.15"/>
<rect x="641" y="449" width="556" height="582" fill="#E00BCD" fill-opacity="0.15"/>
<rect x="1199" y="1" width="556" height="1030" fill="#E0110B" fill-opacity="0.15"/>
<circle cx="514.914" cy="67.9143" r="20.4143" fill="#D9D9D9" stroke="black"/>
<circle cx="592.12" cy="67.9143" r="20.4143" fill="#D9D9D9" stroke="black"/>
<circle cx="515.292" cy="144.743" r="20.4143" fill="#D9D9D9" stroke="black"/>
<circle cx="592.12" cy="144.743" r="20.4143" fill="#D9D9D9" stroke="black"/>
<circle cx="515.292" cy="221.571" r="20.4143" fill="#D9D9D9" stroke="black"/>
<circle cx="592.12" cy="221.571" r="20.4143" fill="#D9D9D9" stroke="black"/>
<circle cx="515.292" cy="298.4" r="20.4143" fill="#D9D9D9" stroke="black"/>
<circle cx="592.12" cy="298.4" r="20.4143" fill="#D9D9D9" stroke="black"/>
<circle cx="515.292" cy="375.229" r="20.4143" fill="#D9D9D9" stroke="black"/>
<circle cx="592.12" cy="375.229" r="20.4143" fill="#D9D9D9" stroke="black"/>
<circle cx="515.292" cy="452.057" r="20.4143" fill="#D9D9D9" stroke="black"/>
<circle cx="592.12" cy="452.057" r="20.4143" fill="#D9D9D9" stroke="black"/>
<circle cx="515.292" cy="528.886" r="20.4143" fill="#D9D9D9" stroke="black"/>
<circle cx="592.12" cy="528.886" r="20.4143" fill="#D9D9D9" stroke="black"/>
<circle cx="515.463" cy="605.714" r="20.4143" fill="#D9D9D9" stroke="black"/>
<circle cx="592.292" cy="605.714" r="20.4143" fill="#D9D9D9" stroke="black"/>
<circle cx="514.914" cy="682.714" r="20.4143" fill="#D9D9D9" stroke="black"/>
<circle cx="591.743" cy="682.714" r="20.4143" fill="#D9D9D9" stroke="black"/>
<path d="M506.491 43L511.616 32.858V32.7734H505.646V30.6364H514.321V32.8036L509.19 43H506.491ZM516.112 43V41.1165L520.513 37.0415C520.888 36.6793 521.202 36.3533 521.455 36.0636C521.713 35.7738 521.908 35.4901 522.041 35.2124C522.174 34.9306 522.24 34.6268 522.24 34.3008C522.24 33.9386 522.157 33.6267 521.992 33.3651C521.827 33.0994 521.602 32.8962 521.316 32.7553C521.031 32.6104 520.707 32.538 520.344 32.538C519.966 32.538 519.636 32.6145 519.354 32.7674C519.073 32.9203 518.855 33.1397 518.702 33.4254C518.549 33.7112 518.473 34.0513 518.473 34.4457H515.992C515.992 33.6367 516.175 32.9344 516.541 32.3388C516.907 31.7431 517.42 31.2823 518.081 30.9563C518.741 30.6303 519.501 30.4673 520.362 30.4673C521.248 30.4673 522.019 30.6243 522.675 30.9382C523.335 31.2481 523.848 31.6787 524.214 32.2301C524.58 32.7815 524.763 33.4134 524.763 34.1257C524.763 34.5926 524.671 35.0534 524.486 35.5082C524.305 35.9629 523.981 36.468 523.514 37.0234C523.047 37.5748 522.389 38.2369 521.54 39.0096L519.735 40.7784V40.8629H524.926V43H516.112Z" fill="black"/>
<path d="M582.6 43L587.725 32.858V32.7734H581.755V30.6364H590.43V32.8036L585.298 43H582.6ZM596.509 43.169C595.607 43.169 594.804 43.0141 594.1 42.7042C593.4 42.3903 592.846 41.9596 592.44 41.4123C592.038 40.8609 591.83 40.225 591.818 39.5046H594.45C594.466 39.8065 594.565 40.0721 594.746 40.3015C594.931 40.5269 595.177 40.7019 595.483 40.8267C595.788 40.9515 596.133 41.0138 596.515 41.0138C596.913 41.0138 597.265 40.9434 597.571 40.8026C597.877 40.6617 598.117 40.4665 598.29 40.217C598.463 39.9674 598.549 39.6797 598.549 39.3537C598.549 39.0237 598.457 38.7319 598.272 38.4783C598.091 38.2208 597.829 38.0195 597.487 37.8746C597.149 37.7298 596.746 37.6573 596.279 37.6573H595.126V35.7376H596.279C596.674 35.7376 597.022 35.6692 597.324 35.5323C597.63 35.3955 597.867 35.2063 598.036 34.9648C598.205 34.7193 598.29 34.4336 598.29 34.1076C598.29 33.7977 598.215 33.526 598.066 33.2926C597.921 33.0552 597.716 32.87 597.451 32.7372C597.189 32.6044 596.883 32.538 596.533 32.538C596.179 32.538 595.855 32.6024 595.561 32.7312C595.267 32.8559 595.032 33.035 594.855 33.2685C594.678 33.5019 594.583 33.7756 594.571 34.0895H592.066C592.078 33.3771 592.281 32.7493 592.675 32.206C593.07 31.6626 593.601 31.238 594.269 30.9322C594.941 30.6223 595.7 30.4673 596.545 30.4673C597.398 30.4673 598.145 30.6223 598.785 30.9322C599.425 31.2421 599.922 31.6606 600.276 32.1879C600.634 32.7111 600.811 33.2987 600.807 33.9506C600.811 34.6429 600.596 35.2204 600.161 35.6832C599.731 36.1461 599.169 36.4399 598.477 36.5646V36.6612C599.386 36.7779 600.079 37.0939 600.554 37.609C601.033 38.1201 601.27 38.7601 601.266 39.5288C601.27 40.2331 601.067 40.8589 600.656 41.4062C600.25 41.9536 599.688 42.3842 598.972 42.6982C598.256 43.0121 597.435 43.169 596.509 43.169Z" fill="black"/>
<path d="M505.6 120L510.725 109.858V109.773H504.755V107.636H513.43V109.804L508.298 120H505.6ZM514.038 117.827V115.768L519.199 107.636H520.974V110.486H519.924L516.67 115.635V115.732H524.005V117.827H514.038ZM519.972 120V117.199L520.02 116.287V107.636H522.471V120H519.972Z" fill="black"/>
<path d="M582.6 120L587.725 109.858V109.773H581.755V107.636H590.43V109.804L585.298 120H582.6ZM596.571 120.169C595.718 120.169 594.957 120.012 594.289 119.698C593.625 119.384 593.097 118.952 592.707 118.4C592.317 117.849 592.113 117.217 592.097 116.505H594.633C594.661 116.984 594.862 117.372 595.237 117.67C595.611 117.968 596.056 118.116 596.571 118.116C596.981 118.116 597.343 118.026 597.657 117.845C597.975 117.66 598.223 117.404 598.4 117.078C598.581 116.748 598.672 116.37 598.672 115.943C598.672 115.509 598.579 115.126 598.394 114.796C598.213 114.466 597.961 114.209 597.639 114.023C597.317 113.838 596.949 113.744 596.535 113.74C596.172 113.74 595.82 113.814 595.478 113.963C595.14 114.112 594.876 114.315 594.687 114.573L592.363 114.156L592.949 107.636H600.507V109.773H595.104L594.784 112.87H594.856C595.074 112.565 595.402 112.311 595.84 112.11C596.279 111.908 596.77 111.808 597.313 111.808C598.058 111.808 598.722 111.983 599.305 112.333C599.889 112.683 600.35 113.164 600.688 113.776C601.026 114.384 601.193 115.084 601.189 115.877C601.193 116.71 601 117.45 600.609 118.098C600.223 118.742 599.682 119.249 598.986 119.62C598.293 119.986 597.488 120.169 596.571 120.169Z" fill="black"/>
<path d="M505.6 197L510.725 186.858V186.773H504.755V184.636H513.43V186.804L508.298 197H505.6ZM519.701 197.169C519.065 197.165 518.451 197.058 517.859 196.849C517.272 196.64 516.744 196.3 516.278 195.829C515.811 195.358 515.44 194.734 515.167 193.957C514.897 193.181 514.762 192.227 514.762 191.096C514.766 190.058 514.885 189.13 515.118 188.313C515.356 187.492 515.694 186.796 516.133 186.224C516.575 185.653 517.105 185.218 517.72 184.92C518.336 184.618 519.026 184.467 519.791 184.467C520.616 184.467 521.345 184.628 521.976 184.95C522.608 185.268 523.115 185.701 523.498 186.248C523.884 186.796 524.118 187.409 524.198 188.089H521.62C521.52 187.659 521.308 187.321 520.986 187.075C520.664 186.83 520.266 186.707 519.791 186.707C518.986 186.707 518.374 187.057 517.956 187.757C517.541 188.458 517.33 189.41 517.322 190.613H517.406C517.592 190.247 517.841 189.935 518.155 189.677C518.473 189.416 518.833 189.216 519.236 189.08C519.642 188.939 520.071 188.868 520.522 188.868C521.254 188.868 521.906 189.041 522.478 189.387C523.049 189.73 523.5 190.2 523.83 190.8C524.16 191.4 524.325 192.086 524.325 192.859C524.325 193.696 524.13 194.44 523.739 195.092C523.353 195.744 522.812 196.255 522.115 196.626C521.423 196.992 520.618 197.173 519.701 197.169ZM519.688 195.116C520.091 195.116 520.451 195.02 520.769 194.827C521.087 194.634 521.337 194.372 521.518 194.042C521.699 193.712 521.789 193.342 521.789 192.931C521.789 192.521 521.699 192.152 521.518 191.826C521.341 191.5 521.095 191.241 520.781 191.048C520.467 190.854 520.109 190.758 519.707 190.758C519.405 190.758 519.125 190.814 518.867 190.927C518.614 191.04 518.391 191.196 518.197 191.398C518.008 191.599 517.859 191.832 517.751 192.098C517.642 192.36 517.588 192.639 517.588 192.937C517.588 193.336 517.678 193.7 517.859 194.03C518.044 194.36 518.294 194.623 518.608 194.821C518.926 195.018 519.286 195.116 519.688 195.116Z" fill="black"/>
<path d="M584.6 197L589.725 186.858V186.773H583.755V184.636H592.43V186.804L587.298 197H584.6ZM595.042 197L600.168 186.858V186.773H594.197V184.636H602.872V186.804L597.741 197H595.042Z" fill="black"/>
<path d="M505.6 274L510.725 263.858V263.773H504.755V261.636H513.43V263.804L508.298 274H505.6ZM519.584 274.169C518.655 274.169 517.828 274.018 517.103 273.716C516.383 273.41 515.817 272.994 515.407 272.467C514.996 271.939 514.791 271.342 514.791 270.674C514.791 270.158 514.908 269.686 515.141 269.255C515.379 268.82 515.701 268.46 516.107 268.174C516.514 267.885 516.968 267.699 517.471 267.619V267.534C516.811 267.402 516.276 267.082 515.866 266.575C515.455 266.063 515.25 265.47 515.25 264.794C515.25 264.154 515.437 263.584 515.811 263.085C516.186 262.582 516.699 262.188 517.351 261.902C518.007 261.612 518.751 261.467 519.584 261.467C520.417 261.467 521.16 261.612 521.812 261.902C522.468 262.192 522.983 262.588 523.357 263.091C523.732 263.59 523.921 264.158 523.925 264.794C523.921 265.474 523.712 266.067 523.297 266.575C522.882 267.082 522.351 267.402 521.703 267.534V267.619C522.198 267.699 522.647 267.885 523.05 268.174C523.456 268.46 523.778 268.82 524.015 269.255C524.257 269.686 524.38 270.158 524.384 270.674C524.38 271.342 524.172 271.939 523.762 272.467C523.351 272.994 522.784 273.41 522.059 273.716C521.339 274.018 520.514 274.169 519.584 274.169ZM519.584 272.249C519.999 272.249 520.361 272.175 520.671 272.026C520.981 271.873 521.222 271.664 521.395 271.398C521.572 271.128 521.661 270.819 521.661 270.468C521.661 270.11 521.57 269.794 521.389 269.521C521.208 269.243 520.963 269.026 520.653 268.869C520.343 268.708 519.987 268.627 519.584 268.627C519.186 268.627 518.83 268.708 518.516 268.869C518.202 269.026 517.954 269.243 517.773 269.521C517.596 269.794 517.508 270.11 517.508 270.468C517.508 270.819 517.594 271.128 517.767 271.398C517.94 271.664 518.184 271.873 518.498 272.026C518.812 272.175 519.174 272.249 519.584 272.249ZM519.584 266.725C519.93 266.725 520.238 266.655 520.508 266.514C520.778 266.373 520.989 266.178 521.142 265.929C521.295 265.679 521.371 265.391 521.371 265.065C521.371 264.743 521.295 264.462 521.142 264.22C520.989 263.975 520.78 263.783 520.514 263.647C520.248 263.506 519.938 263.435 519.584 263.435C519.234 263.435 518.924 263.506 518.655 263.647C518.385 263.783 518.174 263.975 518.021 264.22C517.872 264.462 517.797 264.743 517.797 265.065C517.797 265.391 517.874 265.679 518.027 265.929C518.18 266.178 518.391 266.373 518.661 266.514C518.93 266.655 519.238 266.725 519.584 266.725Z" fill="black"/>
<path d="M582.6 274L587.725 263.858V263.773H581.755V261.636H590.43V263.804L585.298 274H582.6ZM596.528 261.467C597.164 261.467 597.776 261.574 598.364 261.787C598.955 262.001 599.483 262.341 599.945 262.808C600.412 263.274 600.78 263.894 601.05 264.667C601.324 265.436 601.463 266.379 601.467 267.498C601.467 268.549 601.348 269.486 601.111 270.311C600.877 271.132 600.541 271.831 600.102 272.406C599.664 272.982 599.134 273.42 598.515 273.722C597.895 274.02 597.203 274.169 596.438 274.169C595.613 274.169 594.884 274.01 594.253 273.692C593.621 273.37 593.112 272.933 592.725 272.382C592.343 271.827 592.111 271.203 592.031 270.511H594.609C594.709 270.961 594.921 271.312 595.243 271.561C595.565 271.807 595.963 271.929 596.438 271.929C597.243 271.929 597.855 271.579 598.273 270.879C598.692 270.175 598.903 269.211 598.907 267.987H598.823C598.637 268.349 598.388 268.661 598.074 268.923C597.76 269.181 597.4 269.38 596.993 269.521C596.591 269.661 596.162 269.732 595.707 269.732C594.979 269.732 594.329 269.561 593.758 269.219C593.186 268.877 592.735 268.406 592.405 267.806C592.075 267.206 591.91 266.522 591.91 265.754C591.906 264.924 592.097 264.186 592.484 263.538C592.87 262.89 593.409 262.383 594.102 262.017C594.798 261.646 595.607 261.463 596.528 261.467ZM596.547 263.52C596.14 263.52 595.778 263.616 595.46 263.81C595.146 264.003 594.896 264.262 594.711 264.588C594.53 264.914 594.442 265.279 594.446 265.681C594.446 266.088 594.534 266.454 594.711 266.78C594.892 267.102 595.138 267.359 595.448 267.553C595.762 267.742 596.12 267.836 596.522 267.836C596.824 267.836 597.104 267.78 597.362 267.667C597.619 267.555 597.843 267.4 598.032 267.202C598.225 267.001 598.376 266.77 598.484 266.508C598.593 266.247 598.647 265.969 598.647 265.675C598.643 265.285 598.551 264.926 598.37 264.6C598.189 264.275 597.939 264.013 597.621 263.816C597.303 263.618 596.945 263.52 596.547 263.52Z" fill="black"/>
<path d="M509.723 351.169C508.793 351.169 507.966 351.018 507.242 350.716C506.521 350.41 505.956 349.994 505.545 349.467C505.135 348.939 504.93 348.342 504.93 347.674C504.93 347.158 505.046 346.686 505.28 346.255C505.517 345.82 505.839 345.46 506.246 345.174C506.652 344.885 507.107 344.699 507.61 344.619V344.534C506.95 344.402 506.415 344.082 506.004 343.575C505.594 343.063 505.388 342.47 505.388 341.794C505.388 341.154 505.576 340.584 505.95 340.085C506.324 339.582 506.837 339.188 507.489 338.902C508.145 338.612 508.89 338.467 509.723 338.467C510.556 338.467 511.299 338.612 511.951 338.902C512.607 339.192 513.122 339.588 513.496 340.091C513.87 340.59 514.06 341.158 514.064 341.794C514.06 342.474 513.85 343.067 513.436 343.575C513.021 344.082 512.49 344.402 511.842 344.534V344.619C512.337 344.699 512.786 344.885 513.188 345.174C513.595 345.46 513.917 345.82 514.154 346.255C514.396 346.686 514.518 347.158 514.522 347.674C514.518 348.342 514.311 348.939 513.901 349.467C513.49 349.994 512.923 350.41 512.198 350.716C511.478 351.018 510.653 351.169 509.723 351.169ZM509.723 349.249C510.138 349.249 510.5 349.175 510.81 349.026C511.12 348.873 511.361 348.664 511.534 348.398C511.711 348.128 511.8 347.819 511.8 347.468C511.8 347.11 511.709 346.794 511.528 346.521C511.347 346.243 511.101 346.026 510.792 345.869C510.482 345.708 510.125 345.627 509.723 345.627C509.325 345.627 508.968 345.708 508.654 345.869C508.341 346.026 508.093 346.243 507.912 346.521C507.735 346.794 507.646 347.11 507.646 347.468C507.646 347.819 507.733 348.128 507.906 348.398C508.079 348.664 508.322 348.873 508.636 349.026C508.95 349.175 509.312 349.249 509.723 349.249ZM509.723 343.725C510.069 343.725 510.377 343.655 510.647 343.514C510.916 343.373 511.128 343.178 511.281 342.929C511.433 342.679 511.51 342.391 511.51 342.065C511.51 341.743 511.433 341.462 511.281 341.22C511.128 340.975 510.918 340.783 510.653 340.647C510.387 340.506 510.077 340.435 509.723 340.435C509.373 340.435 509.063 340.506 508.793 340.647C508.524 340.783 508.312 340.975 508.159 341.22C508.011 341.462 507.936 341.743 507.936 342.065C507.936 342.391 508.013 342.679 508.165 342.929C508.318 343.178 508.53 343.373 508.799 343.514C509.069 343.655 509.377 343.725 509.723 343.725ZM521.198 351.272C520.159 351.268 519.266 351.012 518.517 350.505C517.773 349.998 517.199 349.263 516.797 348.301C516.398 347.34 516.201 346.183 516.205 344.83C516.205 343.482 516.404 342.333 516.803 341.383C517.205 340.433 517.779 339.711 518.523 339.216C519.272 338.717 520.163 338.467 521.198 338.467C522.232 338.467 523.121 338.717 523.866 339.216C524.615 339.715 525.19 340.439 525.593 341.389C525.995 342.335 526.194 343.482 526.19 344.83C526.19 346.187 525.989 347.346 525.587 348.308C525.188 349.269 524.617 350.004 523.872 350.511C523.127 351.018 522.236 351.272 521.198 351.272ZM521.198 349.104C521.906 349.104 522.471 348.748 522.894 348.036C523.317 347.324 523.526 346.255 523.522 344.83C523.522 343.893 523.425 343.112 523.232 342.488C523.043 341.864 522.773 341.395 522.423 341.081C522.077 340.767 521.669 340.61 521.198 340.61C520.493 340.61 519.93 340.963 519.507 341.667C519.085 342.371 518.871 343.426 518.867 344.83C518.867 345.78 518.962 346.573 519.151 347.209C519.344 347.841 519.616 348.316 519.966 348.634C520.316 348.947 520.727 349.104 521.198 349.104Z" fill="black"/>
<path d="M588.723 351.169C587.793 351.169 586.966 351.018 586.242 350.716C585.521 350.41 584.956 349.994 584.545 349.467C584.135 348.939 583.93 348.342 583.93 347.674C583.93 347.158 584.046 346.686 584.28 346.255C584.517 345.82 584.839 345.46 585.246 345.174C585.652 344.885 586.107 344.699 586.61 344.619V344.534C585.95 344.402 585.415 344.082 585.004 343.575C584.594 343.063 584.388 342.47 584.388 341.794C584.388 341.154 584.576 340.584 584.95 340.085C585.324 339.582 585.837 339.188 586.489 338.902C587.145 338.612 587.89 338.467 588.723 338.467C589.556 338.467 590.299 338.612 590.951 338.902C591.607 339.192 592.122 339.588 592.496 340.091C592.87 340.59 593.06 341.158 593.064 341.794C593.06 342.474 592.85 343.067 592.436 343.575C592.021 344.082 591.49 344.402 590.842 344.534V344.619C591.337 344.699 591.786 344.885 592.188 345.174C592.595 345.46 592.917 345.82 593.154 346.255C593.396 346.686 593.518 347.158 593.522 347.674C593.518 348.342 593.311 348.939 592.901 349.467C592.49 349.994 591.923 350.41 591.198 350.716C590.478 351.018 589.653 351.169 588.723 351.169ZM588.723 349.249C589.138 349.249 589.5 349.175 589.81 349.026C590.12 348.873 590.361 348.664 590.534 348.398C590.711 348.128 590.8 347.819 590.8 347.468C590.8 347.11 590.709 346.794 590.528 346.521C590.347 346.243 590.101 346.026 589.792 345.869C589.482 345.708 589.125 345.627 588.723 345.627C588.325 345.627 587.968 345.708 587.654 345.869C587.341 346.026 587.093 346.243 586.912 346.521C586.735 346.794 586.646 347.11 586.646 347.468C586.646 347.819 586.733 348.128 586.906 348.398C587.079 348.664 587.322 348.873 587.636 349.026C587.95 349.175 588.312 349.249 588.723 349.249ZM588.723 343.725C589.069 343.725 589.377 343.655 589.647 343.514C589.916 343.373 590.128 343.178 590.281 342.929C590.433 342.679 590.51 342.391 590.51 342.065C590.51 341.743 590.433 341.462 590.281 341.22C590.128 340.975 589.918 340.783 589.653 340.647C589.387 340.506 589.077 340.435 588.723 340.435C588.373 340.435 588.063 340.506 587.793 340.647C587.524 340.783 587.312 340.975 587.159 341.22C587.011 341.462 586.936 341.743 586.936 342.065C586.936 342.391 587.013 342.679 587.165 342.929C587.318 343.178 587.53 343.373 587.799 343.514C588.069 343.655 588.377 343.725 588.723 343.725ZM600.729 338.636V351H598.115V341.118H598.043L595.211 342.892V340.574L598.272 338.636H600.729Z" fill="black"/>
<path d="M509.723 428.169C508.793 428.169 507.966 428.018 507.242 427.716C506.521 427.41 505.956 426.994 505.545 426.467C505.135 425.939 504.93 425.342 504.93 424.674C504.93 424.158 505.046 423.686 505.28 423.255C505.517 422.82 505.839 422.46 506.246 422.174C506.652 421.885 507.107 421.699 507.61 421.619V421.534C506.95 421.402 506.415 421.082 506.004 420.575C505.594 420.063 505.388 419.47 505.388 418.794C505.388 418.154 505.576 417.584 505.95 417.085C506.324 416.582 506.837 416.188 507.489 415.902C508.145 415.612 508.89 415.467 509.723 415.467C510.556 415.467 511.299 415.612 511.951 415.902C512.607 416.192 513.122 416.588 513.496 417.091C513.87 417.59 514.06 418.158 514.064 418.794C514.06 419.474 513.85 420.067 513.436 420.575C513.021 421.082 512.49 421.402 511.842 421.534V421.619C512.337 421.699 512.786 421.885 513.188 422.174C513.595 422.46 513.917 422.82 514.154 423.255C514.396 423.686 514.518 424.158 514.522 424.674C514.518 425.342 514.311 425.939 513.901 426.467C513.49 426.994 512.923 427.41 512.198 427.716C511.478 428.018 510.653 428.169 509.723 428.169ZM509.723 426.249C510.138 426.249 510.5 426.175 510.81 426.026C511.12 425.873 511.361 425.664 511.534 425.398C511.711 425.128 511.8 424.819 511.8 424.468C511.8 424.11 511.709 423.794 511.528 423.521C511.347 423.243 511.101 423.026 510.792 422.869C510.482 422.708 510.125 422.627 509.723 422.627C509.325 422.627 508.968 422.708 508.654 422.869C508.341 423.026 508.093 423.243 507.912 423.521C507.735 423.794 507.646 424.11 507.646 424.468C507.646 424.819 507.733 425.128 507.906 425.398C508.079 425.664 508.322 425.873 508.636 426.026C508.95 426.175 509.312 426.249 509.723 426.249ZM509.723 420.725C510.069 420.725 510.377 420.655 510.647 420.514C510.916 420.373 511.128 420.178 511.281 419.929C511.433 419.679 511.51 419.391 511.51 419.065C511.51 418.743 511.433 418.462 511.281 418.22C511.128 417.975 510.918 417.783 510.653 417.647C510.387 417.506 510.077 417.435 509.723 417.435C509.373 417.435 509.063 417.506 508.793 417.647C508.524 417.783 508.312 417.975 508.159 418.22C508.011 418.462 507.936 418.743 507.936 419.065C507.936 419.391 508.013 419.679 508.165 419.929C508.318 420.178 508.53 420.373 508.799 420.514C509.069 420.655 509.377 420.725 509.723 420.725ZM516.35 428V426.116L520.751 422.042C521.125 421.679 521.439 421.353 521.693 421.064C521.95 420.774 522.145 420.49 522.278 420.212C522.411 419.931 522.478 419.627 522.478 419.301C522.478 418.939 522.395 418.627 522.23 418.365C522.065 418.099 521.84 417.896 521.554 417.755C521.268 417.61 520.944 417.538 520.582 417.538C520.204 417.538 519.874 417.614 519.592 417.767C519.31 417.92 519.093 418.14 518.94 418.425C518.787 418.711 518.71 419.051 518.71 419.446H516.229C516.229 418.637 516.412 417.934 516.779 417.339C517.145 416.743 517.658 416.282 518.318 415.956C518.978 415.63 519.739 415.467 520.6 415.467C521.485 415.467 522.256 415.624 522.912 415.938C523.572 416.248 524.085 416.679 524.452 417.23C524.818 417.781 525.001 418.413 525.001 419.126C525.001 419.593 524.908 420.053 524.723 420.508C524.542 420.963 524.218 421.468 523.751 422.023C523.284 422.575 522.626 423.237 521.777 424.01L519.972 425.778V425.863H525.164V428H516.35Z" fill="black"/>
<path d="M586.723 428.169C585.793 428.169 584.966 428.018 584.242 427.716C583.521 427.41 582.956 426.994 582.545 426.467C582.135 425.939 581.93 425.342 581.93 424.674C581.93 424.158 582.046 423.686 582.28 423.255C582.517 422.82 582.839 422.46 583.246 422.174C583.652 421.885 584.107 421.699 584.61 421.619V421.534C583.95 421.402 583.415 421.082 583.004 420.575C582.594 420.063 582.388 419.47 582.388 418.794C582.388 418.154 582.576 417.584 582.95 417.085C583.324 416.582 583.837 416.188 584.489 415.902C585.145 415.612 585.89 415.467 586.723 415.467C587.556 415.467 588.299 415.612 588.951 415.902C589.607 416.192 590.122 416.588 590.496 417.091C590.87 417.59 591.06 418.158 591.064 418.794C591.06 419.474 590.85 420.067 590.436 420.575C590.021 421.082 589.49 421.402 588.842 421.534V421.619C589.337 421.699 589.786 421.885 590.188 422.174C590.595 422.46 590.917 422.82 591.154 423.255C591.396 423.686 591.518 424.158 591.522 424.674C591.518 425.342 591.311 425.939 590.901 426.467C590.49 426.994 589.923 427.41 589.198 427.716C588.478 428.018 587.653 428.169 586.723 428.169ZM586.723 426.249C587.138 426.249 587.5 426.175 587.81 426.026C588.12 425.873 588.361 425.664 588.534 425.398C588.711 425.128 588.8 424.819 588.8 424.468C588.8 424.11 588.709 423.794 588.528 423.521C588.347 423.243 588.101 423.026 587.792 422.869C587.482 422.708 587.125 422.627 586.723 422.627C586.325 422.627 585.968 422.708 585.654 422.869C585.341 423.026 585.093 423.243 584.912 423.521C584.735 423.794 584.646 424.11 584.646 424.468C584.646 424.819 584.733 425.128 584.906 425.398C585.079 425.664 585.322 425.873 585.636 426.026C585.95 426.175 586.312 426.249 586.723 426.249ZM586.723 420.725C587.069 420.725 587.377 420.655 587.647 420.514C587.916 420.373 588.128 420.178 588.281 419.929C588.433 419.679 588.51 419.391 588.51 419.065C588.51 418.743 588.433 418.462 588.281 418.22C588.128 417.975 587.918 417.783 587.653 417.647C587.387 417.506 587.077 417.435 586.723 417.435C586.373 417.435 586.063 417.506 585.793 417.647C585.524 417.783 585.312 417.975 585.159 418.22C585.011 418.462 584.936 418.743 584.936 419.065C584.936 419.391 585.013 419.679 585.165 419.929C585.318 420.178 585.53 420.373 585.799 420.514C586.069 420.655 586.377 420.725 586.723 420.725ZM597.92 428.169C597.018 428.169 596.216 428.014 595.511 427.704C594.811 427.39 594.258 426.96 593.851 426.412C593.449 425.861 593.241 425.225 593.229 424.505H595.861C595.877 424.806 595.976 425.072 596.157 425.301C596.342 425.527 596.588 425.702 596.894 425.827C597.2 425.951 597.544 426.014 597.926 426.014C598.324 426.014 598.677 425.943 598.982 425.803C599.288 425.662 599.528 425.467 599.701 425.217C599.874 424.967 599.96 424.68 599.96 424.354C599.96 424.024 599.868 423.732 599.683 423.478C599.502 423.221 599.24 423.02 598.898 422.875C598.56 422.73 598.157 422.657 597.691 422.657H596.538V420.738H597.691C598.085 420.738 598.433 420.669 598.735 420.532C599.041 420.395 599.278 420.206 599.447 419.965C599.616 419.719 599.701 419.434 599.701 419.108C599.701 418.798 599.626 418.526 599.478 418.293C599.333 418.055 599.127 417.87 598.862 417.737C598.6 417.604 598.294 417.538 597.944 417.538C597.59 417.538 597.266 417.602 596.972 417.731C596.678 417.856 596.443 418.035 596.266 418.268C596.089 418.502 595.994 418.776 595.982 419.089H593.477C593.489 418.377 593.692 417.749 594.087 417.206C594.481 416.663 595.012 416.238 595.68 415.932C596.352 415.622 597.111 415.467 597.956 415.467C598.809 415.467 599.556 415.622 600.196 415.932C600.836 416.242 601.333 416.661 601.687 417.188C602.045 417.711 602.222 418.299 602.218 418.951C602.222 419.643 602.007 420.22 601.572 420.683C601.142 421.146 600.58 421.44 599.888 421.565V421.661C600.798 421.778 601.49 422.094 601.965 422.609C602.444 423.12 602.681 423.76 602.677 424.529C602.681 425.233 602.478 425.859 602.067 426.406C601.661 426.954 601.099 427.384 600.383 427.698C599.667 428.012 598.846 428.169 597.92 428.169Z" fill="black"/>
<path d="M508.723 505.169C507.793 505.169 506.966 505.018 506.242 504.716C505.521 504.41 504.956 503.994 504.545 503.467C504.135 502.939 503.93 502.342 503.93 501.674C503.93 501.158 504.046 500.686 504.28 500.255C504.517 499.82 504.839 499.46 505.246 499.174C505.652 498.885 506.107 498.699 506.61 498.619V498.534C505.95 498.402 505.415 498.082 505.004 497.575C504.594 497.063 504.388 496.47 504.388 495.794C504.388 495.154 504.576 494.584 504.95 494.085C505.324 493.582 505.837 493.188 506.489 492.902C507.145 492.612 507.89 492.467 508.723 492.467C509.556 492.467 510.299 492.612 510.951 492.902C511.607 493.192 512.122 493.588 512.496 494.091C512.87 494.59 513.06 495.158 513.064 495.794C513.06 496.474 512.85 497.067 512.436 497.575C512.021 498.082 511.49 498.402 510.842 498.534V498.619C511.337 498.699 511.786 498.885 512.188 499.174C512.595 499.46 512.917 499.82 513.154 500.255C513.396 500.686 513.518 501.158 513.522 501.674C513.518 502.342 513.311 502.939 512.901 503.467C512.49 503.994 511.923 504.41 511.198 504.716C510.478 505.018 509.653 505.169 508.723 505.169ZM508.723 503.249C509.138 503.249 509.5 503.175 509.81 503.026C510.12 502.873 510.361 502.664 510.534 502.398C510.711 502.128 510.8 501.819 510.8 501.468C510.8 501.11 510.709 500.794 510.528 500.521C510.347 500.243 510.101 500.026 509.792 499.869C509.482 499.708 509.125 499.627 508.723 499.627C508.325 499.627 507.968 499.708 507.654 499.869C507.341 500.026 507.093 500.243 506.912 500.521C506.735 500.794 506.646 501.11 506.646 501.468C506.646 501.819 506.733 502.128 506.906 502.398C507.079 502.664 507.322 502.873 507.636 503.026C507.95 503.175 508.312 503.249 508.723 503.249ZM508.723 497.725C509.069 497.725 509.377 497.655 509.647 497.514C509.916 497.373 510.128 497.178 510.281 496.929C510.433 496.679 510.51 496.391 510.51 496.065C510.51 495.743 510.433 495.462 510.281 495.22C510.128 494.975 509.918 494.783 509.653 494.647C509.387 494.506 509.077 494.435 508.723 494.435C508.373 494.435 508.063 494.506 507.793 494.647C507.524 494.783 507.312 494.975 507.159 495.22C507.011 495.462 506.936 495.743 506.936 496.065C506.936 496.391 507.013 496.679 507.165 496.929C507.318 497.178 507.53 497.373 507.799 497.514C508.069 497.655 508.377 497.725 508.723 497.725ZM515.163 502.827V500.768L520.324 492.636H522.099V495.486H521.049L517.795 500.635V500.732H525.13V502.827H515.163ZM521.097 505V502.199L521.145 501.287V492.636H523.596V505H521.097Z" fill="black"/>
<path d="M586.723 505.169C585.793 505.169 584.966 505.018 584.242 504.716C583.521 504.41 582.956 503.994 582.545 503.467C582.135 502.939 581.93 502.342 581.93 501.674C581.93 501.158 582.046 500.686 582.28 500.255C582.517 499.82 582.839 499.46 583.246 499.174C583.652 498.885 584.107 498.699 584.61 498.619V498.534C583.95 498.402 583.415 498.082 583.004 497.575C582.594 497.063 582.388 496.47 582.388 495.794C582.388 495.154 582.576 494.584 582.95 494.085C583.324 493.582 583.837 493.188 584.489 492.902C585.145 492.612 585.89 492.467 586.723 492.467C587.556 492.467 588.299 492.612 588.951 492.902C589.607 493.192 590.122 493.588 590.496 494.091C590.87 494.59 591.06 495.158 591.064 495.794C591.06 496.474 590.85 497.067 590.436 497.575C590.021 498.082 589.49 498.402 588.842 498.534V498.619C589.337 498.699 589.786 498.885 590.188 499.174C590.595 499.46 590.917 499.82 591.154 500.255C591.396 500.686 591.518 501.158 591.522 501.674C591.518 502.342 591.311 502.939 590.901 503.467C590.49 503.994 589.923 504.41 589.198 504.716C588.478 505.018 587.653 505.169 586.723 505.169ZM586.723 503.249C587.138 503.249 587.5 503.175 587.81 503.026C588.12 502.873 588.361 502.664 588.534 502.398C588.711 502.128 588.8 501.819 588.8 501.468C588.8 501.11 588.709 500.794 588.528 500.521C588.347 500.243 588.101 500.026 587.792 499.869C587.482 499.708 587.125 499.627 586.723 499.627C586.325 499.627 585.968 499.708 585.654 499.869C585.341 500.026 585.093 500.243 584.912 500.521C584.735 500.794 584.646 501.11 584.646 501.468C584.646 501.819 584.733 502.128 584.906 502.398C585.079 502.664 585.322 502.873 585.636 503.026C585.95 503.175 586.312 503.249 586.723 503.249ZM586.723 497.725C587.069 497.725 587.377 497.655 587.647 497.514C587.916 497.373 588.128 497.178 588.281 496.929C588.433 496.679 588.51 496.391 588.51 496.065C588.51 495.743 588.433 495.462 588.281 495.22C588.128 494.975 587.918 494.783 587.653 494.647C587.387 494.506 587.077 494.435 586.723 494.435C586.373 494.435 586.063 494.506 585.793 494.647C585.524 494.783 585.312 494.975 585.159 495.22C585.011 495.462 584.936 495.743 584.936 496.065C584.936 496.391 585.013 496.679 585.165 496.929C585.318 497.178 585.53 497.373 585.799 497.514C586.069 497.655 586.377 497.725 586.723 497.725ZM597.866 505.169C597.012 505.169 596.252 505.012 595.584 504.698C594.92 504.384 594.392 503.952 594.002 503.4C593.612 502.849 593.408 502.217 593.392 501.505H595.928C595.956 501.984 596.157 502.372 596.531 502.67C596.906 502.968 597.351 503.116 597.866 503.116C598.276 503.116 598.638 503.026 598.952 502.845C599.27 502.66 599.518 502.404 599.695 502.078C599.876 501.748 599.967 501.37 599.967 500.943C599.967 500.509 599.874 500.126 599.689 499.796C599.508 499.466 599.256 499.209 598.934 499.023C598.612 498.838 598.244 498.744 597.829 498.74C597.467 498.74 597.115 498.814 596.773 498.963C596.435 499.112 596.171 499.315 595.982 499.573L593.658 499.156L594.243 492.636H601.802V494.773H596.399L596.079 497.87H596.151C596.368 497.565 596.697 497.311 597.135 497.11C597.574 496.908 598.065 496.808 598.608 496.808C599.353 496.808 600.017 496.983 600.6 497.333C601.184 497.683 601.645 498.164 601.983 498.776C602.321 499.384 602.488 500.084 602.484 500.877C602.488 501.71 602.295 502.45 601.904 503.098C601.518 503.742 600.977 504.249 600.28 504.62C599.588 504.986 598.783 505.169 597.866 505.169Z" fill="black"/>
<path d="M509.723 582.169C508.793 582.169 507.966 582.018 507.242 581.716C506.521 581.41 505.956 580.994 505.545 580.467C505.135 579.939 504.93 579.342 504.93 578.674C504.93 578.158 505.046 577.686 505.28 577.255C505.517 576.82 505.839 576.46 506.246 576.174C506.652 575.885 507.107 575.699 507.61 575.619V575.534C506.95 575.402 506.415 575.082 506.004 574.575C505.594 574.063 505.388 573.47 505.388 572.794C505.388 572.154 505.576 571.584 505.95 571.085C506.324 570.582 506.837 570.188 507.489 569.902C508.145 569.612 508.89 569.467 509.723 569.467C510.556 569.467 511.299 569.612 511.951 569.902C512.607 570.192 513.122 570.588 513.496 571.091C513.87 571.59 514.06 572.158 514.064 572.794C514.06 573.474 513.85 574.067 513.436 574.575C513.021 575.082 512.49 575.402 511.842 575.534V575.619C512.337 575.699 512.786 575.885 513.188 576.174C513.595 576.46 513.917 576.82 514.154 577.255C514.396 577.686 514.518 578.158 514.522 578.674C514.518 579.342 514.311 579.939 513.901 580.467C513.49 580.994 512.923 581.41 512.198 581.716C511.478 582.018 510.653 582.169 509.723 582.169ZM509.723 580.249C510.138 580.249 510.5 580.175 510.81 580.026C511.12 579.873 511.361 579.664 511.534 579.398C511.711 579.128 511.8 578.819 511.8 578.468C511.8 578.11 511.709 577.794 511.528 577.521C511.347 577.243 511.101 577.026 510.792 576.869C510.482 576.708 510.125 576.627 509.723 576.627C509.325 576.627 508.968 576.708 508.654 576.869C508.341 577.026 508.093 577.243 507.912 577.521C507.735 577.794 507.646 578.11 507.646 578.468C507.646 578.819 507.733 579.128 507.906 579.398C508.079 579.664 508.322 579.873 508.636 580.026C508.95 580.175 509.312 580.249 509.723 580.249ZM509.723 574.725C510.069 574.725 510.377 574.655 510.647 574.514C510.916 574.373 511.128 574.178 511.281 573.929C511.433 573.679 511.51 573.391 511.51 573.065C511.51 572.743 511.433 572.462 511.281 572.22C511.128 571.975 510.918 571.783 510.653 571.647C510.387 571.506 510.077 571.435 509.723 571.435C509.373 571.435 509.063 571.506 508.793 571.647C508.524 571.783 508.312 571.975 508.159 572.22C508.011 572.462 507.936 572.743 507.936 573.065C507.936 573.391 508.013 573.679 508.165 573.929C508.318 574.178 508.53 574.373 508.799 574.514C509.069 574.655 509.377 574.725 509.723 574.725ZM521.095 582.169C520.459 582.165 519.845 582.058 519.254 581.849C518.666 581.64 518.139 581.3 517.672 580.829C517.205 580.358 516.835 579.734 516.561 578.957C516.292 578.181 516.157 577.227 516.157 576.096C516.161 575.058 516.28 574.13 516.513 573.313C516.75 572.492 517.089 571.796 517.527 571.224C517.97 570.653 518.499 570.218 519.115 569.92C519.731 569.618 520.421 569.467 521.186 569.467C522.011 569.467 522.739 569.628 523.371 569.95C524.003 570.268 524.51 570.701 524.892 571.248C525.279 571.796 525.512 572.409 525.593 573.089H523.015C522.914 572.659 522.703 572.321 522.381 572.075C522.059 571.83 521.661 571.707 521.186 571.707C520.381 571.707 519.769 572.057 519.35 572.757C518.936 573.458 518.725 574.41 518.717 575.613H518.801C518.986 575.247 519.236 574.935 519.55 574.677C519.868 574.416 520.228 574.216 520.63 574.08C521.037 573.939 521.465 573.868 521.916 573.868C522.649 573.868 523.301 574.041 523.872 574.387C524.444 574.73 524.894 575.2 525.224 575.8C525.554 576.4 525.719 577.086 525.719 577.859C525.719 578.696 525.524 579.44 525.134 580.092C524.747 580.744 524.206 581.255 523.51 581.626C522.818 581.992 522.013 582.173 521.095 582.169ZM521.083 580.116C521.485 580.116 521.846 580.02 522.164 579.827C522.482 579.634 522.731 579.372 522.912 579.042C523.093 578.712 523.184 578.342 523.184 577.931C523.184 577.521 523.093 577.152 522.912 576.826C522.735 576.5 522.49 576.241 522.176 576.048C521.862 575.854 521.504 575.758 521.101 575.758C520.799 575.758 520.52 575.814 520.262 575.927C520.008 576.04 519.785 576.196 519.592 576.398C519.403 576.599 519.254 576.832 519.145 577.098C519.036 577.36 518.982 577.639 518.982 577.937C518.982 578.336 519.073 578.7 519.254 579.03C519.439 579.36 519.688 579.623 520.002 579.821C520.32 580.018 520.681 580.116 521.083 580.116Z" fill="black"/>
<path d="M509.174 658.169C508.245 658.169 507.418 658.018 506.693 657.716C505.973 657.41 505.407 656.994 504.997 656.467C504.586 655.939 504.381 655.342 504.381 654.674C504.381 654.158 504.498 653.686 504.731 653.255C504.969 652.82 505.291 652.46 505.697 652.174C506.104 651.885 506.558 651.699 507.061 651.619V651.534C506.401 651.402 505.866 651.082 505.456 650.575C505.045 650.063 504.84 649.47 504.84 648.794C504.84 648.154 505.027 647.584 505.401 647.085C505.776 646.582 506.289 646.188 506.941 645.902C507.597 645.612 508.341 645.467 509.174 645.467C510.008 645.467 510.75 645.612 511.402 645.902C512.058 646.192 512.573 646.588 512.947 647.091C513.322 647.59 513.511 648.158 513.515 648.794C513.511 649.474 513.302 650.067 512.887 650.575C512.473 651.082 511.941 651.402 511.293 651.534V651.619C511.788 651.699 512.237 651.885 512.64 652.174C513.046 652.46 513.368 652.82 513.606 653.255C513.847 653.686 513.97 654.158 513.974 654.674C513.97 655.342 513.762 655.939 513.352 656.467C512.941 656.994 512.374 657.41 511.65 657.716C510.929 658.018 510.104 658.169 509.174 658.169ZM509.174 656.249C509.589 656.249 509.951 656.175 510.261 656.026C510.571 655.873 510.812 655.664 510.985 655.398C511.163 655.128 511.251 654.819 511.251 654.468C511.251 654.11 511.161 653.794 510.979 653.521C510.798 653.243 510.553 653.026 510.243 652.869C509.933 652.708 509.577 652.627 509.174 652.627C508.776 652.627 508.42 652.708 508.106 652.869C507.792 653.026 507.544 653.243 507.363 653.521C507.186 653.794 507.098 654.11 507.098 654.468C507.098 654.819 507.184 655.128 507.357 655.398C507.53 655.664 507.774 655.873 508.088 656.026C508.402 656.175 508.764 656.249 509.174 656.249ZM509.174 650.725C509.521 650.725 509.828 650.655 510.098 650.514C510.368 650.373 510.579 650.178 510.732 649.929C510.885 649.679 510.961 649.391 510.961 649.065C510.961 648.743 510.885 648.462 510.732 648.22C510.579 647.975 510.37 647.783 510.104 647.647C509.838 647.506 509.529 647.435 509.174 647.435C508.824 647.435 508.514 647.506 508.245 647.647C507.975 647.783 507.764 647.975 507.611 648.22C507.462 648.462 507.387 648.743 507.387 649.065C507.387 649.391 507.464 649.679 507.617 649.929C507.77 650.178 507.981 650.373 508.251 650.514C508.52 650.655 508.828 650.725 509.174 650.725ZM520.414 658.169C519.484 658.169 518.657 658.018 517.932 657.716C517.212 657.41 516.647 656.994 516.236 656.467C515.826 655.939 515.62 655.342 515.62 654.674C515.62 654.158 515.737 653.686 515.97 653.255C516.208 652.82 516.53 652.46 516.936 652.174C517.343 651.885 517.798 651.699 518.301 651.619V651.534C517.641 651.402 517.105 651.082 516.695 650.575C516.284 650.063 516.079 649.47 516.079 648.794C516.079 648.154 516.266 647.584 516.641 647.085C517.015 646.582 517.528 646.188 518.18 645.902C518.836 645.612 519.581 645.467 520.414 645.467C521.247 645.467 521.989 645.612 522.641 645.902C523.297 646.192 523.812 646.588 524.187 647.091C524.561 647.59 524.75 648.158 524.754 648.794C524.75 649.474 524.541 650.067 524.126 650.575C523.712 651.082 523.181 651.402 522.533 651.534V651.619C523.028 651.699 523.476 651.885 523.879 652.174C524.285 652.46 524.607 652.82 524.845 653.255C525.086 653.686 525.209 654.158 525.213 654.674C525.209 655.342 525.002 655.939 524.591 656.467C524.181 656.994 523.613 657.41 522.889 657.716C522.168 658.018 521.343 658.169 520.414 658.169ZM520.414 656.249C520.828 656.249 521.19 656.175 521.5 656.026C521.81 655.873 522.052 655.664 522.225 655.398C522.402 655.128 522.49 654.819 522.49 654.468C522.49 654.11 522.4 653.794 522.219 653.521C522.038 653.243 521.792 653.026 521.482 652.869C521.172 652.708 520.816 652.627 520.414 652.627C520.015 652.627 519.659 652.708 519.345 652.869C519.031 653.026 518.784 653.243 518.603 653.521C518.426 653.794 518.337 654.11 518.337 654.468C518.337 654.819 518.423 655.128 518.597 655.398C518.77 655.664 519.013 655.873 519.327 656.026C519.641 656.175 520.003 656.249 520.414 656.249ZM520.414 650.725C520.76 650.725 521.068 650.655 521.337 650.514C521.607 650.373 521.818 650.178 521.971 649.929C522.124 649.679 522.201 649.391 522.201 649.065C522.201 648.743 522.124 648.462 521.971 648.22C521.818 647.975 521.609 647.783 521.343 647.647C521.078 647.506 520.768 647.435 520.414 647.435C520.064 647.435 519.754 647.506 519.484 647.647C519.214 647.783 519.003 647.975 518.85 648.22C518.701 648.462 518.627 648.743 518.627 649.065C518.627 649.391 518.703 649.679 518.856 649.929C519.009 650.178 519.22 650.373 519.49 650.514C519.76 650.655 520.068 650.725 520.414 650.725Z" fill="black"/>
<path d="M586.723 581.169C585.793 581.169 584.966 581.018 584.242 580.716C583.521 580.41 582.956 579.994 582.545 579.467C582.135 578.939 581.93 578.342 581.93 577.674C581.93 577.158 582.046 576.686 582.28 576.255C582.517 575.82 582.839 575.46 583.246 575.174C583.652 574.885 584.107 574.699 584.61 574.619V574.534C583.95 574.402 583.415 574.082 583.004 573.575C582.594 573.063 582.388 572.47 582.388 571.794C582.388 571.154 582.576 570.584 582.95 570.085C583.324 569.582 583.837 569.188 584.489 568.902C585.145 568.612 585.89 568.467 586.723 568.467C587.556 568.467 588.299 568.612 588.951 568.902C589.607 569.192 590.122 569.588 590.496 570.091C590.87 570.59 591.06 571.158 591.064 571.794C591.06 572.474 590.85 573.067 590.436 573.575C590.021 574.082 589.49 574.402 588.842 574.534V574.619C589.337 574.699 589.786 574.885 590.188 575.174C590.595 575.46 590.917 575.82 591.154 576.255C591.396 576.686 591.518 577.158 591.522 577.674C591.518 578.342 591.311 578.939 590.901 579.467C590.49 579.994 589.923 580.41 589.198 580.716C588.478 581.018 587.653 581.169 586.723 581.169ZM586.723 579.249C587.138 579.249 587.5 579.175 587.81 579.026C588.12 578.873 588.361 578.664 588.534 578.398C588.711 578.128 588.8 577.819 588.8 577.468C588.8 577.11 588.709 576.794 588.528 576.521C588.347 576.243 588.101 576.026 587.792 575.869C587.482 575.708 587.125 575.627 586.723 575.627C586.325 575.627 585.968 575.708 585.654 575.869C585.341 576.026 585.093 576.243 584.912 576.521C584.735 576.794 584.646 577.11 584.646 577.468C584.646 577.819 584.733 578.128 584.906 578.398C585.079 578.664 585.322 578.873 585.636 579.026C585.95 579.175 586.312 579.249 586.723 579.249ZM586.723 573.725C587.069 573.725 587.377 573.655 587.647 573.514C587.916 573.373 588.128 573.178 588.281 572.929C588.433 572.679 588.51 572.391 588.51 572.065C588.51 571.743 588.433 571.462 588.281 571.22C588.128 570.975 587.918 570.783 587.653 570.647C587.387 570.506 587.077 570.435 586.723 570.435C586.373 570.435 586.063 570.506 585.793 570.647C585.524 570.783 585.312 570.975 585.159 571.22C585.011 571.462 584.936 571.743 584.936 572.065C584.936 572.391 585.013 572.679 585.165 572.929C585.318 573.178 585.53 573.373 585.799 573.514C586.069 573.655 586.377 573.725 586.723 573.725ZM593.839 581L598.964 570.858V570.773H592.994V568.636H601.669V570.804L596.538 581H593.839Z" fill="black"/>
<path d="M586.174 658.169C585.245 658.169 584.418 658.018 583.693 657.716C582.973 657.41 582.407 656.994 581.997 656.467C581.586 655.939 581.381 655.342 581.381 654.674C581.381 654.158 581.498 653.686 581.731 653.255C581.969 652.82 582.291 652.46 582.697 652.174C583.104 651.885 583.558 651.699 584.061 651.619V651.534C583.401 651.402 582.866 651.082 582.456 650.575C582.045 650.063 581.84 649.47 581.84 648.794C581.84 648.154 582.027 647.584 582.401 647.085C582.776 646.582 583.289 646.188 583.941 645.902C584.597 645.612 585.341 645.467 586.174 645.467C587.008 645.467 587.75 645.612 588.402 645.902C589.058 646.192 589.573 646.588 589.947 647.091C590.322 647.59 590.511 648.158 590.515 648.794C590.511 649.474 590.302 650.067 589.887 650.575C589.473 651.082 588.941 651.402 588.293 651.534V651.619C588.788 651.699 589.237 651.885 589.64 652.174C590.046 652.46 590.368 652.82 590.606 653.255C590.847 653.686 590.97 654.158 590.974 654.674C590.97 655.342 590.762 655.939 590.352 656.467C589.941 656.994 589.374 657.41 588.65 657.716C587.929 658.018 587.104 658.169 586.174 658.169ZM586.174 656.249C586.589 656.249 586.951 656.175 587.261 656.026C587.571 655.873 587.812 655.664 587.985 655.398C588.163 655.128 588.251 654.819 588.251 654.468C588.251 654.11 588.161 653.794 587.979 653.521C587.798 653.243 587.553 653.026 587.243 652.869C586.933 652.708 586.577 652.627 586.174 652.627C585.776 652.627 585.42 652.708 585.106 652.869C584.792 653.026 584.544 653.243 584.363 653.521C584.186 653.794 584.098 654.11 584.098 654.468C584.098 654.819 584.184 655.128 584.357 655.398C584.53 655.664 584.774 655.873 585.088 656.026C585.402 656.175 585.764 656.249 586.174 656.249ZM586.174 650.725C586.521 650.725 586.828 650.655 587.098 650.514C587.368 650.373 587.579 650.178 587.732 649.929C587.885 649.679 587.961 649.391 587.961 649.065C587.961 648.743 587.885 648.462 587.732 648.22C587.579 647.975 587.37 647.783 587.104 647.647C586.838 647.506 586.529 647.435 586.174 647.435C585.824 647.435 585.514 647.506 585.245 647.647C584.975 647.783 584.764 647.975 584.611 648.22C584.462 648.462 584.387 648.743 584.387 649.065C584.387 649.391 584.464 649.679 584.617 649.929C584.77 650.178 584.981 650.373 585.251 650.514C585.52 650.655 585.828 650.725 586.174 650.725ZM597.275 645.467C597.911 645.467 598.522 645.574 599.11 645.787C599.702 646.001 600.229 646.341 600.692 646.808C601.159 647.274 601.527 647.894 601.796 648.667C602.07 649.436 602.209 650.379 602.213 651.498C602.213 652.549 602.094 653.486 601.857 654.311C601.623 655.132 601.287 655.831 600.849 656.406C600.41 656.982 599.881 657.42 599.261 657.722C598.641 658.02 597.949 658.169 597.184 658.169C596.359 658.169 595.631 658.01 594.999 657.692C594.367 657.37 593.858 656.933 593.472 656.382C593.089 655.827 592.858 655.203 592.777 654.511H595.355C595.456 654.961 595.667 655.312 595.989 655.561C596.311 655.807 596.709 655.929 597.184 655.929C597.989 655.929 598.601 655.579 599.019 654.879C599.438 654.175 599.649 653.211 599.653 651.987H599.569C599.384 652.349 599.134 652.661 598.82 652.923C598.506 653.181 598.146 653.38 597.74 653.521C597.337 653.661 596.909 653.732 596.454 653.732C595.725 653.732 595.075 653.561 594.504 653.219C593.932 652.877 593.482 652.406 593.152 651.806C592.822 651.206 592.657 650.522 592.657 649.754C592.653 648.924 592.844 648.186 593.23 647.538C593.616 646.89 594.156 646.383 594.848 646.017C595.544 645.646 596.353 645.463 597.275 645.467ZM597.293 647.52C596.886 647.52 596.524 647.616 596.206 647.81C595.892 648.003 595.643 648.262 595.458 648.588C595.277 648.914 595.188 649.279 595.192 649.681C595.192 650.088 595.281 650.454 595.458 650.78C595.639 651.102 595.884 651.359 596.194 651.553C596.508 651.742 596.866 651.836 597.269 651.836C597.571 651.836 597.85 651.78 598.108 651.667C598.365 651.555 598.589 651.4 598.778 651.202C598.971 651.001 599.122 650.77 599.231 650.508C599.339 650.247 599.394 649.969 599.394 649.675C599.39 649.285 599.297 648.926 599.116 648.6C598.935 648.275 598.685 648.013 598.367 647.816C598.05 647.618 597.691 647.52 597.293 647.52Z" fill="black"/>
<path d="M82 1V564H5" stroke="black" stroke-width="2"/>
<path d="M81.7886 640.782H0" stroke="black" stroke-width="2"/>
<path d="M7 727.917H90.3909V1031H1757V1H90.3909" stroke="black" stroke-width="2"/>
<g filter="url(#filter0_d_1917_1492)">
<rect x="744.257" y="122.491" width="253.063" height="242.606" fill="#D9D9D9"/>
<rect x="744.757" y="122.991" width="252.063" height="241.606" stroke="black"/>
</g>
<path d="M1091.43 22.1028V391.24H1106.07V22.1028H1091.43Z" stroke="black" stroke-width="2"/>
<path d="M1091.43 391.24H677.332V406.926H1091.43V391.24Z" stroke="black" stroke-width="2"/>
<path d="M676.286 15.8286V391.24H660.6V15.8286H676.286Z" stroke="black" stroke-width="2"/>
<path d="M1070.52 249.023H999.411V244.84V196.737L1070.52 200.92V249.023Z" fill="#D9D9D9"/>
<path d="M999.411 244.84L1070.52 249.023M1070.52 249.023H999.411V196.737L1070.52 200.92V249.023Z" stroke="#BFBFBF" stroke-width="2"/>
<path d="M790.578 257V220.636H804.925C807.683 220.636 810.033 221.163 811.974 222.217C813.915 223.258 815.395 224.708 816.413 226.567C817.443 228.413 817.958 230.544 817.958 232.959C817.958 235.374 817.437 237.504 816.395 239.351C815.354 241.197 813.844 242.636 811.868 243.665C809.903 244.695 807.523 245.21 804.73 245.21H795.586V239.049H803.487C804.967 239.049 806.186 238.795 807.145 238.286C808.115 237.765 808.837 237.049 809.311 236.137C809.796 235.214 810.039 234.154 810.039 232.959C810.039 231.751 809.796 230.698 809.311 229.798C808.837 228.887 808.115 228.183 807.145 227.685C806.174 227.176 804.943 226.922 803.451 226.922H798.267V257H790.578ZM825.02 257H816.781L829.335 220.636H839.242L851.778 257H843.539L834.431 228.946H834.146L825.02 257ZM824.505 242.707H843.965V248.708H824.505V242.707ZM856.155 257V220.636H863.843V250.661H879.432V257H856.155ZM915.192 233.367H907.415C907.273 232.361 906.983 231.467 906.545 230.686C906.107 229.893 905.545 229.218 904.858 228.662C904.172 228.106 903.379 227.679 902.479 227.384C901.591 227.088 900.627 226.94 899.585 226.94C897.703 226.94 896.064 227.407 894.667 228.342C893.27 229.266 892.187 230.615 891.417 232.391C890.648 234.154 890.263 236.297 890.263 238.818C890.263 241.411 890.648 243.589 891.417 245.352C892.199 247.116 893.288 248.448 894.684 249.347C896.081 250.247 897.697 250.697 899.532 250.697C900.562 250.697 901.515 250.561 902.39 250.288C903.278 250.016 904.065 249.62 904.752 249.099C905.439 248.566 906.007 247.921 906.456 247.163C906.918 246.406 907.238 245.542 907.415 244.571L915.192 244.607C914.991 246.276 914.488 247.885 913.683 249.436C912.89 250.975 911.819 252.354 910.469 253.573C909.132 254.781 907.534 255.739 905.675 256.45C903.829 257.148 901.739 257.497 899.407 257.497C896.164 257.497 893.264 256.763 890.707 255.295C888.162 253.828 886.15 251.703 884.67 248.921C883.202 246.139 882.469 242.772 882.469 238.818C882.469 234.853 883.214 231.479 884.706 228.697C886.197 225.916 888.221 223.797 890.778 222.341C893.335 220.873 896.211 220.139 899.407 220.139C901.515 220.139 903.468 220.435 905.267 221.027C907.078 221.619 908.682 222.483 910.079 223.619C911.475 224.744 912.612 226.123 913.488 227.756C914.376 229.39 914.944 231.26 915.192 233.367ZM954.122 238.818C954.122 242.784 953.37 246.157 951.867 248.939C950.375 251.721 948.339 253.845 945.759 255.313C943.19 256.769 940.302 257.497 937.094 257.497C933.862 257.497 930.962 256.763 928.394 255.295C925.825 253.828 923.795 251.703 922.303 248.921C920.812 246.139 920.066 242.772 920.066 238.818C920.066 234.853 920.812 231.479 922.303 228.697C923.795 225.916 925.825 223.797 928.394 222.341C930.962 220.873 933.862 220.139 937.094 220.139C940.302 220.139 943.19 220.873 945.759 222.341C948.339 223.797 950.375 225.916 951.867 228.697C953.37 231.479 954.122 234.853 954.122 238.818ZM946.327 238.818C946.327 236.25 945.942 234.083 945.173 232.32C944.415 230.556 943.344 229.218 941.959 228.307C940.574 227.395 938.952 226.94 937.094 226.94C935.235 226.94 933.614 227.395 932.229 228.307C930.844 229.218 929.767 230.556 928.997 232.32C928.24 234.083 927.861 236.25 927.861 238.818C927.861 241.387 928.24 243.553 928.997 245.317C929.767 247.08 930.844 248.418 932.229 249.33C933.614 250.241 935.235 250.697 937.094 250.697C938.952 250.697 940.574 250.241 941.959 249.33C943.344 248.418 944.415 247.08 945.173 245.317C945.942 243.553 946.327 241.387 946.327 238.818Z" fill="black"/>
<path d="M348.273 614.484C346.114 614.74 344.437 615.777 343.244 617.595C342.051 619.413 341.455 621.643 341.455 624.285C341.455 626.217 341.767 627.907 342.392 629.356C343.017 630.791 343.876 631.913 344.97 632.723C346.064 633.518 347.307 633.916 348.699 633.916C349.864 633.916 350.865 633.639 351.703 633.085C352.527 632.517 353.216 631.792 353.77 630.912C354.31 630.031 354.757 629.108 355.112 628.142C355.453 627.176 355.73 626.288 355.943 625.479L357.136 621.047C357.435 619.91 357.847 618.646 358.372 617.254C358.898 615.848 359.615 614.505 360.524 613.227C361.419 611.934 362.57 610.869 363.976 610.031C365.382 609.193 367.108 608.774 369.153 608.774C371.511 608.774 373.642 609.392 375.545 610.628C377.449 611.849 378.962 613.639 380.084 615.997C381.206 618.341 381.767 621.189 381.767 624.541C381.767 627.666 381.263 630.372 380.254 632.659C379.246 634.932 377.839 636.721 376.036 638.028C374.232 639.321 372.136 640.052 369.75 640.223L369.75 634.768C371.398 634.626 372.761 634.072 373.841 633.106C374.906 632.126 375.702 630.89 376.227 629.399C376.739 627.893 376.994 626.274 376.994 624.541C376.994 622.524 376.668 620.713 376.014 619.108C375.347 617.503 374.423 616.231 373.244 615.294C372.051 614.356 370.659 613.888 369.068 613.888C367.619 613.888 366.44 614.292 365.531 615.102C364.622 615.912 363.884 616.977 363.315 618.298C362.747 619.619 362.25 621.047 361.824 622.581L360.29 627.95C359.31 631.359 357.911 634.058 356.092 636.047C354.274 638.035 351.895 639.03 348.955 639.03C346.511 639.03 344.381 638.369 342.562 637.048C340.73 635.713 339.31 633.923 338.301 631.679C337.278 629.42 336.767 626.899 336.767 624.115C336.767 621.302 337.271 618.802 338.28 616.615C339.274 614.427 340.638 612.694 342.371 611.416C344.104 610.123 346.071 609.442 348.273 609.371L348.273 614.484ZM381 600.086L337.364 600.086L337.364 573.751L342.051 573.751L342.051 594.802L356.795 594.802L356.795 575.115L361.483 575.115L361.483 594.802L376.312 594.802L376.312 573.41L381 573.41L381 600.086ZM342.051 566.613L337.364 566.613L337.364 533.886L342.051 533.886L342.051 547.607L381 547.607L381 552.891L342.051 552.891L342.051 566.613ZM359.182 490.729C363.784 490.729 367.761 491.56 371.114 493.222C374.466 494.884 377.051 497.164 378.869 500.061C380.687 502.959 381.597 506.269 381.597 509.99C381.597 513.712 380.687 517.021 378.869 519.919C377.051 522.817 374.466 525.097 371.114 526.759C367.761 528.421 363.784 529.252 359.182 529.252C354.58 529.252 350.602 528.421 347.25 526.759C343.898 525.097 341.312 522.817 339.494 519.919C337.676 517.021 336.767 513.712 336.767 509.99C336.767 506.269 337.676 502.959 339.494 500.061C341.312 497.164 343.898 494.884 347.25 493.222C350.602 491.56 354.58 490.729 359.182 490.729ZM359.182 495.842C355.403 495.842 352.214 496.475 349.615 497.739C347.016 498.989 345.048 500.686 343.713 502.831C342.378 504.962 341.71 507.348 341.71 509.99C341.71 512.632 342.378 515.026 343.713 517.171C345.048 519.301 347.016 520.999 349.615 522.263C352.214 523.513 355.403 524.138 359.182 524.138C362.96 524.138 366.149 523.513 368.749 522.263C371.348 520.999 373.315 519.301 374.651 517.171C375.986 515.026 376.653 512.632 376.653 509.99C376.653 507.348 375.986 504.962 374.651 502.831C373.315 500.686 371.348 498.989 368.749 497.739C366.149 496.475 362.96 495.842 359.182 495.842ZM381 481.844L337.364 481.844L337.364 467.1C337.364 463.691 337.946 460.892 339.111 458.705C340.261 456.517 341.845 454.898 343.862 453.847C345.879 452.796 348.173 452.27 350.744 452.27C353.315 452.27 355.595 452.796 357.584 453.847C359.572 454.898 361.135 456.51 362.271 458.683C363.393 460.857 363.955 463.634 363.955 467.014L363.955 478.946L359.182 478.946L359.182 467.185C359.182 464.855 358.841 462.98 358.159 461.56C357.477 460.125 356.511 459.088 355.261 458.449C353.997 457.796 352.491 457.469 350.744 457.469C348.997 457.469 347.47 457.796 346.163 458.449C344.857 459.102 343.848 460.146 343.138 461.581C342.413 463.016 342.051 464.912 342.051 467.27L342.051 476.56L381 476.56L381 481.844ZM361.398 461.304L381 450.566L381 456.702L361.398 467.27L361.398 461.304ZM381 423.548L381 433.435L337.364 418.371L337.364 406.482L381 391.439L381 401.325L347.335 412.256L347.335 412.597L381 423.548ZM363.848 424.166L363.848 400.814L371.05 400.814L371.05 424.166L363.848 424.166Z" fill="black"/>
<path d="M823.643 727.273C823.388 725.114 822.351 723.438 820.532 722.244C818.714 721.051 816.484 720.455 813.842 720.455C811.91 720.455 810.22 720.767 808.771 721.392C807.336 722.017 806.214 722.876 805.405 723.97C804.609 725.064 804.211 726.307 804.211 727.699C804.211 728.864 804.488 729.865 805.042 730.703C805.611 731.527 806.335 732.216 807.216 732.77C808.096 733.31 809.02 733.757 809.986 734.112C810.951 734.453 811.839 734.73 812.649 734.943L817.081 736.136C818.217 736.435 819.481 736.847 820.873 737.372C822.28 737.898 823.622 738.615 824.9 739.524C826.193 740.419 827.258 741.57 828.096 742.976C828.934 744.382 829.353 746.108 829.353 748.153C829.353 750.511 828.736 752.642 827.5 754.545C826.278 756.449 824.488 757.962 822.13 759.084C819.787 760.206 816.939 760.767 813.586 760.767C810.461 760.767 807.755 760.263 805.469 759.254C803.196 758.246 801.406 756.839 800.099 755.036C798.807 753.232 798.075 751.136 797.905 748.75H803.359C803.501 750.398 804.055 751.761 805.021 752.841C806.001 753.906 807.237 754.702 808.728 755.227C810.234 755.739 811.853 755.994 813.586 755.994C815.603 755.994 817.415 755.668 819.02 755.014C820.625 754.347 821.896 753.423 822.834 752.244C823.771 751.051 824.24 749.659 824.24 748.068C824.24 746.619 823.835 745.44 823.025 744.531C822.216 743.622 821.15 742.884 819.829 742.315C818.508 741.747 817.081 741.25 815.547 740.824L810.177 739.29C806.768 738.31 804.069 736.911 802.081 735.092C800.092 733.274 799.098 730.895 799.098 727.955C799.098 725.511 799.758 723.381 801.079 721.562C802.415 719.73 804.204 718.31 806.449 717.301C808.707 716.278 811.228 715.767 814.013 715.767C816.825 715.767 819.325 716.271 821.513 717.28C823.7 718.274 825.433 719.638 826.711 721.371C828.004 723.104 828.686 725.071 828.757 727.273H823.643ZM838.041 760V716.364H864.377V721.051H843.325V735.795H863.013V740.483H843.325V755.312H864.717V760H838.041ZM871.514 721.051V716.364H904.242V721.051H890.52V760H885.236V721.051H871.514ZM947.399 738.182C947.399 742.784 946.568 746.761 944.906 750.114C943.244 753.466 940.964 756.051 938.066 757.869C935.168 759.688 931.859 760.597 928.137 760.597C924.416 760.597 921.106 759.688 918.208 757.869C915.311 756.051 913.031 753.466 911.369 750.114C909.707 746.761 908.876 742.784 908.876 738.182C908.876 733.58 909.707 729.602 911.369 726.25C913.031 722.898 915.311 720.312 918.208 718.494C921.106 716.676 924.416 715.767 928.137 715.767C931.859 715.767 935.168 716.676 938.066 718.494C940.964 720.312 943.244 722.898 944.906 726.25C946.568 729.602 947.399 733.58 947.399 738.182ZM942.285 738.182C942.285 734.403 941.653 731.214 940.389 728.615C939.139 726.016 937.441 724.048 935.296 722.713C933.166 721.378 930.779 720.71 928.137 720.71C925.495 720.71 923.102 721.378 920.957 722.713C918.826 724.048 917.129 726.016 915.864 728.615C914.614 731.214 913.989 734.403 913.989 738.182C913.989 741.96 914.614 745.149 915.864 747.749C917.129 750.348 918.826 752.315 920.957 753.651C923.102 754.986 925.495 755.653 928.137 755.653C930.779 755.653 933.166 754.986 935.296 753.651C937.441 752.315 939.139 750.348 940.389 747.749C941.653 745.149 942.285 741.96 942.285 738.182ZM956.284 760V716.364H971.028C974.437 716.364 977.235 716.946 979.423 718.111C981.61 719.261 983.23 720.845 984.281 722.862C985.332 724.879 985.857 727.173 985.857 729.744C985.857 732.315 985.332 734.595 984.281 736.584C983.23 738.572 981.617 740.135 979.444 741.271C977.271 742.393 974.494 742.955 971.113 742.955H959.181V738.182H970.943C973.272 738.182 975.147 737.841 976.568 737.159C978.002 736.477 979.039 735.511 979.678 734.261C980.332 732.997 980.659 731.491 980.659 729.744C980.659 727.997 980.332 726.47 979.678 725.163C979.025 723.857 977.981 722.848 976.546 722.138C975.112 721.413 973.215 721.051 970.857 721.051H961.568V760H956.284ZM976.823 740.398L987.562 760H981.426L970.857 740.398H976.823ZM1007.06 760V716.364H1024.53C1027.74 716.364 1030.42 716.839 1032.56 717.791C1034.71 718.743 1036.32 720.064 1037.4 721.754C1038.48 723.43 1039.02 725.362 1039.02 727.55C1039.02 729.254 1038.68 730.753 1038 732.045C1037.31 733.324 1036.38 734.375 1035.18 735.199C1034 736.009 1032.65 736.584 1031.13 736.925V737.351C1032.8 737.422 1034.35 737.891 1035.8 738.757C1037.26 739.624 1038.45 740.838 1039.36 742.401C1040.27 743.949 1040.72 745.795 1040.72 747.94C1040.72 750.256 1040.15 752.322 1039 754.141C1037.86 755.945 1036.18 757.372 1033.95 758.423C1031.72 759.474 1028.97 760 1025.7 760H1007.06ZM1016.28 752.457H1023.8C1026.38 752.457 1028.25 751.967 1029.43 750.987C1030.61 749.993 1031.2 748.672 1031.2 747.024C1031.2 745.817 1030.91 744.751 1030.32 743.828C1029.74 742.905 1028.91 742.18 1027.83 741.655C1026.77 741.129 1025.5 740.866 1024.02 740.866H1016.28V752.457ZM1016.28 734.624H1023.12C1024.39 734.624 1025.51 734.403 1026.49 733.963C1027.48 733.509 1028.27 732.869 1028.83 732.045C1029.42 731.222 1029.71 730.234 1029.71 729.084C1029.71 727.507 1029.15 726.236 1028.02 725.27C1026.92 724.304 1025.34 723.821 1023.29 723.821H1016.28V734.624Z" fill="black"/>
<path d="M1379.01 503.273C1378.75 501.114 1377.72 499.438 1375.9 498.244C1374.08 497.051 1371.85 496.455 1369.21 496.455C1367.28 496.455 1365.59 496.767 1364.14 497.392C1362.7 498.017 1361.58 498.876 1360.77 499.97C1359.98 501.064 1359.58 502.307 1359.58 503.699C1359.58 504.864 1359.86 505.865 1360.41 506.703C1360.98 507.527 1361.7 508.216 1362.58 508.77C1363.46 509.31 1364.39 509.757 1365.35 510.112C1366.32 510.453 1367.21 510.73 1368.02 510.943L1372.45 512.136C1373.58 512.435 1374.85 512.847 1376.24 513.372C1377.65 513.898 1378.99 514.615 1380.27 515.524C1381.56 516.419 1382.63 517.57 1383.46 518.976C1384.3 520.382 1384.72 522.108 1384.72 524.153C1384.72 526.511 1384.1 528.642 1382.87 530.545C1381.65 532.449 1379.86 533.962 1377.5 535.084C1375.15 536.206 1372.31 536.767 1368.95 536.767C1365.83 536.767 1363.12 536.263 1360.84 535.254C1358.56 534.246 1356.77 532.839 1355.47 531.036C1354.17 529.232 1353.44 527.136 1353.27 524.75H1358.73C1358.87 526.398 1359.42 527.761 1360.39 528.841C1361.37 529.906 1362.6 530.702 1364.1 531.227C1365.6 531.739 1367.22 531.994 1368.95 531.994C1370.97 531.994 1372.78 531.668 1374.39 531.014C1375.99 530.347 1377.26 529.423 1378.2 528.244C1379.14 527.051 1379.61 525.659 1379.61 524.068C1379.61 522.619 1379.2 521.44 1378.39 520.531C1377.58 519.622 1376.52 518.884 1375.2 518.315C1373.88 517.747 1372.45 517.25 1370.91 516.824L1365.54 515.29C1362.14 514.31 1359.44 512.911 1357.45 511.092C1355.46 509.274 1354.46 506.895 1354.46 503.955C1354.46 501.511 1355.13 499.381 1356.45 497.562C1357.78 495.73 1359.57 494.31 1361.82 493.301C1364.07 492.278 1366.6 491.767 1369.38 491.767C1372.19 491.767 1374.69 492.271 1376.88 493.28C1379.07 494.274 1380.8 495.638 1382.08 497.371C1383.37 499.104 1384.05 501.071 1384.12 503.273H1379.01ZM1393.41 536V492.364H1419.74V497.051H1398.69V511.795H1418.38V516.483H1398.69V531.312H1420.08V536H1393.41ZM1426.88 497.051V492.364H1459.61V497.051H1445.89V536H1440.6V497.051H1426.88ZM1502.77 514.182C1502.77 518.784 1501.93 522.761 1500.27 526.114C1498.61 529.466 1496.33 532.051 1493.43 533.869C1490.54 535.688 1487.23 536.597 1483.5 536.597C1479.78 536.597 1476.47 535.688 1473.58 533.869C1470.68 532.051 1468.4 529.466 1466.74 526.114C1465.07 522.761 1464.24 518.784 1464.24 514.182C1464.24 509.58 1465.07 505.602 1466.74 502.25C1468.4 498.898 1470.68 496.312 1473.58 494.494C1476.47 492.676 1479.78 491.767 1483.5 491.767C1487.23 491.767 1490.54 492.676 1493.43 494.494C1496.33 496.312 1498.61 498.898 1500.27 502.25C1501.93 505.602 1502.77 509.58 1502.77 514.182ZM1497.65 514.182C1497.65 510.403 1497.02 507.214 1495.76 504.615C1494.51 502.016 1492.81 500.048 1490.66 498.713C1488.53 497.378 1486.15 496.71 1483.5 496.71C1480.86 496.71 1478.47 497.378 1476.32 498.713C1474.19 500.048 1472.5 502.016 1471.23 504.615C1469.98 507.214 1469.36 510.403 1469.36 514.182C1469.36 517.96 1469.98 521.149 1471.23 523.749C1472.5 526.348 1474.19 528.315 1476.32 529.651C1478.47 530.986 1480.86 531.653 1483.5 531.653C1486.15 531.653 1488.53 530.986 1490.66 529.651C1492.81 528.315 1494.51 526.348 1495.76 523.749C1497.02 521.149 1497.65 517.96 1497.65 514.182ZM1511.65 536V492.364H1526.39C1529.8 492.364 1532.6 492.946 1534.79 494.111C1536.98 495.261 1538.6 496.845 1539.65 498.862C1540.7 500.879 1541.22 503.173 1541.22 505.744C1541.22 508.315 1540.7 510.595 1539.65 512.584C1538.6 514.572 1536.98 516.135 1534.81 517.271C1532.64 518.393 1529.86 518.955 1526.48 518.955H1514.55V514.182H1526.31C1528.64 514.182 1530.51 513.841 1531.93 513.159C1533.37 512.477 1534.41 511.511 1535.05 510.261C1535.7 508.997 1536.03 507.491 1536.03 505.744C1536.03 503.997 1535.7 502.47 1535.05 501.163C1534.39 499.857 1533.35 498.848 1531.91 498.138C1530.48 497.413 1528.58 497.051 1526.22 497.051H1516.93V536H1511.65ZM1532.19 516.398L1542.93 536H1536.79L1526.22 516.398H1532.19ZM1600.93 507.641H1591.59C1591.42 506.433 1591.08 505.361 1590.55 504.423C1590.02 503.472 1589.35 502.662 1588.53 501.994C1587.7 501.327 1586.75 500.815 1585.67 500.46C1584.6 500.105 1583.45 499.928 1582.2 499.928C1579.94 499.928 1577.97 500.489 1576.3 501.611C1574.62 502.719 1573.32 504.338 1572.4 506.469C1571.47 508.585 1571.01 511.156 1571.01 514.182C1571.01 517.293 1571.47 519.906 1572.4 522.023C1573.33 524.139 1574.64 525.737 1576.32 526.817C1577.99 527.896 1579.93 528.436 1582.13 528.436C1583.37 528.436 1584.51 528.273 1585.56 527.946C1586.63 527.619 1587.57 527.143 1588.4 526.518C1589.22 525.879 1589.9 525.105 1590.44 524.196C1591 523.287 1591.38 522.25 1591.59 521.085L1600.93 521.128C1600.68 523.131 1600.08 525.062 1599.11 526.923C1598.16 528.77 1596.88 530.425 1595.26 531.888C1593.65 533.337 1591.74 534.487 1589.51 535.339C1587.29 536.178 1584.78 536.597 1581.98 536.597C1578.09 536.597 1574.61 535.716 1571.54 533.955C1568.49 532.193 1566.08 529.643 1564.3 526.305C1562.54 522.967 1561.66 518.926 1561.66 514.182C1561.66 509.423 1562.55 505.375 1564.34 502.037C1566.13 498.699 1568.56 496.156 1571.63 494.409C1574.7 492.648 1578.15 491.767 1581.98 491.767C1584.51 491.767 1586.86 492.122 1589.02 492.832C1591.19 493.543 1593.11 494.58 1594.79 495.943C1596.47 497.293 1597.83 498.947 1598.88 500.908C1599.95 502.868 1600.63 505.112 1600.93 507.641Z" fill="black"/>
<defs>
<filter id="filter0_d_1917_1492" x="744.257" y="122.491" width="257.063" height="246.606" filterUnits="userSpaceOnUse" color-interpolation-filters="sRGB">
<feFlood flood-opacity="0" result="BackgroundImageFix"/>
<feColorMatrix in="SourceAlpha" type="matrix" values="0 0 0 0 0 0 0 0 0 0 0 0 0 0 0 0 0 0 127 0" result="hardAlpha"/>
<feOffset dx="4" dy="4"/>
<feComposite in2="hardAlpha" operator="out"/>
<feColorMatrix type="matrix" values="0 0 0 0 0 0 0 0 0 0 0 0 0 0 0 0 0 0 0.25 0"/>
<feBlend mode="normal" in2="BackgroundImageFix" result="effect1_dropShadow_1917_1492"/>
<feBlend mode="normal" in="SourceGraphic" in2="effect1_dropShadow_1917_1492" result="shape"/>
</filter>
</defs>
</svg>
