<svg width="1758" height="1032" viewBox="0 0 1758 1032" fill="none" xmlns="http://www.w3.org/2000/svg">
<rect x="83" y="2" width="556" height="1030" fill="#B3B470" fill-opacity="0.15"/>
<rect x="641" y="450" width="556" height="582" fill="#E00BCD" fill-opacity="0.15"/>
<rect x="1199" y="1" width="556" height="1030" fill="#E0110B" fill-opacity="0.15"/>
<circle cx="1246.91" cy="66.9143" r="20.4143" fill="#D9D9D9" stroke="black"/>
<circle cx="1323.91" cy="66.9143" r="20.4143" fill="#D9D9D9" stroke="black"/>
<circle cx="1246.91" cy="143.914" r="20.4143" fill="#D9D9D9" stroke="black"/>
<circle cx="1323.91" cy="143.914" r="20.4143" fill="#D9D9D9" stroke="black"/>
<circle cx="1246.91" cy="220.914" r="20.4143" fill="#D9D9D9" stroke="black"/>
<circle cx="1323.91" cy="221.914" r="20.4143" fill="#D9D9D9" stroke="black"/>
<circle cx="1246.91" cy="298.914" r="20.4143" fill="#D9D9D9" stroke="black"/>
<circle cx="1323.91" cy="299.4" r="20.4143" fill="#D9D9D9" stroke="black"/>
<circle cx="1246.91" cy="376.229" r="20.4143" fill="#D9D9D9" stroke="black"/>
<circle cx="1323.74" cy="377.229" r="20.4143" fill="#D9D9D9" stroke="black"/>
<circle cx="1246.91" cy="454.057" r="20.4143" fill="#D9D9D9" stroke="black"/>
<circle cx="1323.74" cy="455.057" r="20.4143" fill="#D9D9D9" stroke="black"/>
<circle cx="1246.91" cy="530.886" r="20.4143" fill="#D9D9D9" stroke="black"/>
<circle cx="1323.74" cy="531.886" r="20.4143" fill="#D9D9D9" stroke="black"/>
<circle cx="1246.91" cy="608.914" r="20.4143" fill="#D9D9D9" stroke="black"/>
<circle cx="1323.91" cy="608.914" r="20.4143" fill="#D9D9D9" stroke="black"/>
<circle cx="1246.91" cy="685.914" r="20.4143" fill="#D9D9D9" stroke="black"/>
<circle cx="1323.91" cy="685.914" r="20.4143" fill="#D9D9D9" stroke="black"/>
<path d="M1239.38 29.6364V42H1236.77V32.1175H1236.69L1233.86 33.8924V31.5742L1236.92 29.6364H1239.38ZM1246.89 42.169C1245.99 42.169 1245.19 42.0141 1244.48 41.7042C1243.78 41.3903 1243.23 40.9596 1242.82 40.4123C1242.42 39.8609 1242.21 39.225 1242.2 38.5046H1244.83C1244.85 38.8065 1244.95 39.0721 1245.13 39.3015C1245.31 39.5269 1245.56 39.7019 1245.86 39.8267C1246.17 39.9515 1246.51 40.0138 1246.9 40.0138C1247.29 40.0138 1247.65 39.9434 1247.95 39.8026C1248.26 39.6617 1248.5 39.4665 1248.67 39.217C1248.84 38.9674 1248.93 38.6797 1248.93 38.3537C1248.93 38.0237 1248.84 37.7319 1248.65 37.4783C1248.47 37.2208 1248.21 37.0195 1247.87 36.8746C1247.53 36.7298 1247.13 36.6573 1246.66 36.6573H1245.51V34.7376H1246.66C1247.05 34.7376 1247.4 34.6692 1247.7 34.5323C1248.01 34.3955 1248.25 34.2063 1248.42 33.9648C1248.59 33.7193 1248.67 33.4336 1248.67 33.1076C1248.67 32.7977 1248.6 32.526 1248.45 32.2926C1248.3 32.0552 1248.1 31.87 1247.83 31.7372C1247.57 31.6044 1247.26 31.538 1246.91 31.538C1246.56 31.538 1246.24 31.6024 1245.94 31.7312C1245.65 31.8559 1245.41 32.035 1245.24 32.2685C1245.06 32.5019 1244.96 32.7756 1244.95 33.0895H1242.45C1242.46 32.3771 1242.66 31.7493 1243.06 31.206C1243.45 30.6626 1243.98 30.238 1244.65 29.9322C1245.32 29.6223 1246.08 29.4673 1246.93 29.4673C1247.78 29.4673 1248.53 29.6223 1249.17 29.9322C1249.81 30.2421 1250.3 30.6606 1250.66 31.1879C1251.01 31.7111 1251.19 32.2987 1251.19 32.9506C1251.19 33.6429 1250.98 34.2204 1250.54 34.6832C1250.11 35.1461 1249.55 35.4399 1248.86 35.5646V35.6612C1249.77 35.7779 1250.46 36.0939 1250.93 36.609C1251.41 37.1201 1251.65 37.7601 1251.65 38.5288C1251.65 39.2331 1251.45 39.8589 1251.04 40.4062C1250.63 40.9536 1250.07 41.3842 1249.35 41.6982C1248.64 42.0121 1247.82 42.169 1246.89 42.169ZM1253.53 42V40.1165L1257.93 36.0415C1258.3 35.6793 1258.61 35.3533 1258.87 35.0636C1259.13 34.7738 1259.32 34.4901 1259.45 34.2124C1259.59 33.9306 1259.65 33.6268 1259.65 33.3008C1259.65 32.9386 1259.57 32.6267 1259.41 32.3651C1259.24 32.0994 1259.02 31.8962 1258.73 31.7553C1258.44 31.6104 1258.12 31.538 1257.76 31.538C1257.38 31.538 1257.05 31.6145 1256.77 31.7674C1256.49 31.9203 1256.27 32.1397 1256.12 32.4254C1255.96 32.7112 1255.89 33.0513 1255.89 33.4457H1253.4C1253.4 32.6367 1253.59 31.9344 1253.95 31.3388C1254.32 30.7431 1254.83 30.2823 1255.49 29.9563C1256.15 29.6303 1256.91 29.4673 1257.78 29.4673C1258.66 29.4673 1259.43 29.6243 1260.09 29.9382C1260.75 30.2481 1261.26 30.6787 1261.63 31.2301C1261.99 31.7815 1262.18 32.4134 1262.18 33.1257C1262.18 33.5926 1262.08 34.0534 1261.9 34.5082C1261.72 34.9629 1261.39 35.468 1260.93 36.0234C1260.46 36.5748 1259.8 37.2369 1258.95 38.0096L1257.15 39.7784V39.8629H1262.34V42H1253.53Z" fill="black"/>
<path d="M1237.38 571.636V584H1234.77V574.118H1234.69L1231.86 575.892V573.574L1234.92 571.636H1237.38ZM1240.13 581.827V579.768L1245.29 571.636H1247.07V574.486H1246.02L1242.76 579.635V579.732H1250.1V581.827H1240.13ZM1246.07 584V581.199L1246.11 580.287V571.636H1248.57V584H1246.07ZM1256.59 584.169C1255.95 584.165 1255.34 584.058 1254.74 583.849C1254.16 583.64 1253.63 583.3 1253.16 582.829C1252.7 582.358 1252.33 581.734 1252.05 580.957C1251.78 580.181 1251.65 579.227 1251.65 578.096C1251.65 577.058 1251.77 576.13 1252 575.313C1252.24 574.492 1252.58 573.796 1253.02 573.224C1253.46 572.653 1253.99 572.218 1254.61 571.92C1255.22 571.618 1255.91 571.467 1256.68 571.467C1257.5 571.467 1258.23 571.628 1258.86 571.95C1259.49 572.268 1260 572.701 1260.38 573.248C1260.77 573.796 1261 574.409 1261.08 575.089H1258.51C1258.41 574.659 1258.19 574.321 1257.87 574.075C1257.55 573.83 1257.15 573.707 1256.68 573.707C1255.87 573.707 1255.26 574.057 1254.84 574.757C1254.43 575.458 1254.22 576.41 1254.21 577.613H1254.29C1254.48 577.247 1254.73 576.935 1255.04 576.677C1255.36 576.416 1255.72 576.216 1256.12 576.08C1256.53 575.939 1256.96 575.868 1257.41 575.868C1258.14 575.868 1258.79 576.041 1259.36 576.387C1259.93 576.73 1260.39 577.2 1260.72 577.8C1261.05 578.4 1261.21 579.086 1261.21 579.859C1261.21 580.696 1261.02 581.44 1260.62 582.092C1260.24 582.744 1259.7 583.255 1259 583.626C1258.31 583.992 1257.5 584.173 1256.59 584.169ZM1256.57 582.116C1256.98 582.116 1257.34 582.02 1257.65 581.827C1257.97 581.634 1258.22 581.372 1258.4 581.042C1258.58 580.712 1258.67 580.342 1258.67 579.931C1258.67 579.521 1258.58 579.152 1258.4 578.826C1258.23 578.5 1257.98 578.241 1257.67 578.048C1257.35 577.854 1256.99 577.758 1256.59 577.758C1256.29 577.758 1256.01 577.814 1255.75 577.927C1255.5 578.04 1255.28 578.196 1255.08 578.398C1254.89 578.599 1254.74 578.832 1254.64 579.098C1254.53 579.36 1254.47 579.639 1254.47 579.937C1254.47 580.336 1254.56 580.7 1254.74 581.03C1254.93 581.36 1255.18 581.623 1255.49 581.821C1255.81 582.018 1256.17 582.116 1256.57 582.116Z" fill="black"/>
<path d="M1314.49 29.6364V42H1311.88V32.1175H1311.8L1308.97 33.8924V31.5742L1312.03 29.6364H1314.49ZM1322 42.169C1321.1 42.169 1320.29 42.0141 1319.59 41.7042C1318.89 41.3903 1318.34 40.9596 1317.93 40.4123C1317.53 39.8609 1317.32 39.225 1317.31 38.5046H1319.94C1319.96 38.8065 1320.05 39.0721 1320.24 39.3015C1320.42 39.5269 1320.67 39.7019 1320.97 39.8267C1321.28 39.9515 1321.62 40.0138 1322 40.0138C1322.4 40.0138 1322.75 39.9434 1323.06 39.8026C1323.37 39.6617 1323.61 39.4665 1323.78 39.217C1323.95 38.9674 1324.04 38.6797 1324.04 38.3537C1324.04 38.0237 1323.95 37.7319 1323.76 37.4783C1323.58 37.2208 1323.32 37.0195 1322.98 36.8746C1322.64 36.7298 1322.24 36.6573 1321.77 36.6573H1320.62V34.7376H1321.77C1322.16 34.7376 1322.51 34.6692 1322.81 34.5323C1323.12 34.3955 1323.36 34.2063 1323.53 33.9648C1323.69 33.7193 1323.78 33.4336 1323.78 33.1076C1323.78 32.7977 1323.7 32.526 1323.56 32.2926C1323.41 32.0552 1323.21 31.87 1322.94 31.7372C1322.68 31.6044 1322.37 31.538 1322.02 31.538C1321.67 31.538 1321.34 31.6024 1321.05 31.7312C1320.76 31.8559 1320.52 32.035 1320.34 32.2685C1320.17 32.5019 1320.07 32.7756 1320.06 33.0895H1317.55C1317.57 32.3771 1317.77 31.7493 1318.16 31.206C1318.56 30.6626 1319.09 30.238 1319.76 29.9322C1320.43 29.6223 1321.19 29.4673 1322.03 29.4673C1322.89 29.4673 1323.63 29.6223 1324.27 29.9322C1324.91 30.2421 1325.41 30.6606 1325.77 31.1879C1326.12 31.7111 1326.3 32.2987 1326.3 32.9506C1326.3 33.6429 1326.09 34.2204 1325.65 34.6832C1325.22 35.1461 1324.66 35.4399 1323.97 35.5646V35.6612C1324.88 35.7779 1325.57 36.0939 1326.04 36.609C1326.52 37.1201 1326.76 37.7601 1326.76 38.5288C1326.76 39.2331 1326.56 39.8589 1326.15 40.4062C1325.74 40.9536 1325.18 41.3842 1324.46 41.6982C1323.74 42.0121 1322.92 42.169 1322 42.169ZM1333.2 42.169C1332.3 42.169 1331.5 42.0141 1330.8 41.7042C1330.1 41.3903 1329.54 40.9596 1329.14 40.4123C1328.73 39.8609 1328.53 39.225 1328.51 38.5046H1331.15C1331.16 38.8065 1331.26 39.0721 1331.44 39.3015C1331.63 39.5269 1331.87 39.7019 1332.18 39.8267C1332.48 39.9515 1332.83 40.0138 1333.21 40.0138C1333.61 40.0138 1333.96 39.9434 1334.27 39.8026C1334.57 39.6617 1334.81 39.4665 1334.99 39.217C1335.16 38.9674 1335.24 38.6797 1335.24 38.3537C1335.24 38.0237 1335.15 37.7319 1334.97 37.4783C1334.79 37.2208 1334.52 37.0195 1334.18 36.8746C1333.84 36.7298 1333.44 36.6573 1332.97 36.6573H1331.82V34.7376H1332.97C1333.37 34.7376 1333.72 34.6692 1334.02 34.5323C1334.33 34.3955 1334.56 34.2063 1334.73 33.9648C1334.9 33.7193 1334.99 33.4336 1334.99 33.1076C1334.99 32.7977 1334.91 32.526 1334.76 32.2926C1334.62 32.0552 1334.41 31.87 1334.15 31.7372C1333.88 31.6044 1333.58 31.538 1333.23 31.538C1332.87 31.538 1332.55 31.6024 1332.26 31.7312C1331.96 31.8559 1331.73 32.035 1331.55 32.2685C1331.37 32.5019 1331.28 32.7756 1331.27 33.0895H1328.76C1328.77 32.3771 1328.98 31.7493 1329.37 31.206C1329.77 30.6626 1330.3 30.238 1330.96 29.9322C1331.64 29.6223 1332.4 29.4673 1333.24 29.4673C1334.09 29.4673 1334.84 29.6223 1335.48 29.9322C1336.12 30.2421 1336.62 30.6606 1336.97 31.1879C1337.33 31.7111 1337.51 32.2987 1337.5 32.9506C1337.51 33.6429 1337.29 34.2204 1336.86 34.6832C1336.43 35.1461 1335.86 35.4399 1335.17 35.5646V35.6612C1336.08 35.7779 1336.77 36.0939 1337.25 36.609C1337.73 37.1201 1337.97 37.7601 1337.96 38.5288C1337.97 39.2331 1337.76 39.8589 1337.35 40.4062C1336.95 40.9536 1336.38 41.3842 1335.67 41.6982C1334.95 42.0121 1334.13 42.169 1333.2 42.169Z" fill="black"/>
<path d="M1314.49 571.636V584H1311.88V574.118H1311.8L1308.97 575.892V573.574L1312.03 571.636H1314.49ZM1317.24 581.827V579.768L1322.4 571.636H1324.18V574.486H1323.13L1319.87 579.635V579.732H1327.21V581.827H1317.24ZM1323.18 584V581.199L1323.22 580.287V571.636H1325.67V584H1323.18ZM1329.44 584L1334.56 573.858V573.773H1328.59V571.636H1337.27V573.804L1332.14 584H1329.44Z" fill="black"/>
<path d="M1237.11 106.636V119H1234.5V109.118H1234.43L1231.59 110.892V108.574L1234.66 106.636H1237.11ZM1244.62 119.169C1243.72 119.169 1242.92 119.014 1242.21 118.704C1241.51 118.39 1240.96 117.96 1240.55 117.412C1240.15 116.861 1239.94 116.225 1239.93 115.505H1242.56C1242.58 115.806 1242.68 116.072 1242.86 116.301C1243.04 116.527 1243.29 116.702 1243.59 116.827C1243.9 116.951 1244.24 117.014 1244.63 117.014C1245.03 117.014 1245.38 116.943 1245.68 116.803C1245.99 116.662 1246.23 116.467 1246.4 116.217C1246.57 115.967 1246.66 115.68 1246.66 115.354C1246.66 115.024 1246.57 114.732 1246.38 114.478C1246.2 114.221 1245.94 114.02 1245.6 113.875C1245.26 113.73 1244.86 113.657 1244.39 113.657H1243.24V111.738H1244.39C1244.79 111.738 1245.13 111.669 1245.44 111.532C1245.74 111.395 1245.98 111.206 1246.15 110.965C1246.32 110.719 1246.4 110.434 1246.4 110.108C1246.4 109.798 1246.33 109.526 1246.18 109.293C1246.03 109.055 1245.83 108.87 1245.56 108.737C1245.3 108.604 1245 108.538 1244.65 108.538C1244.29 108.538 1243.97 108.602 1243.67 108.731C1243.38 108.856 1243.14 109.035 1242.97 109.268C1242.79 109.502 1242.7 109.776 1242.68 110.089H1240.18C1240.19 109.377 1240.39 108.749 1240.79 108.206C1241.18 107.663 1241.71 107.238 1242.38 106.932C1243.05 106.622 1243.81 106.467 1244.66 106.467C1245.51 106.467 1246.26 106.622 1246.9 106.932C1247.54 107.242 1248.03 107.661 1248.39 108.188C1248.75 108.711 1248.92 109.299 1248.92 109.951C1248.92 110.643 1248.71 111.22 1248.27 111.683C1247.84 112.146 1247.28 112.44 1246.59 112.565V112.661C1247.5 112.778 1248.19 113.094 1248.67 113.609C1249.14 114.12 1249.38 114.76 1249.38 115.529C1249.38 116.233 1249.18 116.859 1248.77 117.406C1248.36 117.954 1247.8 118.384 1247.08 118.698C1246.37 119.012 1245.55 119.169 1244.62 119.169ZM1251.07 116.827V114.768L1256.23 106.636H1258.01V109.486H1256.96L1253.7 114.635V114.732H1261.04V116.827H1251.07ZM1257 119V116.199L1257.05 115.287V106.636H1259.5V119H1257Z" fill="black"/>
<path d="M1238.11 648.636V661H1235.5V651.118H1235.43L1232.59 652.892V650.574L1235.66 648.636H1238.11ZM1240.86 658.827V656.768L1246.03 648.636H1247.8V651.486H1246.75L1243.5 656.635V656.732H1250.83V658.827H1240.86ZM1246.8 661V658.199L1246.85 657.287V648.636H1249.3V661H1246.8ZM1257.18 661.169C1256.25 661.169 1255.43 661.018 1254.7 660.716C1253.98 660.41 1253.42 659.994 1253.01 659.467C1252.6 658.939 1252.39 658.342 1252.39 657.674C1252.39 657.158 1252.51 656.686 1252.74 656.255C1252.98 655.82 1253.3 655.46 1253.71 655.174C1254.11 654.885 1254.57 654.699 1255.07 654.619V654.534C1254.41 654.402 1253.88 654.082 1253.47 653.575C1253.06 653.063 1252.85 652.47 1252.85 651.794C1252.85 651.154 1253.04 650.584 1253.41 650.085C1253.79 649.582 1254.3 649.188 1254.95 648.902C1255.61 648.612 1256.35 648.467 1257.18 648.467C1258.02 648.467 1258.76 648.612 1259.41 648.902C1260.07 649.192 1260.58 649.588 1260.96 650.091C1261.33 650.59 1261.52 651.158 1261.53 651.794C1261.52 652.474 1261.31 653.067 1260.9 653.575C1260.48 654.082 1259.95 654.402 1259.3 654.534V654.619C1259.8 654.699 1260.25 654.885 1260.65 655.174C1261.06 655.46 1261.38 655.82 1261.62 656.255C1261.86 656.686 1261.98 657.158 1261.98 657.674C1261.98 658.342 1261.77 658.939 1261.36 659.467C1260.95 659.994 1260.38 660.41 1259.66 660.716C1258.94 661.018 1258.11 661.169 1257.18 661.169ZM1257.18 659.249C1257.6 659.249 1257.96 659.175 1258.27 659.026C1258.58 658.873 1258.82 658.664 1259 658.398C1259.17 658.128 1259.26 657.819 1259.26 657.468C1259.26 657.11 1259.17 656.794 1258.99 656.521C1258.81 656.243 1258.56 656.026 1258.25 655.869C1257.94 655.708 1257.59 655.627 1257.18 655.627C1256.79 655.627 1256.43 655.708 1256.12 655.869C1255.8 656.026 1255.55 656.243 1255.37 656.521C1255.2 656.794 1255.11 657.11 1255.11 657.468C1255.11 657.819 1255.19 658.128 1255.37 658.398C1255.54 658.664 1255.78 658.873 1256.1 659.026C1256.41 659.175 1256.77 659.249 1257.18 659.249ZM1257.18 653.725C1257.53 653.725 1257.84 653.655 1258.11 653.514C1258.38 653.373 1258.59 653.178 1258.74 652.929C1258.9 652.679 1258.97 652.391 1258.97 652.065C1258.97 651.743 1258.9 651.462 1258.74 651.22C1258.59 650.975 1258.38 650.783 1258.11 650.647C1257.85 650.506 1257.54 650.435 1257.18 650.435C1256.83 650.435 1256.52 650.506 1256.25 650.647C1255.99 650.783 1255.77 650.975 1255.62 651.22C1255.47 651.462 1255.4 651.743 1255.4 652.065C1255.4 652.391 1255.47 652.679 1255.63 652.929C1255.78 653.178 1255.99 653.373 1256.26 653.514C1256.53 653.655 1256.84 653.725 1257.18 653.725Z" fill="black"/>
<path d="M1314.11 106.636V119H1311.5V109.118H1311.43L1308.59 110.892V108.574L1311.66 106.636H1314.11ZM1321.62 119.169C1320.72 119.169 1319.92 119.014 1319.21 118.704C1318.51 118.39 1317.96 117.96 1317.55 117.412C1317.15 116.861 1316.94 116.225 1316.93 115.505H1319.56C1319.58 115.806 1319.68 116.072 1319.86 116.301C1320.04 116.527 1320.29 116.702 1320.59 116.827C1320.9 116.951 1321.24 117.014 1321.63 117.014C1322.03 117.014 1322.38 116.943 1322.68 116.803C1322.99 116.662 1323.23 116.467 1323.4 116.217C1323.57 115.967 1323.66 115.68 1323.66 115.354C1323.66 115.024 1323.57 114.732 1323.38 114.478C1323.2 114.221 1322.94 114.02 1322.6 113.875C1322.26 113.73 1321.86 113.657 1321.39 113.657H1320.24V111.738H1321.39C1321.79 111.738 1322.13 111.669 1322.44 111.532C1322.74 111.395 1322.98 111.206 1323.15 110.965C1323.32 110.719 1323.4 110.434 1323.4 110.108C1323.4 109.798 1323.33 109.526 1323.18 109.293C1323.03 109.055 1322.83 108.87 1322.56 108.737C1322.3 108.604 1322 108.538 1321.65 108.538C1321.29 108.538 1320.97 108.602 1320.67 108.731C1320.38 108.856 1320.14 109.035 1319.97 109.268C1319.79 109.502 1319.7 109.776 1319.68 110.089H1317.18C1317.19 109.377 1317.39 108.749 1317.79 108.206C1318.18 107.663 1318.71 107.238 1319.38 106.932C1320.05 106.622 1320.81 106.467 1321.66 106.467C1322.51 106.467 1323.26 106.622 1323.9 106.932C1324.54 107.242 1325.03 107.661 1325.39 108.188C1325.75 108.711 1325.92 109.299 1325.92 109.951C1325.92 110.643 1325.71 111.22 1325.27 111.683C1324.84 112.146 1324.28 112.44 1323.59 112.565V112.661C1324.5 112.778 1325.19 113.094 1325.67 113.609C1326.14 114.12 1326.38 114.76 1326.38 115.529C1326.38 116.233 1326.18 116.859 1325.77 117.406C1325.36 117.954 1324.8 118.384 1324.08 118.698C1323.37 119.012 1322.55 119.169 1321.62 119.169ZM1332.77 119.169C1331.92 119.169 1331.16 119.012 1330.49 118.698C1329.83 118.384 1329.3 117.952 1328.91 117.4C1328.52 116.849 1328.32 116.217 1328.3 115.505H1330.83C1330.86 115.984 1331.06 116.372 1331.44 116.67C1331.81 116.968 1332.26 117.116 1332.77 117.116C1333.18 117.116 1333.55 117.026 1333.86 116.845C1334.18 116.66 1334.42 116.404 1334.6 116.078C1334.78 115.748 1334.87 115.37 1334.87 114.943C1334.87 114.509 1334.78 114.126 1334.6 113.796C1334.41 113.466 1334.16 113.209 1333.84 113.023C1333.52 112.838 1333.15 112.744 1332.74 112.74C1332.37 112.74 1332.02 112.814 1331.68 112.963C1331.34 113.112 1331.08 113.315 1330.89 113.573L1328.56 113.156L1329.15 106.636H1336.71V108.773H1331.31L1330.99 111.87H1331.06C1331.28 111.565 1331.6 111.311 1332.04 111.11C1332.48 110.908 1332.97 110.808 1333.52 110.808C1334.26 110.808 1334.92 110.983 1335.51 111.333C1336.09 111.683 1336.55 112.164 1336.89 112.776C1337.23 113.384 1337.39 114.084 1337.39 114.877C1337.39 115.71 1337.2 116.45 1336.81 117.098C1336.42 117.742 1335.88 118.249 1335.19 118.62C1334.5 118.986 1333.69 119.169 1332.77 119.169Z" fill="black"/>
<path d="M1315.11 648.636V661H1312.5V651.118H1312.43L1309.59 652.892V650.574L1312.66 648.636H1315.11ZM1317.86 658.827V656.768L1323.03 648.636H1324.8V651.486H1323.75L1320.5 656.635V656.732H1327.83V658.827H1317.86ZM1323.8 661V658.199L1323.85 657.287V648.636H1326.3V661H1323.8ZM1334.05 648.467C1334.68 648.467 1335.29 648.574 1335.88 648.787C1336.47 649.001 1337 649.341 1337.46 649.808C1337.93 650.274 1338.3 650.894 1338.57 651.667C1338.84 652.436 1338.98 653.379 1338.98 654.498C1338.98 655.549 1338.87 656.486 1338.63 657.311C1338.39 658.132 1338.06 658.831 1337.62 659.406C1337.18 659.982 1336.65 660.42 1336.03 660.722C1335.41 661.02 1334.72 661.169 1333.96 661.169C1333.13 661.169 1332.4 661.01 1331.77 660.692C1331.14 660.37 1330.63 659.933 1330.24 659.382C1329.86 658.827 1329.63 658.203 1329.55 657.511H1332.13C1332.23 657.961 1332.44 658.312 1332.76 658.561C1333.08 658.807 1333.48 658.929 1333.96 658.929C1334.76 658.929 1335.37 658.579 1335.79 657.879C1336.21 657.175 1336.42 656.211 1336.42 654.987H1336.34C1336.15 655.349 1335.91 655.661 1335.59 655.923C1335.28 656.181 1334.92 656.38 1334.51 656.521C1334.11 656.661 1333.68 656.732 1333.22 656.732C1332.5 656.732 1331.85 656.561 1331.27 656.219C1330.7 655.877 1330.25 655.406 1329.92 654.806C1329.59 654.206 1329.43 653.522 1329.43 652.754C1329.42 651.924 1329.61 651.186 1330 650.538C1330.39 649.89 1330.93 649.383 1331.62 649.017C1332.32 648.646 1333.12 648.463 1334.05 648.467ZM1334.06 650.52C1333.66 650.52 1333.3 650.616 1332.98 650.81C1332.66 651.003 1332.41 651.262 1332.23 651.588C1332.05 651.914 1331.96 652.279 1331.96 652.681C1331.96 653.088 1332.05 653.454 1332.23 653.78C1332.41 654.102 1332.66 654.359 1332.97 654.553C1333.28 654.742 1333.64 654.836 1334.04 654.836C1334.34 654.836 1334.62 654.78 1334.88 654.667C1335.14 654.555 1335.36 654.4 1335.55 654.202C1335.74 654.001 1335.89 653.77 1336 653.508C1336.11 653.247 1336.16 652.969 1336.16 652.675C1336.16 652.285 1336.07 651.926 1335.89 651.6C1335.71 651.275 1335.46 651.013 1335.14 650.816C1334.82 650.618 1334.46 650.52 1334.06 650.52Z" fill="black"/>
<path d="M1238.11 183.636V196H1235.5V186.118H1235.43L1232.59 187.892V185.574L1235.66 183.636H1238.11ZM1245.62 196.169C1244.72 196.169 1243.92 196.014 1243.21 195.704C1242.51 195.39 1241.96 194.96 1241.55 194.412C1241.15 193.861 1240.94 193.225 1240.93 192.505H1243.56C1243.58 192.806 1243.68 193.072 1243.86 193.301C1244.04 193.527 1244.29 193.702 1244.59 193.827C1244.9 193.951 1245.24 194.014 1245.63 194.014C1246.03 194.014 1246.38 193.943 1246.68 193.803C1246.99 193.662 1247.23 193.467 1247.4 193.217C1247.57 192.967 1247.66 192.68 1247.66 192.354C1247.66 192.024 1247.57 191.732 1247.38 191.478C1247.2 191.221 1246.94 191.02 1246.6 190.875C1246.26 190.73 1245.86 190.657 1245.39 190.657H1244.24V188.738H1245.39C1245.79 188.738 1246.13 188.669 1246.44 188.532C1246.74 188.395 1246.98 188.206 1247.15 187.965C1247.32 187.719 1247.4 187.434 1247.4 187.108C1247.4 186.798 1247.33 186.526 1247.18 186.293C1247.03 186.055 1246.83 185.87 1246.56 185.737C1246.3 185.604 1246 185.538 1245.65 185.538C1245.29 185.538 1244.97 185.602 1244.67 185.731C1244.38 185.856 1244.14 186.035 1243.97 186.268C1243.79 186.502 1243.7 186.776 1243.68 187.089H1241.18C1241.19 186.377 1241.39 185.749 1241.79 185.206C1242.18 184.663 1242.71 184.238 1243.38 183.932C1244.05 183.622 1244.81 183.467 1245.66 183.467C1246.51 183.467 1247.26 183.622 1247.9 183.932C1248.54 184.242 1249.03 184.661 1249.39 185.188C1249.75 185.711 1249.92 186.299 1249.92 186.951C1249.92 187.643 1249.71 188.22 1249.27 188.683C1248.84 189.146 1248.28 189.44 1247.59 189.565V189.661C1248.5 189.778 1249.19 190.094 1249.67 190.609C1250.14 191.12 1250.38 191.76 1250.38 192.529C1250.38 193.233 1250.18 193.859 1249.77 194.406C1249.36 194.954 1248.8 195.384 1248.08 195.698C1247.37 196.012 1246.55 196.169 1245.62 196.169ZM1257 196.169C1256.37 196.165 1255.75 196.058 1255.16 195.849C1254.57 195.64 1254.05 195.3 1253.58 194.829C1253.11 194.358 1252.74 193.734 1252.47 192.957C1252.2 192.181 1252.06 191.227 1252.06 190.096C1252.07 189.058 1252.19 188.13 1252.42 187.313C1252.66 186.492 1253 185.796 1253.43 185.224C1253.88 184.653 1254.41 184.218 1255.02 183.92C1255.64 183.618 1256.33 183.467 1257.09 183.467C1257.92 183.467 1258.65 183.628 1259.28 183.95C1259.91 184.268 1260.42 184.701 1260.8 185.248C1261.19 185.796 1261.42 186.409 1261.5 187.089H1258.92C1258.82 186.659 1258.61 186.321 1258.29 186.075C1257.97 185.83 1257.57 185.707 1257.09 185.707C1256.29 185.707 1255.68 186.057 1255.26 186.757C1254.84 187.458 1254.63 188.41 1254.62 189.613H1254.71C1254.89 189.247 1255.14 188.935 1255.46 188.677C1255.77 188.416 1256.13 188.216 1256.54 188.08C1256.94 187.939 1257.37 187.868 1257.82 187.868C1258.56 187.868 1259.21 188.041 1259.78 188.387C1260.35 188.73 1260.8 189.2 1261.13 189.8C1261.46 190.4 1261.63 191.086 1261.63 191.859C1261.63 192.696 1261.43 193.44 1261.04 194.092C1260.65 194.744 1260.11 195.255 1259.42 195.626C1258.72 195.992 1257.92 196.173 1257 196.169ZM1256.99 194.116C1257.39 194.116 1257.75 194.02 1258.07 193.827C1258.39 193.634 1258.64 193.372 1258.82 193.042C1259 192.712 1259.09 192.342 1259.09 191.931C1259.09 191.521 1259 191.152 1258.82 190.826C1258.64 190.5 1258.4 190.241 1258.08 190.048C1257.77 189.854 1257.41 189.758 1257.01 189.758C1256.71 189.758 1256.43 189.814 1256.17 189.927C1255.92 190.04 1255.69 190.196 1255.5 190.398C1255.31 190.599 1255.16 190.832 1255.05 191.098C1254.94 191.36 1254.89 191.639 1254.89 191.937C1254.89 192.336 1254.98 192.7 1255.16 193.03C1255.35 193.36 1255.6 193.623 1255.91 193.821C1256.23 194.018 1256.59 194.116 1256.99 194.116Z" fill="black"/>
<path d="M1315.11 184.636V197H1312.5V187.118H1312.43L1309.59 188.892V186.574L1312.66 184.636H1315.11ZM1322.62 197.169C1321.72 197.169 1320.92 197.014 1320.21 196.704C1319.51 196.39 1318.96 195.96 1318.55 195.412C1318.15 194.861 1317.94 194.225 1317.93 193.505H1320.56C1320.58 193.806 1320.68 194.072 1320.86 194.301C1321.04 194.527 1321.29 194.702 1321.59 194.827C1321.9 194.951 1322.24 195.014 1322.63 195.014C1323.03 195.014 1323.38 194.943 1323.68 194.803C1323.99 194.662 1324.23 194.467 1324.4 194.217C1324.57 193.967 1324.66 193.68 1324.66 193.354C1324.66 193.024 1324.57 192.732 1324.38 192.478C1324.2 192.221 1323.94 192.02 1323.6 191.875C1323.26 191.73 1322.86 191.657 1322.39 191.657H1321.24V189.738H1322.39C1322.79 189.738 1323.13 189.669 1323.44 189.532C1323.74 189.395 1323.98 189.206 1324.15 188.965C1324.32 188.719 1324.4 188.434 1324.4 188.108C1324.4 187.798 1324.33 187.526 1324.18 187.293C1324.03 187.055 1323.83 186.87 1323.56 186.737C1323.3 186.604 1323 186.538 1322.65 186.538C1322.29 186.538 1321.97 186.602 1321.67 186.731C1321.38 186.856 1321.14 187.035 1320.97 187.268C1320.79 187.502 1320.7 187.776 1320.68 188.089H1318.18C1318.19 187.377 1318.39 186.749 1318.79 186.206C1319.18 185.663 1319.71 185.238 1320.38 184.932C1321.05 184.622 1321.81 184.467 1322.66 184.467C1323.51 184.467 1324.26 184.622 1324.9 184.932C1325.54 185.242 1326.03 185.661 1326.39 186.188C1326.75 186.711 1326.92 187.299 1326.92 187.951C1326.92 188.643 1326.71 189.22 1326.27 189.683C1325.84 190.146 1325.28 190.44 1324.59 190.565V190.661C1325.5 190.778 1326.19 191.094 1326.67 191.609C1327.14 192.12 1327.38 192.76 1327.38 193.529C1327.38 194.233 1327.18 194.859 1326.77 195.406C1326.36 195.954 1325.8 196.384 1325.08 196.698C1324.37 197.012 1323.55 197.169 1322.62 197.169ZM1329.75 197L1334.87 186.858V186.773H1328.9V184.636H1337.58V186.804L1332.44 197H1329.75Z" fill="black"/>
<path d="M1238.11 261.636V274H1235.5V264.118H1235.43L1232.59 265.892V263.574L1235.66 261.636H1238.11ZM1245.62 274.169C1244.72 274.169 1243.92 274.014 1243.21 273.704C1242.51 273.39 1241.96 272.96 1241.55 272.412C1241.15 271.861 1240.94 271.225 1240.93 270.505H1243.56C1243.58 270.806 1243.68 271.072 1243.86 271.301C1244.04 271.527 1244.29 271.702 1244.59 271.827C1244.9 271.951 1245.24 272.014 1245.63 272.014C1246.03 272.014 1246.38 271.943 1246.68 271.803C1246.99 271.662 1247.23 271.467 1247.4 271.217C1247.57 270.967 1247.66 270.68 1247.66 270.354C1247.66 270.024 1247.57 269.732 1247.38 269.478C1247.2 269.221 1246.94 269.02 1246.6 268.875C1246.26 268.73 1245.86 268.657 1245.39 268.657H1244.24V266.738H1245.39C1245.79 266.738 1246.13 266.669 1246.44 266.532C1246.74 266.395 1246.98 266.206 1247.15 265.965C1247.32 265.719 1247.4 265.434 1247.4 265.108C1247.4 264.798 1247.33 264.526 1247.18 264.293C1247.03 264.055 1246.83 263.87 1246.56 263.737C1246.3 263.604 1246 263.538 1245.65 263.538C1245.29 263.538 1244.97 263.602 1244.67 263.731C1244.38 263.856 1244.14 264.035 1243.97 264.268C1243.79 264.502 1243.7 264.776 1243.68 265.089H1241.18C1241.19 264.377 1241.39 263.749 1241.79 263.206C1242.18 262.663 1242.71 262.238 1243.38 261.932C1244.05 261.622 1244.81 261.467 1245.66 261.467C1246.51 261.467 1247.26 261.622 1247.9 261.932C1248.54 262.242 1249.03 262.661 1249.39 263.188C1249.75 263.711 1249.92 264.299 1249.92 264.951C1249.92 265.643 1249.71 266.22 1249.27 266.683C1248.84 267.146 1248.28 267.44 1247.59 267.565V267.661C1248.5 267.778 1249.19 268.094 1249.67 268.609C1250.14 269.12 1250.38 269.76 1250.38 270.529C1250.38 271.233 1250.18 271.859 1249.77 272.406C1249.36 272.954 1248.8 273.384 1248.08 273.698C1247.37 274.012 1246.55 274.169 1245.62 274.169ZM1256.87 274.169C1255.94 274.169 1255.11 274.018 1254.39 273.716C1253.67 273.41 1253.1 272.994 1252.69 272.467C1252.28 271.939 1252.08 271.342 1252.08 270.674C1252.08 270.158 1252.19 269.686 1252.43 269.255C1252.66 268.82 1252.99 268.46 1253.39 268.174C1253.8 267.885 1254.25 267.699 1254.76 267.619V267.534C1254.1 267.402 1253.56 267.082 1253.15 266.575C1252.74 266.063 1252.53 265.47 1252.53 264.794C1252.53 264.154 1252.72 263.584 1253.1 263.085C1253.47 262.582 1253.98 262.188 1254.64 261.902C1255.29 261.612 1256.04 261.467 1256.87 261.467C1257.7 261.467 1258.44 261.612 1259.1 261.902C1259.75 262.192 1260.27 262.588 1260.64 263.091C1261.02 263.59 1261.21 264.158 1261.21 264.794C1261.21 265.474 1261 266.067 1260.58 266.575C1260.17 267.082 1259.64 267.402 1258.99 267.534V267.619C1259.48 267.699 1259.93 267.885 1260.33 268.174C1260.74 268.46 1261.06 268.82 1261.3 269.255C1261.54 269.686 1261.66 270.158 1261.67 270.674C1261.66 271.342 1261.46 271.939 1261.05 272.467C1260.64 272.994 1260.07 273.41 1259.34 273.716C1258.62 274.018 1257.8 274.169 1256.87 274.169ZM1256.87 272.249C1257.28 272.249 1257.65 272.175 1257.96 272.026C1258.27 271.873 1258.51 271.664 1258.68 271.398C1258.86 271.128 1258.95 270.819 1258.95 270.468C1258.95 270.11 1258.86 269.794 1258.67 269.521C1258.49 269.243 1258.25 269.026 1257.94 268.869C1257.63 268.708 1257.27 268.627 1256.87 268.627C1256.47 268.627 1256.11 268.708 1255.8 268.869C1255.49 269.026 1255.24 269.243 1255.06 269.521C1254.88 269.794 1254.79 270.11 1254.79 270.468C1254.79 270.819 1254.88 271.128 1255.05 271.398C1255.23 271.664 1255.47 271.873 1255.78 272.026C1256.1 272.175 1256.46 272.249 1256.87 272.249ZM1256.87 266.725C1257.22 266.725 1257.52 266.655 1257.79 266.514C1258.06 266.373 1258.27 266.178 1258.43 265.929C1258.58 265.679 1258.66 265.391 1258.66 265.065C1258.66 264.743 1258.58 264.462 1258.43 264.22C1258.27 263.975 1258.06 263.783 1257.8 263.647C1257.53 263.506 1257.22 263.435 1256.87 263.435C1256.52 263.435 1256.21 263.506 1255.94 263.647C1255.67 263.783 1255.46 263.975 1255.31 264.22C1255.16 264.462 1255.08 264.743 1255.08 265.065C1255.08 265.391 1255.16 265.679 1255.31 265.929C1255.46 266.178 1255.68 266.373 1255.95 266.514C1256.22 266.655 1256.52 266.725 1256.87 266.725Z" fill="black"/>
<path d="M1315.28 261.636V274H1312.67V264.118H1312.6L1309.77 265.892V263.574L1312.83 261.636H1315.28ZM1322.79 274.169C1321.89 274.169 1321.09 274.014 1320.38 273.704C1319.68 273.39 1319.13 272.96 1318.72 272.412C1318.32 271.861 1318.11 271.225 1318.1 270.505H1320.73C1320.75 270.806 1320.85 271.072 1321.03 271.301C1321.21 271.527 1321.46 271.702 1321.77 271.827C1322.07 271.951 1322.42 272.014 1322.8 272.014C1323.2 272.014 1323.55 271.943 1323.85 271.803C1324.16 271.662 1324.4 271.467 1324.57 271.217C1324.75 270.967 1324.83 270.68 1324.83 270.354C1324.83 270.024 1324.74 269.732 1324.56 269.478C1324.37 269.221 1324.11 269.02 1323.77 268.875C1323.43 268.73 1323.03 268.657 1322.56 268.657H1321.41V266.738H1322.56C1322.96 266.738 1323.31 266.669 1323.61 266.532C1323.91 266.395 1324.15 266.206 1324.32 265.965C1324.49 265.719 1324.57 265.434 1324.57 265.108C1324.57 264.798 1324.5 264.526 1324.35 264.293C1324.2 264.055 1324 263.87 1323.73 263.737C1323.47 263.604 1323.17 263.538 1322.82 263.538C1322.46 263.538 1322.14 263.602 1321.84 263.731C1321.55 263.856 1321.32 264.035 1321.14 264.268C1320.96 264.502 1320.87 264.776 1320.85 265.089H1318.35C1318.36 264.377 1318.56 263.749 1318.96 263.206C1319.35 262.663 1319.88 262.238 1320.55 261.932C1321.22 261.622 1321.98 261.467 1322.83 261.467C1323.68 261.467 1324.43 261.622 1325.07 261.932C1325.71 262.242 1326.21 262.661 1326.56 263.188C1326.92 263.711 1327.09 264.299 1327.09 264.951C1327.09 265.643 1326.88 266.22 1326.44 266.683C1326.01 267.146 1325.45 267.44 1324.76 267.565V267.661C1325.67 267.778 1326.36 268.094 1326.84 268.609C1327.32 269.12 1327.55 269.76 1327.55 270.529C1327.55 271.233 1327.35 271.859 1326.94 272.406C1326.53 272.954 1325.97 273.384 1325.26 273.698C1324.54 274.012 1323.72 274.169 1322.79 274.169ZM1333.9 261.467C1334.54 261.467 1335.15 261.574 1335.74 261.787C1336.33 262.001 1336.86 262.341 1337.32 262.808C1337.79 263.274 1338.15 263.894 1338.42 264.667C1338.7 265.436 1338.84 266.379 1338.84 267.498C1338.84 268.549 1338.72 269.486 1338.48 270.311C1338.25 271.132 1337.91 271.831 1337.48 272.406C1337.04 272.982 1336.51 273.42 1335.89 273.722C1335.27 274.02 1334.58 274.169 1333.81 274.169C1332.99 274.169 1332.26 274.01 1331.63 273.692C1330.99 273.37 1330.48 272.933 1330.1 272.382C1329.72 271.827 1329.48 271.203 1329.4 270.511H1331.98C1332.08 270.961 1332.29 271.312 1332.62 271.561C1332.94 271.807 1333.34 271.929 1333.81 271.929C1334.62 271.929 1335.23 271.579 1335.65 270.879C1336.07 270.175 1336.28 269.211 1336.28 267.987H1336.2C1336.01 268.349 1335.76 268.661 1335.45 268.923C1335.13 269.181 1334.77 269.38 1334.37 269.521C1333.96 269.661 1333.54 269.732 1333.08 269.732C1332.35 269.732 1331.7 269.561 1331.13 269.219C1330.56 268.877 1330.11 268.406 1329.78 267.806C1329.45 267.206 1329.28 266.522 1329.28 265.754C1329.28 264.924 1329.47 264.186 1329.86 263.538C1330.24 262.89 1330.78 262.383 1331.47 262.017C1332.17 261.646 1332.98 261.463 1333.9 261.467ZM1333.92 263.52C1333.51 263.52 1333.15 263.616 1332.83 263.81C1332.52 264.003 1332.27 264.262 1332.08 264.588C1331.9 264.914 1331.82 265.279 1331.82 265.681C1331.82 266.088 1331.91 266.454 1332.08 266.78C1332.27 267.102 1332.51 267.359 1332.82 267.553C1333.14 267.742 1333.49 267.836 1333.9 267.836C1334.2 267.836 1334.48 267.78 1334.73 267.667C1334.99 267.555 1335.22 267.4 1335.4 267.202C1335.6 267.001 1335.75 266.77 1335.86 266.508C1335.97 266.247 1336.02 265.969 1336.02 265.675C1336.02 265.285 1335.92 264.926 1335.74 264.6C1335.56 264.275 1335.31 264.013 1334.99 263.816C1334.68 263.618 1334.32 263.52 1333.92 263.52Z" fill="black"/>
<path d="M1238.11 338.636V351H1235.5V341.118H1235.43L1232.59 342.892V340.574L1235.66 338.636H1238.11ZM1240.86 348.827V346.768L1246.03 338.636H1247.8V341.486H1246.75L1243.5 346.635V346.732H1250.83V348.827H1240.86ZM1246.8 351V348.199L1246.85 347.287V338.636H1249.3V351H1246.8ZM1257.42 351.272C1256.38 351.268 1255.49 351.012 1254.74 350.505C1254 349.998 1253.42 349.263 1253.02 348.301C1252.62 347.34 1252.42 346.183 1252.43 344.83C1252.43 343.482 1252.63 342.333 1253.03 341.383C1253.43 340.433 1254 339.711 1254.75 339.216C1255.49 338.717 1256.39 338.467 1257.42 338.467C1258.45 338.467 1259.34 338.717 1260.09 339.216C1260.84 339.715 1261.41 340.439 1261.81 341.389C1262.22 342.335 1262.42 343.482 1262.41 344.83C1262.41 346.187 1262.21 347.346 1261.81 348.308C1261.41 349.269 1260.84 350.004 1260.09 350.511C1259.35 351.018 1258.46 351.272 1257.42 351.272ZM1257.42 349.104C1258.13 349.104 1258.69 348.748 1259.12 348.036C1259.54 347.324 1259.75 346.255 1259.74 344.83C1259.74 343.893 1259.65 343.112 1259.45 342.488C1259.27 341.864 1259 341.395 1258.65 341.081C1258.3 340.767 1257.89 340.61 1257.42 340.61C1256.72 340.61 1256.15 340.963 1255.73 341.667C1255.31 342.371 1255.09 343.426 1255.09 344.83C1255.09 345.78 1255.18 346.573 1255.37 347.209C1255.57 347.841 1255.84 348.316 1256.19 348.634C1256.54 348.947 1256.95 349.104 1257.42 349.104Z" fill="black"/>
<path d="M1316.11 339.636V352H1313.5V342.118H1313.43L1310.59 343.892V341.574L1313.66 339.636H1316.11ZM1318.86 349.827V347.768L1324.03 339.636H1325.8V342.486H1324.75L1321.5 347.635V347.732H1328.83V349.827H1318.86ZM1324.8 352V349.199L1324.85 348.287V339.636H1327.3V352H1324.8ZM1335.79 339.636V352H1333.17V342.118H1333.1L1330.27 343.892V341.574L1333.33 339.636H1335.79Z" fill="black"/>
<path d="M1238.11 416.636V429H1235.5V419.118H1235.43L1232.59 420.892V418.574L1235.66 416.636H1238.11ZM1240.86 426.827V424.768L1246.03 416.636H1247.8V419.486H1246.75L1243.5 424.635V424.732H1250.83V426.827H1240.86ZM1246.8 429V426.199L1246.85 425.287V416.636H1249.3V429H1246.8ZM1252.57 429V427.116L1256.97 423.042C1257.35 422.679 1257.66 422.353 1257.92 422.064C1258.17 421.774 1258.37 421.49 1258.5 421.212C1258.63 420.931 1258.7 420.627 1258.7 420.301C1258.7 419.939 1258.62 419.627 1258.45 419.365C1258.29 419.099 1258.06 418.896 1257.78 418.755C1257.49 418.61 1257.17 418.538 1256.8 418.538C1256.43 418.538 1256.1 418.614 1255.81 418.767C1255.53 418.92 1255.32 419.14 1255.16 419.425C1255.01 419.711 1254.93 420.051 1254.93 420.446H1252.45C1252.45 419.637 1252.63 418.934 1253 418.339C1253.37 417.743 1253.88 417.282 1254.54 416.956C1255.2 416.63 1255.96 416.467 1256.82 416.467C1257.71 416.467 1258.48 416.624 1259.13 416.938C1259.79 417.248 1260.31 417.679 1260.67 418.23C1261.04 418.781 1261.22 419.413 1261.22 420.126C1261.22 420.593 1261.13 421.053 1260.95 421.508C1260.76 421.963 1260.44 422.468 1259.97 423.023C1259.51 423.575 1258.85 424.237 1258 425.01L1256.19 426.778V426.863H1261.39V429H1252.57Z" fill="black"/>
<path d="M1315.11 417.636V430H1312.5V420.118H1312.43L1309.59 421.892V419.574L1312.66 417.636H1315.11ZM1317.86 427.827V425.768L1323.03 417.636H1324.8V420.486H1323.75L1320.5 425.635V425.732H1327.83V427.827H1317.86ZM1323.8 430V427.199L1323.85 426.287V417.636H1326.3V430H1323.8ZM1334.14 430.169C1333.24 430.169 1332.44 430.014 1331.73 429.704C1331.03 429.39 1330.48 428.96 1330.07 428.412C1329.67 427.861 1329.46 427.225 1329.45 426.505H1332.08C1332.1 426.806 1332.2 427.072 1332.38 427.301C1332.56 427.527 1332.81 427.702 1333.12 427.827C1333.42 427.951 1333.77 428.014 1334.15 428.014C1334.55 428.014 1334.9 427.943 1335.2 427.803C1335.51 427.662 1335.75 427.467 1335.92 427.217C1336.1 426.967 1336.18 426.68 1336.18 426.354C1336.18 426.024 1336.09 425.732 1335.91 425.478C1335.72 425.221 1335.46 425.02 1335.12 424.875C1334.78 424.73 1334.38 424.657 1333.91 424.657H1332.76V422.738H1333.91C1334.31 422.738 1334.66 422.669 1334.96 422.532C1335.26 422.395 1335.5 422.206 1335.67 421.965C1335.84 421.719 1335.92 421.434 1335.92 421.108C1335.92 420.798 1335.85 420.526 1335.7 420.293C1335.56 420.055 1335.35 419.87 1335.08 419.737C1334.82 419.604 1334.52 419.538 1334.17 419.538C1333.81 419.538 1333.49 419.602 1333.19 419.731C1332.9 419.856 1332.67 420.035 1332.49 420.268C1332.31 420.502 1332.22 420.776 1332.2 421.089H1329.7C1329.71 420.377 1329.91 419.749 1330.31 419.206C1330.7 418.663 1331.23 418.238 1331.9 417.932C1332.57 417.622 1333.33 417.467 1334.18 417.467C1335.03 417.467 1335.78 417.622 1336.42 417.932C1337.06 418.242 1337.56 418.661 1337.91 419.188C1338.27 419.711 1338.44 420.299 1338.44 420.951C1338.44 421.643 1338.23 422.22 1337.79 422.683C1337.36 423.146 1336.8 423.44 1336.11 423.565V423.661C1337.02 423.778 1337.71 424.094 1338.19 424.609C1338.67 425.12 1338.9 425.76 1338.9 426.529C1338.9 427.233 1338.7 427.859 1338.29 428.406C1337.88 428.954 1337.32 429.384 1336.61 429.698C1335.89 430.012 1335.07 430.169 1334.14 430.169Z" fill="black"/>
<path d="M1238.11 493.636V506H1235.5V496.118H1235.43L1232.59 497.892V495.574L1235.66 493.636H1238.11ZM1240.86 503.827V501.768L1246.03 493.636H1247.8V496.486H1246.75L1243.5 501.635V501.732H1250.83V503.827H1240.86ZM1246.8 506V503.199L1246.85 502.287V493.636H1249.3V506H1246.8ZM1252.39 503.827V501.768L1257.55 493.636H1259.32V496.486H1258.27L1255.02 501.635V501.732H1262.35V503.827H1252.39ZM1258.32 506V503.199L1258.37 502.287V493.636H1260.82V506H1258.32Z" fill="black"/>
<path d="M1314.11 494.636V507H1311.5V497.118H1311.43L1308.59 498.892V496.574L1311.66 494.636H1314.11ZM1316.86 504.827V502.768L1322.03 494.636H1323.8V497.486H1322.75L1319.5 502.635V502.732H1326.83V504.827H1316.86ZM1322.8 507V504.199L1322.85 503.287V494.636H1325.3V507H1322.8ZM1333.09 507.169C1332.23 507.169 1331.47 507.012 1330.81 506.698C1330.14 506.384 1329.61 505.952 1329.22 505.4C1328.83 504.849 1328.63 504.217 1328.61 503.505H1331.15C1331.18 503.984 1331.38 504.372 1331.75 504.67C1332.13 504.968 1332.57 505.116 1333.09 505.116C1333.5 505.116 1333.86 505.026 1334.17 504.845C1334.49 504.66 1334.74 504.404 1334.92 504.078C1335.1 503.748 1335.19 503.37 1335.19 502.943C1335.19 502.509 1335.1 502.126 1334.91 501.796C1334.73 501.466 1334.48 501.209 1334.16 501.023C1333.83 500.838 1333.47 500.744 1333.05 500.74C1332.69 500.74 1332.34 500.814 1332 500.963C1331.66 501.112 1331.39 501.315 1331.2 501.573L1328.88 501.156L1329.47 494.636H1337.02V496.773H1331.62L1331.3 499.87H1331.37C1331.59 499.565 1331.92 499.311 1332.36 499.11C1332.8 498.908 1333.29 498.808 1333.83 498.808C1334.58 498.808 1335.24 498.983 1335.82 499.333C1336.41 499.683 1336.87 500.164 1337.21 500.776C1337.54 501.384 1337.71 502.084 1337.71 502.877C1337.71 503.71 1337.52 504.45 1337.13 505.098C1336.74 505.742 1336.2 506.249 1335.5 506.62C1334.81 506.986 1334.01 507.169 1333.09 507.169Z" fill="black"/>
<path d="M82 1V564H5" stroke="black" stroke-width="2"/>
<path d="M81.7886 640.782H0" stroke="black" stroke-width="2"/>
<path d="M7 727.917H90.3909V1031H1757V1H90.3909" stroke="black" stroke-width="2"/>
<g filter="url(#filter0_d_1926_1528)">
<rect x="744.257" y="122.491" width="253.063" height="242.606" fill="#D9D9D9"/>
<rect x="744.757" y="122.991" width="252.063" height="241.606" stroke="black"/>
</g>
<path d="M1091.43 22.1028V391.24H1106.07V22.1028H1091.43Z" stroke="black" stroke-width="2"/>
<path d="M1091.43 391.24H677.332V406.926H1091.43V391.24Z" stroke="black" stroke-width="2"/>
<path d="M676.286 15.8286V391.24H660.6V15.8286H676.286Z" stroke="black" stroke-width="2"/>
<path d="M1070.52 249.023H999.411V244.84V196.737L1070.52 200.92V249.023Z" fill="#D9D9D9"/>
<path d="M999.411 244.84L1070.52 249.023M1070.52 249.023H999.411V196.737L1070.52 200.92V249.023Z" stroke="#BFBFBF" stroke-width="2"/>
<path d="M790.578 257V220.636H804.925C807.683 220.636 810.033 221.163 811.974 222.217C813.915 223.258 815.395 224.708 816.413 226.567C817.443 228.413 817.958 230.544 817.958 232.959C817.958 235.374 817.437 237.504 816.395 239.351C815.354 241.197 813.844 242.636 811.868 243.665C809.903 244.695 807.523 245.21 804.73 245.21H795.586V239.049H803.487C804.967 239.049 806.186 238.795 807.145 238.286C808.115 237.765 808.837 237.049 809.311 236.137C809.796 235.214 810.039 234.154 810.039 232.959C810.039 231.751 809.796 230.698 809.311 229.798C808.837 228.887 808.115 228.183 807.145 227.685C806.174 227.176 804.943 226.922 803.451 226.922H798.267V257H790.578ZM825.02 257H816.781L829.335 220.636H839.242L851.778 257H843.539L834.431 228.946H834.146L825.02 257ZM824.505 242.707H843.965V248.708H824.505V242.707ZM856.155 257V220.636H863.843V250.661H879.432V257H856.155ZM915.192 233.367H907.415C907.273 232.361 906.983 231.467 906.545 230.686C906.107 229.893 905.545 229.218 904.858 228.662C904.172 228.106 903.379 227.679 902.479 227.384C901.591 227.088 900.627 226.94 899.585 226.94C897.703 226.94 896.064 227.407 894.667 228.342C893.27 229.266 892.187 230.615 891.417 232.391C890.648 234.154 890.263 236.297 890.263 238.818C890.263 241.411 890.648 243.589 891.417 245.352C892.199 247.116 893.288 248.448 894.684 249.347C896.081 250.247 897.697 250.697 899.532 250.697C900.562 250.697 901.515 250.561 902.39 250.288C903.278 250.016 904.065 249.62 904.752 249.099C905.439 248.566 906.007 247.921 906.456 247.163C906.918 246.406 907.238 245.542 907.415 244.571L915.192 244.607C914.991 246.276 914.488 247.885 913.683 249.436C912.89 250.975 911.819 252.354 910.469 253.573C909.132 254.781 907.534 255.739 905.675 256.45C903.829 257.148 901.739 257.497 899.407 257.497C896.164 257.497 893.264 256.763 890.707 255.295C888.162 253.828 886.15 251.703 884.67 248.921C883.202 246.139 882.469 242.772 882.469 238.818C882.469 234.853 883.214 231.479 884.706 228.697C886.197 225.916 888.221 223.797 890.778 222.341C893.335 220.873 896.211 220.139 899.407 220.139C901.515 220.139 903.468 220.435 905.267 221.027C907.078 221.619 908.682 222.483 910.079 223.619C911.475 224.744 912.612 226.123 913.488 227.756C914.376 229.39 914.944 231.26 915.192 233.367ZM954.122 238.818C954.122 242.784 953.37 246.157 951.867 248.939C950.375 251.721 948.339 253.845 945.759 255.313C943.19 256.769 940.302 257.497 937.094 257.497C933.862 257.497 930.962 256.763 928.394 255.295C925.825 253.828 923.795 251.703 922.303 248.921C920.812 246.139 920.066 242.772 920.066 238.818C920.066 234.853 920.812 231.479 922.303 228.697C923.795 225.916 925.825 223.797 928.394 222.341C930.962 220.873 933.862 220.139 937.094 220.139C940.302 220.139 943.19 220.873 945.759 222.341C948.339 223.797 950.375 225.916 951.867 228.697C953.37 231.479 954.122 234.853 954.122 238.818ZM946.327 238.818C946.327 236.25 945.942 234.083 945.173 232.32C944.415 230.556 943.344 229.218 941.959 228.307C940.574 227.395 938.952 226.94 937.094 226.94C935.235 226.94 933.614 227.395 932.229 228.307C930.844 229.218 929.767 230.556 928.997 232.32C928.24 234.083 927.861 236.25 927.861 238.818C927.861 241.387 928.24 243.553 928.997 245.317C929.767 247.08 930.844 248.418 932.229 249.33C933.614 250.241 935.235 250.697 937.094 250.697C938.952 250.697 940.574 250.241 941.959 249.33C943.344 248.418 944.415 247.08 945.173 245.317C945.942 243.553 946.327 241.387 946.327 238.818Z" fill="black"/>
<path d="M262.967 504.433C262.711 502.274 261.674 500.598 259.856 499.404C258.038 498.211 255.808 497.615 253.166 497.615C251.234 497.615 249.544 497.927 248.095 498.552C246.66 499.177 245.538 500.037 244.728 501.13C243.933 502.224 243.535 503.467 243.535 504.859C243.535 506.024 243.812 507.025 244.366 507.863C244.934 508.687 245.659 509.376 246.54 509.93C247.42 510.47 248.344 510.917 249.309 511.272C250.275 511.613 251.163 511.89 251.973 512.103L256.405 513.297C257.541 513.595 258.805 514.007 260.197 514.532C261.603 515.058 262.946 515.775 264.224 516.684C265.517 517.579 266.582 518.73 267.42 520.136C268.258 521.542 268.677 523.268 268.677 525.314C268.677 527.672 268.059 529.802 266.824 531.706C265.602 533.609 263.812 535.122 261.454 536.244C259.111 537.366 256.263 537.927 252.91 537.927C249.785 537.927 247.079 537.423 244.792 536.414C242.52 535.406 240.73 534 239.423 532.196C238.13 530.392 237.399 528.297 237.228 525.91H242.683C242.825 527.558 243.379 528.922 244.345 530.001C245.325 531.066 246.561 531.862 248.052 532.387C249.558 532.899 251.177 533.154 252.91 533.154C254.927 533.154 256.738 532.828 258.344 532.174C259.949 531.507 261.22 530.583 262.157 529.404C263.095 528.211 263.564 526.819 263.564 525.228C263.564 523.779 263.159 522.6 262.349 521.691C261.54 520.782 260.474 520.044 259.153 519.475C257.832 518.907 256.405 518.41 254.871 517.984L249.501 516.45C246.092 515.47 243.393 514.071 241.405 512.252C239.416 510.434 238.422 508.055 238.422 505.115C238.422 502.672 239.082 500.541 240.403 498.723C241.738 496.89 243.528 495.47 245.773 494.461C248.031 493.439 250.552 492.927 253.336 492.927C256.149 492.927 258.649 493.431 260.836 494.44C263.024 495.434 264.757 496.798 266.035 498.531C267.328 500.264 268.01 502.231 268.081 504.433H262.967ZM277.365 537.16V493.524H303.7V498.211H282.649V512.956H302.337V517.643H282.649V532.473H304.041V537.16H277.365ZM310.838 498.211V493.524H343.565V498.211H329.844V537.16H324.56V498.211H310.838ZM386.722 515.342C386.722 519.944 385.891 523.922 384.23 527.274C382.568 530.626 380.288 533.211 377.39 535.029C374.492 536.848 371.183 537.757 367.461 537.757C363.739 537.757 360.43 536.848 357.532 535.029C354.634 533.211 352.355 530.626 350.693 527.274C349.031 523.922 348.2 519.944 348.2 515.342C348.2 510.74 349.031 506.762 350.693 503.41C352.355 500.058 354.634 497.473 357.532 495.654C360.43 493.836 363.739 492.927 367.461 492.927C371.183 492.927 374.492 493.836 377.39 495.654C380.288 497.473 382.568 500.058 384.23 503.41C385.891 506.762 386.722 510.74 386.722 515.342ZM381.609 515.342C381.609 511.564 380.977 508.375 379.712 505.775C378.462 503.176 376.765 501.208 374.62 499.873C372.489 498.538 370.103 497.87 367.461 497.87C364.819 497.87 362.426 498.538 360.281 499.873C358.15 501.208 356.453 503.176 355.188 505.775C353.938 508.375 353.313 511.564 353.313 515.342C353.313 519.12 353.938 522.309 355.188 524.909C356.453 527.508 358.15 529.475 360.281 530.811C362.426 532.146 364.819 532.814 367.461 532.814C370.103 532.814 372.489 532.146 374.62 530.811C376.765 529.475 378.462 527.508 379.712 524.909C380.977 522.309 381.609 519.12 381.609 515.342ZM395.607 537.16V493.524L410.352 493.524C413.761 493.524 416.559 494.106 418.747 495.271C420.934 496.422 422.553 498.005 423.605 500.022C424.656 502.039 425.181 504.333 425.181 506.904C425.181 509.475 424.656 511.755 423.605 513.744C422.553 515.733 420.941 517.295 418.768 518.431C416.595 519.554 413.818 520.115 410.437 520.115H398.505V515.342H410.266C412.596 515.342 414.471 515.001 415.891 514.319C417.326 513.637 418.363 512.672 419.002 511.422C419.656 510.157 419.982 508.652 419.982 506.904C419.982 505.157 419.656 503.63 419.002 502.324C418.349 501.017 417.305 500.008 415.87 499.298C414.436 498.574 412.539 498.211 410.181 498.211H400.891V537.16H395.607ZM416.147 517.558L426.886 537.16H420.749L410.181 517.558H416.147ZM453.903 537.16H444.016L459.08 493.524H470.97L486.012 537.16H476.126L465.195 503.495H464.855L453.903 537.16ZM453.285 520.008H476.637V527.21H453.285V520.008Z" fill="black"/>
<path d="M823.643 572.273C823.388 570.114 822.351 568.438 820.532 567.244C818.714 566.051 816.484 565.455 813.842 565.455C811.91 565.455 810.22 565.767 808.771 566.392C807.336 567.017 806.214 567.876 805.405 568.97C804.609 570.064 804.211 571.307 804.211 572.699C804.211 573.864 804.488 574.865 805.042 575.703C805.611 576.527 806.335 577.216 807.216 577.77C808.096 578.31 809.02 578.757 809.986 579.112C810.951 579.453 811.839 579.73 812.649 579.943L817.081 581.136C818.217 581.435 819.481 581.847 820.873 582.372C822.28 582.898 823.622 583.615 824.9 584.524C826.193 585.419 827.258 586.57 828.096 587.976C828.934 589.382 829.353 591.108 829.353 593.153C829.353 595.511 828.736 597.642 827.5 599.545C826.278 601.449 824.488 602.962 822.13 604.084C819.787 605.206 816.939 605.767 813.586 605.767C810.461 605.767 807.755 605.263 805.469 604.254C803.196 603.246 801.406 601.839 800.099 600.036C798.807 598.232 798.075 596.136 797.905 593.75H803.359C803.501 595.398 804.055 596.761 805.021 597.841C806.001 598.906 807.237 599.702 808.728 600.227C810.234 600.739 811.853 600.994 813.586 600.994C815.603 600.994 817.415 600.668 819.02 600.014C820.625 599.347 821.896 598.423 822.834 597.244C823.771 596.051 824.24 594.659 824.24 593.068C824.24 591.619 823.835 590.44 823.025 589.531C822.216 588.622 821.15 587.884 819.829 587.315C818.508 586.747 817.081 586.25 815.547 585.824L810.177 584.29C806.768 583.31 804.069 581.911 802.081 580.092C800.092 578.274 799.098 575.895 799.098 572.955C799.098 570.511 799.758 568.381 801.079 566.562C802.415 564.73 804.204 563.31 806.449 562.301C808.707 561.278 811.228 560.767 814.013 560.767C816.825 560.767 819.325 561.271 821.513 562.28C823.7 563.274 825.433 564.638 826.711 566.371C828.004 568.104 828.686 570.071 828.757 572.273H823.643ZM838.041 605V561.364H864.377V566.051H843.325V580.795H863.013V585.483H843.325V600.312H864.717V605H838.041ZM871.514 566.051V561.364H904.242V566.051H890.52V605H885.236V566.051H871.514ZM947.399 583.182C947.399 587.784 946.568 591.761 944.906 595.114C943.244 598.466 940.964 601.051 938.066 602.869C935.168 604.688 931.859 605.597 928.137 605.597C924.416 605.597 921.106 604.688 918.208 602.869C915.311 601.051 913.031 598.466 911.369 595.114C909.707 591.761 908.876 587.784 908.876 583.182C908.876 578.58 909.707 574.602 911.369 571.25C913.031 567.898 915.311 565.312 918.208 563.494C921.106 561.676 924.416 560.767 928.137 560.767C931.859 560.767 935.168 561.676 938.066 563.494C940.964 565.312 943.244 567.898 944.906 571.25C946.568 574.602 947.399 578.58 947.399 583.182ZM942.285 583.182C942.285 579.403 941.653 576.214 940.389 573.615C939.139 571.016 937.441 569.048 935.296 567.713C933.166 566.378 930.779 565.71 928.137 565.71C925.495 565.71 923.102 566.378 920.957 567.713C918.826 569.048 917.129 571.016 915.864 573.615C914.614 576.214 913.989 579.403 913.989 583.182C913.989 586.96 914.614 590.149 915.864 592.749C917.129 595.348 918.826 597.315 920.957 598.651C923.102 599.986 925.495 600.653 928.137 600.653C930.779 600.653 933.166 599.986 935.296 598.651C937.441 597.315 939.139 595.348 940.389 592.749C941.653 590.149 942.285 586.96 942.285 583.182ZM956.284 605V561.364H971.028C974.437 561.364 977.235 561.946 979.423 563.111C981.61 564.261 983.23 565.845 984.281 567.862C985.332 569.879 985.857 572.173 985.857 574.744C985.857 577.315 985.332 579.595 984.281 581.584C983.23 583.572 981.617 585.135 979.444 586.271C977.271 587.393 974.494 587.955 971.113 587.955H959.181V583.182H970.943C973.272 583.182 975.147 582.841 976.568 582.159C978.002 581.477 979.039 580.511 979.678 579.261C980.332 577.997 980.659 576.491 980.659 574.744C980.659 572.997 980.332 571.47 979.678 570.163C979.025 568.857 977.981 567.848 976.546 567.138C975.112 566.413 973.215 566.051 970.857 566.051H961.568V605H956.284ZM976.823 585.398L987.562 605H981.426L970.857 585.398H976.823ZM1007.06 605V561.364H1024.53C1027.74 561.364 1030.42 561.839 1032.56 562.791C1034.71 563.743 1036.32 565.064 1037.4 566.754C1038.48 568.43 1039.02 570.362 1039.02 572.55C1039.02 574.254 1038.68 575.753 1038 577.045C1037.31 578.324 1036.38 579.375 1035.18 580.199C1034 581.009 1032.65 581.584 1031.13 581.925V582.351C1032.8 582.422 1034.35 582.891 1035.8 583.757C1037.26 584.624 1038.45 585.838 1039.36 587.401C1040.27 588.949 1040.72 590.795 1040.72 592.94C1040.72 595.256 1040.15 597.322 1039 599.141C1037.86 600.945 1036.18 602.372 1033.95 603.423C1031.72 604.474 1028.97 605 1025.7 605H1007.06ZM1016.28 597.457H1023.8C1026.38 597.457 1028.25 596.967 1029.43 595.987C1030.61 594.993 1031.2 593.672 1031.2 592.024C1031.2 590.817 1030.91 589.751 1030.32 588.828C1029.74 587.905 1028.91 587.18 1027.83 586.655C1026.77 586.129 1025.5 585.866 1024.02 585.866H1016.28V597.457ZM1016.28 579.624H1023.12C1024.39 579.624 1025.51 579.403 1026.49 578.963C1027.48 578.509 1028.27 577.869 1028.83 577.045C1029.42 576.222 1029.71 575.234 1029.71 574.084C1029.71 572.507 1029.15 571.236 1028.02 570.27C1026.92 569.304 1025.34 568.821 1023.29 568.821H1016.28V579.624Z" fill="black"/>
<path d="M1464.43 614.441C1462.27 614.697 1460.6 615.734 1459.4 617.552C1458.21 619.37 1457.61 621.6 1457.61 624.242C1457.61 626.174 1457.93 627.865 1458.55 629.313C1459.18 630.748 1460.04 631.87 1461.13 632.68C1462.22 633.475 1463.47 633.873 1464.86 633.873C1466.02 633.873 1467.03 633.596 1467.86 633.042C1468.69 632.474 1469.38 631.75 1469.93 630.869C1470.47 629.988 1470.92 629.065 1471.27 628.099C1471.61 627.133 1471.89 626.245 1472.1 625.436L1473.3 621.004C1473.59 619.867 1474.01 618.603 1474.53 617.211C1475.06 615.805 1475.78 614.463 1476.68 613.184C1477.58 611.892 1478.73 610.826 1480.14 609.988C1481.54 609.15 1483.27 608.731 1485.31 608.731C1487.67 608.731 1489.8 609.349 1491.71 610.585C1493.61 611.806 1495.12 613.596 1496.24 615.954C1497.37 618.298 1497.93 621.146 1497.93 624.498C1497.93 627.623 1497.42 630.329 1496.41 632.616C1495.41 634.889 1494 636.679 1492.2 637.985C1490.39 639.278 1488.3 640.01 1485.91 640.18L1485.91 634.725C1487.56 634.583 1488.92 634.029 1490 633.063C1491.07 632.083 1491.86 630.848 1492.39 629.356C1492.9 627.85 1493.15 626.231 1493.15 624.498C1493.15 622.481 1492.83 620.67 1492.17 619.065C1491.51 617.46 1490.58 616.188 1489.4 615.251C1488.21 614.313 1486.82 613.845 1485.23 613.845C1483.78 613.845 1482.6 614.25 1481.69 615.059C1480.78 615.869 1480.04 616.934 1479.48 618.255C1478.91 619.576 1478.41 621.004 1477.98 622.538L1476.45 627.907C1475.47 631.316 1474.07 634.015 1472.25 636.004C1470.43 637.992 1468.05 638.987 1465.11 638.987C1462.67 638.987 1460.54 638.326 1458.72 637.005C1456.89 635.67 1455.47 633.88 1454.46 631.636C1453.44 629.377 1452.93 626.856 1452.93 624.072C1452.93 621.26 1453.43 618.76 1454.44 616.572C1455.43 614.385 1456.8 612.652 1458.53 611.373C1460.26 610.081 1462.23 609.399 1464.43 609.328L1464.43 614.441ZM1497.16 600.043L1453.52 600.043L1453.52 573.708L1458.21 573.708L1458.21 594.759L1472.96 594.759L1472.96 575.072L1477.64 575.072L1477.64 594.759L1492.47 594.759L1492.47 573.367L1497.16 573.367L1497.16 600.043ZM1458.21 566.57L1453.52 566.57L1453.52 533.843L1458.21 533.843L1458.21 547.565L1497.16 547.565L1497.16 552.849L1458.21 552.849L1458.21 566.57ZM1475.34 490.686C1479.94 490.686 1483.92 491.517 1487.27 493.179C1490.63 494.841 1493.21 497.121 1495.03 500.018C1496.85 502.916 1497.76 506.226 1497.76 509.947C1497.76 513.669 1496.85 516.979 1495.03 519.876C1493.21 522.774 1490.63 525.054 1487.27 526.716C1483.92 528.378 1479.94 529.209 1475.34 529.209C1470.74 529.209 1466.76 528.378 1463.41 526.716C1460.06 525.054 1457.47 522.774 1455.65 519.876C1453.84 516.979 1452.93 513.669 1452.93 509.947C1452.93 506.226 1453.84 502.916 1455.65 500.018C1457.47 497.121 1460.06 494.841 1463.41 493.179C1466.76 491.517 1470.74 490.686 1475.34 490.686ZM1475.34 495.8C1471.56 495.8 1468.37 496.432 1465.78 497.696C1463.18 498.946 1461.21 500.643 1459.87 502.788C1458.54 504.919 1457.87 507.305 1457.87 509.947C1457.87 512.589 1458.54 514.983 1459.87 517.128C1461.21 519.258 1463.18 520.956 1465.78 522.22C1468.37 523.47 1471.56 524.095 1475.34 524.095C1479.12 524.095 1482.31 523.47 1484.91 522.22C1487.51 520.956 1489.48 519.258 1490.81 517.128C1492.15 514.983 1492.81 512.589 1492.81 509.947C1492.81 507.305 1492.15 504.919 1490.81 502.788C1489.48 500.643 1487.51 498.946 1484.91 497.696C1482.31 496.432 1479.12 495.8 1475.34 495.8ZM1497.16 481.801L1453.52 481.801L1453.52 467.057C1453.52 463.648 1454.11 460.849 1455.27 458.662C1456.42 456.474 1458.01 454.855 1460.02 453.804C1462.04 452.753 1464.33 452.227 1466.9 452.227C1469.48 452.227 1471.76 452.753 1473.74 453.804C1475.73 454.855 1477.29 456.467 1478.43 458.641C1479.55 460.814 1480.11 463.591 1480.11 466.972L1480.11 478.903L1475.34 478.903L1475.34 467.142C1475.34 464.812 1475 462.937 1474.32 461.517C1473.64 460.082 1472.67 459.045 1471.42 458.406C1470.16 457.753 1468.65 457.426 1466.9 457.426C1465.16 457.426 1463.63 457.753 1462.32 458.406C1461.02 459.06 1460.01 460.104 1459.3 461.538C1458.57 462.973 1458.21 464.869 1458.21 467.227L1458.21 476.517L1497.16 476.517L1497.16 481.801ZM1477.56 461.261L1497.16 450.523L1497.16 456.659L1477.56 467.227L1477.56 461.261ZM1468.8 392.525L1468.8 401.858C1467.59 402.028 1466.52 402.376 1465.58 402.902C1464.63 403.427 1463.82 404.102 1463.15 404.926C1462.49 405.75 1461.98 406.702 1461.62 407.781C1461.27 408.847 1461.09 410.004 1461.09 411.254C1461.09 413.513 1461.65 415.48 1462.77 417.156C1463.88 418.832 1465.5 420.132 1467.63 421.055C1469.75 421.979 1472.32 422.44 1475.34 422.44C1478.45 422.44 1481.07 421.979 1483.18 421.055C1485.3 420.118 1486.9 418.811 1487.98 417.135C1489.06 415.459 1489.6 413.52 1489.6 411.318C1489.6 410.082 1489.43 408.939 1489.11 407.888C1488.78 406.822 1488.3 405.878 1487.68 405.054C1487.04 404.23 1486.27 403.548 1485.36 403.008C1484.45 402.454 1483.41 402.071 1482.25 401.858L1482.29 392.525C1484.29 392.767 1486.22 393.371 1488.08 394.337C1489.93 395.288 1491.58 396.574 1493.05 398.193C1494.5 399.798 1495.65 401.716 1496.5 403.946C1497.34 406.162 1497.76 408.669 1497.76 411.467C1497.76 415.359 1496.88 418.839 1495.11 421.908C1493.35 424.962 1490.8 427.376 1487.47 429.152C1484.13 430.913 1480.09 431.794 1475.34 431.794C1470.58 431.794 1466.54 430.899 1463.2 429.109C1459.86 427.32 1457.32 424.891 1455.57 421.822C1453.81 418.754 1452.93 415.302 1452.93 411.467C1452.93 408.939 1453.28 406.595 1453.99 404.436C1454.7 402.263 1455.74 400.338 1457.1 398.662C1458.45 396.986 1460.11 395.622 1462.07 394.571C1464.03 393.506 1466.27 392.824 1468.8 392.525Z" fill="black"/>
<defs>
<filter id="filter0_d_1926_1528" x="744.257" y="122.491" width="257.063" height="246.606" filterUnits="userSpaceOnUse" color-interpolation-filters="sRGB">
<feFlood flood-opacity="0" result="BackgroundImageFix"/>
<feColorMatrix in="SourceAlpha" type="matrix" values="0 0 0 0 0 0 0 0 0 0 0 0 0 0 0 0 0 0 127 0" result="hardAlpha"/>
<feOffset dx="4" dy="4"/>
<feComposite in2="hardAlpha" operator="out"/>
<feColorMatrix type="matrix" values="0 0 0 0 0 0 0 0 0 0 0 0 0 0 0 0 0 0 0.25 0"/>
<feBlend mode="normal" in2="BackgroundImageFix" result="effect1_dropShadow_1926_1528"/>
<feBlend mode="normal" in="SourceGraphic" in2="effect1_dropShadow_1926_1528" result="shape"/>
</filter>
</defs>
</svg>
