<svg width="1758" height="1032" viewBox="0 0 1758 1032" fill="none" xmlns="http://www.w3.org/2000/svg">
<rect x="83" y="2" width="556" height="1030" fill="#B3B470" fill-opacity="0.15"/>
<rect x="641" y="450" width="556" height="582" fill="#E00BCD" fill-opacity="0.15"/>
<rect x="1199" y="1" width="556" height="1030" fill="#E0110B" fill-opacity="0.15"/>
<circle cx="687.914" cy="761.914" r="20.4143" fill="#D9D9D9" stroke="black"/>
<circle cx="687.914" cy="915.914" r="20.4143" fill="#D9D9D9" stroke="black"/>
<circle cx="764.914" cy="761.914" r="20.4143" fill="#D9D9D9" stroke="black"/>
<circle cx="764.914" cy="915.914" r="20.4143" fill="#D9D9D9" stroke="black"/>
<circle cx="841.914" cy="761.914" r="20.4143" fill="#D9D9D9" stroke="black"/>
<circle cx="841.914" cy="915.914" r="20.4143" fill="#D9D9D9" stroke="black"/>
<circle cx="918.914" cy="761.914" r="20.4143" fill="#D9D9D9" stroke="black"/>
<circle cx="918.914" cy="915.914" r="20.4143" fill="#D9D9D9" stroke="black"/>
<circle cx="995.914" cy="760.914" r="20.4143" fill="#D9D9D9" stroke="black"/>
<circle cx="995.914" cy="914.914" r="20.4143" fill="#D9D9D9" stroke="black"/>
<circle cx="1072.91" cy="760.914" r="20.4143" fill="#D9D9D9" stroke="black"/>
<circle cx="1072.91" cy="914.914" r="20.4143" fill="#D9D9D9" stroke="black"/>
<circle cx="1149.91" cy="759.914" r="20.4143" fill="#D9D9D9" stroke="black"/>
<circle cx="1149.91" cy="913.914" r="20.4143" fill="#D9D9D9" stroke="black"/>
<circle cx="688.914" cy="838.4" r="20.4143" fill="#D9D9D9" stroke="black"/>
<circle cx="688.914" cy="992.4" r="20.4143" fill="#D9D9D9" stroke="black"/>
<circle cx="759.914" cy="838.229" r="20.4143" fill="#D9D9D9" stroke="black"/>
<circle cx="759.914" cy="992.229" r="20.4143" fill="#D9D9D9" stroke="black"/>
<circle cx="840.743" cy="838.229" r="20.4143" fill="#D9D9D9" stroke="black"/>
<circle cx="840.743" cy="992.229" r="20.4143" fill="#D9D9D9" stroke="black"/>
<circle cx="918.914" cy="838.057" r="20.4143" fill="#D9D9D9" stroke="black"/>
<circle cx="918.914" cy="992.057" r="20.4143" fill="#D9D9D9" stroke="black"/>
<circle cx="995.743" cy="838.057" r="20.4143" fill="#D9D9D9" stroke="black"/>
<circle cx="995.743" cy="992.057" r="20.4143" fill="#D9D9D9" stroke="black"/>
<circle cx="1072.91" cy="836.886" r="20.4143" fill="#D9D9D9" stroke="black"/>
<circle cx="1072.91" cy="990.886" r="20.4143" fill="#D9D9D9" stroke="black"/>
<circle cx="1149.74" cy="836.886" r="20.4143" fill="#D9D9D9" stroke="black"/>
<circle cx="1149.74" cy="990.886" r="20.4143" fill="#D9D9D9" stroke="black"/>
<path d="M678.381 724.636V737H675.767V727.118H675.695L672.863 728.892V726.574L675.924 724.636H678.381ZM686.167 737.272C685.129 737.268 684.235 737.012 683.487 736.505C682.742 735.998 682.169 735.263 681.766 734.301C681.368 733.34 681.171 732.183 681.175 730.83C681.175 729.482 681.374 728.333 681.772 727.383C682.175 726.433 682.748 725.711 683.493 725.216C684.241 724.717 685.133 724.467 686.167 724.467C687.201 724.467 688.091 724.717 688.835 725.216C689.584 725.715 690.16 726.439 690.562 727.389C690.965 728.335 691.164 729.482 691.16 730.83C691.16 732.187 690.958 733.346 690.556 734.308C690.158 735.269 689.586 736.004 688.842 736.511C688.097 737.018 687.206 737.272 686.167 737.272ZM686.167 735.104C686.876 735.104 687.441 734.748 687.864 734.036C688.286 733.324 688.495 732.255 688.491 730.83C688.491 729.893 688.395 729.112 688.202 728.488C688.012 727.864 687.743 727.395 687.393 727.081C687.047 726.767 686.638 726.61 686.167 726.61C685.463 726.61 684.899 726.963 684.477 727.667C684.054 728.371 683.841 729.426 683.837 730.83C683.837 731.78 683.931 732.573 684.121 733.209C684.314 733.841 684.585 734.316 684.936 734.634C685.286 734.947 685.696 735.104 686.167 735.104ZM692.836 734.827V732.768L697.998 724.636H699.773V727.486H698.722L695.469 732.635V732.732H702.803V734.827H692.836ZM698.771 737V734.199L698.819 733.287V724.636H701.27V737H698.771Z" fill="black"/>
<path d="M680.381 878.636V891H677.767V881.118H677.695L674.863 882.892V880.574L677.924 878.636H680.381ZM688.698 878.636V891H686.084V881.118H686.012L683.181 882.892V880.574L686.241 878.636H688.698ZM696.249 891.169C695.319 891.169 694.492 891.018 693.768 890.716C693.048 890.41 692.482 889.994 692.072 889.467C691.661 888.939 691.456 888.342 691.456 887.674C691.456 887.158 691.573 886.686 691.806 886.255C692.043 885.82 692.365 885.46 692.772 885.174C693.178 884.885 693.633 884.699 694.136 884.619V884.534C693.476 884.402 692.941 884.082 692.53 883.575C692.12 883.063 691.915 882.47 691.915 881.794C691.915 881.154 692.102 880.584 692.476 880.085C692.85 879.582 693.363 879.188 694.015 878.902C694.671 878.612 695.416 878.467 696.249 878.467C697.082 878.467 697.825 878.612 698.477 878.902C699.133 879.192 699.648 879.588 700.022 880.091C700.396 880.59 700.586 881.158 700.59 881.794C700.586 882.474 700.376 883.067 699.962 883.575C699.547 884.082 699.016 884.402 698.368 884.534V884.619C698.863 884.699 699.312 884.885 699.714 885.174C700.121 885.46 700.443 885.82 700.68 886.255C700.922 886.686 701.044 887.158 701.048 887.674C701.044 888.342 700.837 888.939 700.427 889.467C700.016 889.994 699.449 890.41 698.724 890.716C698.004 891.018 697.179 891.169 696.249 891.169ZM696.249 889.249C696.664 889.249 697.026 889.175 697.336 889.026C697.646 888.873 697.887 888.664 698.06 888.398C698.237 888.128 698.326 887.819 698.326 887.468C698.326 887.11 698.235 886.794 698.054 886.521C697.873 886.243 697.628 886.026 697.318 885.869C697.008 885.708 696.652 885.627 696.249 885.627C695.851 885.627 695.494 885.708 695.181 885.869C694.867 886.026 694.619 886.243 694.438 886.521C694.261 886.794 694.172 887.11 694.172 887.468C694.172 887.819 694.259 888.128 694.432 888.398C694.605 888.664 694.849 888.873 695.162 889.026C695.476 889.175 695.839 889.249 696.249 889.249ZM696.249 883.725C696.595 883.725 696.903 883.655 697.173 883.514C697.442 883.373 697.654 883.178 697.807 882.929C697.96 882.679 698.036 882.391 698.036 882.065C698.036 881.743 697.96 881.462 697.807 881.22C697.654 880.975 697.444 880.783 697.179 880.647C696.913 880.506 696.603 880.435 696.249 880.435C695.899 880.435 695.589 880.506 695.319 880.647C695.05 880.783 694.838 880.975 694.686 881.22C694.537 881.462 694.462 881.743 694.462 882.065C694.462 882.391 694.539 882.679 694.692 882.929C694.845 883.178 695.056 883.373 695.325 883.514C695.595 883.655 695.903 883.725 696.249 883.725Z" fill="black"/>
<path d="M755.49 724.636V737H752.876V727.118H752.803L749.972 728.892V726.574L753.033 724.636H755.49ZM763.276 737.272C762.237 737.268 761.344 737.012 760.595 736.505C759.851 735.998 759.277 735.263 758.875 734.301C758.476 733.34 758.279 732.183 758.283 730.83C758.283 729.482 758.482 728.333 758.881 727.383C759.283 726.433 759.857 725.711 760.601 725.216C761.35 724.717 762.241 724.467 763.276 724.467C764.31 724.467 765.2 724.717 765.944 725.216C766.693 725.715 767.268 726.439 767.671 727.389C768.073 728.335 768.272 729.482 768.268 730.83C768.268 732.187 768.067 733.346 767.665 734.308C767.266 735.269 766.695 736.004 765.95 736.511C765.206 737.018 764.314 737.272 763.276 737.272ZM763.276 735.104C763.984 735.104 764.55 734.748 764.972 734.036C765.395 733.324 765.604 732.255 765.6 730.83C765.6 729.893 765.503 729.112 765.31 728.488C765.121 727.864 764.851 727.395 764.501 727.081C764.155 726.767 763.747 726.61 763.276 726.61C762.572 726.61 762.008 726.963 761.585 727.667C761.163 728.371 760.95 729.426 760.946 730.83C760.946 731.78 761.04 732.573 761.229 733.209C761.422 733.841 761.694 734.316 762.044 734.634C762.394 734.947 762.805 735.104 763.276 735.104ZM774.648 737.169C773.795 737.169 773.034 737.012 772.366 736.698C771.702 736.384 771.175 735.952 770.784 735.4C770.394 734.849 770.191 734.217 770.175 733.505H772.71C772.738 733.984 772.939 734.372 773.314 734.67C773.688 734.968 774.133 735.116 774.648 735.116C775.058 735.116 775.421 735.026 775.735 734.845C776.052 734.66 776.3 734.404 776.477 734.078C776.658 733.748 776.749 733.37 776.749 732.943C776.749 732.509 776.656 732.126 776.471 731.796C776.29 731.466 776.038 731.209 775.716 731.023C775.394 730.838 775.026 730.744 774.612 730.74C774.249 730.74 773.897 730.814 773.555 730.963C773.217 731.112 772.954 731.315 772.764 731.573L770.44 731.156L771.026 724.636H778.584V726.773H773.181L772.861 729.87H772.933C773.151 729.565 773.479 729.311 773.917 729.11C774.356 728.908 774.847 728.808 775.39 728.808C776.135 728.808 776.799 728.983 777.383 729.333C777.966 729.683 778.427 730.164 778.765 730.776C779.103 731.384 779.27 732.084 779.266 732.877C779.27 733.71 779.077 734.45 778.687 735.098C778.3 735.742 777.759 736.249 777.063 736.62C776.37 736.986 775.565 737.169 774.648 737.169Z" fill="black"/>
<path d="M757.49 878.636V891H754.876V881.118H754.803L751.972 882.892V880.574L755.033 878.636H757.49ZM765.807 878.636V891H763.193V881.118H763.121L760.289 882.892V880.574L763.35 878.636H765.807ZM773.219 878.467C773.855 878.467 774.467 878.574 775.054 878.787C775.646 879.001 776.173 879.341 776.636 879.808C777.103 880.274 777.471 880.894 777.741 881.667C778.014 882.436 778.153 883.379 778.157 884.498C778.157 885.549 778.038 886.486 777.801 887.311C777.568 888.132 777.231 888.831 776.793 889.406C776.354 889.982 775.825 890.42 775.205 890.722C774.585 891.02 773.893 891.169 773.128 891.169C772.303 891.169 771.575 891.01 770.943 890.692C770.311 890.37 769.802 889.933 769.416 889.382C769.033 888.827 768.802 888.203 768.721 887.511H771.299C771.4 887.961 771.611 888.312 771.933 888.561C772.255 888.807 772.653 888.929 773.128 888.929C773.933 888.929 774.545 888.579 774.964 887.879C775.382 887.175 775.593 886.211 775.597 884.987H775.513C775.328 885.349 775.078 885.661 774.764 885.923C774.45 886.181 774.09 886.38 773.684 886.521C773.281 886.661 772.853 886.732 772.398 886.732C771.669 886.732 771.019 886.561 770.448 886.219C769.876 885.877 769.426 885.406 769.096 884.806C768.766 884.206 768.601 883.522 768.601 882.754C768.597 881.924 768.788 881.186 769.174 880.538C769.561 879.89 770.1 879.383 770.792 879.017C771.488 878.646 772.297 878.463 773.219 878.467ZM773.237 880.52C772.831 880.52 772.468 880.616 772.15 880.81C771.836 881.003 771.587 881.262 771.402 881.588C771.221 881.914 771.132 882.279 771.136 882.681C771.136 883.088 771.225 883.454 771.402 883.78C771.583 884.102 771.828 884.359 772.138 884.553C772.452 884.742 772.81 884.836 773.213 884.836C773.515 884.836 773.794 884.78 774.052 884.667C774.31 884.555 774.533 884.4 774.722 884.202C774.915 884.001 775.066 883.77 775.175 883.508C775.284 883.247 775.338 882.969 775.338 882.675C775.334 882.285 775.241 881.926 775.06 881.6C774.879 881.275 774.63 881.013 774.312 880.816C773.994 880.618 773.635 880.52 773.237 880.52Z" fill="black"/>
<path d="M832.112 724.636V737H829.498V727.118H829.426L826.595 728.892V726.574L829.655 724.636H832.112ZM839.899 737.272C838.86 737.268 837.967 737.012 837.218 736.505C836.474 735.998 835.9 735.263 835.498 734.301C835.099 733.34 834.902 732.183 834.906 730.83C834.906 729.482 835.105 728.333 835.504 727.383C835.906 726.433 836.48 725.711 837.224 725.216C837.973 724.717 838.864 724.467 839.899 724.467C840.933 724.467 841.822 724.717 842.567 725.216C843.316 725.715 843.891 726.439 844.294 727.389C844.696 728.335 844.895 729.482 844.891 730.83C844.891 732.187 844.69 733.346 844.287 734.308C843.889 735.269 843.318 736.004 842.573 736.511C841.828 737.018 840.937 737.272 839.899 737.272ZM839.899 735.104C840.607 735.104 841.172 734.748 841.595 734.036C842.018 733.324 842.227 732.255 842.223 730.83C842.223 729.893 842.126 729.112 841.933 728.488C841.744 727.864 841.474 727.395 841.124 727.081C840.778 726.767 840.369 726.61 839.899 726.61C839.194 726.61 838.631 726.963 838.208 727.667C837.786 728.371 837.572 729.426 837.568 730.83C837.568 731.78 837.663 732.573 837.852 733.209C838.045 733.841 838.317 734.316 838.667 734.634C839.017 734.947 839.428 735.104 839.899 735.104ZM851.5 737.169C850.864 737.165 850.25 737.058 849.659 736.849C849.071 736.64 848.544 736.3 848.077 735.829C847.61 735.358 847.24 734.734 846.966 733.957C846.697 733.181 846.562 732.227 846.562 731.096C846.566 730.058 846.685 729.13 846.918 728.313C847.156 727.492 847.494 726.796 847.932 726.224C848.375 725.653 848.904 725.218 849.52 724.92C850.136 724.618 850.826 724.467 851.591 724.467C852.416 724.467 853.144 724.628 853.776 724.95C854.408 725.268 854.915 725.701 855.297 726.248C855.684 726.796 855.917 727.409 855.998 728.089H853.42C853.319 727.659 853.108 727.321 852.786 727.075C852.464 726.83 852.066 726.707 851.591 726.707C850.786 726.707 850.174 727.057 849.755 727.757C849.341 728.458 849.13 729.41 849.122 730.613H849.206C849.391 730.247 849.641 729.935 849.955 729.677C850.273 729.416 850.633 729.216 851.035 729.08C851.442 728.939 851.87 728.868 852.321 728.868C853.054 728.868 853.706 729.041 854.277 729.387C854.849 729.73 855.299 730.2 855.629 730.8C855.959 731.4 856.124 732.086 856.124 732.859C856.124 733.696 855.929 734.44 855.539 735.092C855.152 735.744 854.611 736.255 853.915 736.626C853.223 736.992 852.418 737.173 851.5 737.169ZM851.488 735.116C851.89 735.116 852.251 735.02 852.569 734.827C852.887 734.634 853.136 734.372 853.317 734.042C853.498 733.712 853.589 733.342 853.589 732.931C853.589 732.521 853.498 732.152 853.317 731.826C853.14 731.5 852.895 731.241 852.581 731.048C852.267 730.854 851.909 730.758 851.506 730.758C851.204 730.758 850.925 730.814 850.667 730.927C850.413 731.04 850.19 731.196 849.997 731.398C849.808 731.599 849.659 731.832 849.55 732.098C849.441 732.36 849.387 732.639 849.387 732.937C849.387 733.336 849.478 733.7 849.659 734.03C849.844 734.36 850.093 734.623 850.407 734.821C850.725 735.018 851.086 735.116 851.488 735.116Z" fill="black"/>
<path d="M832.112 878.636V891H829.498V881.118H829.426L826.595 882.892V880.574L829.655 878.636H832.112ZM835.051 891V889.116L839.452 885.042C839.826 884.679 840.14 884.353 840.394 884.064C840.651 883.774 840.846 883.49 840.979 883.212C841.112 882.931 841.178 882.627 841.178 882.301C841.178 881.939 841.096 881.627 840.931 881.365C840.766 881.099 840.541 880.896 840.255 880.755C839.969 880.61 839.645 880.538 839.283 880.538C838.905 880.538 838.575 880.614 838.293 880.767C838.011 880.92 837.794 881.14 837.641 881.425C837.488 881.711 837.411 882.051 837.411 882.446H834.93C834.93 881.637 835.113 880.934 835.48 880.339C835.846 879.743 836.359 879.282 837.019 878.956C837.679 878.63 838.44 878.467 839.301 878.467C840.186 878.467 840.957 878.624 841.613 878.938C842.273 879.248 842.786 879.679 843.153 880.23C843.519 880.781 843.702 881.413 843.702 882.126C843.702 882.593 843.609 883.053 843.424 883.508C843.243 883.963 842.919 884.468 842.452 885.023C841.985 885.575 841.327 886.237 840.478 887.01L838.673 888.778V888.863H843.865V891H835.051ZM850.607 891.272C849.568 891.268 848.675 891.012 847.926 890.505C847.182 889.998 846.608 889.263 846.206 888.301C845.807 887.34 845.61 886.183 845.614 884.83C845.614 883.482 845.813 882.333 846.212 881.383C846.614 880.433 847.188 879.711 847.932 879.216C848.681 878.717 849.572 878.467 850.607 878.467C851.641 878.467 852.53 878.717 853.275 879.216C854.024 879.715 854.599 880.439 855.002 881.389C855.404 882.335 855.603 883.482 855.599 884.83C855.599 886.187 855.398 887.346 854.995 888.308C854.597 889.269 854.026 890.004 853.281 890.511C852.536 891.018 851.645 891.272 850.607 891.272ZM850.607 889.104C851.315 889.104 851.88 888.748 852.303 888.036C852.726 887.324 852.935 886.255 852.931 884.83C852.931 883.893 852.834 883.112 852.641 882.488C852.452 881.864 852.182 881.395 851.832 881.081C851.486 880.767 851.078 880.61 850.607 880.61C849.902 880.61 849.339 880.963 848.916 881.667C848.494 882.371 848.28 883.426 848.276 884.83C848.276 885.78 848.371 886.573 848.56 887.209C848.753 887.841 849.025 888.316 849.375 888.634C849.725 888.947 850.136 889.104 850.607 889.104Z" fill="black"/>
<path d="M910.112 724.636V737H907.498V727.118H907.426L904.595 728.892V726.574L907.655 724.636H910.112ZM917.899 737.272C916.86 737.268 915.967 737.012 915.218 736.505C914.474 735.998 913.9 735.263 913.498 734.301C913.099 733.34 912.902 732.183 912.906 730.83C912.906 729.482 913.105 728.333 913.504 727.383C913.906 726.433 914.48 725.711 915.224 725.216C915.973 724.717 916.864 724.467 917.899 724.467C918.933 724.467 919.822 724.717 920.567 725.216C921.316 725.715 921.891 726.439 922.294 727.389C922.696 728.335 922.895 729.482 922.891 730.83C922.891 732.187 922.69 733.346 922.287 734.308C921.889 735.269 921.318 736.004 920.573 736.511C919.828 737.018 918.937 737.272 917.899 737.272ZM917.899 735.104C918.607 735.104 919.172 734.748 919.595 734.036C920.018 733.324 920.227 732.255 920.223 730.83C920.223 729.893 920.126 729.112 919.933 728.488C919.744 727.864 919.474 727.395 919.124 727.081C918.778 726.767 918.369 726.61 917.899 726.61C917.194 726.61 916.631 726.963 916.208 727.667C915.786 728.371 915.572 729.426 915.568 730.83C915.568 731.78 915.663 732.573 915.852 733.209C916.045 733.841 916.317 734.316 916.667 734.634C917.017 734.947 917.428 735.104 917.899 735.104ZM924.912 737L930.037 726.858V726.773H924.067V724.636H932.742V726.804L927.611 737H924.912Z" fill="black"/>
<path d="M911.112 878.636V891H908.498V881.118H908.426L905.595 882.892V880.574L908.655 878.636H911.112ZM914.051 891V889.116L918.452 885.042C918.826 884.679 919.14 884.353 919.394 884.064C919.651 883.774 919.846 883.49 919.979 883.212C920.112 882.931 920.178 882.627 920.178 882.301C920.178 881.939 920.096 881.627 919.931 881.365C919.766 881.099 919.541 880.896 919.255 880.755C918.969 880.61 918.645 880.538 918.283 880.538C917.905 880.538 917.575 880.614 917.293 880.767C917.011 880.92 916.794 881.14 916.641 881.425C916.488 881.711 916.411 882.051 916.411 882.446H913.93C913.93 881.637 914.113 880.934 914.48 880.339C914.846 879.743 915.359 879.282 916.019 878.956C916.679 878.63 917.44 878.467 918.301 878.467C919.186 878.467 919.957 878.624 920.613 878.938C921.273 879.248 921.786 879.679 922.153 880.23C922.519 880.781 922.702 881.413 922.702 882.126C922.702 882.593 922.609 883.053 922.424 883.508C922.243 883.963 921.919 884.468 921.452 885.023C920.985 885.575 920.327 886.237 919.478 887.01L917.673 888.778V888.863H922.865V891H914.051ZM930.138 878.636V891H927.524V881.118H927.451L924.62 882.892V880.574L927.681 878.636H930.138Z" fill="black"/>
<path d="M985.112 723.636V736H982.498V726.118H982.426L979.595 727.892V725.574L982.655 723.636H985.112ZM992.899 736.272C991.86 736.268 990.967 736.012 990.218 735.505C989.474 734.998 988.9 734.263 988.498 733.301C988.099 732.34 987.902 731.183 987.906 729.83C987.906 728.482 988.105 727.333 988.504 726.383C988.906 725.433 989.48 724.711 990.224 724.216C990.973 723.717 991.864 723.467 992.899 723.467C993.933 723.467 994.822 723.717 995.567 724.216C996.316 724.715 996.891 725.439 997.294 726.389C997.696 727.335 997.895 728.482 997.891 729.83C997.891 731.187 997.69 732.346 997.287 733.308C996.889 734.269 996.318 735.004 995.573 735.511C994.828 736.018 993.937 736.272 992.899 736.272ZM992.899 734.104C993.607 734.104 994.172 733.748 994.595 733.036C995.018 732.324 995.227 731.255 995.223 729.83C995.223 728.893 995.126 728.112 994.933 727.488C994.744 726.864 994.474 726.395 994.124 726.081C993.778 725.767 993.369 725.61 992.899 725.61C992.194 725.61 991.631 725.963 991.208 726.667C990.786 727.371 990.572 728.426 990.568 729.83C990.568 730.78 990.663 731.573 990.852 732.209C991.045 732.841 991.317 733.316 991.667 733.634C992.017 733.947 992.428 734.104 992.899 734.104ZM1004.37 736.169C1003.44 736.169 1002.61 736.018 1001.89 735.716C1001.17 735.41 1000.6 734.994 1000.19 734.467C999.779 733.939 999.574 733.342 999.574 732.674C999.574 732.158 999.691 731.686 999.924 731.255C1000.16 730.82 1000.48 730.46 1000.89 730.174C1001.3 729.885 1001.75 729.699 1002.25 729.619V729.534C1001.59 729.402 1001.06 729.082 1000.65 728.575C1000.24 728.063 1000.03 727.47 1000.03 726.794C1000.03 726.154 1000.22 725.584 1000.59 725.085C1000.97 724.582 1001.48 724.188 1002.13 723.902C1002.79 723.612 1003.53 723.467 1004.37 723.467C1005.2 723.467 1005.94 723.612 1006.59 723.902C1007.25 724.192 1007.77 724.588 1008.14 725.091C1008.51 725.59 1008.7 726.158 1008.71 726.794C1008.7 727.474 1008.49 728.067 1008.08 728.575C1007.67 729.082 1007.13 729.402 1006.49 729.534V729.619C1006.98 729.699 1007.43 729.885 1007.83 730.174C1008.24 730.46 1008.56 730.82 1008.8 731.255C1009.04 731.686 1009.16 732.158 1009.17 732.674C1009.16 733.342 1008.96 733.939 1008.54 734.467C1008.13 734.994 1007.57 735.41 1006.84 735.716C1006.12 736.018 1005.3 736.169 1004.37 736.169ZM1004.37 734.249C1004.78 734.249 1005.14 734.175 1005.45 734.026C1005.76 733.873 1006.01 733.664 1006.18 733.398C1006.36 733.128 1006.44 732.819 1006.44 732.468C1006.44 732.11 1006.35 731.794 1006.17 731.521C1005.99 731.243 1005.75 731.026 1005.44 730.869C1005.13 730.708 1004.77 730.627 1004.37 730.627C1003.97 730.627 1003.61 730.708 1003.3 730.869C1002.98 731.026 1002.74 731.243 1002.56 731.521C1002.38 731.794 1002.29 732.11 1002.29 732.468C1002.29 732.819 1002.38 733.128 1002.55 733.398C1002.72 733.664 1002.97 733.873 1003.28 734.026C1003.59 734.175 1003.96 734.249 1004.37 734.249ZM1004.37 728.725C1004.71 728.725 1005.02 728.655 1005.29 728.514C1005.56 728.373 1005.77 728.178 1005.92 727.929C1006.08 727.679 1006.15 727.391 1006.15 727.065C1006.15 726.743 1006.08 726.462 1005.92 726.22C1005.77 725.975 1005.56 725.783 1005.3 725.647C1005.03 725.506 1004.72 725.435 1004.37 725.435C1004.02 725.435 1003.71 725.506 1003.44 725.647C1003.17 725.783 1002.96 725.975 1002.8 726.22C1002.65 726.462 1002.58 726.743 1002.58 727.065C1002.58 727.391 1002.66 727.679 1002.81 727.929C1002.96 728.178 1003.17 728.373 1003.44 728.514C1003.71 728.655 1004.02 728.725 1004.37 728.725Z" fill="black"/>
<path d="M987.112 877.636V890H984.498V880.118H984.426L981.595 881.892V879.574L984.655 877.636H987.112ZM990.051 890V888.116L994.452 884.042C994.826 883.679 995.14 883.353 995.394 883.064C995.651 882.774 995.846 882.49 995.979 882.212C996.112 881.931 996.178 881.627 996.178 881.301C996.178 880.939 996.096 880.627 995.931 880.365C995.766 880.099 995.541 879.896 995.255 879.755C994.969 879.61 994.645 879.538 994.283 879.538C993.905 879.538 993.575 879.614 993.293 879.767C993.011 879.92 992.794 880.14 992.641 880.425C992.488 880.711 992.411 881.051 992.411 881.446H989.93C989.93 880.637 990.113 879.934 990.48 879.339C990.846 878.743 991.359 878.282 992.019 877.956C992.679 877.63 993.44 877.467 994.301 877.467C995.186 877.467 995.957 877.624 996.613 877.938C997.273 878.248 997.786 878.679 998.153 879.23C998.519 879.781 998.702 880.413 998.702 881.126C998.702 881.593 998.609 882.053 998.424 882.508C998.243 882.963 997.919 883.468 997.452 884.023C996.985 884.575 996.327 885.237 995.478 886.01L993.673 887.778V887.863H998.865V890H990.051ZM1000.76 890V888.116L1005.16 884.042C1005.53 883.679 1005.85 883.353 1006.1 883.064C1006.36 882.774 1006.55 882.49 1006.69 882.212C1006.82 881.931 1006.89 881.627 1006.89 881.301C1006.89 880.939 1006.8 880.627 1006.64 880.365C1006.47 880.099 1006.25 879.896 1005.96 879.755C1005.68 879.61 1005.35 879.538 1004.99 879.538C1004.61 879.538 1004.28 879.614 1004 879.767C1003.72 879.92 1003.5 880.14 1003.35 880.425C1003.2 880.711 1003.12 881.051 1003.12 881.446H1000.64C1000.64 880.637 1000.82 879.934 1001.19 879.339C1001.55 878.743 1002.07 878.282 1002.73 877.956C1003.39 877.63 1004.15 877.467 1005.01 877.467C1005.89 877.467 1006.67 877.624 1007.32 877.938C1007.98 878.248 1008.49 878.679 1008.86 879.23C1009.23 879.781 1009.41 880.413 1009.41 881.126C1009.41 881.593 1009.32 882.053 1009.13 882.508C1008.95 882.963 1008.63 883.468 1008.16 884.023C1007.69 884.575 1007.04 885.237 1006.19 886.01L1004.38 887.778V887.863H1009.57V890H1000.76Z" fill="black"/>
<path d="M1062.11 723.636V736H1059.5V726.118H1059.43L1056.59 727.892V725.574L1059.66 723.636H1062.11ZM1069.9 736.272C1068.86 736.268 1067.97 736.012 1067.22 735.505C1066.47 734.998 1065.9 734.263 1065.5 733.301C1065.1 732.34 1064.9 731.183 1064.91 729.83C1064.91 728.482 1065.11 727.333 1065.5 726.383C1065.91 725.433 1066.48 724.711 1067.22 724.216C1067.97 723.717 1068.86 723.467 1069.9 723.467C1070.93 723.467 1071.82 723.717 1072.57 724.216C1073.32 724.715 1073.89 725.439 1074.29 726.389C1074.7 727.335 1074.9 728.482 1074.89 729.83C1074.89 731.187 1074.69 732.346 1074.29 733.308C1073.89 734.269 1073.32 735.004 1072.57 735.511C1071.83 736.018 1070.94 736.272 1069.9 736.272ZM1069.9 734.104C1070.61 734.104 1071.17 733.748 1071.59 733.036C1072.02 732.324 1072.23 731.255 1072.22 729.83C1072.22 728.893 1072.13 728.112 1071.93 727.488C1071.74 726.864 1071.47 726.395 1071.12 726.081C1070.78 725.767 1070.37 725.61 1069.9 725.61C1069.19 725.61 1068.63 725.963 1068.21 726.667C1067.79 727.371 1067.57 728.426 1067.57 729.83C1067.57 730.78 1067.66 731.573 1067.85 732.209C1068.05 732.841 1068.32 733.316 1068.67 733.634C1069.02 733.947 1069.43 734.104 1069.9 734.104ZM1081.23 723.467C1081.86 723.467 1082.48 723.574 1083.06 723.787C1083.66 724.001 1084.18 724.341 1084.65 724.808C1085.11 725.274 1085.48 725.894 1085.75 726.667C1086.02 727.436 1086.16 728.379 1086.17 729.498C1086.17 730.549 1086.05 731.486 1085.81 732.311C1085.58 733.132 1085.24 733.831 1084.8 734.406C1084.36 734.982 1083.83 735.42 1083.21 735.722C1082.59 736.02 1081.9 736.169 1081.14 736.169C1080.31 736.169 1079.58 736.01 1078.95 735.692C1078.32 735.37 1077.81 734.933 1077.43 734.382C1077.04 733.827 1076.81 733.203 1076.73 732.511H1079.31C1079.41 732.961 1079.62 733.312 1079.94 733.561C1080.26 733.807 1080.66 733.929 1081.14 733.929C1081.94 733.929 1082.55 733.579 1082.97 732.879C1083.39 732.175 1083.6 731.211 1083.61 729.987H1083.52C1083.34 730.349 1083.09 730.661 1082.77 730.923C1082.46 731.181 1082.1 731.38 1081.69 731.521C1081.29 731.661 1080.86 731.732 1080.41 731.732C1079.68 731.732 1079.03 731.561 1078.46 731.219C1077.89 730.877 1077.44 730.406 1077.11 729.806C1076.78 729.206 1076.61 728.522 1076.61 727.754C1076.61 726.924 1076.8 726.186 1077.18 725.538C1077.57 724.89 1078.11 724.383 1078.8 724.017C1079.5 723.646 1080.31 723.463 1081.23 723.467ZM1081.25 725.52C1080.84 725.52 1080.48 725.616 1080.16 725.81C1079.85 726.003 1079.6 726.262 1079.41 726.588C1079.23 726.914 1079.14 727.279 1079.15 727.681C1079.15 728.088 1079.23 728.454 1079.41 728.78C1079.59 729.102 1079.84 729.359 1080.15 729.553C1080.46 729.742 1080.82 729.836 1081.22 729.836C1081.52 729.836 1081.8 729.78 1082.06 729.667C1082.32 729.555 1082.54 729.4 1082.73 729.202C1082.92 729.001 1083.08 728.77 1083.18 728.508C1083.29 728.247 1083.35 727.969 1083.35 727.675C1083.34 727.285 1083.25 726.926 1083.07 726.6C1082.89 726.275 1082.64 726.013 1082.32 725.816C1082 725.618 1081.64 725.52 1081.25 725.52Z" fill="black"/>
<path d="M1063.11 877.636V890H1060.5V880.118H1060.43L1057.59 881.892V879.574L1060.66 877.636H1063.11ZM1066.05 890V888.116L1070.45 884.042C1070.83 883.679 1071.14 883.353 1071.39 883.064C1071.65 882.774 1071.85 882.49 1071.98 882.212C1072.11 881.931 1072.18 881.627 1072.18 881.301C1072.18 880.939 1072.1 880.627 1071.93 880.365C1071.77 880.099 1071.54 879.896 1071.25 879.755C1070.97 879.61 1070.65 879.538 1070.28 879.538C1069.9 879.538 1069.57 879.614 1069.29 879.767C1069.01 879.92 1068.79 880.14 1068.64 880.425C1068.49 880.711 1068.41 881.051 1068.41 881.446H1065.93C1065.93 880.637 1066.11 879.934 1066.48 879.339C1066.85 878.743 1067.36 878.282 1068.02 877.956C1068.68 877.63 1069.44 877.467 1070.3 877.467C1071.19 877.467 1071.96 877.624 1072.61 877.938C1073.27 878.248 1073.79 878.679 1074.15 879.23C1074.52 879.781 1074.7 880.413 1074.7 881.126C1074.7 881.593 1074.61 882.053 1074.42 882.508C1074.24 882.963 1073.92 883.468 1073.45 884.023C1072.99 884.575 1072.33 885.237 1071.48 886.01L1069.67 887.778V887.863H1074.86V890H1066.05ZM1081.33 890.169C1080.43 890.169 1079.62 890.014 1078.92 889.704C1078.22 889.39 1077.67 888.96 1077.26 888.412C1076.86 887.861 1076.65 887.225 1076.64 886.505H1079.27C1079.29 886.806 1079.39 887.072 1079.57 887.301C1079.75 887.527 1080 887.702 1080.3 887.827C1080.61 887.951 1080.95 888.014 1081.33 888.014C1081.73 888.014 1082.09 887.943 1082.39 887.803C1082.7 887.662 1082.94 887.467 1083.11 887.217C1083.28 886.967 1083.37 886.68 1083.37 886.354C1083.37 886.024 1083.28 885.732 1083.09 885.478C1082.91 885.221 1082.65 885.02 1082.31 884.875C1081.97 884.73 1081.57 884.657 1081.1 884.657H1079.95V882.738H1081.1C1081.49 882.738 1081.84 882.669 1082.14 882.532C1082.45 882.395 1082.69 882.206 1082.86 881.965C1083.03 881.719 1083.11 881.434 1083.11 881.108C1083.11 880.798 1083.04 880.526 1082.89 880.293C1082.74 880.055 1082.54 879.87 1082.27 879.737C1082.01 879.604 1081.7 879.538 1081.35 879.538C1081 879.538 1080.67 879.602 1080.38 879.731C1080.09 879.856 1079.85 880.035 1079.67 880.268C1079.5 880.502 1079.4 880.776 1079.39 881.089H1076.89C1076.9 880.377 1077.1 879.749 1077.5 879.206C1077.89 878.663 1078.42 878.238 1079.09 877.932C1079.76 877.622 1080.52 877.467 1081.37 877.467C1082.22 877.467 1082.96 877.622 1083.6 877.932C1084.24 878.242 1084.74 878.661 1085.1 879.188C1085.45 879.711 1085.63 880.299 1085.63 880.951C1085.63 881.643 1085.42 882.22 1084.98 882.683C1084.55 883.146 1083.99 883.44 1083.3 883.565V883.661C1084.21 883.778 1084.9 884.094 1085.37 884.609C1085.85 885.12 1086.09 885.76 1086.09 886.529C1086.09 887.233 1085.89 887.859 1085.48 888.406C1085.07 888.954 1084.51 889.384 1083.79 889.698C1083.08 890.012 1082.25 890.169 1081.33 890.169Z" fill="black"/>
<path d="M1141.11 722.636V735H1138.5V725.118H1138.43L1135.59 726.892V724.574L1138.66 722.636H1141.11ZM1149.43 722.636V735H1146.82V725.118H1146.74L1143.91 726.892V724.574L1146.97 722.636H1149.43ZM1157.22 735.272C1156.18 735.268 1155.28 735.012 1154.54 734.505C1153.79 733.998 1153.22 733.263 1152.82 732.301C1152.42 731.34 1152.22 730.183 1152.22 728.83C1152.22 727.482 1152.42 726.333 1152.82 725.383C1153.22 724.433 1153.8 723.711 1154.54 723.216C1155.29 722.717 1156.18 722.467 1157.22 722.467C1158.25 722.467 1159.14 722.717 1159.88 723.216C1160.63 723.715 1161.21 724.439 1161.61 725.389C1162.01 726.335 1162.21 727.482 1162.21 728.83C1162.21 730.187 1162.01 731.346 1161.6 732.308C1161.21 733.269 1160.63 734.004 1159.89 734.511C1159.15 735.018 1158.25 735.272 1157.22 735.272ZM1157.22 733.104C1157.92 733.104 1158.49 732.748 1158.91 732.036C1159.33 731.324 1159.54 730.255 1159.54 728.83C1159.54 727.893 1159.44 727.112 1159.25 726.488C1159.06 725.864 1158.79 725.395 1158.44 725.081C1158.1 724.767 1157.69 724.61 1157.22 724.61C1156.51 724.61 1155.95 724.963 1155.53 725.667C1155.1 726.371 1154.89 727.426 1154.89 728.83C1154.89 729.78 1154.98 730.573 1155.17 731.209C1155.36 731.841 1155.63 732.316 1155.98 732.634C1156.33 732.947 1156.75 733.104 1157.22 733.104Z" fill="black"/>
<path d="M1140.11 876.636V889H1137.5V879.118H1137.43L1134.59 880.892V878.574L1137.66 876.636H1140.11ZM1143.05 889V887.116L1147.45 883.042C1147.83 882.679 1148.14 882.353 1148.39 882.064C1148.65 881.774 1148.85 881.49 1148.98 881.212C1149.11 880.931 1149.18 880.627 1149.18 880.301C1149.18 879.939 1149.1 879.627 1148.93 879.365C1148.77 879.099 1148.54 878.896 1148.25 878.755C1147.97 878.61 1147.65 878.538 1147.28 878.538C1146.9 878.538 1146.57 878.614 1146.29 878.767C1146.01 878.92 1145.79 879.14 1145.64 879.425C1145.49 879.711 1145.41 880.051 1145.41 880.446H1142.93C1142.93 879.637 1143.11 878.934 1143.48 878.339C1143.85 877.743 1144.36 877.282 1145.02 876.956C1145.68 876.63 1146.44 876.467 1147.3 876.467C1148.19 876.467 1148.96 876.624 1149.61 876.938C1150.27 877.248 1150.79 877.679 1151.15 878.23C1151.52 878.781 1151.7 879.413 1151.7 880.126C1151.7 880.593 1151.61 881.053 1151.42 881.508C1151.24 881.963 1150.92 882.468 1150.45 883.023C1149.99 883.575 1149.33 884.237 1148.48 885.01L1146.67 886.778V886.863H1151.86V889H1143.05ZM1153.31 886.827V884.768L1158.47 876.636H1160.24V879.486H1159.19L1155.94 884.635V884.732H1163.27V886.827H1153.31ZM1159.24 889V886.199L1159.29 885.287V876.636H1161.74V889H1159.24Z" fill="black"/>
<path d="M681.284 800.636V813H678.67V803.118H678.597L675.766 804.892V802.574L678.827 800.636H681.284ZM689.601 800.636V813H686.987V803.118H686.915L684.083 804.892V802.574L687.144 800.636H689.601ZM697.919 800.636V813H695.305V803.118H695.232L692.401 804.892V802.574L695.462 800.636H697.919Z" fill="black"/>
<path d="M680.284 954.636V967H677.67V957.118H677.597L674.766 958.892V956.574L677.827 954.636H680.284ZM683.222 967V965.116L687.623 961.042C687.998 960.679 688.311 960.353 688.565 960.064C688.823 959.774 689.018 959.49 689.151 959.212C689.283 958.931 689.35 958.627 689.35 958.301C689.35 957.939 689.267 957.627 689.102 957.365C688.937 957.099 688.712 956.896 688.426 956.755C688.14 956.61 687.816 956.538 687.454 956.538C687.076 956.538 686.746 956.614 686.464 956.767C686.182 956.92 685.965 957.14 685.812 957.425C685.659 957.711 685.583 958.051 685.583 958.446H683.102C683.102 957.637 683.285 956.934 683.651 956.339C684.017 955.743 684.53 955.282 685.19 954.956C685.85 954.63 686.611 954.467 687.472 954.467C688.358 954.467 689.128 954.624 689.784 954.938C690.445 955.248 690.958 955.679 691.324 956.23C691.69 956.781 691.873 957.413 691.873 958.126C691.873 958.593 691.781 959.053 691.596 959.508C691.414 959.963 691.09 960.468 690.624 961.023C690.157 961.575 689.499 962.237 688.65 963.01L686.845 964.778V964.863H692.036V967H683.222ZM698.446 967.169C697.593 967.169 696.832 967.012 696.164 966.698C695.5 966.384 694.973 965.952 694.582 965.4C694.192 964.849 693.989 964.217 693.973 963.505H696.508C696.536 963.984 696.738 964.372 697.112 964.67C697.486 964.968 697.931 965.116 698.446 965.116C698.856 965.116 699.219 965.026 699.533 964.845C699.851 964.66 700.098 964.404 700.275 964.078C700.456 963.748 700.547 963.37 700.547 962.943C700.547 962.509 700.454 962.126 700.269 961.796C700.088 961.466 699.836 961.209 699.515 961.023C699.193 960.838 698.824 960.744 698.41 960.74C698.048 960.74 697.695 960.814 697.353 960.963C697.015 961.112 696.752 961.315 696.562 961.573L694.238 961.156L694.824 954.636H702.382V956.773H696.979L696.659 959.87H696.731C696.949 959.565 697.277 959.311 697.716 959.11C698.154 958.908 698.645 958.808 699.189 958.808C699.933 958.808 700.597 958.983 701.181 959.333C701.764 959.683 702.225 960.164 702.563 960.776C702.901 961.384 703.068 962.084 703.064 962.877C703.068 963.71 702.875 964.45 702.485 965.098C702.098 965.742 701.557 966.249 700.861 966.62C700.169 966.986 699.364 967.169 698.446 967.169Z" fill="black"/>
<path d="M752.112 800.636V813H749.498V803.118H749.426L746.595 804.892V802.574L749.655 800.636H752.112ZM760.43 800.636V813H757.816V803.118H757.743L754.912 804.892V802.574L757.973 800.636H760.43ZM763.368 813V811.116L767.769 807.042C768.144 806.679 768.457 806.353 768.711 806.064C768.969 805.774 769.164 805.49 769.297 805.212C769.429 804.931 769.496 804.627 769.496 804.301C769.496 803.939 769.413 803.627 769.248 803.365C769.083 803.099 768.858 802.896 768.572 802.755C768.286 802.61 767.962 802.538 767.6 802.538C767.222 802.538 766.892 802.614 766.61 802.767C766.328 802.92 766.111 803.14 765.958 803.425C765.805 803.711 765.729 804.051 765.729 804.446H763.248C763.248 803.637 763.431 802.934 763.797 802.339C764.163 801.743 764.676 801.282 765.336 800.956C765.996 800.63 766.757 800.467 767.618 800.467C768.504 800.467 769.274 800.624 769.93 800.938C770.591 801.248 771.104 801.679 771.47 802.23C771.836 802.781 772.019 803.413 772.019 804.126C772.019 804.593 771.927 805.053 771.742 805.508C771.56 805.963 771.236 806.468 770.77 807.023C770.303 807.575 769.645 808.237 768.796 809.01L766.991 810.778V810.863H772.182V813H763.368Z" fill="black"/>
<path d="M751.112 954.636V967H748.498V957.118H748.426L745.595 958.892V956.574L748.655 954.636H751.112ZM754.051 967V965.116L758.452 961.042C758.826 960.679 759.14 960.353 759.394 960.064C759.651 959.774 759.846 959.49 759.979 959.212C760.112 958.931 760.178 958.627 760.178 958.301C760.178 957.939 760.096 957.627 759.931 957.365C759.766 957.099 759.541 956.896 759.255 956.755C758.969 956.61 758.645 956.538 758.283 956.538C757.905 956.538 757.575 956.614 757.293 956.767C757.011 956.92 756.794 957.14 756.641 957.425C756.488 957.711 756.411 958.051 756.411 958.446H753.93C753.93 957.637 754.113 956.934 754.48 956.339C754.846 955.743 755.359 955.282 756.019 954.956C756.679 954.63 757.44 954.467 758.301 954.467C759.186 954.467 759.957 954.624 760.613 954.938C761.273 955.248 761.786 955.679 762.153 956.23C762.519 956.781 762.702 957.413 762.702 958.126C762.702 958.593 762.609 959.053 762.424 959.508C762.243 959.963 761.919 960.468 761.452 961.023C760.985 961.575 760.327 962.237 759.478 963.01L757.673 964.778V964.863H762.865V967H754.051ZM769.504 967.169C768.868 967.165 768.254 967.058 767.663 966.849C767.075 966.64 766.548 966.3 766.081 965.829C765.614 965.358 765.244 964.734 764.97 963.957C764.701 963.181 764.566 962.227 764.566 961.096C764.57 960.058 764.689 959.13 764.922 958.313C765.159 957.492 765.497 956.796 765.936 956.224C766.379 955.653 766.908 955.218 767.524 954.92C768.14 954.618 768.83 954.467 769.595 954.467C770.42 954.467 771.148 954.628 771.78 954.95C772.412 955.268 772.919 955.701 773.301 956.248C773.688 956.796 773.921 957.409 774.002 958.089H771.424C771.323 957.659 771.112 957.321 770.79 957.075C770.468 956.83 770.069 956.707 769.595 956.707C768.79 956.707 768.178 957.057 767.759 957.757C767.345 958.458 767.133 959.41 767.125 960.613H767.21C767.395 960.247 767.645 959.935 767.959 959.677C768.276 959.416 768.637 959.216 769.039 959.08C769.446 958.939 769.874 958.868 770.325 958.868C771.057 958.868 771.709 959.041 772.281 959.387C772.852 959.73 773.303 960.2 773.633 960.8C773.963 961.4 774.128 962.086 774.128 962.859C774.128 963.696 773.933 964.44 773.543 965.092C773.156 965.744 772.615 966.255 771.919 966.626C771.227 966.992 770.422 967.173 769.504 967.169ZM769.492 965.116C769.894 965.116 770.255 965.02 770.573 964.827C770.89 964.634 771.14 964.372 771.321 964.042C771.502 963.712 771.593 963.342 771.593 962.931C771.593 962.521 771.502 962.152 771.321 961.826C771.144 961.5 770.899 961.241 770.585 961.048C770.271 960.854 769.912 960.758 769.51 960.758C769.208 960.758 768.928 960.814 768.671 960.927C768.417 961.04 768.194 961.196 768.001 961.398C767.812 961.599 767.663 961.832 767.554 962.098C767.445 962.36 767.391 962.639 767.391 962.937C767.391 963.336 767.482 963.7 767.663 964.03C767.848 964.36 768.097 964.623 768.411 964.821C768.729 965.018 769.089 965.116 769.492 965.116Z" fill="black"/>
<path d="M833.112 800.636V813H830.498V803.118H830.426L827.595 804.892V802.574L830.655 800.636H833.112ZM841.43 800.636V813H838.816V803.118H838.743L835.912 804.892V802.574L838.973 800.636H841.43ZM848.938 813.169C848.037 813.169 847.234 813.014 846.53 812.704C845.829 812.39 845.276 811.96 844.869 811.412C844.467 810.861 844.26 810.225 844.248 809.505H846.88C846.896 809.806 846.994 810.072 847.176 810.301C847.361 810.527 847.606 810.702 847.912 810.827C848.218 810.951 848.562 811.014 848.944 811.014C849.343 811.014 849.695 810.943 850.001 810.803C850.307 810.662 850.546 810.467 850.719 810.217C850.892 809.967 850.979 809.68 850.979 809.354C850.979 809.024 850.886 808.732 850.701 808.478C850.52 808.221 850.258 808.02 849.916 807.875C849.578 807.73 849.176 807.657 848.709 807.657H847.556V805.738H848.709C849.103 805.738 849.451 805.669 849.753 805.532C850.059 805.395 850.297 805.206 850.466 804.965C850.635 804.719 850.719 804.434 850.719 804.108C850.719 803.798 850.645 803.526 850.496 803.293C850.351 803.055 850.146 802.87 849.88 802.737C849.618 802.604 849.313 802.538 848.962 802.538C848.608 802.538 848.284 802.602 847.991 802.731C847.697 802.856 847.461 803.035 847.284 803.268C847.107 803.502 847.013 803.776 847 804.089H844.495C844.507 803.377 844.71 802.749 845.105 802.206C845.499 801.663 846.031 801.238 846.699 800.932C847.371 800.622 848.129 800.467 848.975 800.467C849.828 800.467 850.574 800.622 851.214 800.932C851.854 801.242 852.351 801.661 852.705 802.188C853.064 802.711 853.241 803.299 853.237 803.951C853.241 804.643 853.025 805.22 852.591 805.683C852.16 806.146 851.599 806.44 850.906 806.565V806.661C851.816 806.778 852.508 807.094 852.983 807.609C853.462 808.12 853.699 808.76 853.695 809.529C853.699 810.233 853.496 810.859 853.086 811.406C852.679 811.954 852.118 812.384 851.401 812.698C850.685 813.012 849.864 813.169 848.938 813.169Z" fill="black"/>
<path d="M832.112 954.636V967H829.498V957.118H829.426L826.595 958.892V956.574L829.655 954.636H832.112ZM835.051 967V965.116L839.452 961.042C839.826 960.679 840.14 960.353 840.394 960.064C840.651 959.774 840.846 959.49 840.979 959.212C841.112 958.931 841.178 958.627 841.178 958.301C841.178 957.939 841.096 957.627 840.931 957.365C840.766 957.099 840.541 956.896 840.255 956.755C839.969 956.61 839.645 956.538 839.283 956.538C838.905 956.538 838.575 956.614 838.293 956.767C838.011 956.92 837.794 957.14 837.641 957.425C837.488 957.711 837.411 958.051 837.411 958.446H834.93C834.93 957.637 835.113 956.934 835.48 956.339C835.846 955.743 836.359 955.282 837.019 954.956C837.679 954.63 838.44 954.467 839.301 954.467C840.186 954.467 840.957 954.624 841.613 954.938C842.273 955.248 842.786 955.679 843.153 956.23C843.519 956.781 843.702 957.413 843.702 958.126C843.702 958.593 843.609 959.053 843.424 959.508C843.243 959.963 842.919 960.468 842.452 961.023C841.985 961.575 841.327 962.237 840.478 963.01L838.673 964.778V964.863H843.865V967H835.051ZM846.248 967L851.373 956.858V956.773H845.403V954.636H854.078V956.804L848.946 967H846.248Z" fill="black"/>
<path d="M911.112 800.636V813H908.498V803.118H908.426L905.595 804.892V802.574L908.655 800.636H911.112ZM919.43 800.636V813H916.816V803.118H916.743L913.912 804.892V802.574L916.973 800.636H919.43ZM922.181 810.827V808.768L927.343 800.636H929.118V803.486H928.067L924.813 808.635V808.732H932.148V810.827H922.181ZM928.116 813V810.199L928.164 809.287V800.636H930.615V813H928.116Z" fill="black"/>
<path d="M909.112 954.636V967H906.498V957.118H906.426L903.595 958.892V956.574L906.655 954.636H909.112ZM912.051 967V965.116L916.452 961.042C916.826 960.679 917.14 960.353 917.394 960.064C917.651 959.774 917.846 959.49 917.979 959.212C918.112 958.931 918.178 958.627 918.178 958.301C918.178 957.939 918.096 957.627 917.931 957.365C917.766 957.099 917.541 956.896 917.255 956.755C916.969 956.61 916.645 956.538 916.283 956.538C915.905 956.538 915.575 956.614 915.293 956.767C915.011 956.92 914.794 957.14 914.641 957.425C914.488 957.711 914.411 958.051 914.411 958.446H911.93C911.93 957.637 912.113 956.934 912.48 956.339C912.846 955.743 913.359 955.282 914.019 954.956C914.679 954.63 915.44 954.467 916.301 954.467C917.186 954.467 917.957 954.624 918.613 954.938C919.273 955.248 919.786 955.679 920.153 956.23C920.519 956.781 920.702 957.413 920.702 958.126C920.702 958.593 920.609 959.053 920.424 959.508C920.243 959.963 919.919 960.468 919.452 961.023C918.985 961.575 918.327 962.237 917.478 963.01L915.673 964.778V964.863H920.865V967H912.051ZM927.371 967.169C926.441 967.169 925.614 967.018 924.89 966.716C924.17 966.41 923.604 965.994 923.194 965.467C922.783 964.939 922.578 964.342 922.578 963.674C922.578 963.158 922.695 962.686 922.928 962.255C923.165 961.82 923.487 961.46 923.894 961.174C924.3 960.885 924.755 960.699 925.258 960.619V960.534C924.598 960.402 924.063 960.082 923.652 959.575C923.242 959.063 923.037 958.47 923.037 957.794C923.037 957.154 923.224 956.584 923.598 956.085C923.972 955.582 924.486 955.188 925.138 954.902C925.794 954.612 926.538 954.467 927.371 954.467C928.204 954.467 928.947 954.612 929.599 954.902C930.255 955.192 930.77 955.588 931.144 956.091C931.519 956.59 931.708 957.158 931.712 957.794C931.708 958.474 931.498 959.067 931.084 959.575C930.669 960.082 930.138 960.402 929.49 960.534V960.619C929.985 960.699 930.434 960.885 930.836 961.174C931.243 961.46 931.565 961.82 931.802 962.255C932.044 962.686 932.167 963.158 932.171 963.674C932.167 964.342 931.959 964.939 931.549 965.467C931.138 965.994 930.571 966.41 929.846 966.716C929.126 967.018 928.301 967.169 927.371 967.169ZM927.371 965.249C927.786 965.249 928.148 965.175 928.458 965.026C928.768 964.873 929.009 964.664 929.182 964.398C929.359 964.128 929.448 963.819 929.448 963.468C929.448 963.11 929.357 962.794 929.176 962.521C928.995 962.243 928.75 962.026 928.44 961.869C928.13 961.708 927.774 961.627 927.371 961.627C926.973 961.627 926.617 961.708 926.303 961.869C925.989 962.026 925.741 962.243 925.56 962.521C925.383 962.794 925.294 963.11 925.294 963.468C925.294 963.819 925.381 964.128 925.554 964.398C925.727 964.664 925.971 964.873 926.285 965.026C926.598 965.175 926.961 965.249 927.371 965.249ZM927.371 959.725C927.717 959.725 928.025 959.655 928.295 959.514C928.564 959.373 928.776 959.178 928.929 958.929C929.082 958.679 929.158 958.391 929.158 958.065C929.158 957.743 929.082 957.462 928.929 957.22C928.776 956.975 928.566 956.783 928.301 956.647C928.035 956.506 927.725 956.435 927.371 956.435C927.021 956.435 926.711 956.506 926.441 956.647C926.172 956.783 925.961 956.975 925.808 957.22C925.659 957.462 925.584 957.743 925.584 958.065C925.584 958.391 925.661 958.679 925.814 958.929C925.967 959.178 926.178 959.373 926.448 959.514C926.717 959.655 927.025 959.725 927.371 959.725Z" fill="black"/>
<path d="M989.112 800.636V813H986.498V803.118H986.426L983.595 804.892V802.574L986.655 800.636H989.112ZM997.43 800.636V813H994.816V803.118H994.743L991.912 804.892V802.574L994.973 800.636H997.43ZM1004.88 813.169C1004.03 813.169 1003.27 813.012 1002.6 812.698C1001.94 812.384 1001.41 811.952 1001.02 811.4C1000.63 810.849 1000.43 810.217 1000.41 809.505H1002.95C1002.97 809.984 1003.18 810.372 1003.55 810.67C1003.92 810.968 1004.37 811.116 1004.88 811.116C1005.29 811.116 1005.66 811.026 1005.97 810.845C1006.29 810.66 1006.54 810.404 1006.71 810.078C1006.89 809.748 1006.98 809.37 1006.98 808.943C1006.98 808.509 1006.89 808.126 1006.71 807.796C1006.53 807.466 1006.27 807.209 1005.95 807.023C1005.63 806.838 1005.26 806.744 1004.85 806.74C1004.49 806.74 1004.13 806.814 1003.79 806.963C1003.45 807.112 1003.19 807.315 1003 807.573L1000.68 807.156L1001.26 800.636H1008.82V802.773H1003.42L1003.1 805.87H1003.17C1003.39 805.565 1003.71 805.311 1004.15 805.11C1004.59 804.908 1005.08 804.808 1005.63 804.808C1006.37 804.808 1007.04 804.983 1007.62 805.333C1008.2 805.683 1008.66 806.164 1009 806.776C1009.34 807.384 1009.51 808.084 1009.5 808.877C1009.51 809.71 1009.31 810.45 1008.92 811.098C1008.54 811.742 1007.99 812.249 1007.3 812.62C1006.61 812.986 1005.8 813.169 1004.88 813.169Z" fill="black"/>
<path d="M987.112 954.636V967H984.498V957.118H984.426L981.595 958.892V956.574L984.655 954.636H987.112ZM990.051 967V965.116L994.452 961.042C994.826 960.679 995.14 960.353 995.394 960.064C995.651 959.774 995.846 959.49 995.979 959.212C996.112 958.931 996.178 958.627 996.178 958.301C996.178 957.939 996.096 957.627 995.931 957.365C995.766 957.099 995.541 956.896 995.255 956.755C994.969 956.61 994.645 956.538 994.283 956.538C993.905 956.538 993.575 956.614 993.293 956.767C993.011 956.92 992.794 957.14 992.641 957.425C992.488 957.711 992.411 958.051 992.411 958.446H989.93C989.93 957.637 990.113 956.934 990.48 956.339C990.846 955.743 991.359 955.282 992.019 954.956C992.679 954.63 993.44 954.467 994.301 954.467C995.186 954.467 995.957 954.624 996.613 954.938C997.273 955.248 997.786 955.679 998.153 956.23C998.519 956.781 998.702 957.413 998.702 958.126C998.702 958.593 998.609 959.053 998.424 959.508C998.243 959.963 997.919 960.468 997.452 961.023C996.985 961.575 996.327 962.237 995.478 963.01L993.673 964.778V964.863H998.865V967H990.051ZM1005.23 954.467C1005.87 954.467 1006.48 954.574 1007.07 954.787C1007.66 955.001 1008.19 955.341 1008.65 955.808C1009.12 956.274 1009.48 956.894 1009.75 957.667C1010.03 958.436 1010.17 959.379 1010.17 960.498C1010.17 961.549 1010.05 962.486 1009.81 963.311C1009.58 964.132 1009.24 964.831 1008.81 965.406C1008.37 965.982 1007.84 966.42 1007.22 966.722C1006.6 967.02 1005.91 967.169 1005.14 967.169C1004.32 967.169 1003.59 967.01 1002.96 966.692C1002.32 966.37 1001.82 965.933 1001.43 965.382C1001.05 964.827 1000.82 964.203 1000.73 963.511H1003.31C1003.41 963.961 1003.62 964.312 1003.95 964.561C1004.27 964.807 1004.67 964.929 1005.14 964.929C1005.95 964.929 1006.56 964.579 1006.98 963.879C1007.4 963.175 1007.61 962.211 1007.61 960.987H1007.53C1007.34 961.349 1007.09 961.661 1006.78 961.923C1006.46 962.181 1006.1 962.38 1005.7 962.521C1005.29 962.661 1004.87 962.732 1004.41 962.732C1003.68 962.732 1003.03 962.561 1002.46 962.219C1001.89 961.877 1001.44 961.406 1001.11 960.806C1000.78 960.206 1000.61 959.522 1000.61 958.754C1000.61 957.924 1000.8 957.186 1001.19 956.538C1001.57 955.89 1002.11 955.383 1002.81 955.017C1003.5 954.646 1004.31 954.463 1005.23 954.467ZM1005.25 956.52C1004.84 956.52 1004.48 956.616 1004.16 956.81C1003.85 957.003 1003.6 957.262 1003.42 957.588C1003.23 957.914 1003.15 958.279 1003.15 958.681C1003.15 959.088 1003.24 959.454 1003.42 959.78C1003.6 960.102 1003.84 960.359 1004.15 960.553C1004.47 960.742 1004.82 960.836 1005.23 960.836C1005.53 960.836 1005.81 960.78 1006.07 960.667C1006.32 960.555 1006.55 960.4 1006.74 960.202C1006.93 960.001 1007.08 959.77 1007.19 959.508C1007.3 959.247 1007.35 958.969 1007.35 958.675C1007.35 958.285 1007.25 957.926 1007.07 957.6C1006.89 957.275 1006.64 957.013 1006.33 956.816C1006.01 956.618 1005.65 956.52 1005.25 956.52Z" fill="black"/>
<path d="M1065.11 799.636V812H1062.5V802.118H1062.43L1059.59 803.892V801.574L1062.66 799.636H1065.11ZM1073.43 799.636V812H1070.82V802.118H1070.74L1067.91 803.892V801.574L1070.97 799.636H1073.43ZM1081.11 812.169C1080.48 812.165 1079.86 812.058 1079.27 811.849C1078.68 811.64 1078.16 811.3 1077.69 810.829C1077.22 810.358 1076.85 809.734 1076.58 808.957C1076.31 808.181 1076.18 807.227 1076.18 806.096C1076.18 805.058 1076.3 804.13 1076.53 803.313C1076.77 802.492 1077.11 801.796 1077.55 801.224C1077.99 800.653 1078.52 800.218 1079.13 799.92C1079.75 799.618 1080.44 799.467 1081.2 799.467C1082.03 799.467 1082.76 799.628 1083.39 799.95C1084.02 800.268 1084.53 800.701 1084.91 801.248C1085.3 801.796 1085.53 802.409 1085.61 803.089H1083.03C1082.93 802.659 1082.72 802.321 1082.4 802.075C1082.08 801.83 1081.68 801.707 1081.2 801.707C1080.4 801.707 1079.79 802.057 1079.37 802.757C1078.95 803.458 1078.74 804.41 1078.73 805.613H1078.82C1079 805.247 1079.25 804.935 1079.57 804.677C1079.89 804.416 1080.25 804.216 1080.65 804.08C1081.06 803.939 1081.48 803.868 1081.93 803.868C1082.67 803.868 1083.32 804.041 1083.89 804.387C1084.46 804.73 1084.91 805.2 1085.24 805.8C1085.57 806.4 1085.74 807.086 1085.74 807.859C1085.74 808.696 1085.54 809.44 1085.15 810.092C1084.77 810.744 1084.22 811.255 1083.53 811.626C1082.84 811.992 1082.03 812.173 1081.11 812.169ZM1081.1 810.116C1081.5 810.116 1081.86 810.02 1082.18 809.827C1082.5 809.634 1082.75 809.372 1082.93 809.042C1083.11 808.712 1083.2 808.342 1083.2 807.931C1083.2 807.521 1083.11 807.152 1082.93 806.826C1082.75 806.5 1082.51 806.241 1082.19 806.048C1081.88 805.854 1081.52 805.758 1081.12 805.758C1080.82 805.758 1080.54 805.814 1080.28 805.927C1080.03 806.04 1079.8 806.196 1079.61 806.398C1079.42 806.599 1079.27 806.832 1079.16 807.098C1079.05 807.36 1079 807.639 1079 807.937C1079 808.336 1079.09 808.7 1079.27 809.03C1079.46 809.36 1079.71 809.623 1080.02 809.821C1080.34 810.018 1080.7 810.116 1081.1 810.116Z" fill="black"/>
<path d="M1063.11 953.636V966H1060.5V956.118H1060.43L1057.59 957.892V955.574L1060.66 953.636H1063.11ZM1070.62 966.169C1069.72 966.169 1068.92 966.014 1068.21 965.704C1067.51 965.39 1066.96 964.96 1066.55 964.412C1066.15 963.861 1065.94 963.225 1065.93 962.505H1068.56C1068.58 962.806 1068.68 963.072 1068.86 963.301C1069.04 963.527 1069.29 963.702 1069.59 963.827C1069.9 963.951 1070.24 964.014 1070.63 964.014C1071.03 964.014 1071.38 963.943 1071.68 963.803C1071.99 963.662 1072.23 963.467 1072.4 963.217C1072.57 962.967 1072.66 962.68 1072.66 962.354C1072.66 962.024 1072.57 961.732 1072.38 961.478C1072.2 961.221 1071.94 961.02 1071.6 960.875C1071.26 960.73 1070.86 960.657 1070.39 960.657H1069.24V958.738H1070.39C1070.79 958.738 1071.13 958.669 1071.44 958.532C1071.74 958.395 1071.98 958.206 1072.15 957.965C1072.32 957.719 1072.4 957.434 1072.4 957.108C1072.4 956.798 1072.33 956.526 1072.18 956.293C1072.03 956.055 1071.83 955.87 1071.56 955.737C1071.3 955.604 1071 955.538 1070.65 955.538C1070.29 955.538 1069.97 955.602 1069.67 955.731C1069.38 955.856 1069.14 956.035 1068.97 956.268C1068.79 956.502 1068.7 956.776 1068.68 957.089H1066.18C1066.19 956.377 1066.39 955.749 1066.79 955.206C1067.18 954.663 1067.71 954.238 1068.38 953.932C1069.05 953.622 1069.81 953.467 1070.66 953.467C1071.51 953.467 1072.26 953.622 1072.9 953.932C1073.54 954.242 1074.03 954.661 1074.39 955.188C1074.75 955.711 1074.92 956.299 1074.92 956.951C1074.92 957.643 1074.71 958.22 1074.27 958.683C1073.84 959.146 1073.28 959.44 1072.59 959.565V959.661C1073.5 959.778 1074.19 960.094 1074.67 960.609C1075.14 961.12 1075.38 961.76 1075.38 962.529C1075.38 963.233 1075.18 963.859 1074.77 964.406C1074.36 964.954 1073.8 965.384 1073.08 965.698C1072.37 966.012 1071.55 966.169 1070.62 966.169ZM1082.1 966.272C1081.07 966.268 1080.17 966.012 1079.42 965.505C1078.68 964.998 1078.11 964.263 1077.7 963.301C1077.31 962.34 1077.11 961.183 1077.11 959.83C1077.11 958.482 1077.31 957.333 1077.71 956.383C1078.11 955.433 1078.69 954.711 1079.43 954.216C1080.18 953.717 1081.07 953.467 1082.1 953.467C1083.14 953.467 1084.03 953.717 1084.77 954.216C1085.52 954.715 1086.1 955.439 1086.5 956.389C1086.9 957.335 1087.1 958.482 1087.1 959.83C1087.1 961.187 1086.9 962.346 1086.49 963.308C1086.1 964.269 1085.52 965.004 1084.78 965.511C1084.03 966.018 1083.14 966.272 1082.1 966.272ZM1082.1 964.104C1082.81 964.104 1083.38 963.748 1083.8 963.036C1084.22 962.324 1084.43 961.255 1084.43 959.83C1084.43 958.893 1084.33 958.112 1084.14 957.488C1083.95 956.864 1083.68 956.395 1083.33 956.081C1082.98 955.767 1082.58 955.61 1082.1 955.61C1081.4 955.61 1080.84 955.963 1080.41 956.667C1079.99 957.371 1079.78 958.426 1079.77 959.83C1079.77 960.78 1079.87 961.573 1080.06 962.209C1080.25 962.841 1080.52 963.316 1080.87 963.634C1081.22 963.947 1081.63 964.104 1082.1 964.104Z" fill="black"/>
<path d="M1142.11 799.636V812H1139.5V802.118H1139.43L1136.59 803.892V801.574L1139.66 799.636H1142.11ZM1150.43 799.636V812H1147.82V802.118H1147.74L1144.91 803.892V801.574L1147.97 799.636H1150.43ZM1153.86 812L1158.98 801.858V801.773H1153.01V799.636H1161.69V801.804L1156.56 812H1153.86Z" fill="black"/>
<path d="M1142.11 953.636V966H1139.5V956.118H1139.43L1136.59 957.892V955.574L1139.66 953.636H1142.11ZM1149.62 966.169C1148.72 966.169 1147.92 966.014 1147.21 965.704C1146.51 965.39 1145.96 964.96 1145.55 964.412C1145.15 963.861 1144.94 963.225 1144.93 962.505H1147.56C1147.58 962.806 1147.68 963.072 1147.86 963.301C1148.04 963.527 1148.29 963.702 1148.59 963.827C1148.9 963.951 1149.24 964.014 1149.63 964.014C1150.03 964.014 1150.38 963.943 1150.68 963.803C1150.99 963.662 1151.23 963.467 1151.4 963.217C1151.57 962.967 1151.66 962.68 1151.66 962.354C1151.66 962.024 1151.57 961.732 1151.38 961.478C1151.2 961.221 1150.94 961.02 1150.6 960.875C1150.26 960.73 1149.86 960.657 1149.39 960.657H1148.24V958.738H1149.39C1149.79 958.738 1150.13 958.669 1150.44 958.532C1150.74 958.395 1150.98 958.206 1151.15 957.965C1151.32 957.719 1151.4 957.434 1151.4 957.108C1151.4 956.798 1151.33 956.526 1151.18 956.293C1151.03 956.055 1150.83 955.87 1150.56 955.737C1150.3 955.604 1150 955.538 1149.65 955.538C1149.29 955.538 1148.97 955.602 1148.67 955.731C1148.38 955.856 1148.14 956.035 1147.97 956.268C1147.79 956.502 1147.7 956.776 1147.68 957.089H1145.18C1145.19 956.377 1145.39 955.749 1145.79 955.206C1146.18 954.663 1146.71 954.238 1147.38 953.932C1148.05 953.622 1148.81 953.467 1149.66 953.467C1150.51 953.467 1151.26 953.622 1151.9 953.932C1152.54 954.242 1153.03 954.661 1153.39 955.188C1153.75 955.711 1153.92 956.299 1153.92 956.951C1153.92 957.643 1153.71 958.22 1153.27 958.683C1152.84 959.146 1152.28 959.44 1151.59 959.565V959.661C1152.5 959.778 1153.19 960.094 1153.67 960.609C1154.14 961.12 1154.38 961.76 1154.38 962.529C1154.38 963.233 1154.18 963.859 1153.77 964.406C1153.36 964.954 1152.8 965.384 1152.08 965.698C1151.37 966.012 1150.55 966.169 1149.62 966.169ZM1161.64 953.636V966H1159.02V956.118H1158.95L1156.12 957.892V955.574L1159.18 953.636H1161.64Z" fill="black"/>
<path d="M82 1V564H5" stroke="black" stroke-width="2"/>
<path d="M81.7886 640.782H0" stroke="black" stroke-width="2"/>
<path d="M7 727.917H90.3909V1031H1757V1H90.3909" stroke="black" stroke-width="2"/>
<g filter="url(#filter0_d_1917_1706)">
<rect x="744.257" y="122.491" width="253.063" height="242.606" fill="#D9D9D9"/>
<rect x="744.757" y="122.991" width="252.063" height="241.606" stroke="black"/>
</g>
<path d="M1091.43 22.1028V391.24H1106.07V22.1028H1091.43Z" stroke="black" stroke-width="2"/>
<path d="M1091.43 391.24H677.332V406.926H1091.43V391.24Z" stroke="black" stroke-width="2"/>
<path d="M676.286 15.8286V391.24H660.6V15.8286H676.286Z" stroke="black" stroke-width="2"/>
<path d="M1070.52 249.023H999.411V244.84V196.737L1070.52 200.92V249.023Z" fill="#D9D9D9"/>
<path d="M999.411 244.84L1070.52 249.023M1070.52 249.023H999.411V196.737L1070.52 200.92V249.023Z" stroke="#BFBFBF" stroke-width="2"/>
<path d="M790.578 257V220.636H804.925C807.683 220.636 810.033 221.163 811.974 222.217C813.915 223.258 815.395 224.708 816.413 226.567C817.443 228.413 817.958 230.544 817.958 232.959C817.958 235.374 817.437 237.504 816.395 239.351C815.354 241.197 813.844 242.636 811.868 243.665C809.903 244.695 807.523 245.21 804.73 245.21H795.586V239.049H803.487C804.967 239.049 806.186 238.795 807.145 238.286C808.115 237.765 808.837 237.049 809.311 236.137C809.796 235.214 810.039 234.154 810.039 232.959C810.039 231.751 809.796 230.698 809.311 229.798C808.837 228.887 808.115 228.183 807.145 227.685C806.174 227.176 804.943 226.922 803.451 226.922H798.267V257H790.578ZM825.02 257H816.781L829.335 220.636H839.242L851.778 257H843.539L834.431 228.946H834.146L825.02 257ZM824.505 242.707H843.965V248.708H824.505V242.707ZM856.155 257V220.636H863.843V250.661H879.432V257H856.155ZM915.192 233.367H907.415C907.273 232.361 906.983 231.467 906.545 230.686C906.107 229.893 905.545 229.218 904.858 228.662C904.172 228.106 903.379 227.679 902.479 227.384C901.591 227.088 900.627 226.94 899.585 226.94C897.703 226.94 896.064 227.407 894.667 228.342C893.27 229.266 892.187 230.615 891.417 232.391C890.648 234.154 890.263 236.297 890.263 238.818C890.263 241.411 890.648 243.589 891.417 245.352C892.199 247.116 893.288 248.448 894.684 249.347C896.081 250.247 897.697 250.697 899.532 250.697C900.562 250.697 901.515 250.561 902.39 250.288C903.278 250.016 904.065 249.62 904.752 249.099C905.439 248.566 906.007 247.921 906.456 247.163C906.918 246.406 907.238 245.542 907.415 244.571L915.192 244.607C914.991 246.276 914.488 247.885 913.683 249.436C912.89 250.975 911.819 252.354 910.469 253.573C909.132 254.781 907.534 255.739 905.675 256.45C903.829 257.148 901.739 257.497 899.407 257.497C896.164 257.497 893.264 256.763 890.707 255.295C888.162 253.828 886.15 251.703 884.67 248.921C883.202 246.139 882.469 242.772 882.469 238.818C882.469 234.853 883.214 231.479 884.706 228.697C886.197 225.916 888.221 223.797 890.778 222.341C893.335 220.873 896.211 220.139 899.407 220.139C901.515 220.139 903.468 220.435 905.267 221.027C907.078 221.619 908.682 222.483 910.079 223.619C911.475 224.744 912.612 226.123 913.488 227.756C914.376 229.39 914.944 231.26 915.192 233.367ZM954.122 238.818C954.122 242.784 953.37 246.157 951.867 248.939C950.375 251.721 948.339 253.845 945.759 255.313C943.19 256.769 940.302 257.497 937.094 257.497C933.862 257.497 930.962 256.763 928.394 255.295C925.825 253.828 923.795 251.703 922.303 248.921C920.812 246.139 920.066 242.772 920.066 238.818C920.066 234.853 920.812 231.479 922.303 228.697C923.795 225.916 925.825 223.797 928.394 222.341C930.962 220.873 933.862 220.139 937.094 220.139C940.302 220.139 943.19 220.873 945.759 222.341C948.339 223.797 950.375 225.916 951.867 228.697C953.37 231.479 954.122 234.853 954.122 238.818ZM946.327 238.818C946.327 236.25 945.942 234.083 945.173 232.32C944.415 230.556 943.344 229.218 941.959 228.307C940.574 227.395 938.952 226.94 937.094 226.94C935.235 226.94 933.614 227.395 932.229 228.307C930.844 229.218 929.767 230.556 928.997 232.32C928.24 234.083 927.861 236.25 927.861 238.818C927.861 241.387 928.24 243.553 928.997 245.317C929.767 247.08 930.844 248.418 932.229 249.33C933.614 250.241 935.235 250.697 937.094 250.697C938.952 250.697 940.574 250.241 941.959 249.33C943.344 248.418 944.415 247.08 945.173 245.317C945.942 243.553 946.327 241.387 946.327 238.818Z" fill="black"/>
<path d="M262.967 504.433C262.712 502.274 261.675 500.598 259.856 499.404C258.038 498.211 255.808 497.615 253.166 497.615C251.234 497.615 249.544 497.927 248.095 498.552C246.66 499.177 245.538 500.036 244.729 501.13C243.933 502.224 243.535 503.467 243.535 504.859C243.535 506.024 243.812 507.025 244.366 507.863C244.935 508.687 245.659 509.376 246.54 509.93C247.42 510.47 248.344 510.917 249.31 511.272C250.275 511.613 251.163 511.89 251.973 512.103L256.405 513.296C257.541 513.595 258.805 514.007 260.197 514.532C261.604 515.058 262.946 515.775 264.224 516.684C265.517 517.579 266.582 518.73 267.42 520.136C268.258 521.542 268.677 523.268 268.677 525.313C268.677 527.671 268.06 529.802 266.824 531.705C265.602 533.609 263.812 535.122 261.454 536.244C259.111 537.366 256.263 537.927 252.91 537.927C249.785 537.927 247.079 537.423 244.793 536.414C242.52 535.406 240.73 534 239.423 532.196C238.131 530.392 237.399 528.296 237.229 525.91H242.683C242.825 527.558 243.379 528.921 244.345 530.001C245.325 531.066 246.561 531.862 248.052 532.387C249.558 532.899 251.177 533.154 252.91 533.154C254.927 533.154 256.739 532.828 258.344 532.174C259.949 531.507 261.22 530.583 262.158 529.404C263.095 528.211 263.564 526.819 263.564 525.228C263.564 523.779 263.159 522.6 262.349 521.691C261.54 520.782 260.474 520.044 259.153 519.475C257.832 518.907 256.405 518.41 254.871 517.984L249.501 516.45C246.092 515.47 243.393 514.071 241.405 512.252C239.416 510.434 238.422 508.055 238.422 505.115C238.422 502.671 239.082 500.541 240.403 498.723C241.739 496.89 243.528 495.47 245.773 494.461C248.031 493.438 250.552 492.927 253.337 492.927C256.149 492.927 258.649 493.431 260.837 494.44C263.024 495.434 264.757 496.798 266.035 498.531C267.328 500.264 268.01 502.231 268.081 504.433H262.967ZM277.365 537.16V493.524H303.701V498.211H282.649V512.955H302.337V517.643H282.649V532.473H304.041V537.16H277.365ZM310.838 498.211V493.524H343.566V498.211H329.844V537.16H324.56V498.211H310.838ZM386.723 515.342C386.723 519.944 385.892 523.921 384.23 527.274C382.568 530.626 380.288 533.211 377.39 535.029C374.492 536.848 371.183 537.757 367.461 537.757C363.74 537.757 360.43 536.848 357.532 535.029C354.634 533.211 352.355 530.626 350.693 527.274C349.031 523.921 348.2 519.944 348.2 515.342C348.2 510.74 349.031 506.762 350.693 503.41C352.355 500.058 354.634 497.473 357.532 495.654C360.43 493.836 363.74 492.927 367.461 492.927C371.183 492.927 374.492 493.836 377.39 495.654C380.288 497.473 382.568 500.058 384.23 503.41C385.892 506.762 386.723 510.74 386.723 515.342ZM381.609 515.342C381.609 511.563 380.977 508.375 379.713 505.775C378.463 503.176 376.765 501.208 374.62 499.873C372.49 498.538 370.103 497.87 367.461 497.87C364.819 497.87 362.426 498.538 360.281 499.873C358.15 501.208 356.453 503.176 355.188 505.775C353.938 508.375 353.313 511.563 353.313 515.342C353.313 519.12 353.938 522.309 355.188 524.909C356.453 527.508 358.15 529.475 360.281 530.811C362.426 532.146 364.819 532.813 367.461 532.813C370.103 532.813 372.49 532.146 374.62 530.811C376.765 529.475 378.463 527.508 379.713 524.909C380.977 522.309 381.609 519.12 381.609 515.342ZM395.608 537.16V493.524L410.352 493.524C413.761 493.524 416.559 494.106 418.747 495.271C420.934 496.421 422.554 498.005 423.605 500.022C424.656 502.039 425.181 504.333 425.181 506.904C425.181 509.475 424.656 511.755 423.605 513.744C422.554 515.732 420.941 517.295 418.768 518.431C416.595 519.553 413.818 520.115 410.437 520.115H398.505V515.342H410.267C412.596 515.342 414.471 515.001 415.892 514.319C417.326 513.637 418.363 512.671 419.002 511.421C419.656 510.157 419.983 508.652 419.983 506.904C419.983 505.157 419.656 503.63 419.002 502.323C418.349 501.017 417.305 500.008 415.87 499.298C414.436 498.573 412.539 498.211 410.181 498.211H400.892V537.16H395.608ZM416.147 517.558L426.886 537.16H420.75L410.181 517.558H416.147ZM453.903 537.16H444.017L459.081 493.524H470.97L486.012 537.16H476.126L465.196 503.495H464.855L453.903 537.16ZM453.285 520.008H476.637V527.21H453.285V520.008Z" fill="black"/>
<path d="M823.643 572.273C823.388 570.114 822.351 568.438 820.532 567.244C818.714 566.051 816.484 565.455 813.842 565.455C811.91 565.455 810.22 565.767 808.771 566.392C807.336 567.017 806.214 567.876 805.405 568.97C804.609 570.064 804.211 571.307 804.211 572.699C804.211 573.864 804.488 574.865 805.042 575.703C805.611 576.527 806.335 577.216 807.216 577.77C808.096 578.31 809.02 578.757 809.986 579.112C810.951 579.453 811.839 579.73 812.649 579.943L817.081 581.136C818.217 581.435 819.481 581.847 820.873 582.372C822.28 582.898 823.622 583.615 824.9 584.524C826.193 585.419 827.258 586.57 828.096 587.976C828.934 589.382 829.353 591.108 829.353 593.153C829.353 595.511 828.736 597.642 827.5 599.545C826.278 601.449 824.488 602.962 822.13 604.084C819.787 605.206 816.939 605.767 813.586 605.767C810.461 605.767 807.755 605.263 805.469 604.254C803.196 603.246 801.406 601.839 800.099 600.036C798.807 598.232 798.075 596.136 797.905 593.75H803.359C803.501 595.398 804.055 596.761 805.021 597.841C806.001 598.906 807.237 599.702 808.728 600.227C810.234 600.739 811.853 600.994 813.586 600.994C815.603 600.994 817.415 600.668 819.02 600.014C820.625 599.347 821.896 598.423 822.834 597.244C823.771 596.051 824.24 594.659 824.24 593.068C824.24 591.619 823.835 590.44 823.025 589.531C822.216 588.622 821.15 587.884 819.829 587.315C818.508 586.747 817.081 586.25 815.547 585.824L810.177 584.29C806.768 583.31 804.069 581.911 802.081 580.092C800.092 578.274 799.098 575.895 799.098 572.955C799.098 570.511 799.758 568.381 801.079 566.562C802.415 564.73 804.204 563.31 806.449 562.301C808.707 561.278 811.228 560.767 814.013 560.767C816.825 560.767 819.325 561.271 821.513 562.28C823.7 563.274 825.433 564.638 826.711 566.371C828.004 568.104 828.686 570.071 828.757 572.273H823.643ZM838.041 605V561.364H864.377V566.051H843.325V580.795H863.013V585.483H843.325V600.312H864.717V605H838.041ZM871.514 566.051V561.364H904.242V566.051H890.52V605H885.236V566.051H871.514ZM947.399 583.182C947.399 587.784 946.568 591.761 944.906 595.114C943.244 598.466 940.964 601.051 938.066 602.869C935.168 604.688 931.859 605.597 928.137 605.597C924.416 605.597 921.106 604.688 918.208 602.869C915.311 601.051 913.031 598.466 911.369 595.114C909.707 591.761 908.876 587.784 908.876 583.182C908.876 578.58 909.707 574.602 911.369 571.25C913.031 567.898 915.311 565.312 918.208 563.494C921.106 561.676 924.416 560.767 928.137 560.767C931.859 560.767 935.168 561.676 938.066 563.494C940.964 565.312 943.244 567.898 944.906 571.25C946.568 574.602 947.399 578.58 947.399 583.182ZM942.285 583.182C942.285 579.403 941.653 576.214 940.389 573.615C939.139 571.016 937.441 569.048 935.296 567.713C933.166 566.378 930.779 565.71 928.137 565.71C925.495 565.71 923.102 566.378 920.957 567.713C918.826 569.048 917.129 571.016 915.864 573.615C914.614 576.214 913.989 579.403 913.989 583.182C913.989 586.96 914.614 590.149 915.864 592.749C917.129 595.348 918.826 597.315 920.957 598.651C923.102 599.986 925.495 600.653 928.137 600.653C930.779 600.653 933.166 599.986 935.296 598.651C937.441 597.315 939.139 595.348 940.389 592.749C941.653 590.149 942.285 586.96 942.285 583.182ZM956.284 605V561.364H971.028C974.437 561.364 977.235 561.946 979.423 563.111C981.61 564.261 983.23 565.845 984.281 567.862C985.332 569.879 985.857 572.173 985.857 574.744C985.857 577.315 985.332 579.595 984.281 581.584C983.23 583.572 981.617 585.135 979.444 586.271C977.271 587.393 974.494 587.955 971.113 587.955H959.181V583.182H970.943C973.272 583.182 975.147 582.841 976.568 582.159C978.002 581.477 979.039 580.511 979.678 579.261C980.332 577.997 980.659 576.491 980.659 574.744C980.659 572.997 980.332 571.47 979.678 570.163C979.025 568.857 977.981 567.848 976.546 567.138C975.112 566.413 973.215 566.051 970.857 566.051H961.568V605H956.284ZM976.823 585.398L987.562 605H981.426L970.857 585.398H976.823ZM1007.06 605V561.364H1024.53C1027.74 561.364 1030.42 561.839 1032.56 562.791C1034.71 563.743 1036.32 565.064 1037.4 566.754C1038.48 568.43 1039.02 570.362 1039.02 572.55C1039.02 574.254 1038.68 575.753 1038 577.045C1037.31 578.324 1036.38 579.375 1035.18 580.199C1034 581.009 1032.65 581.584 1031.13 581.925V582.351C1032.8 582.422 1034.35 582.891 1035.8 583.757C1037.26 584.624 1038.45 585.838 1039.36 587.401C1040.27 588.949 1040.72 590.795 1040.72 592.94C1040.72 595.256 1040.15 597.322 1039 599.141C1037.86 600.945 1036.18 602.372 1033.95 603.423C1031.72 604.474 1028.97 605 1025.7 605H1007.06ZM1016.28 597.457H1023.8C1026.38 597.457 1028.25 596.967 1029.43 595.987C1030.61 594.993 1031.2 593.672 1031.2 592.024C1031.2 590.817 1030.91 589.751 1030.32 588.828C1029.74 587.905 1028.91 587.18 1027.83 586.655C1026.77 586.129 1025.5 585.866 1024.02 585.866H1016.28V597.457ZM1016.28 579.624H1023.12C1024.39 579.624 1025.51 579.403 1026.49 578.963C1027.48 578.509 1028.27 577.869 1028.83 577.045C1029.42 576.222 1029.71 575.234 1029.71 574.084C1029.71 572.507 1029.15 571.236 1028.02 570.27C1026.92 569.304 1025.34 568.821 1023.29 568.821H1016.28V579.624Z" fill="black"/>
<path d="M1379.01 503.273C1378.75 501.114 1377.72 499.438 1375.9 498.244C1374.08 497.051 1371.85 496.455 1369.21 496.455C1367.28 496.455 1365.59 496.767 1364.14 497.392C1362.7 498.017 1361.58 498.876 1360.77 499.97C1359.98 501.064 1359.58 502.307 1359.58 503.699C1359.58 504.864 1359.86 505.865 1360.41 506.703C1360.98 507.527 1361.7 508.216 1362.58 508.77C1363.46 509.31 1364.39 509.757 1365.35 510.112C1366.32 510.453 1367.21 510.73 1368.02 510.943L1372.45 512.136C1373.58 512.435 1374.85 512.847 1376.24 513.372C1377.65 513.898 1378.99 514.615 1380.27 515.524C1381.56 516.419 1382.63 517.57 1383.46 518.976C1384.3 520.382 1384.72 522.108 1384.72 524.153C1384.72 526.511 1384.1 528.642 1382.87 530.545C1381.65 532.449 1379.86 533.962 1377.5 535.084C1375.15 536.206 1372.31 536.767 1368.95 536.767C1365.83 536.767 1363.12 536.263 1360.84 535.254C1358.56 534.246 1356.77 532.839 1355.47 531.036C1354.17 529.232 1353.44 527.136 1353.27 524.75H1358.73C1358.87 526.398 1359.42 527.761 1360.39 528.841C1361.37 529.906 1362.6 530.702 1364.1 531.227C1365.6 531.739 1367.22 531.994 1368.95 531.994C1370.97 531.994 1372.78 531.668 1374.39 531.014C1375.99 530.347 1377.26 529.423 1378.2 528.244C1379.14 527.051 1379.61 525.659 1379.61 524.068C1379.61 522.619 1379.2 521.44 1378.39 520.531C1377.58 519.622 1376.52 518.884 1375.2 518.315C1373.88 517.747 1372.45 517.25 1370.91 516.824L1365.54 515.29C1362.14 514.31 1359.44 512.911 1357.45 511.092C1355.46 509.274 1354.46 506.895 1354.46 503.955C1354.46 501.511 1355.13 499.381 1356.45 497.562C1357.78 495.73 1359.57 494.31 1361.82 493.301C1364.07 492.278 1366.6 491.767 1369.38 491.767C1372.19 491.767 1374.69 492.271 1376.88 493.28C1379.07 494.274 1380.8 495.638 1382.08 497.371C1383.37 499.104 1384.05 501.071 1384.12 503.273H1379.01ZM1393.41 536V492.364H1419.74V497.051H1398.69V511.795H1418.38V516.483H1398.69V531.312H1420.08V536H1393.41ZM1426.88 497.051V492.364H1459.61V497.051H1445.89V536H1440.6V497.051H1426.88ZM1502.77 514.182C1502.77 518.784 1501.93 522.761 1500.27 526.114C1498.61 529.466 1496.33 532.051 1493.43 533.869C1490.54 535.688 1487.23 536.597 1483.5 536.597C1479.78 536.597 1476.47 535.688 1473.58 533.869C1470.68 532.051 1468.4 529.466 1466.74 526.114C1465.07 522.761 1464.24 518.784 1464.24 514.182C1464.24 509.58 1465.07 505.602 1466.74 502.25C1468.4 498.898 1470.68 496.312 1473.58 494.494C1476.47 492.676 1479.78 491.767 1483.5 491.767C1487.23 491.767 1490.54 492.676 1493.43 494.494C1496.33 496.312 1498.61 498.898 1500.27 502.25C1501.93 505.602 1502.77 509.58 1502.77 514.182ZM1497.65 514.182C1497.65 510.403 1497.02 507.214 1495.76 504.615C1494.51 502.016 1492.81 500.048 1490.66 498.713C1488.53 497.378 1486.15 496.71 1483.5 496.71C1480.86 496.71 1478.47 497.378 1476.32 498.713C1474.19 500.048 1472.5 502.016 1471.23 504.615C1469.98 507.214 1469.36 510.403 1469.36 514.182C1469.36 517.96 1469.98 521.149 1471.23 523.749C1472.5 526.348 1474.19 528.315 1476.32 529.651C1478.47 530.986 1480.86 531.653 1483.5 531.653C1486.15 531.653 1488.53 530.986 1490.66 529.651C1492.81 528.315 1494.51 526.348 1495.76 523.749C1497.02 521.149 1497.65 517.96 1497.65 514.182ZM1511.65 536V492.364H1526.39C1529.8 492.364 1532.6 492.946 1534.79 494.111C1536.98 495.261 1538.6 496.845 1539.65 498.862C1540.7 500.879 1541.22 503.173 1541.22 505.744C1541.22 508.315 1540.7 510.595 1539.65 512.584C1538.6 514.572 1536.98 516.135 1534.81 517.271C1532.64 518.393 1529.86 518.955 1526.48 518.955H1514.55V514.182H1526.31C1528.64 514.182 1530.51 513.841 1531.93 513.159C1533.37 512.477 1534.41 511.511 1535.05 510.261C1535.7 508.997 1536.03 507.491 1536.03 505.744C1536.03 503.997 1535.7 502.47 1535.05 501.163C1534.39 499.857 1533.35 498.848 1531.91 498.138C1530.48 497.413 1528.58 497.051 1526.22 497.051H1516.93V536H1511.65ZM1532.19 516.398L1542.93 536H1536.79L1526.22 516.398H1532.19ZM1600.93 507.641H1591.59C1591.42 506.433 1591.08 505.361 1590.55 504.423C1590.02 503.472 1589.35 502.662 1588.53 501.994C1587.7 501.327 1586.75 500.815 1585.67 500.46C1584.6 500.105 1583.45 499.928 1582.2 499.928C1579.94 499.928 1577.97 500.489 1576.3 501.611C1574.62 502.719 1573.32 504.338 1572.4 506.469C1571.47 508.585 1571.01 511.156 1571.01 514.182C1571.01 517.293 1571.47 519.906 1572.4 522.023C1573.33 524.139 1574.64 525.737 1576.32 526.817C1577.99 527.896 1579.93 528.436 1582.13 528.436C1583.37 528.436 1584.51 528.273 1585.56 527.946C1586.63 527.619 1587.57 527.143 1588.4 526.518C1589.22 525.879 1589.9 525.105 1590.44 524.196C1591 523.287 1591.38 522.25 1591.59 521.085L1600.93 521.128C1600.68 523.131 1600.08 525.062 1599.11 526.923C1598.16 528.77 1596.88 530.425 1595.26 531.888C1593.65 533.337 1591.74 534.487 1589.51 535.339C1587.29 536.178 1584.78 536.597 1581.98 536.597C1578.09 536.597 1574.61 535.716 1571.54 533.955C1568.49 532.193 1566.08 529.643 1564.3 526.305C1562.54 522.967 1561.66 518.926 1561.66 514.182C1561.66 509.423 1562.55 505.375 1564.34 502.037C1566.13 498.699 1568.56 496.156 1571.63 494.409C1574.7 492.648 1578.15 491.767 1581.98 491.767C1584.51 491.767 1586.86 492.122 1589.02 492.832C1591.19 493.543 1593.11 494.58 1594.79 495.943C1596.47 497.293 1597.83 498.947 1598.88 500.908C1599.95 502.868 1600.63 505.112 1600.93 507.641Z" fill="black"/>
<defs>
<filter id="filter0_d_1917_1706" x="744.257" y="122.491" width="257.063" height="246.606" filterUnits="userSpaceOnUse" color-interpolation-filters="sRGB">
<feFlood flood-opacity="0" result="BackgroundImageFix"/>
<feColorMatrix in="SourceAlpha" type="matrix" values="0 0 0 0 0 0 0 0 0 0 0 0 0 0 0 0 0 0 127 0" result="hardAlpha"/>
<feOffset dx="4" dy="4"/>
<feComposite in2="hardAlpha" operator="out"/>
<feColorMatrix type="matrix" values="0 0 0 0 0 0 0 0 0 0 0 0 0 0 0 0 0 0 0.25 0"/>
<feBlend mode="normal" in2="BackgroundImageFix" result="effect1_dropShadow_1917_1706"/>
<feBlend mode="normal" in="SourceGraphic" in2="effect1_dropShadow_1917_1706" result="shape"/>
</filter>
</defs>
</svg>
