<svg width="1758" height="1032" viewBox="0 0 1758 1032" fill="none" xmlns="http://www.w3.org/2000/svg">
<rect x="83" y="2" width="556" height="1030" fill="#B3B470" fill-opacity="0.15"/>
<rect x="641" y="564" width="556" height="467" fill="#E00BCD" fill-opacity="0.15"/>
<rect x="1199" y="1" width="556" height="1030" fill="#E0110B" fill-opacity="0.15"/>
<circle cx="687.914" cy="621.914" r="20.4143" fill="#D9D9D9" stroke="black"/>
<circle cx="764.914" cy="621.914" r="20.4143" fill="#D9D9D9" stroke="black"/>
<circle cx="841.914" cy="621.914" r="20.4143" fill="#D9D9D9" stroke="black"/>
<circle cx="918.914" cy="621.914" r="20.4143" fill="#D9D9D9" stroke="black"/>
<circle cx="995.914" cy="620.914" r="20.4143" fill="#D9D9D9" stroke="black"/>
<circle cx="1072.91" cy="620.914" r="20.4143" fill="#D9D9D9" stroke="black"/>
<circle cx="1149.91" cy="619.914" r="20.4143" fill="#D9D9D9" stroke="black"/>
<circle cx="688.914" cy="698.4" r="20.4143" fill="#D9D9D9" stroke="black"/>
<circle cx="759.914" cy="698.229" r="20.4143" fill="#D9D9D9" stroke="black"/>
<circle cx="840.743" cy="698.229" r="20.4143" fill="#D9D9D9" stroke="black"/>
<circle cx="918.914" cy="698.057" r="20.4143" fill="#D9D9D9" stroke="black"/>
<circle cx="995.743" cy="698.057" r="20.4143" fill="#D9D9D9" stroke="black"/>
<circle cx="1072.91" cy="696.886" r="20.4143" fill="#D9D9D9" stroke="black"/>
<circle cx="1149.74" cy="696.886" r="20.4143" fill="#D9D9D9" stroke="black"/>
<path d="M681.475 584.467C682.111 584.467 682.723 584.574 683.311 584.787C683.902 585.001 684.43 585.341 684.892 585.808C685.359 586.274 685.728 586.894 685.997 587.667C686.271 588.436 686.41 589.379 686.414 590.498C686.414 591.549 686.295 592.486 686.058 593.311C685.824 594.132 685.488 594.831 685.049 595.406C684.611 595.982 684.081 596.42 683.462 596.722C682.842 597.02 682.15 597.169 681.385 597.169C680.56 597.169 679.831 597.01 679.2 596.692C678.568 596.37 678.059 595.933 677.672 595.382C677.29 594.827 677.058 594.203 676.978 593.511H679.556C679.656 593.961 679.868 594.312 680.19 594.561C680.512 594.807 680.91 594.929 681.385 594.929C682.19 594.929 682.802 594.579 683.22 593.879C683.639 593.175 683.85 592.211 683.854 590.987H683.77C683.584 591.349 683.335 591.661 683.021 591.923C682.707 592.181 682.347 592.38 681.94 592.521C681.538 592.661 681.109 592.732 680.654 592.732C679.926 592.732 679.276 592.561 678.705 592.219C678.133 591.877 677.682 591.406 677.352 590.806C677.022 590.206 676.857 589.522 676.857 588.754C676.853 587.924 677.044 587.186 677.431 586.538C677.817 585.89 678.356 585.383 679.049 585.017C679.745 584.646 680.554 584.463 681.475 584.467ZM681.494 586.52C681.087 586.52 680.725 586.616 680.407 586.81C680.093 587.003 679.844 587.262 679.658 587.588C679.477 587.914 679.389 588.279 679.393 588.681C679.393 589.088 679.481 589.454 679.658 589.78C679.839 590.102 680.085 590.359 680.395 590.553C680.709 590.742 681.067 590.836 681.469 590.836C681.771 590.836 682.051 590.78 682.309 590.667C682.566 590.555 682.79 590.4 682.979 590.202C683.172 590.001 683.323 589.77 683.431 589.508C683.54 589.247 683.594 588.969 683.594 588.675C683.59 588.285 683.498 587.926 683.317 587.6C683.136 587.275 682.886 587.013 682.568 586.816C682.25 586.618 681.892 586.52 681.494 586.52ZM693.072 597.272C692.034 597.268 691.141 597.012 690.392 596.505C689.647 595.998 689.074 595.263 688.672 594.301C688.273 593.34 688.076 592.183 688.08 590.83C688.08 589.482 688.279 588.333 688.678 587.383C689.08 586.433 689.654 585.711 690.398 585.216C691.147 584.717 692.038 584.467 693.072 584.467C694.107 584.467 694.996 584.717 695.741 585.216C696.489 585.715 697.065 586.439 697.467 587.389C697.87 588.335 698.069 589.482 698.065 590.83C698.065 592.187 697.864 593.346 697.461 594.308C697.063 595.269 696.491 596.004 695.747 596.511C695.002 597.018 694.111 597.272 693.072 597.272ZM693.072 595.104C693.781 595.104 694.346 594.748 694.769 594.036C695.191 593.324 695.401 592.255 695.397 590.83C695.397 589.893 695.3 589.112 695.107 588.488C694.918 587.864 694.648 587.395 694.298 587.081C693.952 586.767 693.543 586.61 693.072 586.61C692.368 586.61 691.805 586.963 691.382 587.667C690.96 588.371 690.746 589.426 690.742 590.83C690.742 591.78 690.837 592.573 691.026 593.209C691.219 593.841 691.491 594.316 691.841 594.634C692.191 594.947 692.602 595.104 693.072 595.104Z" fill="black"/>
<path d="M759.584 584.467C760.22 584.467 760.832 584.574 761.419 584.787C762.011 585.001 762.538 585.341 763.001 585.808C763.468 586.274 763.836 586.894 764.106 587.667C764.379 588.436 764.518 589.379 764.522 590.498C764.522 591.549 764.404 592.486 764.166 593.311C763.933 594.132 763.597 594.831 763.158 595.406C762.719 595.982 762.19 596.42 761.57 596.722C760.95 597.02 760.258 597.169 759.494 597.169C758.669 597.169 757.94 597.01 757.308 596.692C756.676 596.37 756.167 595.933 755.781 595.382C755.399 594.827 755.167 594.203 755.087 593.511H757.664C757.765 593.961 757.976 594.312 758.298 594.561C758.62 594.807 759.019 594.929 759.494 594.929C760.299 594.929 760.91 594.579 761.329 593.879C761.747 593.175 761.959 592.211 761.963 590.987H761.878C761.693 591.349 761.444 591.661 761.13 591.923C760.816 592.181 760.455 592.38 760.049 592.521C759.647 592.661 759.218 592.732 758.763 592.732C758.035 592.732 757.385 592.561 756.813 592.219C756.242 591.877 755.791 591.406 755.461 590.806C755.131 590.206 754.966 589.522 754.966 588.754C754.962 587.924 755.153 587.186 755.539 586.538C755.926 585.89 756.465 585.383 757.157 585.017C757.854 584.646 758.663 584.463 759.584 584.467ZM759.602 586.52C759.196 586.52 758.834 586.616 758.516 586.81C758.202 587.003 757.952 587.262 757.767 587.588C757.586 587.914 757.497 588.279 757.501 588.681C757.501 589.088 757.59 589.454 757.767 589.78C757.948 590.102 758.194 590.359 758.504 590.553C758.817 590.742 759.176 590.836 759.578 590.836C759.88 590.836 760.16 590.78 760.417 590.667C760.675 590.555 760.898 590.4 761.087 590.202C761.281 590.001 761.431 589.77 761.54 589.508C761.649 589.247 761.703 588.969 761.703 588.675C761.699 588.285 761.607 587.926 761.425 587.6C761.244 587.275 760.995 587.013 760.677 586.816C760.359 586.618 760.001 586.52 759.602 586.52ZM771.712 584.636V597H769.098V587.118H769.026L766.195 588.892V586.574L769.255 584.636H771.712Z" fill="black"/>
<path d="M836.207 584.467C836.843 584.467 837.455 584.574 838.042 584.787C838.634 585.001 839.161 585.341 839.624 585.808C840.091 586.274 840.459 586.894 840.729 587.667C841.002 588.436 841.141 589.379 841.145 590.498C841.145 591.549 841.026 592.486 840.789 593.311C840.556 594.132 840.219 594.831 839.781 595.406C839.342 595.982 838.813 596.42 838.193 596.722C837.573 597.02 836.881 597.169 836.116 597.169C835.291 597.169 834.563 597.01 833.931 596.692C833.299 596.37 832.79 595.933 832.404 595.382C832.021 594.827 831.79 594.203 831.709 593.511H834.287C834.388 593.961 834.599 594.312 834.921 594.561C835.243 594.807 835.641 594.929 836.116 594.929C836.921 594.929 837.533 594.579 837.952 593.879C838.37 593.175 838.581 592.211 838.585 590.987H838.501C838.316 591.349 838.066 591.661 837.752 591.923C837.438 592.181 837.078 592.38 836.672 592.521C836.269 592.661 835.841 592.732 835.386 592.732C834.657 592.732 834.007 592.561 833.436 592.219C832.864 591.877 832.414 591.406 832.084 590.806C831.754 590.206 831.589 589.522 831.589 588.754C831.585 587.924 831.776 587.186 832.162 586.538C832.549 585.89 833.088 585.383 833.78 585.017C834.476 584.646 835.285 584.463 836.207 584.467ZM836.225 586.52C835.819 586.52 835.456 586.616 835.138 586.81C834.824 587.003 834.575 587.262 834.39 587.588C834.209 587.914 834.12 588.279 834.124 588.681C834.124 589.088 834.213 589.454 834.39 589.78C834.571 590.102 834.816 590.359 835.126 590.553C835.44 590.742 835.798 590.836 836.201 590.836C836.503 590.836 836.782 590.78 837.04 590.667C837.298 590.555 837.521 590.4 837.71 590.202C837.903 590.001 838.054 589.77 838.163 589.508C838.272 589.247 838.326 588.969 838.326 588.675C838.322 588.285 838.229 587.926 838.048 587.6C837.867 587.275 837.618 587.013 837.3 586.816C836.982 586.618 836.623 586.52 836.225 586.52ZM842.956 597V595.116L847.357 591.042C847.731 590.679 848.045 590.353 848.299 590.064C848.556 589.774 848.752 589.49 848.884 589.212C849.017 588.931 849.084 588.627 849.084 588.301C849.084 587.939 849.001 587.627 848.836 587.365C848.671 587.099 848.446 586.896 848.16 586.755C847.874 586.61 847.55 586.538 847.188 586.538C846.81 586.538 846.48 586.614 846.198 586.767C845.916 586.92 845.699 587.14 845.546 587.425C845.393 587.711 845.317 588.051 845.317 588.446H842.835C842.835 587.637 843.019 586.934 843.385 586.339C843.751 585.743 844.264 585.282 844.924 584.956C845.584 584.63 846.345 584.467 847.206 584.467C848.092 584.467 848.862 584.624 849.518 584.938C850.178 585.248 850.692 585.679 851.058 586.23C851.424 586.781 851.607 587.413 851.607 588.126C851.607 588.593 851.515 589.053 851.329 589.508C851.148 589.963 850.824 590.468 850.358 591.023C849.891 591.575 849.233 592.237 848.383 593.01L846.578 594.778V594.863H851.77V597H842.956Z" fill="black"/>
<path d="M913.207 584.467C913.843 584.467 914.455 584.574 915.042 584.787C915.634 585.001 916.161 585.341 916.624 585.808C917.091 586.274 917.459 586.894 917.729 587.667C918.002 588.436 918.141 589.379 918.145 590.498C918.145 591.549 918.026 592.486 917.789 593.311C917.556 594.132 917.219 594.831 916.781 595.406C916.342 595.982 915.813 596.42 915.193 596.722C914.573 597.02 913.881 597.169 913.116 597.169C912.291 597.169 911.563 597.01 910.931 596.692C910.299 596.37 909.79 595.933 909.404 595.382C909.021 594.827 908.79 594.203 908.709 593.511H911.287C911.388 593.961 911.599 594.312 911.921 594.561C912.243 594.807 912.641 594.929 913.116 594.929C913.921 594.929 914.533 594.579 914.952 593.879C915.37 593.175 915.581 592.211 915.585 590.987H915.501C915.316 591.349 915.066 591.661 914.752 591.923C914.438 592.181 914.078 592.38 913.672 592.521C913.269 592.661 912.841 592.732 912.386 592.732C911.657 592.732 911.007 592.561 910.436 592.219C909.864 591.877 909.414 591.406 909.084 590.806C908.754 590.206 908.589 589.522 908.589 588.754C908.585 587.924 908.776 587.186 909.162 586.538C909.549 585.89 910.088 585.383 910.78 585.017C911.476 584.646 912.285 584.463 913.207 584.467ZM913.225 586.52C912.819 586.52 912.456 586.616 912.138 586.81C911.824 587.003 911.575 587.262 911.39 587.588C911.209 587.914 911.12 588.279 911.124 588.681C911.124 589.088 911.213 589.454 911.39 589.78C911.571 590.102 911.816 590.359 912.126 590.553C912.44 590.742 912.798 590.836 913.201 590.836C913.503 590.836 913.782 590.78 914.04 590.667C914.298 590.555 914.521 590.4 914.71 590.202C914.903 590.001 915.054 589.77 915.163 589.508C915.272 589.247 915.326 588.969 915.326 588.675C915.322 588.285 915.229 587.926 915.048 587.6C914.867 587.275 914.618 587.013 914.3 586.816C913.982 586.618 913.623 586.52 913.225 586.52ZM924.526 597.169C923.625 597.169 922.822 597.014 922.117 596.704C921.417 596.39 920.864 595.96 920.457 595.412C920.055 594.861 919.848 594.225 919.835 593.505H922.468C922.484 593.806 922.582 594.072 922.763 594.301C922.949 594.527 923.194 594.702 923.5 594.827C923.806 594.951 924.15 595.014 924.532 595.014C924.931 595.014 925.283 594.943 925.589 594.803C925.895 594.662 926.134 594.467 926.307 594.217C926.48 593.967 926.567 593.68 926.567 593.354C926.567 593.024 926.474 592.732 926.289 592.478C926.108 592.221 925.846 592.02 925.504 591.875C925.166 591.73 924.764 591.657 924.297 591.657H923.144V589.738H924.297C924.691 589.738 925.039 589.669 925.341 589.532C925.647 589.395 925.884 589.206 926.054 588.965C926.223 588.719 926.307 588.434 926.307 588.108C926.307 587.798 926.233 587.526 926.084 587.293C925.939 587.055 925.734 586.87 925.468 586.737C925.206 586.604 924.9 586.538 924.55 586.538C924.196 586.538 923.872 586.602 923.578 586.731C923.285 586.856 923.049 587.035 922.872 587.268C922.695 587.502 922.6 587.776 922.588 588.089H920.083C920.095 587.377 920.298 586.749 920.693 586.206C921.087 585.663 921.618 585.238 922.286 584.932C922.959 584.622 923.717 584.467 924.562 584.467C925.416 584.467 926.162 584.622 926.802 584.932C927.442 585.242 927.939 585.661 928.293 586.188C928.651 586.711 928.829 587.299 928.824 587.951C928.829 588.643 928.613 589.22 928.179 589.683C927.748 590.146 927.186 590.44 926.494 590.565V590.661C927.404 590.778 928.096 591.094 928.571 591.609C929.05 592.12 929.287 592.76 929.283 593.529C929.287 594.233 929.084 594.859 928.674 595.406C928.267 595.954 927.706 596.384 926.989 596.698C926.273 597.012 925.452 597.169 924.526 597.169Z" fill="black"/>
<path d="M990.207 583.467C990.843 583.467 991.455 583.574 992.042 583.787C992.634 584.001 993.161 584.341 993.624 584.808C994.091 585.274 994.459 585.894 994.729 586.667C995.002 587.436 995.141 588.379 995.145 589.498C995.145 590.549 995.026 591.486 994.789 592.311C994.556 593.132 994.219 593.831 993.781 594.406C993.342 594.982 992.813 595.42 992.193 595.722C991.573 596.02 990.881 596.169 990.116 596.169C989.291 596.169 988.563 596.01 987.931 595.692C987.299 595.37 986.79 594.933 986.404 594.382C986.021 593.827 985.79 593.203 985.709 592.511H988.287C988.388 592.961 988.599 593.312 988.921 593.561C989.243 593.807 989.641 593.929 990.116 593.929C990.921 593.929 991.533 593.579 991.952 592.879C992.37 592.175 992.581 591.211 992.585 589.987H992.501C992.316 590.349 992.066 590.661 991.752 590.923C991.438 591.181 991.078 591.38 990.672 591.521C990.269 591.661 989.841 591.732 989.386 591.732C988.657 591.732 988.007 591.561 987.436 591.219C986.864 590.877 986.414 590.406 986.084 589.806C985.754 589.206 985.589 588.522 985.589 587.754C985.585 586.924 985.776 586.186 986.162 585.538C986.549 584.89 987.088 584.383 987.78 584.017C988.476 583.646 989.285 583.463 990.207 583.467ZM990.225 585.52C989.819 585.52 989.456 585.616 989.138 585.81C988.824 586.003 988.575 586.262 988.39 586.588C988.209 586.914 988.12 587.279 988.124 587.681C988.124 588.088 988.213 588.454 988.39 588.78C988.571 589.102 988.816 589.359 989.126 589.553C989.44 589.742 989.798 589.836 990.201 589.836C990.503 589.836 990.782 589.78 991.04 589.667C991.298 589.555 991.521 589.4 991.71 589.202C991.903 589.001 992.054 588.77 992.163 588.508C992.272 588.247 992.326 587.969 992.326 587.675C992.322 587.285 992.229 586.926 992.048 586.6C991.867 586.275 991.618 586.013 991.3 585.816C990.982 585.618 990.623 585.52 990.225 585.52ZM996.769 593.827V591.768L1001.93 583.636H1003.71V586.486H1002.66L999.401 591.635V591.732H1006.74V593.827H996.769ZM1002.7 596V593.199L1002.75 592.287V583.636H1005.2V596H1002.7Z" fill="black"/>
<path d="M1067.21 583.467C1067.84 583.467 1068.45 583.574 1069.04 583.787C1069.63 584.001 1070.16 584.341 1070.62 584.808C1071.09 585.274 1071.46 585.894 1071.73 586.667C1072 587.436 1072.14 588.379 1072.15 589.498C1072.15 590.549 1072.03 591.486 1071.79 592.311C1071.56 593.132 1071.22 593.831 1070.78 594.406C1070.34 594.982 1069.81 595.42 1069.19 595.722C1068.57 596.02 1067.88 596.169 1067.12 596.169C1066.29 596.169 1065.56 596.01 1064.93 595.692C1064.3 595.37 1063.79 594.933 1063.4 594.382C1063.02 593.827 1062.79 593.203 1062.71 592.511H1065.29C1065.39 592.961 1065.6 593.312 1065.92 593.561C1066.24 593.807 1066.64 593.929 1067.12 593.929C1067.92 593.929 1068.53 593.579 1068.95 592.879C1069.37 592.175 1069.58 591.211 1069.59 589.987H1069.5C1069.32 590.349 1069.07 590.661 1068.75 590.923C1068.44 591.181 1068.08 591.38 1067.67 591.521C1067.27 591.661 1066.84 591.732 1066.39 591.732C1065.66 591.732 1065.01 591.561 1064.44 591.219C1063.86 590.877 1063.41 590.406 1063.08 589.806C1062.75 589.206 1062.59 588.522 1062.59 587.754C1062.58 586.924 1062.78 586.186 1063.16 585.538C1063.55 584.89 1064.09 584.383 1064.78 584.017C1065.48 583.646 1066.29 583.463 1067.21 583.467ZM1067.23 585.52C1066.82 585.52 1066.46 585.616 1066.14 585.81C1065.82 586.003 1065.57 586.262 1065.39 586.588C1065.21 586.914 1065.12 587.279 1065.12 587.681C1065.12 588.088 1065.21 588.454 1065.39 588.78C1065.57 589.102 1065.82 589.359 1066.13 589.553C1066.44 589.742 1066.8 589.836 1067.2 589.836C1067.5 589.836 1067.78 589.78 1068.04 589.667C1068.3 589.555 1068.52 589.4 1068.71 589.202C1068.9 589.001 1069.05 588.77 1069.16 588.508C1069.27 588.247 1069.33 587.969 1069.33 587.675C1069.32 587.285 1069.23 586.926 1069.05 586.6C1068.87 586.275 1068.62 586.013 1068.3 585.816C1067.98 585.618 1067.62 585.52 1067.23 585.52ZM1078.47 596.169C1077.62 596.169 1076.86 596.012 1076.19 595.698C1075.53 595.384 1075 594.952 1074.61 594.4C1074.22 593.849 1074.01 593.217 1074 592.505H1076.53C1076.56 592.984 1076.76 593.372 1077.14 593.67C1077.51 593.968 1077.96 594.116 1078.47 594.116C1078.88 594.116 1079.24 594.026 1079.56 593.845C1079.88 593.66 1080.12 593.404 1080.3 593.078C1080.48 592.748 1080.57 592.37 1080.57 591.943C1080.57 591.509 1080.48 591.126 1080.3 590.796C1080.11 590.466 1079.86 590.209 1079.54 590.023C1079.22 589.838 1078.85 589.744 1078.44 589.74C1078.07 589.74 1077.72 589.814 1077.38 589.963C1077.04 590.112 1076.78 590.315 1076.59 590.573L1074.26 590.156L1074.85 583.636H1082.41V585.773H1077L1076.68 588.87H1076.76C1076.97 588.565 1077.3 588.311 1077.74 588.11C1078.18 587.908 1078.67 587.808 1079.21 587.808C1079.96 587.808 1080.62 587.983 1081.21 588.333C1081.79 588.683 1082.25 589.164 1082.59 589.776C1082.93 590.384 1083.09 591.084 1083.09 591.877C1083.09 592.71 1082.9 593.45 1082.51 594.098C1082.12 594.742 1081.58 595.249 1080.89 595.62C1080.19 595.986 1079.39 596.169 1078.47 596.169Z" fill="black"/>
<path d="M1142.21 582.467C1142.84 582.467 1143.45 582.574 1144.04 582.787C1144.63 583.001 1145.16 583.341 1145.62 583.808C1146.09 584.274 1146.46 584.894 1146.73 585.667C1147 586.436 1147.14 587.379 1147.15 588.498C1147.15 589.549 1147.03 590.486 1146.79 591.311C1146.56 592.132 1146.22 592.831 1145.78 593.406C1145.34 593.982 1144.81 594.42 1144.19 594.722C1143.57 595.02 1142.88 595.169 1142.12 595.169C1141.29 595.169 1140.56 595.01 1139.93 594.692C1139.3 594.37 1138.79 593.933 1138.4 593.382C1138.02 592.827 1137.79 592.203 1137.71 591.511H1140.29C1140.39 591.961 1140.6 592.312 1140.92 592.561C1141.24 592.807 1141.64 592.929 1142.12 592.929C1142.92 592.929 1143.53 592.579 1143.95 591.879C1144.37 591.175 1144.58 590.211 1144.59 588.987H1144.5C1144.32 589.349 1144.07 589.661 1143.75 589.923C1143.44 590.181 1143.08 590.38 1142.67 590.521C1142.27 590.661 1141.84 590.732 1141.39 590.732C1140.66 590.732 1140.01 590.561 1139.44 590.219C1138.86 589.877 1138.41 589.406 1138.08 588.806C1137.75 588.206 1137.59 587.522 1137.59 586.754C1137.58 585.924 1137.78 585.186 1138.16 584.538C1138.55 583.89 1139.09 583.383 1139.78 583.017C1140.48 582.646 1141.29 582.463 1142.21 582.467ZM1142.23 584.52C1141.82 584.52 1141.46 584.616 1141.14 584.81C1140.82 585.003 1140.57 585.262 1140.39 585.588C1140.21 585.914 1140.12 586.279 1140.12 586.681C1140.12 587.088 1140.21 587.454 1140.39 587.78C1140.57 588.102 1140.82 588.359 1141.13 588.553C1141.44 588.742 1141.8 588.836 1142.2 588.836C1142.5 588.836 1142.78 588.78 1143.04 588.667C1143.3 588.555 1143.52 588.4 1143.71 588.202C1143.9 588.001 1144.05 587.77 1144.16 587.508C1144.27 587.247 1144.33 586.969 1144.33 586.675C1144.32 586.285 1144.23 585.926 1144.05 585.6C1143.87 585.275 1143.62 585.013 1143.3 584.816C1142.98 584.618 1142.62 584.52 1142.23 584.52ZM1153.7 595.169C1153.07 595.165 1152.45 595.058 1151.86 594.849C1151.27 594.64 1150.75 594.3 1150.28 593.829C1149.81 593.358 1149.44 592.734 1149.17 591.957C1148.9 591.181 1148.76 590.227 1148.76 589.096C1148.77 588.058 1148.89 587.13 1149.12 586.313C1149.36 585.492 1149.69 584.796 1150.13 584.224C1150.58 583.653 1151.11 583.218 1151.72 582.92C1152.34 582.618 1153.03 582.467 1153.79 582.467C1154.62 582.467 1155.35 582.628 1155.98 582.95C1156.61 583.268 1157.12 583.701 1157.5 584.248C1157.88 584.796 1158.12 585.409 1158.2 586.089H1155.62C1155.52 585.659 1155.31 585.321 1154.99 585.075C1154.67 584.83 1154.27 584.707 1153.79 584.707C1152.99 584.707 1152.38 585.057 1151.96 585.757C1151.54 586.458 1151.33 587.41 1151.32 588.613H1151.41C1151.59 588.247 1151.84 587.935 1152.16 587.677C1152.47 587.416 1152.83 587.216 1153.24 587.08C1153.64 586.939 1154.07 586.868 1154.52 586.868C1155.25 586.868 1155.91 587.041 1156.48 587.387C1157.05 587.73 1157.5 588.2 1157.83 588.8C1158.16 589.4 1158.33 590.086 1158.33 590.859C1158.33 591.696 1158.13 592.44 1157.74 593.092C1157.35 593.744 1156.81 594.255 1156.12 594.626C1155.42 594.992 1154.62 595.173 1153.7 595.169ZM1153.69 593.116C1154.09 593.116 1154.45 593.02 1154.77 592.827C1155.09 592.634 1155.34 592.372 1155.52 592.042C1155.7 591.712 1155.79 591.342 1155.79 590.931C1155.79 590.521 1155.7 590.152 1155.52 589.826C1155.34 589.5 1155.1 589.241 1154.78 589.048C1154.47 588.854 1154.11 588.758 1153.71 588.758C1153.41 588.758 1153.13 588.814 1152.87 588.927C1152.61 589.04 1152.39 589.196 1152.2 589.398C1152.01 589.599 1151.86 589.832 1151.75 590.098C1151.64 590.36 1151.59 590.639 1151.59 590.937C1151.59 591.336 1151.68 591.7 1151.86 592.03C1152.05 592.36 1152.29 592.623 1152.61 592.821C1152.93 593.018 1153.29 593.116 1153.69 593.116Z" fill="black"/>
<path d="M684.378 660.467C685.014 660.467 685.626 660.574 686.214 660.787C686.805 661.001 687.332 661.341 687.795 661.808C688.262 662.274 688.63 662.894 688.9 663.667C689.174 664.436 689.313 665.379 689.317 666.498C689.317 667.549 689.198 668.486 688.96 669.311C688.727 670.132 688.391 670.831 687.952 671.406C687.514 671.982 686.984 672.42 686.364 672.722C685.745 673.02 685.052 673.169 684.288 673.169C683.463 673.169 682.734 673.01 682.102 672.692C681.471 672.37 680.961 671.933 680.575 671.382C680.193 670.827 679.961 670.203 679.881 669.511H682.459C682.559 669.961 682.77 670.312 683.092 670.561C683.414 670.807 683.813 670.929 684.288 670.929C685.093 670.929 685.704 670.579 686.123 669.879C686.542 669.175 686.753 668.211 686.757 666.987H686.672C686.487 667.349 686.238 667.661 685.924 667.923C685.61 668.181 685.25 668.38 684.843 668.521C684.441 668.661 684.012 668.732 683.557 668.732C682.829 668.732 682.179 668.561 681.607 668.219C681.036 667.877 680.585 667.406 680.255 666.806C679.925 666.206 679.76 665.522 679.76 664.754C679.756 663.924 679.947 663.186 680.334 662.538C680.72 661.89 681.259 661.383 681.951 661.017C682.648 660.646 683.457 660.463 684.378 660.467ZM684.396 662.52C683.99 662.52 683.628 662.616 683.31 662.81C682.996 663.003 682.746 663.262 682.561 663.588C682.38 663.914 682.292 664.279 682.296 664.681C682.296 665.088 682.384 665.454 682.561 665.78C682.742 666.102 682.988 666.359 683.298 666.553C683.612 666.742 683.97 666.836 684.372 666.836C684.674 666.836 684.954 666.78 685.211 666.667C685.469 666.555 685.692 666.4 685.882 666.202C686.075 666.001 686.226 665.77 686.334 665.508C686.443 665.247 686.497 664.969 686.497 664.675C686.493 664.285 686.401 663.926 686.22 663.6C686.038 663.275 685.789 663.013 685.471 662.816C685.153 662.618 684.795 662.52 684.396 662.52ZM691.285 673L696.41 662.858V662.773H690.439V660.636H699.114V662.804L693.983 673H691.285Z" fill="black"/>
<path d="M754.207 660.467C754.843 660.467 755.455 660.574 756.042 660.787C756.634 661.001 757.161 661.341 757.624 661.808C758.091 662.274 758.459 662.894 758.729 663.667C759.002 664.436 759.141 665.379 759.145 666.498C759.145 667.549 759.026 668.486 758.789 669.311C758.556 670.132 758.219 670.831 757.781 671.406C757.342 671.982 756.813 672.42 756.193 672.722C755.573 673.02 754.881 673.169 754.116 673.169C753.291 673.169 752.563 673.01 751.931 672.692C751.299 672.37 750.79 671.933 750.404 671.382C750.021 670.827 749.79 670.203 749.709 669.511H752.287C752.388 669.961 752.599 670.312 752.921 670.561C753.243 670.807 753.641 670.929 754.116 670.929C754.921 670.929 755.533 670.579 755.952 669.879C756.37 669.175 756.581 668.211 756.585 666.987H756.501C756.316 667.349 756.066 667.661 755.752 667.923C755.438 668.181 755.078 668.38 754.672 668.521C754.269 668.661 753.841 668.732 753.386 668.732C752.657 668.732 752.007 668.561 751.436 668.219C750.864 667.877 750.414 667.406 750.084 666.806C749.754 666.206 749.589 665.522 749.589 664.754C749.585 663.924 749.776 663.186 750.162 662.538C750.549 661.89 751.088 661.383 751.78 661.017C752.476 660.646 753.285 660.463 754.207 660.467ZM754.225 662.52C753.819 662.52 753.456 662.616 753.138 662.81C752.824 663.003 752.575 663.262 752.39 663.588C752.209 663.914 752.12 664.279 752.124 664.681C752.124 665.088 752.213 665.454 752.39 665.78C752.571 666.102 752.816 666.359 753.126 666.553C753.44 666.742 753.798 666.836 754.201 666.836C754.503 666.836 754.782 666.78 755.04 666.667C755.298 666.555 755.521 666.4 755.71 666.202C755.903 666.001 756.054 665.77 756.163 665.508C756.272 665.247 756.326 664.969 756.326 664.675C756.322 664.285 756.229 663.926 756.048 663.6C755.867 663.275 755.618 663.013 755.3 662.816C754.982 662.618 754.623 662.52 754.225 662.52ZM765.568 673.169C764.639 673.169 763.812 673.018 763.087 672.716C762.367 672.41 761.801 671.994 761.391 671.467C760.98 670.939 760.775 670.342 760.775 669.674C760.775 669.158 760.892 668.686 761.125 668.255C761.363 667.82 761.685 667.46 762.091 667.174C762.498 666.885 762.952 666.699 763.456 666.619V666.534C762.795 666.402 762.26 666.082 761.85 665.575C761.439 665.063 761.234 664.47 761.234 663.794C761.234 663.154 761.421 662.584 761.795 662.085C762.17 661.582 762.683 661.188 763.335 660.902C763.991 660.612 764.735 660.467 765.568 660.467C766.402 660.467 767.144 660.612 767.796 660.902C768.452 661.192 768.967 661.588 769.342 662.091C769.716 662.59 769.905 663.158 769.909 663.794C769.905 664.474 769.696 665.067 769.281 665.575C768.867 666.082 768.335 666.402 767.687 666.534V666.619C768.182 666.699 768.631 666.885 769.034 667.174C769.44 667.46 769.762 667.82 770 668.255C770.241 668.686 770.364 669.158 770.368 669.674C770.364 670.342 770.157 670.939 769.746 671.467C769.335 671.994 768.768 672.41 768.044 672.716C767.323 673.018 766.498 673.169 765.568 673.169ZM765.568 671.249C765.983 671.249 766.345 671.175 766.655 671.026C766.965 670.873 767.206 670.664 767.38 670.398C767.557 670.128 767.645 669.819 767.645 669.468C767.645 669.11 767.555 668.794 767.373 668.521C767.192 668.243 766.947 668.026 766.637 667.869C766.327 667.708 765.971 667.627 765.568 667.627C765.17 667.627 764.814 667.708 764.5 667.869C764.186 668.026 763.938 668.243 763.757 668.521C763.58 668.794 763.492 669.11 763.492 669.468C763.492 669.819 763.578 670.128 763.751 670.398C763.924 670.664 764.168 670.873 764.482 671.026C764.796 671.175 765.158 671.249 765.568 671.249ZM765.568 665.725C765.915 665.725 766.222 665.655 766.492 665.514C766.762 665.373 766.973 665.178 767.126 664.929C767.279 664.679 767.355 664.391 767.355 664.065C767.355 663.743 767.279 663.462 767.126 663.22C766.973 662.975 766.764 662.783 766.498 662.647C766.233 662.506 765.923 662.435 765.568 662.435C765.218 662.435 764.908 662.506 764.639 662.647C764.369 662.783 764.158 662.975 764.005 663.22C763.856 663.462 763.782 663.743 763.782 664.065C763.782 664.391 763.858 664.679 764.011 664.929C764.164 665.178 764.375 665.373 764.645 665.514C764.914 665.655 765.222 665.725 765.568 665.725Z" fill="black"/>
<path d="M835.207 660.467C835.843 660.467 836.455 660.574 837.042 660.787C837.634 661.001 838.161 661.341 838.624 661.808C839.091 662.274 839.459 662.894 839.729 663.667C840.002 664.436 840.141 665.379 840.145 666.498C840.145 667.549 840.026 668.486 839.789 669.311C839.556 670.132 839.219 670.831 838.781 671.406C838.342 671.982 837.813 672.42 837.193 672.722C836.573 673.02 835.881 673.169 835.116 673.169C834.291 673.169 833.563 673.01 832.931 672.692C832.299 672.37 831.79 671.933 831.404 671.382C831.021 670.827 830.79 670.203 830.709 669.511H833.287C833.388 669.961 833.599 670.312 833.921 670.561C834.243 670.807 834.641 670.929 835.116 670.929C835.921 670.929 836.533 670.579 836.952 669.879C837.37 669.175 837.581 668.211 837.585 666.987H837.501C837.316 667.349 837.066 667.661 836.752 667.923C836.438 668.181 836.078 668.38 835.672 668.521C835.269 668.661 834.841 668.732 834.386 668.732C833.657 668.732 833.007 668.561 832.436 668.219C831.864 667.877 831.414 667.406 831.084 666.806C830.754 666.206 830.589 665.522 830.589 664.754C830.585 663.924 830.776 663.186 831.162 662.538C831.549 661.89 832.088 661.383 832.78 661.017C833.476 660.646 834.285 660.463 835.207 660.467ZM835.225 662.52C834.819 662.52 834.456 662.616 834.138 662.81C833.824 663.003 833.575 663.262 833.39 663.588C833.209 663.914 833.12 664.279 833.124 664.681C833.124 665.088 833.213 665.454 833.39 665.78C833.571 666.102 833.816 666.359 834.126 666.553C834.44 666.742 834.798 666.836 835.201 666.836C835.503 666.836 835.782 666.78 836.04 666.667C836.298 666.555 836.521 666.4 836.71 666.202C836.903 666.001 837.054 665.77 837.163 665.508C837.272 665.247 837.326 664.969 837.326 664.675C837.322 664.285 837.229 663.926 837.048 663.6C836.867 663.275 836.618 663.013 836.3 662.816C835.982 662.618 835.623 662.52 835.225 662.52ZM846.43 660.467C847.065 660.467 847.677 660.574 848.265 660.787C848.856 661.001 849.384 661.341 849.847 661.808C850.313 662.274 850.682 662.894 850.951 663.667C851.225 664.436 851.364 665.379 851.368 666.498C851.368 667.549 851.249 668.486 851.012 669.311C850.778 670.132 850.442 670.831 850.003 671.406C849.565 671.982 849.036 672.42 848.416 672.722C847.796 673.02 847.104 673.169 846.339 673.169C845.514 673.169 844.786 673.01 844.154 672.692C843.522 672.37 843.013 671.933 842.626 671.382C842.244 670.827 842.013 670.203 841.932 669.511H844.51C844.61 669.961 844.822 670.312 845.144 670.561C845.466 670.807 845.864 670.929 846.339 670.929C847.144 670.929 847.756 670.579 848.174 669.879C848.593 669.175 848.804 668.211 848.808 666.987H848.724C848.539 667.349 848.289 667.661 847.975 667.923C847.661 668.181 847.301 668.38 846.894 668.521C846.492 668.661 846.063 668.732 845.609 668.732C844.88 668.732 844.23 668.561 843.659 668.219C843.087 667.877 842.636 667.406 842.306 666.806C841.976 666.206 841.811 665.522 841.811 664.754C841.807 663.924 841.998 663.186 842.385 662.538C842.771 661.89 843.311 661.383 844.003 661.017C844.699 660.646 845.508 660.463 846.43 660.467ZM846.448 662.52C846.041 662.52 845.679 662.616 845.361 662.81C845.047 663.003 844.798 663.262 844.612 663.588C844.431 663.914 844.343 664.279 844.347 664.681C844.347 665.088 844.435 665.454 844.612 665.78C844.794 666.102 845.039 666.359 845.349 666.553C845.663 666.742 846.021 666.836 846.424 666.836C846.725 666.836 847.005 666.78 847.263 666.667C847.52 666.555 847.744 666.4 847.933 666.202C848.126 666.001 848.277 665.77 848.386 665.508C848.494 665.247 848.549 664.969 848.549 664.675C848.545 664.285 848.452 663.926 848.271 663.6C848.09 663.275 847.84 663.013 847.522 662.816C847.204 662.618 846.846 662.52 846.448 662.52Z" fill="black"/>
<path d="M909.112 660.636V673H906.498V663.118H906.426L903.595 664.892V662.574L906.655 660.636H909.112ZM916.899 673.272C915.86 673.268 914.967 673.012 914.218 672.505C913.474 671.998 912.9 671.263 912.498 670.301C912.099 669.34 911.902 668.183 911.906 666.83C911.906 665.482 912.105 664.333 912.504 663.383C912.906 662.433 913.48 661.711 914.224 661.216C914.973 660.717 915.864 660.467 916.899 660.467C917.933 660.467 918.822 660.717 919.567 661.216C920.316 661.715 920.891 662.439 921.294 663.389C921.696 664.335 921.895 665.482 921.891 666.83C921.891 668.187 921.69 669.346 921.287 670.308C920.889 671.269 920.318 672.004 919.573 672.511C918.828 673.018 917.937 673.272 916.899 673.272ZM916.899 671.104C917.607 671.104 918.172 670.748 918.595 670.036C919.018 669.324 919.227 668.255 919.223 666.83C919.223 665.893 919.126 665.112 918.933 664.488C918.744 663.864 918.474 663.395 918.124 663.081C917.778 662.767 917.369 662.61 916.899 662.61C916.194 662.61 915.631 662.963 915.208 663.667C914.786 664.371 914.572 665.426 914.568 666.83C914.568 667.78 914.663 668.573 914.852 669.209C915.045 669.841 915.317 670.316 915.667 670.634C916.017 670.947 916.428 671.104 916.899 671.104ZM928.603 673.272C927.564 673.268 926.671 673.012 925.922 672.505C925.178 671.998 924.604 671.263 924.202 670.301C923.803 669.34 923.606 668.183 923.61 666.83C923.61 665.482 923.809 664.333 924.208 663.383C924.61 662.433 925.184 661.711 925.928 661.216C926.677 660.717 927.568 660.467 928.603 660.467C929.637 660.467 930.526 660.717 931.271 661.216C932.02 661.715 932.595 662.439 932.998 663.389C933.4 664.335 933.599 665.482 933.595 666.83C933.595 668.187 933.394 669.346 932.992 670.308C932.593 671.269 932.022 672.004 931.277 672.511C930.533 673.018 929.641 673.272 928.603 673.272ZM928.603 671.104C929.311 671.104 929.877 670.748 930.299 670.036C930.722 669.324 930.931 668.255 930.927 666.83C930.927 665.893 930.83 665.112 930.637 664.488C930.448 663.864 930.178 663.395 929.828 663.081C929.482 662.767 929.074 662.61 928.603 662.61C927.898 662.61 927.335 662.963 926.912 663.667C926.49 664.371 926.276 665.426 926.272 666.83C926.272 667.78 926.367 668.573 926.556 669.209C926.749 669.841 927.021 670.316 927.371 670.634C927.721 670.947 928.132 671.104 928.603 671.104Z" fill="black"/>
<path d="M987.112 660.636V673H984.498V663.118H984.426L981.595 664.892V662.574L984.655 660.636H987.112ZM994.899 673.272C993.86 673.268 992.967 673.012 992.218 672.505C991.474 671.998 990.9 671.263 990.498 670.301C990.099 669.34 989.902 668.183 989.906 666.83C989.906 665.482 990.105 664.333 990.504 663.383C990.906 662.433 991.48 661.711 992.224 661.216C992.973 660.717 993.864 660.467 994.899 660.467C995.933 660.467 996.822 660.717 997.567 661.216C998.316 661.715 998.891 662.439 999.294 663.389C999.696 664.335 999.895 665.482 999.891 666.83C999.891 668.187 999.69 669.346 999.287 670.308C998.889 671.269 998.318 672.004 997.573 672.511C996.828 673.018 995.937 673.272 994.899 673.272ZM994.899 671.104C995.607 671.104 996.172 670.748 996.595 670.036C997.018 669.324 997.227 668.255 997.223 666.83C997.223 665.893 997.126 665.112 996.933 664.488C996.744 663.864 996.474 663.395 996.124 663.081C995.778 662.767 995.369 662.61 994.899 662.61C994.194 662.61 993.631 662.963 993.208 663.667C992.786 664.371 992.572 665.426 992.568 666.83C992.568 667.78 992.663 668.573 992.852 669.209C993.045 669.841 993.317 670.316 993.667 670.634C994.017 670.947 994.428 671.104 994.899 671.104ZM1007.13 660.636V673H1004.52V663.118H1004.45L1001.62 664.892V662.574L1004.68 660.636H1007.13Z" fill="black"/>
<path d="M1063.11 659.636V672H1060.5V662.118H1060.43L1057.59 663.892V661.574L1060.66 659.636H1063.11ZM1070.9 672.272C1069.86 672.268 1068.97 672.012 1068.22 671.505C1067.47 670.998 1066.9 670.263 1066.5 669.301C1066.1 668.34 1065.9 667.183 1065.91 665.83C1065.91 664.482 1066.11 663.333 1066.5 662.383C1066.91 661.433 1067.48 660.711 1068.22 660.216C1068.97 659.717 1069.86 659.467 1070.9 659.467C1071.93 659.467 1072.82 659.717 1073.57 660.216C1074.32 660.715 1074.89 661.439 1075.29 662.389C1075.7 663.335 1075.9 664.482 1075.89 665.83C1075.89 667.187 1075.69 668.346 1075.29 669.308C1074.89 670.269 1074.32 671.004 1073.57 671.511C1072.83 672.018 1071.94 672.272 1070.9 672.272ZM1070.9 670.104C1071.61 670.104 1072.17 669.748 1072.59 669.036C1073.02 668.324 1073.23 667.255 1073.22 665.83C1073.22 664.893 1073.13 664.112 1072.93 663.488C1072.74 662.864 1072.47 662.395 1072.12 662.081C1071.78 661.767 1071.37 661.61 1070.9 661.61C1070.19 661.61 1069.63 661.963 1069.21 662.667C1068.79 663.371 1068.57 664.426 1068.57 665.83C1068.57 666.78 1068.66 667.573 1068.85 668.209C1069.05 668.841 1069.32 669.316 1069.67 669.634C1070.02 669.947 1070.43 670.104 1070.9 670.104ZM1077.76 672V670.116L1082.16 666.042C1082.53 665.679 1082.84 665.353 1083.1 665.064C1083.36 664.774 1083.55 664.49 1083.68 664.212C1083.82 663.931 1083.88 663.627 1083.88 663.301C1083.88 662.939 1083.8 662.627 1083.64 662.365C1083.47 662.099 1083.24 661.896 1082.96 661.755C1082.67 661.61 1082.35 661.538 1081.99 661.538C1081.61 661.538 1081.28 661.614 1081 661.767C1080.72 661.92 1080.5 662.14 1080.34 662.425C1080.19 662.711 1080.12 663.051 1080.12 663.446H1077.63C1077.63 662.637 1077.82 661.934 1078.18 661.339C1078.55 660.743 1079.06 660.282 1079.72 659.956C1080.38 659.63 1081.14 659.467 1082.01 659.467C1082.89 659.467 1083.66 659.624 1084.32 659.938C1084.98 660.248 1085.49 660.679 1085.86 661.23C1086.22 661.781 1086.41 662.413 1086.41 663.126C1086.41 663.593 1086.31 664.053 1086.13 664.508C1085.95 664.963 1085.62 665.468 1085.16 666.023C1084.69 666.575 1084.03 667.237 1083.18 668.01L1081.38 669.778V669.863H1086.57V672H1077.76Z" fill="black"/>
<path d="M1140.11 659.636V672H1137.5V662.118H1137.43L1134.59 663.892V661.574L1137.66 659.636H1140.11ZM1147.9 672.272C1146.86 672.268 1145.97 672.012 1145.22 671.505C1144.47 670.998 1143.9 670.263 1143.5 669.301C1143.1 668.34 1142.9 667.183 1142.91 665.83C1142.91 664.482 1143.11 663.333 1143.5 662.383C1143.91 661.433 1144.48 660.711 1145.22 660.216C1145.97 659.717 1146.86 659.467 1147.9 659.467C1148.93 659.467 1149.82 659.717 1150.57 660.216C1151.32 660.715 1151.89 661.439 1152.29 662.389C1152.7 663.335 1152.9 664.482 1152.89 665.83C1152.89 667.187 1152.69 668.346 1152.29 669.308C1151.89 670.269 1151.32 671.004 1150.57 671.511C1149.83 672.018 1148.94 672.272 1147.9 672.272ZM1147.9 670.104C1148.61 670.104 1149.17 669.748 1149.59 669.036C1150.02 668.324 1150.23 667.255 1150.22 665.83C1150.22 664.893 1150.13 664.112 1149.93 663.488C1149.74 662.864 1149.47 662.395 1149.12 662.081C1148.78 661.767 1148.37 661.61 1147.9 661.61C1147.19 661.61 1146.63 661.963 1146.21 662.667C1145.79 663.371 1145.57 664.426 1145.57 665.83C1145.57 666.78 1145.66 667.573 1145.85 668.209C1146.05 668.841 1146.32 669.316 1146.67 669.634C1147.02 669.947 1147.43 670.104 1147.9 670.104ZM1159.33 672.169C1158.42 672.169 1157.62 672.014 1156.92 671.704C1156.22 671.39 1155.66 670.96 1155.26 670.412C1154.85 669.861 1154.65 669.225 1154.63 668.505H1157.27C1157.28 668.806 1157.38 669.072 1157.56 669.301C1157.75 669.527 1157.99 669.702 1158.3 669.827C1158.6 669.951 1158.95 670.014 1159.33 670.014C1159.73 670.014 1160.08 669.943 1160.39 669.803C1160.69 669.662 1160.93 669.467 1161.11 669.217C1161.28 668.967 1161.37 668.68 1161.37 668.354C1161.37 668.024 1161.27 667.732 1161.09 667.478C1160.91 667.221 1160.65 667.02 1160.3 666.875C1159.96 666.73 1159.56 666.657 1159.1 666.657H1157.94V664.738H1159.1C1159.49 664.738 1159.84 664.669 1160.14 664.532C1160.45 664.395 1160.68 664.206 1160.85 663.965C1161.02 663.719 1161.11 663.434 1161.11 663.108C1161.11 662.798 1161.03 662.526 1160.88 662.293C1160.74 662.055 1160.53 661.87 1160.27 661.737C1160.01 661.604 1159.7 661.538 1159.35 661.538C1158.99 661.538 1158.67 661.602 1158.38 661.731C1158.08 661.856 1157.85 662.035 1157.67 662.268C1157.49 662.502 1157.4 662.776 1157.39 663.089H1154.88C1154.89 662.377 1155.1 661.749 1155.49 661.206C1155.89 660.663 1156.42 660.238 1157.09 659.932C1157.76 659.622 1158.52 659.467 1159.36 659.467C1160.21 659.467 1160.96 659.622 1161.6 659.932C1162.24 660.242 1162.74 660.661 1163.09 661.188C1163.45 661.711 1163.63 662.299 1163.62 662.951C1163.63 663.643 1163.41 664.22 1162.98 664.683C1162.55 665.146 1161.99 665.44 1161.29 665.565V665.661C1162.2 665.778 1162.89 666.094 1163.37 666.609C1163.85 667.12 1164.09 667.76 1164.08 668.529C1164.09 669.233 1163.88 669.859 1163.47 670.406C1163.07 670.954 1162.5 671.384 1161.79 671.698C1161.07 672.012 1160.25 672.169 1159.33 672.169Z" fill="black"/>
<path d="M82 1V564H5" stroke="black" stroke-width="2"/>
<path d="M81.7886 640.782H0" stroke="black" stroke-width="2"/>
<path d="M7 727.917H90.3909V1031H1757V1H90.3909" stroke="black" stroke-width="2"/>
<g filter="url(#filter0_d_1917_1652)">
<rect x="744.257" y="122.491" width="253.063" height="242.606" fill="#D9D9D9"/>
<rect x="744.757" y="122.991" width="252.063" height="241.606" stroke="black"/>
</g>
<path d="M1091.43 22.1028V391.24H1106.07V22.1028H1091.43Z" stroke="black" stroke-width="2"/>
<path d="M1091.43 391.24H677.332V406.926H1091.43V391.24Z" stroke="black" stroke-width="2"/>
<path d="M676.286 15.8286V391.24H660.6V15.8286H676.286Z" stroke="black" stroke-width="2"/>
<path d="M1070.52 249.023H999.411V244.84V196.737L1070.52 200.92V249.023Z" fill="#D9D9D9"/>
<path d="M999.411 244.84L1070.52 249.023M1070.52 249.023H999.411V196.737L1070.52 200.92V249.023Z" stroke="#BFBFBF" stroke-width="2"/>
<path d="M790.578 257V220.636H804.925C807.683 220.636 810.033 221.163 811.974 222.217C813.915 223.258 815.395 224.708 816.413 226.567C817.443 228.413 817.958 230.544 817.958 232.959C817.958 235.374 817.437 237.504 816.395 239.351C815.354 241.197 813.844 242.636 811.868 243.665C809.903 244.695 807.523 245.21 804.73 245.21H795.586V239.049H803.487C804.967 239.049 806.186 238.795 807.145 238.286C808.115 237.765 808.837 237.049 809.311 236.137C809.796 235.214 810.039 234.154 810.039 232.959C810.039 231.751 809.796 230.698 809.311 229.798C808.837 228.887 808.115 228.183 807.145 227.685C806.174 227.176 804.943 226.922 803.451 226.922H798.267V257H790.578ZM825.02 257H816.781L829.335 220.636H839.242L851.778 257H843.539L834.431 228.946H834.146L825.02 257ZM824.505 242.707H843.965V248.708H824.505V242.707ZM856.155 257V220.636H863.843V250.661H879.432V257H856.155ZM915.192 233.367H907.415C907.273 232.361 906.983 231.467 906.545 230.686C906.107 229.893 905.545 229.218 904.858 228.662C904.172 228.106 903.379 227.679 902.479 227.384C901.591 227.088 900.627 226.94 899.585 226.94C897.703 226.94 896.064 227.407 894.667 228.342C893.27 229.266 892.187 230.615 891.417 232.391C890.648 234.154 890.263 236.297 890.263 238.818C890.263 241.411 890.648 243.589 891.417 245.352C892.199 247.116 893.288 248.448 894.684 249.347C896.081 250.247 897.697 250.697 899.532 250.697C900.562 250.697 901.515 250.561 902.39 250.288C903.278 250.016 904.065 249.62 904.752 249.099C905.439 248.566 906.007 247.921 906.456 247.163C906.918 246.406 907.238 245.542 907.415 244.571L915.192 244.607C914.991 246.276 914.488 247.885 913.683 249.436C912.89 250.975 911.819 252.354 910.469 253.573C909.132 254.781 907.534 255.739 905.675 256.45C903.829 257.148 901.739 257.497 899.407 257.497C896.164 257.497 893.264 256.763 890.707 255.295C888.162 253.828 886.15 251.703 884.67 248.921C883.202 246.139 882.469 242.772 882.469 238.818C882.469 234.853 883.214 231.479 884.706 228.697C886.197 225.916 888.221 223.797 890.778 222.341C893.335 220.873 896.211 220.139 899.407 220.139C901.515 220.139 903.468 220.435 905.267 221.027C907.078 221.619 908.682 222.483 910.079 223.619C911.475 224.744 912.612 226.123 913.488 227.756C914.376 229.39 914.944 231.26 915.192 233.367ZM954.122 238.818C954.122 242.784 953.37 246.157 951.867 248.939C950.375 251.721 948.339 253.845 945.759 255.313C943.19 256.769 940.302 257.497 937.094 257.497C933.862 257.497 930.962 256.763 928.394 255.295C925.825 253.828 923.795 251.703 922.303 248.921C920.812 246.139 920.066 242.772 920.066 238.818C920.066 234.853 920.812 231.479 922.303 228.697C923.795 225.916 925.825 223.797 928.394 222.341C930.962 220.873 933.862 220.139 937.094 220.139C940.302 220.139 943.19 220.873 945.759 222.341C948.339 223.797 950.375 225.916 951.867 228.697C953.37 231.479 954.122 234.853 954.122 238.818ZM946.327 238.818C946.327 236.25 945.942 234.083 945.173 232.32C944.415 230.556 943.344 229.218 941.959 228.307C940.574 227.395 938.952 226.94 937.094 226.94C935.235 226.94 933.614 227.395 932.229 228.307C930.844 229.218 929.767 230.556 928.997 232.32C928.24 234.083 927.861 236.25 927.861 238.818C927.861 241.387 928.24 243.553 928.997 245.317C929.767 247.08 930.844 248.418 932.229 249.33C933.614 250.241 935.235 250.697 937.094 250.697C938.952 250.697 940.574 250.241 941.959 249.33C943.344 248.418 944.415 247.08 945.173 245.317C945.942 243.553 946.327 241.387 946.327 238.818Z" fill="black"/>
<path d="M263.967 504.433C263.712 502.274 262.675 500.598 260.857 499.404C259.038 498.211 256.808 497.615 254.166 497.615C252.234 497.615 250.544 497.927 249.095 498.552C247.661 499.177 246.538 500.036 245.729 501.13C244.933 502.224 244.536 503.467 244.536 504.859C244.536 506.024 244.813 507.025 245.367 507.863C245.935 508.687 246.659 509.376 247.54 509.93C248.42 510.47 249.344 510.917 250.31 511.272C251.276 511.613 252.163 511.89 252.973 512.103L257.405 513.296C258.541 513.595 259.805 514.007 261.197 514.532C262.604 515.058 263.946 515.775 265.224 516.684C266.517 517.579 267.582 518.73 268.42 520.136C269.259 521.542 269.678 523.268 269.678 525.313C269.678 527.671 269.06 529.802 267.824 531.705C266.602 533.609 264.813 535.122 262.455 536.244C260.111 537.366 257.263 537.927 253.911 537.927C250.786 537.927 248.08 537.423 245.793 536.414C243.52 535.406 241.73 534 240.423 532.196C239.131 530.392 238.399 528.296 238.229 525.91H243.683C243.825 527.558 244.379 528.921 245.345 530.001C246.325 531.066 247.561 531.862 249.053 532.387C250.558 532.899 252.178 533.154 253.911 533.154C255.928 533.154 257.739 532.828 259.344 532.174C260.949 531.507 262.22 530.583 263.158 529.404C264.095 528.211 264.564 526.819 264.564 525.228C264.564 523.779 264.159 522.6 263.349 521.691C262.54 520.782 261.474 520.044 260.153 519.475C258.832 518.907 257.405 518.41 255.871 517.984L250.501 516.45C247.092 515.47 244.393 514.071 242.405 512.252C240.416 510.434 239.422 508.055 239.422 505.115C239.422 502.671 240.082 500.541 241.403 498.723C242.739 496.89 244.528 495.47 246.773 494.461C249.031 493.438 251.553 492.927 254.337 492.927C257.149 492.927 259.649 493.431 261.837 494.44C264.024 495.434 265.757 496.798 267.036 498.531C268.328 500.264 269.01 502.231 269.081 504.433H263.967ZM278.365 537.16V493.524H304.701V498.211H283.65V512.955H303.337V517.643H283.65V532.473H305.042V537.16H278.365ZM311.838 498.211V493.524H344.566V498.211H330.844V537.16H325.56V498.211H311.838ZM387.723 515.342C387.723 519.944 386.892 523.921 385.23 527.274C383.568 530.626 381.288 533.211 378.39 535.029C375.493 536.848 372.183 537.757 368.461 537.757C364.74 537.757 361.43 536.848 358.532 535.029C355.635 533.211 353.355 530.626 351.693 527.274C350.031 523.921 349.2 519.944 349.2 515.342C349.2 510.74 350.031 506.762 351.693 503.41C353.355 500.058 355.635 497.473 358.532 495.654C361.43 493.836 364.74 492.927 368.461 492.927C372.183 492.927 375.493 493.836 378.39 495.654C381.288 497.473 383.568 500.058 385.23 503.41C386.892 506.762 387.723 510.74 387.723 515.342ZM382.609 515.342C382.609 511.563 381.977 508.375 380.713 505.775C379.463 503.176 377.765 501.208 375.62 499.873C373.49 498.538 371.103 497.87 368.461 497.87C365.819 497.87 363.426 498.538 361.281 499.873C359.15 501.208 357.453 503.176 356.189 505.775C354.939 508.375 354.314 511.563 354.314 515.342C354.314 519.12 354.939 522.309 356.189 524.909C357.453 527.508 359.15 529.475 361.281 530.811C363.426 532.146 365.819 532.813 368.461 532.813C371.103 532.813 373.49 532.146 375.62 530.811C377.765 529.475 379.463 527.508 380.713 524.909C381.977 522.309 382.609 519.12 382.609 515.342ZM396.608 537.16V493.524L411.352 493.524C414.761 493.524 417.559 494.106 419.747 495.271C421.934 496.421 423.554 498.005 424.605 500.022C425.656 502.039 426.181 504.333 426.181 506.904C426.181 509.475 425.656 511.755 424.605 513.744C423.554 515.732 421.941 517.295 419.768 518.431C417.595 519.553 414.818 520.115 411.437 520.115H399.505V515.342H411.267C413.596 515.342 415.471 515.001 416.892 514.319C418.326 513.637 419.363 512.671 420.003 511.421C420.656 510.157 420.983 508.652 420.983 506.904C420.983 505.157 420.656 503.63 420.003 502.323C419.349 501.017 418.305 500.008 416.87 499.298C415.436 498.573 413.539 498.211 411.181 498.211H401.892V537.16H396.608ZM417.147 517.558L427.886 537.16H421.75L411.181 517.558H417.147ZM454.903 537.16H445.017L460.081 493.524H471.97L487.012 537.16H477.126L466.196 503.495H465.855L454.903 537.16ZM454.285 520.008H477.637V527.21H454.285V520.008Z" fill="black"/>
<path d="M823.643 862.273C823.388 860.114 822.351 858.438 820.532 857.244C818.714 856.051 816.484 855.455 813.842 855.455C811.91 855.455 810.22 855.767 808.771 856.392C807.336 857.017 806.214 857.876 805.405 858.97C804.609 860.064 804.211 861.307 804.211 862.699C804.211 863.864 804.488 864.865 805.042 865.703C805.611 866.527 806.335 867.216 807.216 867.77C808.096 868.31 809.02 868.757 809.986 869.112C810.951 869.453 811.839 869.73 812.649 869.943L817.081 871.136C818.217 871.435 819.481 871.847 820.873 872.372C822.28 872.898 823.622 873.615 824.9 874.524C826.193 875.419 827.258 876.57 828.096 877.976C828.934 879.382 829.353 881.108 829.353 883.153C829.353 885.511 828.736 887.642 827.5 889.545C826.278 891.449 824.488 892.962 822.13 894.084C819.787 895.206 816.939 895.767 813.586 895.767C810.461 895.767 807.755 895.263 805.469 894.254C803.196 893.246 801.406 891.839 800.099 890.036C798.807 888.232 798.075 886.136 797.905 883.75H803.359C803.501 885.398 804.055 886.761 805.021 887.841C806.001 888.906 807.237 889.702 808.728 890.227C810.234 890.739 811.853 890.994 813.586 890.994C815.603 890.994 817.415 890.668 819.02 890.014C820.625 889.347 821.896 888.423 822.834 887.244C823.771 886.051 824.24 884.659 824.24 883.068C824.24 881.619 823.835 880.44 823.025 879.531C822.216 878.622 821.15 877.884 819.829 877.315C818.508 876.747 817.081 876.25 815.547 875.824L810.177 874.29C806.768 873.31 804.069 871.911 802.081 870.092C800.092 868.274 799.098 865.895 799.098 862.955C799.098 860.511 799.758 858.381 801.079 856.562C802.415 854.73 804.204 853.31 806.449 852.301C808.707 851.278 811.228 850.767 814.013 850.767C816.825 850.767 819.325 851.271 821.513 852.28C823.7 853.274 825.433 854.638 826.711 856.371C828.004 858.104 828.686 860.071 828.757 862.273H823.643ZM838.041 895V851.364H864.377V856.051H843.325V870.795H863.013V875.483H843.325V890.312H864.717V895H838.041ZM871.514 856.051V851.364H904.242V856.051H890.52V895H885.236V856.051H871.514ZM947.399 873.182C947.399 877.784 946.568 881.761 944.906 885.114C943.244 888.466 940.964 891.051 938.066 892.869C935.168 894.688 931.859 895.597 928.137 895.597C924.416 895.597 921.106 894.688 918.208 892.869C915.311 891.051 913.031 888.466 911.369 885.114C909.707 881.761 908.876 877.784 908.876 873.182C908.876 868.58 909.707 864.602 911.369 861.25C913.031 857.898 915.311 855.312 918.208 853.494C921.106 851.676 924.416 850.767 928.137 850.767C931.859 850.767 935.168 851.676 938.066 853.494C940.964 855.312 943.244 857.898 944.906 861.25C946.568 864.602 947.399 868.58 947.399 873.182ZM942.285 873.182C942.285 869.403 941.653 866.214 940.389 863.615C939.139 861.016 937.441 859.048 935.296 857.713C933.166 856.378 930.779 855.71 928.137 855.71C925.495 855.71 923.102 856.378 920.957 857.713C918.826 859.048 917.129 861.016 915.864 863.615C914.614 866.214 913.989 869.403 913.989 873.182C913.989 876.96 914.614 880.149 915.864 882.749C917.129 885.348 918.826 887.315 920.957 888.651C923.102 889.986 925.495 890.653 928.137 890.653C930.779 890.653 933.166 889.986 935.296 888.651C937.441 887.315 939.139 885.348 940.389 882.749C941.653 880.149 942.285 876.96 942.285 873.182ZM956.284 895V851.364H971.028C974.437 851.364 977.235 851.946 979.423 853.111C981.61 854.261 983.23 855.845 984.281 857.862C985.332 859.879 985.857 862.173 985.857 864.744C985.857 867.315 985.332 869.595 984.281 871.584C983.23 873.572 981.617 875.135 979.444 876.271C977.271 877.393 974.494 877.955 971.113 877.955H959.181V873.182H970.943C973.272 873.182 975.147 872.841 976.568 872.159C978.002 871.477 979.039 870.511 979.678 869.261C980.332 867.997 980.659 866.491 980.659 864.744C980.659 862.997 980.332 861.47 979.678 860.163C979.025 858.857 977.981 857.848 976.546 857.138C975.112 856.413 973.215 856.051 970.857 856.051H961.568V895H956.284ZM976.823 875.398L987.562 895H981.426L970.857 875.398H976.823ZM1007.06 895V851.364H1024.53C1027.74 851.364 1030.42 851.839 1032.56 852.791C1034.71 853.743 1036.32 855.064 1037.4 856.754C1038.48 858.43 1039.02 860.362 1039.02 862.55C1039.02 864.254 1038.68 865.753 1038 867.045C1037.31 868.324 1036.38 869.375 1035.18 870.199C1034 871.009 1032.65 871.584 1031.13 871.925V872.351C1032.8 872.422 1034.35 872.891 1035.8 873.757C1037.26 874.624 1038.45 875.838 1039.36 877.401C1040.27 878.949 1040.72 880.795 1040.72 882.94C1040.72 885.256 1040.15 887.322 1039 889.141C1037.86 890.945 1036.18 892.372 1033.95 893.423C1031.72 894.474 1028.97 895 1025.7 895H1007.06ZM1016.28 887.457H1023.8C1026.38 887.457 1028.25 886.967 1029.43 885.987C1030.61 884.993 1031.2 883.672 1031.2 882.024C1031.2 880.817 1030.91 879.751 1030.32 878.828C1029.74 877.905 1028.91 877.18 1027.83 876.655C1026.77 876.129 1025.5 875.866 1024.02 875.866H1016.28V887.457ZM1016.28 869.624H1023.12C1024.39 869.624 1025.51 869.403 1026.49 868.963C1027.48 868.509 1028.27 867.869 1028.83 867.045C1029.42 866.222 1029.71 865.234 1029.71 864.084C1029.71 862.507 1029.15 861.236 1028.02 860.27C1026.92 859.304 1025.34 858.821 1023.29 858.821H1016.28V869.624Z" fill="black"/>
<path d="M1379.01 503.273C1378.75 501.114 1377.72 499.438 1375.9 498.244C1374.08 497.051 1371.85 496.455 1369.21 496.455C1367.28 496.455 1365.59 496.767 1364.14 497.392C1362.7 498.017 1361.58 498.876 1360.77 499.97C1359.98 501.064 1359.58 502.307 1359.58 503.699C1359.58 504.864 1359.86 505.865 1360.41 506.703C1360.98 507.527 1361.7 508.216 1362.58 508.77C1363.46 509.31 1364.39 509.757 1365.35 510.112C1366.32 510.453 1367.21 510.73 1368.02 510.943L1372.45 512.136C1373.58 512.435 1374.85 512.847 1376.24 513.372C1377.65 513.898 1378.99 514.615 1380.27 515.524C1381.56 516.419 1382.63 517.57 1383.46 518.976C1384.3 520.382 1384.72 522.108 1384.72 524.153C1384.72 526.511 1384.1 528.642 1382.87 530.545C1381.65 532.449 1379.86 533.962 1377.5 535.084C1375.15 536.206 1372.31 536.767 1368.95 536.767C1365.83 536.767 1363.12 536.263 1360.84 535.254C1358.56 534.246 1356.77 532.839 1355.47 531.036C1354.17 529.232 1353.44 527.136 1353.27 524.75H1358.73C1358.87 526.398 1359.42 527.761 1360.39 528.841C1361.37 529.906 1362.6 530.702 1364.1 531.227C1365.6 531.739 1367.22 531.994 1368.95 531.994C1370.97 531.994 1372.78 531.668 1374.39 531.014C1375.99 530.347 1377.26 529.423 1378.2 528.244C1379.14 527.051 1379.61 525.659 1379.61 524.068C1379.61 522.619 1379.2 521.44 1378.39 520.531C1377.58 519.622 1376.52 518.884 1375.2 518.315C1373.88 517.747 1372.45 517.25 1370.91 516.824L1365.54 515.29C1362.14 514.31 1359.44 512.911 1357.45 511.092C1355.46 509.274 1354.46 506.895 1354.46 503.955C1354.46 501.511 1355.13 499.381 1356.45 497.562C1357.78 495.73 1359.57 494.31 1361.82 493.301C1364.07 492.278 1366.6 491.767 1369.38 491.767C1372.19 491.767 1374.69 492.271 1376.88 493.28C1379.07 494.274 1380.8 495.638 1382.08 497.371C1383.37 499.104 1384.05 501.071 1384.12 503.273H1379.01ZM1393.41 536V492.364H1419.74V497.051H1398.69V511.795H1418.38V516.483H1398.69V531.312H1420.08V536H1393.41ZM1426.88 497.051V492.364H1459.61V497.051H1445.89V536H1440.6V497.051H1426.88ZM1502.77 514.182C1502.77 518.784 1501.93 522.761 1500.27 526.114C1498.61 529.466 1496.33 532.051 1493.43 533.869C1490.54 535.688 1487.23 536.597 1483.5 536.597C1479.78 536.597 1476.47 535.688 1473.58 533.869C1470.68 532.051 1468.4 529.466 1466.74 526.114C1465.07 522.761 1464.24 518.784 1464.24 514.182C1464.24 509.58 1465.07 505.602 1466.74 502.25C1468.4 498.898 1470.68 496.312 1473.58 494.494C1476.47 492.676 1479.78 491.767 1483.5 491.767C1487.23 491.767 1490.54 492.676 1493.43 494.494C1496.33 496.312 1498.61 498.898 1500.27 502.25C1501.93 505.602 1502.77 509.58 1502.77 514.182ZM1497.65 514.182C1497.65 510.403 1497.02 507.214 1495.76 504.615C1494.51 502.016 1492.81 500.048 1490.66 498.713C1488.53 497.378 1486.15 496.71 1483.5 496.71C1480.86 496.71 1478.47 497.378 1476.32 498.713C1474.19 500.048 1472.5 502.016 1471.23 504.615C1469.98 507.214 1469.36 510.403 1469.36 514.182C1469.36 517.96 1469.98 521.149 1471.23 523.749C1472.5 526.348 1474.19 528.315 1476.32 529.651C1478.47 530.986 1480.86 531.653 1483.5 531.653C1486.15 531.653 1488.53 530.986 1490.66 529.651C1492.81 528.315 1494.51 526.348 1495.76 523.749C1497.02 521.149 1497.65 517.96 1497.65 514.182ZM1511.65 536V492.364H1526.39C1529.8 492.364 1532.6 492.946 1534.79 494.111C1536.98 495.261 1538.6 496.845 1539.65 498.862C1540.7 500.879 1541.22 503.173 1541.22 505.744C1541.22 508.315 1540.7 510.595 1539.65 512.584C1538.6 514.572 1536.98 516.135 1534.81 517.271C1532.64 518.393 1529.86 518.955 1526.48 518.955H1514.55V514.182H1526.31C1528.64 514.182 1530.51 513.841 1531.93 513.159C1533.37 512.477 1534.41 511.511 1535.05 510.261C1535.7 508.997 1536.03 507.491 1536.03 505.744C1536.03 503.997 1535.7 502.47 1535.05 501.163C1534.39 499.857 1533.35 498.848 1531.91 498.138C1530.48 497.413 1528.58 497.051 1526.22 497.051H1516.93V536H1511.65ZM1532.19 516.398L1542.93 536H1536.79L1526.22 516.398H1532.19ZM1600.93 507.641H1591.59C1591.42 506.433 1591.08 505.361 1590.55 504.423C1590.02 503.472 1589.35 502.662 1588.53 501.994C1587.7 501.327 1586.75 500.815 1585.67 500.46C1584.6 500.105 1583.45 499.928 1582.2 499.928C1579.94 499.928 1577.97 500.489 1576.3 501.611C1574.62 502.719 1573.32 504.338 1572.4 506.469C1571.47 508.585 1571.01 511.156 1571.01 514.182C1571.01 517.293 1571.47 519.906 1572.4 522.023C1573.33 524.139 1574.64 525.737 1576.32 526.817C1577.99 527.896 1579.93 528.436 1582.13 528.436C1583.37 528.436 1584.51 528.273 1585.56 527.946C1586.63 527.619 1587.57 527.143 1588.4 526.518C1589.22 525.879 1589.9 525.105 1590.44 524.196C1591 523.287 1591.38 522.25 1591.59 521.085L1600.93 521.128C1600.68 523.131 1600.08 525.062 1599.11 526.923C1598.16 528.77 1596.88 530.425 1595.26 531.888C1593.65 533.337 1591.74 534.487 1589.51 535.339C1587.29 536.178 1584.78 536.597 1581.98 536.597C1578.09 536.597 1574.61 535.716 1571.54 533.955C1568.49 532.193 1566.08 529.643 1564.3 526.305C1562.54 522.967 1561.66 518.926 1561.66 514.182C1561.66 509.423 1562.55 505.375 1564.34 502.037C1566.13 498.699 1568.56 496.156 1571.63 494.409C1574.7 492.648 1578.15 491.767 1581.98 491.767C1584.51 491.767 1586.86 492.122 1589.02 492.832C1591.19 493.543 1593.11 494.58 1594.79 495.943C1596.47 497.293 1597.83 498.947 1598.88 500.908C1599.95 502.868 1600.63 505.112 1600.93 507.641Z" fill="black"/>
<defs>
<filter id="filter0_d_1917_1652" x="744.257" y="122.491" width="257.063" height="246.606" filterUnits="userSpaceOnUse" color-interpolation-filters="sRGB">
<feFlood flood-opacity="0" result="BackgroundImageFix"/>
<feColorMatrix in="SourceAlpha" type="matrix" values="0 0 0 0 0 0 0 0 0 0 0 0 0 0 0 0 0 0 127 0" result="hardAlpha"/>
<feOffset dx="4" dy="4"/>
<feComposite in2="hardAlpha" operator="out"/>
<feColorMatrix type="matrix" values="0 0 0 0 0 0 0 0 0 0 0 0 0 0 0 0 0 0 0.25 0"/>
<feBlend mode="normal" in2="BackgroundImageFix" result="effect1_dropShadow_1917_1652"/>
<feBlend mode="normal" in="SourceGraphic" in2="effect1_dropShadow_1917_1652" result="shape"/>
</filter>
</defs>
</svg>
