<svg width="1527" height="1005" viewBox="0 0 1527 1005" fill="none" xmlns="http://www.w3.org/2000/svg">
<rect x="88" y="1" width="478" height="887" fill="#B3B470" fill-opacity="0.15"/>
<rect x="566" y="449" width="480" height="439" fill="#E00BCD" fill-opacity="0.15"/>
<rect x="1046" y="1" width="480" height="887" fill="#E0110B" fill-opacity="0.15"/>
<circle cx="603.914" cy="624.914" r="20.4143" fill="#D9D9D9" stroke="black"/>
<path d="M594.906 618.614V630.977H593.409V620.183H593.337L590.318 622.187V620.666L593.409 618.614H594.906ZM602.495 631.146C601.585 631.146 600.811 630.899 600.171 630.404C599.531 629.905 599.042 629.182 598.704 628.236C598.366 627.287 598.197 626.14 598.197 624.795C598.197 623.459 598.366 622.318 598.704 621.372C599.046 620.423 599.537 619.698 600.177 619.199C600.821 618.696 601.593 618.445 602.495 618.445C603.396 618.445 604.167 618.696 604.807 619.199C605.451 619.698 605.942 620.423 606.28 621.372C606.622 622.318 606.793 623.459 606.793 624.795C606.793 626.14 606.624 627.287 606.286 628.236C605.948 629.182 605.459 629.905 604.819 630.404C604.179 630.899 603.404 631.146 602.495 631.146ZM602.495 629.818C603.396 629.818 604.097 629.383 604.596 628.514C605.095 627.645 605.344 626.405 605.344 624.795C605.344 623.725 605.23 622.813 605 622.061C604.775 621.308 604.449 620.735 604.022 620.34C603.6 619.946 603.091 619.748 602.495 619.748C601.601 619.748 600.903 620.189 600.4 621.071C599.897 621.948 599.645 623.19 599.645 624.795C599.645 625.866 599.758 626.775 599.984 627.524C600.209 628.273 600.533 628.842 600.955 629.232C601.382 629.623 601.895 629.818 602.495 629.818ZM608.797 628.442V627.21L614.231 618.614H615.124V620.521H614.52L610.415 627.017V627.114H617.732V628.442H608.797ZM614.617 630.977V628.067V627.494V618.614H616.042V630.977H614.617Z" fill="black"/>
<circle cx="670.743" cy="624.914" r="20.4143" fill="#D9D9D9" stroke="black"/>
<path d="M662.809 618.614V630.977H661.312V620.183H661.24L658.221 622.187V620.666L661.312 618.614H662.809ZM670.398 631.146C669.488 631.146 668.713 630.899 668.073 630.404C667.434 629.905 666.945 629.182 666.607 628.236C666.268 627.287 666.099 626.14 666.099 624.795C666.099 623.459 666.268 622.318 666.607 621.372C666.949 620.423 667.44 619.698 668.08 619.199C668.723 618.696 669.496 618.445 670.398 618.445C671.299 618.445 672.07 618.696 672.71 619.199C673.354 619.698 673.845 620.423 674.183 621.372C674.525 622.318 674.696 623.459 674.696 624.795C674.696 626.14 674.527 627.287 674.189 628.236C673.851 629.182 673.362 629.905 672.722 630.404C672.082 630.899 671.307 631.146 670.398 631.146ZM670.398 629.818C671.299 629.818 672 629.383 672.499 628.514C672.998 627.645 673.247 626.405 673.247 624.795C673.247 623.725 673.132 622.813 672.903 622.061C672.678 621.308 672.352 620.735 671.925 620.34C671.502 619.946 670.993 619.748 670.398 619.748C669.504 619.748 668.806 620.189 668.303 621.071C667.8 621.948 667.548 623.19 667.548 624.795C667.548 625.866 667.661 626.775 667.886 627.524C668.112 628.273 668.436 628.842 668.858 629.232C669.285 629.623 669.798 629.818 670.398 629.818ZM680.854 631.146C680.145 631.146 679.507 631.005 678.94 630.724C678.372 630.442 677.918 630.056 677.576 629.565C677.234 629.074 677.046 628.514 677.014 627.886H678.463C678.519 628.446 678.773 628.909 679.224 629.275C679.678 629.637 680.222 629.818 680.854 629.818C681.361 629.818 681.812 629.699 682.206 629.462C682.604 629.224 682.916 628.898 683.142 628.484C683.371 628.065 683.486 627.592 683.486 627.065C683.486 626.526 683.367 626.045 683.13 625.622C682.896 625.196 682.574 624.86 682.164 624.614C681.753 624.369 681.284 624.244 680.757 624.24C680.379 624.236 679.99 624.294 679.592 624.415C679.194 624.532 678.866 624.683 678.608 624.868L677.207 624.699L677.956 618.614H684.379V619.942H679.212L678.777 623.588H678.849C679.103 623.387 679.421 623.22 679.803 623.087C680.186 622.954 680.584 622.888 680.999 622.888C681.755 622.888 682.429 623.069 683.021 623.431C683.617 623.789 684.083 624.28 684.421 624.904C684.764 625.528 684.935 626.24 684.935 627.041C684.935 627.83 684.758 628.534 684.403 629.154C684.053 629.77 683.57 630.257 682.955 630.615C682.339 630.969 681.638 631.146 680.854 631.146Z" fill="black"/>
<circle cx="737.572" cy="625.914" r="20.4143" fill="#D9D9D9" stroke="black"/>
<path d="M729.027 619.688V632.051H727.529V621.257H727.457L724.438 623.262V621.74L727.529 619.688H729.027ZM736.615 632.22C735.705 632.22 734.931 631.973 734.291 631.478C733.651 630.979 733.162 630.256 732.824 629.311C732.486 628.361 732.317 627.214 732.317 625.87C732.317 624.533 732.486 623.392 732.824 622.447C733.166 621.497 733.657 620.772 734.297 620.273C734.941 619.77 735.713 619.519 736.615 619.519C737.517 619.519 738.287 619.77 738.927 620.273C739.571 620.772 740.062 621.497 740.4 622.447C740.742 623.392 740.913 624.533 740.913 625.87C740.913 627.214 740.744 628.361 740.406 629.311C740.068 630.256 739.579 630.979 738.939 631.478C738.299 631.973 737.525 632.22 736.615 632.22ZM736.615 630.892C737.517 630.892 738.217 630.458 738.716 629.588C739.215 628.719 739.464 627.479 739.464 625.87C739.464 624.799 739.35 623.887 739.12 623.135C738.895 622.382 738.569 621.809 738.142 621.414C737.72 621.02 737.211 620.823 736.615 620.823C735.722 620.823 735.023 621.263 734.52 622.145C734.017 623.022 733.766 624.264 733.766 625.87C733.766 626.94 733.878 627.85 734.104 628.598C734.329 629.347 734.653 629.916 735.076 630.307C735.502 630.697 736.015 630.892 736.615 630.892ZM747.312 632.22C746.805 632.212 746.298 632.116 745.791 631.931C745.284 631.746 744.821 631.434 744.403 630.995C743.984 630.552 743.648 629.955 743.394 629.202C743.141 628.445 743.014 627.496 743.014 626.353C743.014 625.258 743.117 624.288 743.322 623.443C743.527 622.594 743.825 621.879 744.215 621.3C744.606 620.716 745.077 620.273 745.628 619.971C746.184 619.67 746.809 619.519 747.506 619.519C748.198 619.519 748.814 619.658 749.353 619.935C749.896 620.209 750.339 620.591 750.681 621.082C751.023 621.573 751.244 622.139 751.345 622.779H749.872C749.735 622.223 749.47 621.762 749.075 621.396C748.681 621.03 748.158 620.847 747.506 620.847C746.548 620.847 745.793 621.263 745.242 622.096C744.694 622.93 744.419 624.099 744.415 625.604H744.511C744.737 625.262 745.004 624.97 745.314 624.729C745.628 624.483 745.974 624.294 746.353 624.161C746.731 624.028 747.131 623.962 747.554 623.962C748.262 623.962 748.91 624.139 749.498 624.493C750.085 624.843 750.556 625.328 750.91 625.948C751.265 626.564 751.442 627.27 751.442 628.067C751.442 628.832 751.271 629.532 750.929 630.168C750.586 630.8 750.106 631.303 749.486 631.677C748.87 632.047 748.146 632.228 747.312 632.22ZM747.312 630.892C747.82 630.892 748.274 630.766 748.677 630.512C749.083 630.258 749.403 629.918 749.637 629.492C749.874 629.065 749.993 628.59 749.993 628.067C749.993 627.556 749.878 627.091 749.649 626.672C749.423 626.25 749.111 625.914 748.713 625.664C748.319 625.415 747.868 625.29 747.361 625.29C746.978 625.29 746.622 625.366 746.292 625.519C745.962 625.668 745.672 625.874 745.423 626.135C745.177 626.397 744.984 626.697 744.843 627.035C744.702 627.369 744.632 627.721 744.632 628.091C744.632 628.582 744.747 629.041 744.976 629.468C745.21 629.894 745.528 630.238 745.93 630.5C746.336 630.762 746.797 630.892 747.312 630.892Z" fill="black"/>
<circle cx="804.4" cy="625.914" r="20.4143" fill="#D9D9D9" stroke="black"/>
<path d="M795.929 619.688V632.051H794.432V621.257H794.36L791.341 623.262V621.74L794.432 619.688H795.929ZM803.518 632.22C802.608 632.22 801.834 631.973 801.194 631.478C800.554 630.979 800.065 630.256 799.727 629.311C799.389 628.361 799.22 627.214 799.22 625.87C799.22 624.533 799.389 623.392 799.727 622.447C800.069 621.497 800.56 620.772 801.2 620.273C801.844 619.77 802.616 619.519 803.518 619.519C804.419 619.519 805.19 619.77 805.83 620.273C806.474 620.772 806.965 621.497 807.303 622.447C807.645 623.392 807.816 624.533 807.816 625.87C807.816 627.214 807.647 628.361 807.309 629.311C806.971 630.256 806.482 630.979 805.842 631.478C805.202 631.973 804.427 632.22 803.518 632.22ZM803.518 630.892C804.419 630.892 805.12 630.458 805.619 629.588C806.118 628.719 806.367 627.479 806.367 625.87C806.367 624.799 806.253 623.887 806.023 623.135C805.798 622.382 805.472 621.809 805.045 621.414C804.623 621.02 804.113 620.823 803.518 620.823C802.624 620.823 801.926 621.263 801.423 622.145C800.92 623.022 800.668 624.264 800.668 625.87C800.668 626.94 800.781 627.85 801.006 628.598C801.232 629.347 801.556 629.916 801.978 630.307C802.405 630.697 802.918 630.892 803.518 630.892ZM810.164 632.051L815.694 621.112V621.016H809.319V619.688H817.24V621.088L811.734 632.051H810.164Z" fill="black"/>
<circle cx="871.229" cy="623.914" r="20.4143" fill="#D9D9D9" stroke="black"/>
<path d="M862.684 618.762V631.126H861.187V620.332H861.114L858.096 622.336V620.815L861.187 618.762H862.684ZM870.272 631.295C869.363 631.295 868.588 631.047 867.948 630.552C867.308 630.053 866.819 629.331 866.481 628.385C866.143 627.435 865.974 626.288 865.974 624.944C865.974 623.608 866.143 622.467 866.481 621.521C866.823 620.571 867.314 619.847 867.954 619.348C868.598 618.845 869.371 618.593 870.272 618.593C871.174 618.593 871.944 618.845 872.584 619.348C873.228 619.847 873.719 620.571 874.057 621.521C874.399 622.467 874.571 623.608 874.571 624.944C874.571 626.288 874.401 627.435 874.063 628.385C873.725 629.331 873.236 630.053 872.596 630.552C871.957 631.047 871.182 631.295 870.272 631.295ZM870.272 629.967C871.174 629.967 871.874 629.532 872.373 628.663C872.872 627.793 873.122 626.554 873.122 624.944C873.122 623.873 873.007 622.962 872.778 622.209C872.552 621.457 872.226 620.883 871.8 620.489C871.377 620.094 870.868 619.897 870.272 619.897C869.379 619.897 868.68 620.338 868.177 621.219C867.674 622.096 867.423 623.338 867.423 624.944C867.423 626.014 867.535 626.924 867.761 627.673C867.986 628.421 868.31 628.991 868.733 629.381C869.159 629.771 869.673 629.967 870.272 629.967ZM880.825 631.295C879.996 631.295 879.263 631.148 878.627 630.854C877.995 630.556 877.502 630.148 877.148 629.629C876.794 629.105 876.619 628.51 876.623 627.842C876.619 627.318 876.722 626.835 876.931 626.393C877.14 625.946 877.426 625.574 877.788 625.276C878.154 624.974 878.563 624.783 879.014 624.702V624.63C878.422 624.477 877.951 624.145 877.601 623.634C877.251 623.119 877.078 622.533 877.082 621.877C877.078 621.249 877.237 620.688 877.559 620.193C877.881 619.698 878.323 619.307 878.887 619.022C879.454 618.736 880.1 618.593 880.825 618.593C881.541 618.593 882.181 618.736 882.745 619.022C883.308 619.307 883.751 619.698 884.073 620.193C884.399 620.688 884.564 621.249 884.568 621.877C884.564 622.533 884.385 623.119 884.03 623.634C883.68 624.145 883.215 624.477 882.636 624.63V624.702C883.083 624.783 883.485 624.974 883.843 625.276C884.201 625.574 884.487 625.946 884.7 626.393C884.914 626.835 885.022 627.318 885.026 627.842C885.022 628.51 884.841 629.105 884.483 629.629C884.129 630.148 883.636 630.556 883.004 630.854C882.376 631.148 881.65 631.295 880.825 631.295ZM880.825 629.967C881.384 629.967 881.867 629.876 882.274 629.695C882.68 629.514 882.994 629.258 883.215 628.928C883.437 628.598 883.549 628.212 883.553 627.769C883.549 627.302 883.429 626.89 883.191 626.532C882.954 626.173 882.63 625.892 882.219 625.686C881.813 625.481 881.348 625.379 880.825 625.379C880.298 625.379 879.827 625.481 879.412 625.686C879.002 625.892 878.678 626.173 878.44 626.532C878.207 626.89 878.092 627.302 878.096 627.769C878.092 628.212 878.199 628.598 878.416 628.928C878.637 629.258 878.953 629.514 879.364 629.695C879.774 629.876 880.261 629.967 880.825 629.967ZM880.825 624.099C881.267 624.099 881.66 624.01 882.002 623.833C882.348 623.656 882.62 623.409 882.817 623.091C883.014 622.773 883.115 622.4 883.119 621.974C883.115 621.555 883.016 621.191 882.823 620.881C882.63 620.567 882.362 620.326 882.02 620.157C881.678 619.984 881.28 619.897 880.825 619.897C880.362 619.897 879.957 619.984 879.611 620.157C879.265 620.326 878.998 620.567 878.808 620.881C878.619 621.191 878.527 621.555 878.531 621.974C878.527 622.4 878.621 622.773 878.814 623.091C879.012 623.409 879.283 623.656 879.629 623.833C879.976 624.01 880.374 624.099 880.825 624.099Z" fill="black"/>
<circle cx="938.057" cy="623.914" r="20.4143" fill="#D9D9D9" stroke="black"/>
<path d="M928.587 617.762V630.126H927.089V619.332H927.017L923.999 621.336V619.815L927.089 617.762H928.587ZM936.175 630.295C935.265 630.295 934.491 630.047 933.851 629.552C933.211 629.053 932.722 628.331 932.384 627.385C932.046 626.435 931.877 625.288 931.877 623.944C931.877 622.608 932.046 621.467 932.384 620.521C932.726 619.571 933.217 618.847 933.857 618.348C934.501 617.845 935.274 617.593 936.175 617.593C937.077 617.593 937.847 617.845 938.487 618.348C939.131 618.847 939.622 619.571 939.96 620.521C940.302 621.467 940.473 622.608 940.473 623.944C940.473 625.288 940.304 626.435 939.966 627.385C939.628 628.331 939.139 629.053 938.499 629.552C937.859 630.047 937.085 630.295 936.175 630.295ZM936.175 628.967C937.077 628.967 937.777 628.532 938.276 627.663C938.775 626.793 939.024 625.554 939.024 623.944C939.024 622.873 938.91 621.962 938.68 621.209C938.455 620.457 938.129 619.883 937.702 619.489C937.28 619.094 936.771 618.897 936.175 618.897C935.282 618.897 934.583 619.338 934.08 620.219C933.577 621.096 933.326 622.338 933.326 623.944C933.326 625.014 933.438 625.924 933.664 626.673C933.889 627.421 934.213 627.991 934.636 628.381C935.062 628.771 935.575 628.967 936.175 628.967ZM946.703 617.593C947.211 617.597 947.718 617.694 948.225 617.883C948.732 618.072 949.195 618.386 949.613 618.825C950.032 619.259 950.368 619.853 950.621 620.605C950.875 621.358 951.002 622.302 951.002 623.437C951.002 624.536 950.897 625.512 950.688 626.365C950.483 627.214 950.185 627.93 949.794 628.514C949.408 629.097 948.937 629.54 948.382 629.842C947.83 630.144 947.207 630.295 946.51 630.295C945.818 630.295 945.2 630.158 944.657 629.884C944.118 629.607 943.675 629.222 943.329 628.731C942.987 628.236 942.767 627.663 942.671 627.011H944.144C944.277 627.578 944.54 628.047 944.935 628.417C945.333 628.784 945.858 628.967 946.51 628.967C947.464 628.967 948.217 628.55 948.768 627.717C949.323 626.884 949.601 625.707 949.601 624.185H949.505C949.279 624.523 949.012 624.815 948.702 625.061C948.392 625.306 948.048 625.495 947.669 625.628C947.291 625.761 946.889 625.827 946.462 625.827C945.754 625.827 945.104 625.652 944.512 625.302C943.924 624.948 943.454 624.463 943.099 623.847C942.749 623.228 942.574 622.519 942.574 621.722C942.574 620.966 942.743 620.273 943.081 619.646C943.423 619.014 943.902 618.511 944.518 618.136C945.138 617.762 945.866 617.581 946.703 617.593ZM946.703 618.921C946.196 618.921 945.74 619.048 945.333 619.302C944.931 619.551 944.611 619.889 944.373 620.316C944.14 620.738 944.023 621.207 944.023 621.722C944.023 622.237 944.136 622.706 944.361 623.129C944.591 623.547 944.902 623.882 945.297 624.131C945.695 624.377 946.148 624.499 946.655 624.499C947.038 624.499 947.394 624.425 947.724 624.276C948.054 624.123 948.341 623.916 948.587 623.654C948.837 623.389 949.032 623.089 949.173 622.755C949.313 622.417 949.384 622.064 949.384 621.698C949.384 621.215 949.267 620.762 949.034 620.34C948.804 619.917 948.486 619.575 948.08 619.314C947.677 619.052 947.219 618.921 946.703 618.921Z" fill="black"/>
<circle cx="1004.89" cy="623.914" r="20.4143" fill="#D9D9D9" stroke="black"/>
<path d="M997.341 617.836V630.2H995.844V619.406H995.771L992.753 621.41V619.889L995.844 617.836H997.341ZM1005.24 617.836V630.2H1003.75V619.406H1003.67L1000.66 621.41V619.889L1003.75 617.836H1005.24ZM1012.83 630.369C1011.92 630.369 1011.15 630.122 1010.51 629.627C1009.87 629.127 1009.38 628.405 1009.04 627.459C1008.7 626.509 1008.53 625.362 1008.53 624.018C1008.53 622.682 1008.7 621.541 1009.04 620.595C1009.38 619.645 1009.87 618.921 1010.51 618.422C1011.16 617.919 1011.93 617.667 1012.83 617.667C1013.73 617.667 1014.5 617.919 1015.14 618.422C1015.79 618.921 1016.28 619.645 1016.62 620.595C1016.96 621.541 1017.13 622.682 1017.13 624.018C1017.13 625.362 1016.96 626.509 1016.62 627.459C1016.28 628.405 1015.8 629.127 1015.16 629.627C1014.52 630.122 1013.74 630.369 1012.83 630.369ZM1012.83 629.041C1013.73 629.041 1014.43 628.606 1014.93 627.737C1015.43 626.868 1015.68 625.628 1015.68 624.018C1015.68 622.948 1015.57 622.036 1015.34 621.283C1015.11 620.531 1014.79 619.957 1014.36 619.563C1013.94 619.169 1013.43 618.971 1012.83 618.971C1011.94 618.971 1011.24 619.412 1010.74 620.293C1010.23 621.171 1009.98 622.412 1009.98 624.018C1009.98 625.089 1010.1 625.998 1010.32 626.747C1010.55 627.495 1010.87 628.065 1011.29 628.455C1011.72 628.846 1012.23 629.041 1012.83 629.041Z" fill="black"/>
<circle cx="603.914" cy="690.914" r="20.4143" fill="#D9D9D9" stroke="black"/>
<path d="M596.444 684.836V697.2H594.946V686.406H594.874L591.855 688.41V686.889L594.946 684.836H596.444ZM604.346 684.836V697.2H602.849V686.406H602.776L599.758 688.41V686.889L602.849 684.836H604.346ZM612.248 684.836V697.2H610.751V686.406H610.679L607.66 688.41V686.889L610.751 684.836H612.248Z" fill="black"/>
<circle cx="670.914" cy="690.914" r="20.4143" fill="#D9D9D9" stroke="black"/>
<path d="M663.369 684.911V697.274H661.872V686.48H661.8L658.781 688.485V686.963L661.872 684.911H663.369ZM671.272 684.911V697.274H669.775V686.48H669.702L666.684 688.485V686.963L669.775 684.911H671.272ZM674.827 697.274V696.188L678.908 691.72C679.387 691.197 679.782 690.742 680.092 690.356C680.402 689.966 680.631 689.599 680.78 689.257C680.933 688.911 681.009 688.549 681.009 688.171C681.009 687.736 680.905 687.36 680.695 687.042C680.49 686.724 680.208 686.478 679.85 686.305C679.492 686.132 679.09 686.046 678.643 686.046C678.168 686.046 677.753 686.144 677.399 686.341C677.049 686.535 676.777 686.806 676.584 687.156C676.395 687.507 676.3 687.917 676.3 688.388H674.876C674.876 687.663 675.043 687.028 675.377 686.48C675.711 685.933 676.166 685.506 676.741 685.2C677.321 684.895 677.971 684.742 678.691 684.742C679.416 684.742 680.057 684.895 680.617 685.2C681.176 685.506 681.615 685.919 681.933 686.438C682.251 686.957 682.41 687.535 682.41 688.171C682.41 688.625 682.327 689.07 682.162 689.505C682.001 689.935 681.72 690.416 681.317 690.948C680.919 691.475 680.365 692.119 679.657 692.879L676.88 695.85V695.946H682.627V697.274H674.827Z" fill="black"/>
<circle cx="737.914" cy="690.914" r="20.4143" fill="#D9D9D9" stroke="black"/>
<path d="M729.444 684.911V697.274H727.946V686.48H727.874L724.855 688.485V686.963L727.946 684.911H729.444ZM737.346 684.911V697.274H735.849V686.48H735.776L732.758 688.485V686.963L735.849 684.911H737.346ZM745.079 697.443C744.282 697.443 743.572 697.306 742.948 697.033C742.328 696.759 741.835 696.379 741.469 695.892C741.107 695.401 740.91 694.831 740.878 694.183H742.399C742.431 694.582 742.568 694.926 742.809 695.216C743.051 695.501 743.367 695.723 743.757 695.88C744.148 696.037 744.58 696.115 745.055 696.115C745.586 696.115 746.057 696.023 746.468 695.838C746.878 695.652 747.2 695.395 747.434 695.065C747.667 694.735 747.784 694.352 747.784 693.918C747.784 693.463 747.671 693.063 747.446 692.716C747.22 692.366 746.89 692.093 746.456 691.895C746.021 691.698 745.49 691.6 744.862 691.6H743.872V690.271H744.862C745.353 690.271 745.784 690.183 746.154 690.006C746.528 689.829 746.82 689.579 747.029 689.257C747.242 688.935 747.349 688.557 747.349 688.122C747.349 687.704 747.257 687.34 747.071 687.03C746.886 686.72 746.625 686.478 746.287 686.305C745.953 686.132 745.558 686.046 745.103 686.046C744.677 686.046 744.274 686.124 743.896 686.281C743.522 686.434 743.216 686.657 742.978 686.951C742.741 687.241 742.612 687.591 742.592 688.002H741.143C741.167 687.354 741.362 686.786 741.729 686.299C742.095 685.808 742.574 685.426 743.166 685.152C743.761 684.878 744.415 684.742 745.128 684.742C745.892 684.742 746.548 684.897 747.096 685.206C747.643 685.512 748.063 685.917 748.357 686.42C748.651 686.923 748.798 687.466 748.798 688.05C748.798 688.746 748.615 689.34 748.249 689.831C747.886 690.322 747.393 690.662 746.77 690.851V690.948C747.55 691.076 748.16 691.408 748.599 691.944C749.037 692.475 749.257 693.133 749.257 693.918C749.257 694.59 749.074 695.194 748.707 695.729C748.345 696.26 747.85 696.679 747.222 696.985C746.594 697.29 745.88 697.443 745.079 697.443Z" fill="black"/>
<circle cx="804.914" cy="690.914" r="20.4143" fill="#D9D9D9" stroke="black"/>
<path d="M797.369 684.985V697.349H795.872V686.555H795.8L792.781 688.559V687.037L795.872 684.985H797.369ZM805.272 684.985V697.349H803.775V686.555H803.702L800.684 688.559V687.037L803.775 684.985H805.272ZM808.538 694.813V693.582L813.971 684.985H814.864V686.893H814.261L810.156 693.388V693.485H817.472V694.813H808.538ZM814.357 697.349V694.439V693.865V684.985H815.782V697.349H814.357Z" fill="black"/>
<circle cx="871.914" cy="690.914" r="20.4143" fill="#D9D9D9" stroke="black"/>
<path d="M864.444 684.985V697.349H862.946V686.555H862.874L859.855 688.559V687.037L862.946 684.985H864.444ZM872.346 684.985V697.349H870.849V686.555H870.776L867.758 688.559V687.037L870.849 684.985H872.346ZM879.765 697.518C879.057 697.518 878.419 697.377 877.852 697.095C877.284 696.813 876.829 696.427 876.487 695.936C876.145 695.445 875.958 694.886 875.926 694.258H877.375C877.431 694.817 877.685 695.28 878.135 695.646C878.59 696.008 879.133 696.189 879.765 696.189C880.272 696.189 880.723 696.071 881.118 695.833C881.516 695.596 881.828 695.27 882.053 694.855C882.283 694.437 882.397 693.964 882.397 693.437C882.397 692.897 882.279 692.416 882.041 691.994C881.808 691.567 881.486 691.231 881.075 690.986C880.665 690.74 880.196 690.615 879.669 690.611C879.29 690.607 878.902 690.666 878.504 690.786C878.105 690.903 877.777 691.054 877.52 691.239L876.119 691.07L876.868 684.985H883.291V686.313H878.123L877.689 689.959H877.761C878.015 689.758 878.333 689.591 878.715 689.458C879.097 689.325 879.496 689.259 879.91 689.259C880.667 689.259 881.341 689.44 881.933 689.802C882.528 690.161 882.995 690.652 883.333 691.275C883.675 691.899 883.846 692.612 883.846 693.412C883.846 694.201 883.669 694.906 883.315 695.525C882.965 696.141 882.482 696.628 881.866 696.986C881.25 697.341 880.55 697.518 879.765 697.518Z" fill="black"/>
<circle cx="938.914" cy="690.914" r="20.4143" fill="#D9D9D9" stroke="black"/>
<path d="M932.444 685.059V697.423H930.946V686.629H930.874L927.855 688.633V687.112L930.946 685.059H932.444ZM940.346 685.059V697.423H938.849V686.629H938.776L935.758 688.633V687.112L938.849 685.059H940.346ZM948.007 697.592C947.5 697.584 946.993 697.487 946.485 697.302C945.978 697.117 945.516 696.805 945.097 696.366C944.678 695.924 944.342 695.326 944.089 694.573C943.835 693.817 943.708 692.867 943.708 691.724C943.708 690.629 943.811 689.659 944.016 688.814C944.222 687.965 944.519 687.251 944.91 686.671C945.3 686.088 945.771 685.645 946.322 685.343C946.878 685.041 947.504 684.89 948.2 684.89C948.892 684.89 949.508 685.029 950.047 685.307C950.591 685.58 951.033 685.963 951.375 686.454C951.717 686.945 951.939 687.51 952.039 688.15H950.566C950.43 687.595 950.164 687.134 949.77 686.768C949.375 686.401 948.852 686.218 948.2 686.218C947.242 686.218 946.487 686.635 945.936 687.468C945.389 688.301 945.113 689.47 945.109 690.975H945.206C945.431 690.633 945.699 690.342 946.009 690.1C946.322 689.855 946.669 689.665 947.047 689.533C947.425 689.4 947.826 689.333 948.248 689.333C948.957 689.333 949.605 689.51 950.192 689.865C950.78 690.215 951.251 690.7 951.605 691.32C951.959 691.935 952.136 692.642 952.136 693.438C952.136 694.203 951.965 694.903 951.623 695.539C951.281 696.171 950.8 696.674 950.18 697.049C949.564 697.419 948.84 697.6 948.007 697.592ZM948.007 696.264C948.514 696.264 948.969 696.137 949.371 695.883C949.778 695.63 950.098 695.29 950.331 694.863C950.568 694.437 950.687 693.962 950.687 693.438C950.687 692.927 950.572 692.463 950.343 692.044C950.118 691.621 949.806 691.285 949.407 691.036C949.013 690.786 948.562 690.661 948.055 690.661C947.673 690.661 947.317 690.738 946.987 690.891C946.657 691.04 946.367 691.245 946.117 691.507C945.872 691.768 945.679 692.068 945.538 692.406C945.397 692.74 945.326 693.092 945.326 693.463C945.326 693.954 945.441 694.412 945.67 694.839C945.904 695.266 946.222 695.61 946.624 695.871C947.031 696.133 947.492 696.264 948.007 696.264Z" fill="black"/>
<circle cx="1005.91" cy="691.914" r="20.4143" fill="#D9D9D9" stroke="black"/>
<path d="M999.221 686.133V698.497H997.723V687.703H997.651L994.633 689.707V688.186L997.723 686.133H999.221ZM1007.12 686.133V698.497H1005.63V687.703H1005.55L1002.53 689.707V688.186L1005.63 686.133H1007.12ZM1011.07 698.497L1016.59 687.558V687.462H1010.22V686.133H1018.14V687.534L1012.63 698.497H1011.07Z" fill="black"/>
<circle cx="603.914" cy="758.914" r="20.4143" fill="#D9D9D9" stroke="black"/>
<path d="M596.906 752.614V764.977H595.409V754.183H595.337L592.318 756.187V754.666L595.409 752.614H596.906ZM604.809 752.614V764.977H603.312V754.183H603.239L600.221 756.187V754.666L603.312 752.614H604.809ZM612.325 765.146C611.496 765.146 610.763 764.999 610.127 764.706C609.495 764.408 609.002 763.999 608.648 763.48C608.294 762.957 608.119 762.361 608.123 761.693C608.119 761.17 608.222 760.687 608.431 760.244C608.64 759.797 608.926 759.425 609.288 759.127C609.654 758.826 610.063 758.634 610.514 758.554V758.481C609.922 758.328 609.451 757.996 609.101 757.485C608.751 756.97 608.578 756.385 608.582 755.729C608.578 755.101 608.737 754.539 609.059 754.044C609.381 753.549 609.823 753.159 610.387 752.873C610.954 752.587 611.6 752.445 612.325 752.445C613.041 752.445 613.681 752.587 614.245 752.873C614.808 753.159 615.251 753.549 615.573 754.044C615.899 754.539 616.064 755.101 616.068 755.729C616.064 756.385 615.885 756.97 615.53 757.485C615.18 757.996 614.715 758.328 614.136 758.481V758.554C614.583 758.634 614.985 758.826 615.343 759.127C615.701 759.425 615.987 759.797 616.2 760.244C616.414 760.687 616.522 761.17 616.526 761.693C616.522 762.361 616.341 762.957 615.983 763.48C615.629 763.999 615.136 764.408 614.504 764.706C613.876 764.999 613.15 765.146 612.325 765.146ZM612.325 763.818C612.884 763.818 613.367 763.728 613.774 763.546C614.18 763.365 614.494 763.11 614.715 762.78C614.937 762.45 615.049 762.063 615.053 761.621C615.049 761.154 614.929 760.741 614.691 760.383C614.454 760.025 614.13 759.743 613.719 759.538C613.313 759.333 612.848 759.23 612.325 759.23C611.798 759.23 611.327 759.333 610.912 759.538C610.502 759.743 610.178 760.025 609.94 760.383C609.707 760.741 609.592 761.154 609.596 761.621C609.592 762.063 609.699 762.45 609.916 762.78C610.137 763.11 610.453 763.365 610.864 763.546C611.274 763.728 611.761 763.818 612.325 763.818ZM612.325 757.95C612.767 757.95 613.16 757.862 613.502 757.685C613.848 757.507 614.12 757.26 614.317 756.942C614.514 756.624 614.615 756.252 614.619 755.825C614.615 755.407 614.516 755.042 614.323 754.732C614.13 754.419 613.862 754.177 613.52 754.008C613.178 753.835 612.78 753.748 612.325 753.748C611.862 753.748 611.457 753.835 611.111 754.008C610.765 754.177 610.498 754.419 610.308 754.732C610.119 755.042 610.027 755.407 610.031 755.825C610.027 756.252 610.121 756.624 610.314 756.942C610.512 757.26 610.783 757.507 611.129 757.685C611.476 757.862 611.874 757.95 612.325 757.95Z" fill="black"/>
<circle cx="670.743" cy="758.914" r="20.4143" fill="#D9D9D9" stroke="black"/>
<path d="M662.809 752.614V764.977H661.312V754.183H661.24L658.221 756.187V754.666L661.312 752.614H662.809ZM670.712 752.614V764.977H669.214V754.183H669.142L666.124 756.187V754.666L669.214 752.614H670.712ZM678.203 752.445C678.711 752.449 679.218 752.545 679.725 752.734C680.232 752.923 680.695 753.237 681.113 753.676C681.532 754.111 681.868 754.704 682.121 755.457C682.375 756.21 682.502 757.153 682.502 758.288C682.502 759.387 682.397 760.363 682.188 761.216C681.983 762.065 681.685 762.782 681.294 763.365C680.908 763.949 680.437 764.392 679.882 764.693C679.33 764.995 678.707 765.146 678.01 765.146C677.318 765.146 676.7 765.009 676.157 764.736C675.618 764.458 675.175 764.074 674.829 763.583C674.487 763.088 674.267 762.514 674.171 761.862H675.644C675.777 762.43 676.04 762.898 676.435 763.269C676.833 763.635 677.358 763.818 678.01 763.818C678.964 763.818 679.717 763.402 680.268 762.568C680.823 761.735 681.101 760.558 681.101 759.037H681.005C680.779 759.375 680.512 759.667 680.202 759.912C679.892 760.158 679.548 760.347 679.169 760.48C678.791 760.612 678.389 760.679 677.962 760.679C677.254 760.679 676.604 760.504 676.012 760.154C675.424 759.799 674.954 759.315 674.599 758.699C674.249 758.079 674.074 757.371 674.074 756.574C674.074 755.817 674.243 755.125 674.581 754.497C674.923 753.865 675.402 753.362 676.018 752.988C676.638 752.614 677.366 752.432 678.203 752.445ZM678.203 753.773C677.696 753.773 677.24 753.899 676.833 754.153C676.431 754.402 676.111 754.741 675.873 755.167C675.64 755.59 675.523 756.059 675.523 756.574C675.523 757.089 675.636 757.558 675.861 757.98C676.091 758.399 676.402 758.733 676.797 758.982C677.195 759.228 677.648 759.351 678.155 759.351C678.538 759.351 678.894 759.276 679.224 759.127C679.554 758.974 679.841 758.767 680.087 758.506C680.337 758.24 680.532 757.94 680.673 757.606C680.813 757.268 680.884 756.916 680.884 756.55C680.884 756.067 680.767 755.614 680.534 755.191C680.304 754.769 679.986 754.427 679.58 754.165C679.177 753.903 678.719 753.773 678.203 753.773Z" fill="black"/>
<circle cx="737.572" cy="759.914" r="20.4143" fill="#D9D9D9" stroke="black"/>
<path d="M728.027 753.688V766.051H726.529V755.257H726.457L723.438 757.262V755.74L726.529 753.688H728.027ZM731.582 766.051V764.965L735.663 760.497C736.142 759.974 736.537 759.519 736.847 759.133C737.156 758.743 737.386 758.376 737.535 758.034C737.688 757.688 737.764 757.326 737.764 756.948C737.764 756.513 737.659 756.137 737.45 755.819C737.245 755.501 736.963 755.255 736.605 755.082C736.247 754.909 735.844 754.823 735.398 754.823C734.923 754.823 734.508 754.921 734.154 755.119C733.804 755.312 733.532 755.583 733.339 755.933C733.15 756.284 733.055 756.694 733.055 757.165H731.631C731.631 756.441 731.798 755.805 732.132 755.257C732.466 754.71 732.921 754.283 733.496 753.978C734.076 753.672 734.726 753.519 735.446 753.519C736.17 753.519 736.812 753.672 737.372 753.978C737.931 754.283 738.37 754.696 738.688 755.215C739.006 755.734 739.165 756.312 739.165 756.948C739.165 757.402 739.082 757.847 738.917 758.282C738.756 758.712 738.474 759.193 738.072 759.725C737.674 760.252 737.12 760.896 736.412 761.657L733.635 764.627V764.723H739.382V766.051H731.582ZM745.908 766.22C744.998 766.22 744.224 765.973 743.584 765.478C742.944 764.979 742.455 764.256 742.117 763.311C741.779 762.361 741.61 761.214 741.61 759.87C741.61 758.533 741.779 757.392 742.117 756.447C742.459 755.497 742.95 754.772 743.59 754.273C744.234 753.77 745.006 753.519 745.908 753.519C746.809 753.519 747.58 753.77 748.22 754.273C748.864 754.772 749.355 755.497 749.693 756.447C750.035 757.392 750.206 758.533 750.206 759.87C750.206 761.214 750.037 762.361 749.699 763.311C749.361 764.256 748.872 764.979 748.232 765.478C747.592 765.973 746.818 766.22 745.908 766.22ZM745.908 764.892C746.809 764.892 747.51 764.458 748.009 763.588C748.508 762.719 748.757 761.479 748.757 759.87C748.757 758.799 748.643 757.887 748.413 757.135C748.188 756.382 747.862 755.809 747.435 755.414C747.013 755.02 746.504 754.823 745.908 754.823C745.014 754.823 744.316 755.263 743.813 756.145C743.31 757.022 743.059 758.264 743.059 759.87C743.059 760.94 743.171 761.85 743.397 762.598C743.622 763.347 743.946 763.916 744.369 764.307C744.795 764.697 745.308 764.892 745.908 764.892Z" fill="black"/>
<circle cx="804.4" cy="759.914" r="20.4143" fill="#D9D9D9" stroke="black"/>
<path d="M796.929 753.688V766.051H795.432V755.257H795.36L792.341 757.262V755.74L795.432 753.688H796.929ZM800.485 766.051V764.965L804.566 760.497C805.045 759.974 805.439 759.519 805.749 759.133C806.059 758.743 806.289 758.376 806.438 758.034C806.591 757.688 806.667 757.326 806.667 756.948C806.667 756.513 806.562 756.137 806.353 755.819C806.148 755.501 805.866 755.255 805.508 755.082C805.15 754.909 804.747 754.823 804.3 754.823C803.826 754.823 803.411 754.921 803.057 755.119C802.707 755.312 802.435 755.583 802.242 755.933C802.053 756.284 801.958 756.694 801.958 757.165H800.533C800.533 756.441 800.7 755.805 801.035 755.257C801.369 754.71 801.823 754.283 802.399 753.978C802.978 753.672 803.628 753.519 804.349 753.519C805.073 753.519 805.715 753.672 806.275 753.978C806.834 754.283 807.273 754.696 807.591 755.215C807.909 755.734 808.068 756.312 808.068 756.948C808.068 757.402 807.985 757.847 807.82 758.282C807.659 758.712 807.377 759.193 806.975 759.725C806.576 760.252 806.023 760.896 805.315 761.657L802.538 764.627V764.723H808.285V766.051H800.485ZM815.125 753.688V766.051H813.628V755.257H813.555L810.537 757.262V755.74L813.628 753.688H815.125Z" fill="black"/>
<circle cx="871.229" cy="757.914" r="20.4143" fill="#D9D9D9" stroke="black"/>
<path d="M861.684 751.762V764.126H860.187V753.332H860.114L857.096 755.336V753.815L860.187 751.762H861.684ZM865.24 764.126V763.039L869.321 758.572C869.799 758.049 870.194 757.594 870.504 757.207C870.814 756.817 871.043 756.451 871.192 756.109C871.345 755.763 871.421 755.4 871.421 755.022C871.421 754.587 871.317 754.211 871.107 753.893C870.902 753.575 870.62 753.33 870.262 753.157C869.904 752.984 869.502 752.897 869.055 752.897C868.58 752.897 868.165 752.996 867.811 753.193C867.461 753.386 867.189 753.658 866.996 754.008C866.807 754.358 866.713 754.768 866.713 755.239H865.288C865.288 754.515 865.455 753.879 865.789 753.332C866.123 752.784 866.578 752.358 867.153 752.052C867.733 751.746 868.383 751.593 869.103 751.593C869.828 751.593 870.47 751.746 871.029 752.052C871.588 752.358 872.027 752.77 872.345 753.289C872.663 753.809 872.822 754.386 872.822 755.022C872.822 755.477 872.739 755.922 872.574 756.356C872.413 756.787 872.132 757.268 871.729 757.799C871.331 758.326 870.777 758.97 870.069 759.731L867.292 762.701V762.798H873.039V764.126H865.24ZM875.533 764.126V763.039L879.613 758.572C880.092 758.049 880.487 757.594 880.797 757.207C881.107 756.817 881.336 756.451 881.485 756.109C881.638 755.763 881.714 755.4 881.714 755.022C881.714 754.587 881.61 754.211 881.4 753.893C881.195 753.575 880.913 753.33 880.555 753.157C880.197 752.984 879.795 752.897 879.348 752.897C878.873 752.897 878.458 752.996 878.104 753.193C877.754 753.386 877.482 753.658 877.289 754.008C877.1 754.358 877.006 754.768 877.006 755.239H875.581C875.581 754.515 875.748 753.879 876.082 753.332C876.416 752.784 876.871 752.358 877.446 752.052C878.026 751.746 878.676 751.593 879.396 751.593C880.121 751.593 880.763 751.746 881.322 752.052C881.881 752.358 882.32 752.77 882.638 753.289C882.956 753.809 883.115 754.386 883.115 755.022C883.115 755.477 883.032 755.922 882.867 756.356C882.706 756.787 882.425 757.268 882.022 757.799C881.624 758.326 881.07 758.97 880.362 759.731L877.585 762.701V762.798H883.332V764.126H875.533Z" fill="black"/>
<circle cx="938.057" cy="757.914" r="20.4143" fill="#D9D9D9" stroke="black"/>
<path d="M928.587 751.762V764.126H927.089V753.332H927.017L923.999 755.336V753.815L927.089 751.762H928.587ZM932.142 764.126V763.039L936.223 758.572C936.702 758.049 937.097 757.594 937.407 757.207C937.716 756.817 937.946 756.451 938.095 756.109C938.248 755.763 938.324 755.4 938.324 755.022C938.324 754.587 938.22 754.211 938.01 753.893C937.805 753.575 937.523 753.33 937.165 753.157C936.807 752.984 936.404 752.897 935.958 752.897C935.483 752.897 935.068 752.996 934.714 753.193C934.364 753.386 934.092 753.658 933.899 754.008C933.71 754.358 933.615 754.768 933.615 755.239H932.191C932.191 754.515 932.358 753.879 932.692 753.332C933.026 752.784 933.481 752.358 934.056 752.052C934.636 751.746 935.286 751.593 936.006 751.593C936.73 751.593 937.372 751.746 937.932 752.052C938.491 752.358 938.93 752.77 939.248 753.289C939.566 753.809 939.725 754.386 939.725 755.022C939.725 755.477 939.642 755.922 939.477 756.356C939.316 756.787 939.035 757.268 938.632 757.799C938.234 758.326 937.68 758.97 936.972 759.731L934.195 762.701V762.798H939.942V764.126H932.142ZM946.613 764.295C945.816 764.295 945.106 764.158 944.482 763.884C943.862 763.611 943.369 763.23 943.003 762.743C942.641 762.252 942.443 761.683 942.411 761.035H943.933C943.965 761.433 944.102 761.777 944.343 762.067C944.584 762.353 944.9 762.574 945.291 762.731C945.681 762.888 946.114 762.967 946.589 762.967C947.12 762.967 947.591 762.874 948.001 762.689C948.412 762.504 948.734 762.246 948.967 761.916C949.201 761.586 949.317 761.204 949.317 760.769C949.317 760.314 949.205 759.914 948.979 759.568C948.754 759.218 948.424 758.944 947.989 758.747C947.555 758.55 947.023 758.451 946.396 758.451H945.406V757.123H946.396C946.887 757.123 947.317 757.034 947.687 756.857C948.062 756.68 948.354 756.431 948.563 756.109C948.776 755.787 948.883 755.408 948.883 754.974C948.883 754.555 948.79 754.191 948.605 753.881C948.42 753.571 948.158 753.33 947.82 753.157C947.486 752.984 947.092 752.897 946.637 752.897C946.21 752.897 945.808 752.976 945.43 753.132C945.055 753.285 944.75 753.509 944.512 753.803C944.275 754.092 944.146 754.442 944.126 754.853H942.677C942.701 754.205 942.896 753.638 943.262 753.151C943.629 752.66 944.108 752.277 944.699 752.004C945.295 751.73 945.949 751.593 946.661 751.593C947.426 751.593 948.082 751.748 948.629 752.058C949.177 752.364 949.597 752.768 949.891 753.271C950.185 753.774 950.332 754.318 950.332 754.901C950.332 755.598 950.149 756.191 949.782 756.682C949.42 757.173 948.927 757.513 948.303 757.702V757.799C949.084 757.928 949.694 758.26 950.132 758.795C950.571 759.326 950.79 759.984 950.79 760.769C950.79 761.441 950.607 762.045 950.241 762.58C949.879 763.112 949.384 763.53 948.756 763.836C948.128 764.142 947.414 764.295 946.613 764.295Z" fill="black"/>
<circle cx="1004.89" cy="757.914" r="20.4143" fill="#D9D9D9" stroke="black"/>
<path d="M996.341 751.836V764.2H994.844V753.406H994.771L991.753 755.41V753.889L994.844 751.836H996.341ZM999.897 764.2V763.113L1003.98 758.646C1004.46 758.123 1004.85 757.668 1005.16 757.282C1005.47 756.891 1005.7 756.525 1005.85 756.183C1006 755.837 1006.08 755.475 1006.08 755.096C1006.08 754.662 1005.97 754.285 1005.76 753.967C1005.56 753.649 1005.28 753.404 1004.92 753.231C1004.56 753.058 1004.16 752.971 1003.71 752.971C1003.24 752.971 1002.82 753.07 1002.47 753.267C1002.12 753.46 1001.85 753.732 1001.65 754.082C1001.46 754.432 1001.37 754.843 1001.37 755.314H999.945C999.945 754.589 1000.11 753.953 1000.45 753.406C1000.78 752.859 1001.23 752.432 1001.81 752.126C1002.39 751.82 1003.04 751.667 1003.76 751.667C1004.48 751.667 1005.13 751.82 1005.69 752.126C1006.25 752.432 1006.68 752.845 1007 753.364C1007.32 753.883 1007.48 754.46 1007.48 755.096C1007.48 755.551 1007.4 755.996 1007.23 756.43C1007.07 756.861 1006.79 757.342 1006.39 757.873C1005.99 758.401 1005.43 759.044 1004.73 759.805L1001.95 762.775V762.872H1007.7V764.2H999.897ZM1009.63 761.665V760.433L1015.07 751.836H1015.96V753.744H1015.36L1011.25 760.24V760.336H1018.57V761.665H1009.63ZM1015.45 764.2V761.29V760.717V751.836H1016.88V764.2H1015.45Z" fill="black"/>
<circle cx="603.914" cy="824.914" r="20.4143" fill="#D9D9D9" stroke="black"/>
<path d="M595.444 819.836V832.2H593.946V821.406H593.874L590.855 823.41V821.889L593.946 819.836H595.444ZM598.999 832.2V831.113L603.08 826.646C603.559 826.123 603.954 825.668 604.264 825.282C604.573 824.891 604.803 824.525 604.952 824.183C605.105 823.837 605.181 823.475 605.181 823.096C605.181 822.662 605.076 822.285 604.867 821.967C604.662 821.649 604.38 821.404 604.022 821.231C603.664 821.058 603.261 820.971 602.815 820.971C602.34 820.971 601.925 821.07 601.571 821.267C601.221 821.46 600.949 821.732 600.756 822.082C600.567 822.432 600.472 822.843 600.472 823.314H599.048C599.048 822.589 599.215 821.953 599.549 821.406C599.883 820.859 600.337 820.432 600.913 820.126C601.493 819.82 602.143 819.667 602.863 819.667C603.587 819.667 604.229 819.82 604.789 820.126C605.348 820.432 605.787 820.845 606.105 821.364C606.423 821.883 606.582 822.46 606.582 823.096C606.582 823.551 606.499 823.996 606.334 824.43C606.173 824.861 605.891 825.342 605.489 825.873C605.091 826.401 604.537 827.044 603.829 827.805L601.052 830.775V830.872H606.799V832.2H598.999ZM613.156 832.369C612.448 832.369 611.81 832.228 611.242 831.946C610.675 831.665 610.22 831.278 609.878 830.787C609.536 830.296 609.349 829.737 609.316 829.109H610.765C610.822 829.669 611.075 830.131 611.526 830.498C611.981 830.86 612.524 831.041 613.156 831.041C613.663 831.041 614.114 830.922 614.508 830.685C614.907 830.447 615.219 830.121 615.444 829.707C615.673 829.288 615.788 828.815 615.788 828.288C615.788 827.749 615.669 827.268 615.432 826.845C615.198 826.419 614.876 826.083 614.466 825.837C614.055 825.592 613.587 825.467 613.059 825.463C612.681 825.459 612.293 825.517 611.894 825.638C611.496 825.755 611.168 825.906 610.91 826.091L609.51 825.922L610.258 819.836H616.681V821.165H611.514L611.079 824.811H611.152C611.405 824.61 611.723 824.443 612.105 824.31C612.488 824.177 612.886 824.111 613.301 824.111C614.057 824.111 614.732 824.292 615.323 824.654C615.919 825.012 616.386 825.503 616.724 826.127C617.066 826.751 617.237 827.463 617.237 828.264C617.237 829.053 617.06 829.757 616.706 830.377C616.355 830.993 615.873 831.48 615.257 831.838C614.641 832.192 613.941 832.369 613.156 832.369Z" fill="black"/>
<circle cx="670.914" cy="824.914" r="20.4143" fill="#D9D9D9" stroke="black"/>
<path d="M661.369 818.911V831.274H659.872V820.48H659.8L656.781 822.485V820.963L659.872 818.911H661.369ZM664.925 831.274V830.188L669.006 825.72C669.485 825.197 669.879 824.742 670.189 824.356C670.499 823.966 670.729 823.599 670.878 823.257C671.03 822.911 671.107 822.549 671.107 822.171C671.107 821.736 671.002 821.36 670.793 821.042C670.588 820.724 670.306 820.478 669.948 820.305C669.59 820.132 669.187 820.046 668.74 820.046C668.266 820.046 667.851 820.144 667.497 820.341C667.147 820.535 666.875 820.806 666.682 821.156C666.493 821.507 666.398 821.917 666.398 822.388H664.973C664.973 821.663 665.14 821.028 665.474 820.48C665.808 819.933 666.263 819.506 666.839 819.2C667.418 818.895 668.068 818.742 668.789 818.742C669.513 818.742 670.155 818.895 670.715 819.2C671.274 819.506 671.713 819.919 672.031 820.438C672.349 820.957 672.507 821.535 672.507 822.171C672.507 822.625 672.425 823.07 672.26 823.505C672.099 823.935 671.817 824.416 671.415 824.948C671.016 825.475 670.463 826.119 669.755 826.879L666.978 829.85V829.946H672.725V831.274H664.925ZM679.323 831.443C678.816 831.435 678.309 831.339 677.802 831.154C677.295 830.968 676.832 830.657 676.413 830.218C675.995 829.775 675.659 829.177 675.405 828.425C675.152 827.668 675.025 826.718 675.025 825.575C675.025 824.481 675.128 823.511 675.333 822.666C675.538 821.816 675.836 821.102 676.226 820.523C676.617 819.939 677.087 819.496 677.639 819.194C678.194 818.893 678.82 818.742 679.516 818.742C680.209 818.742 680.824 818.88 681.364 819.158C681.907 819.432 682.35 819.814 682.692 820.305C683.034 820.796 683.255 821.362 683.356 822.002H681.883C681.746 821.446 681.48 820.985 681.086 820.619C680.692 820.253 680.168 820.07 679.516 820.07C678.558 820.07 677.804 820.486 677.253 821.319C676.705 822.152 676.429 823.322 676.425 824.827H676.522C676.747 824.485 677.015 824.193 677.325 823.951C677.639 823.706 677.985 823.517 678.363 823.384C678.742 823.251 679.142 823.185 679.565 823.185C680.273 823.185 680.921 823.362 681.509 823.716C682.096 824.066 682.567 824.551 682.921 825.171C683.275 825.787 683.452 826.493 683.452 827.29C683.452 828.055 683.281 828.755 682.939 829.391C682.597 830.023 682.116 830.526 681.496 830.9C680.881 831.27 680.156 831.451 679.323 831.443ZM679.323 830.115C679.83 830.115 680.285 829.988 680.688 829.735C681.094 829.481 681.414 829.141 681.647 828.715C681.885 828.288 682.004 827.813 682.004 827.29C682.004 826.779 681.889 826.314 681.659 825.895C681.434 825.473 681.122 825.137 680.724 824.887C680.329 824.638 679.879 824.513 679.371 824.513C678.989 824.513 678.633 824.589 678.303 824.742C677.973 824.891 677.683 825.096 677.434 825.358C677.188 825.62 676.995 825.92 676.854 826.258C676.713 826.592 676.643 826.944 676.643 827.314C676.643 827.805 676.757 828.264 676.987 828.69C677.22 829.117 677.538 829.461 677.941 829.723C678.347 829.984 678.808 830.115 679.323 830.115Z" fill="black"/>
<circle cx="737.914" cy="824.914" r="20.4143" fill="#D9D9D9" stroke="black"/>
<path d="M729.444 818.911V831.274H727.946V820.48H727.874L724.855 822.485V820.963L727.946 818.911H729.444ZM732.999 831.274V830.188L737.08 825.72C737.559 825.197 737.954 824.742 738.264 824.356C738.573 823.966 738.803 823.599 738.952 823.257C739.105 822.911 739.181 822.549 739.181 822.171C739.181 821.736 739.076 821.36 738.867 821.042C738.662 820.724 738.38 820.478 738.022 820.305C737.664 820.132 737.261 820.046 736.815 820.046C736.34 820.046 735.925 820.144 735.571 820.341C735.221 820.535 734.949 820.806 734.756 821.156C734.567 821.507 734.472 821.917 734.472 822.388H733.048C733.048 821.663 733.215 821.028 733.549 820.48C733.883 819.933 734.337 819.506 734.913 819.2C735.493 818.895 736.143 818.742 736.863 818.742C737.587 818.742 738.229 818.895 738.789 819.2C739.348 819.506 739.787 819.919 740.105 820.438C740.423 820.957 740.582 821.535 740.582 822.171C740.582 822.625 740.499 823.07 740.334 823.505C740.173 823.935 739.891 824.416 739.489 824.948C739.091 825.475 738.537 826.119 737.829 826.879L735.052 829.85V829.946H740.799V831.274H732.999ZM743.679 831.274L749.208 820.335V820.239H742.833V818.911H750.754V820.311L745.248 831.274H743.679Z" fill="black"/>
<circle cx="804.914" cy="824.914" r="20.4143" fill="#D9D9D9" stroke="black"/>
<path d="M796.369 818.985V831.349H794.872V820.555H794.8L791.781 822.559V821.037L794.872 818.985H796.369ZM799.925 831.349V830.262L804.006 825.795C804.485 825.271 804.879 824.817 805.189 824.43C805.499 824.04 805.729 823.674 805.878 823.332C806.03 822.985 806.107 822.623 806.107 822.245C806.107 821.81 806.002 821.434 805.793 821.116C805.588 820.798 805.306 820.553 804.948 820.379C804.59 820.206 804.187 820.12 803.74 820.12C803.266 820.12 802.851 820.218 802.497 820.416C802.147 820.609 801.875 820.881 801.682 821.231C801.493 821.581 801.398 821.991 801.398 822.462H799.973C799.973 821.738 800.14 821.102 800.474 820.555C800.808 820.007 801.263 819.581 801.839 819.275C802.418 818.969 803.068 818.816 803.789 818.816C804.513 818.816 805.155 818.969 805.715 819.275C806.274 819.581 806.713 819.993 807.031 820.512C807.349 821.031 807.507 821.609 807.507 822.245C807.507 822.7 807.425 823.144 807.26 823.579C807.099 824.01 806.817 824.491 806.415 825.022C806.016 825.549 805.463 826.193 804.755 826.954L801.978 829.924V830.02H807.725V831.349H799.925ZM814.178 831.518C813.349 831.518 812.617 831.371 811.981 831.077C811.349 830.779 810.856 830.371 810.502 829.851C810.148 829.328 809.973 828.733 809.977 828.064C809.973 827.541 810.075 827.058 810.284 826.616C810.494 826.169 810.779 825.797 811.142 825.499C811.508 825.197 811.916 825.006 812.367 824.925V824.853C811.776 824.7 811.305 824.368 810.955 823.857C810.604 823.342 810.431 822.756 810.435 822.1C810.431 821.472 810.59 820.911 810.912 820.416C811.234 819.921 811.677 819.53 812.24 819.245C812.808 818.959 813.454 818.816 814.178 818.816C814.895 818.816 815.535 818.959 816.098 819.245C816.661 819.53 817.104 819.921 817.426 820.416C817.752 820.911 817.917 821.472 817.921 822.1C817.917 822.756 817.738 823.342 817.384 823.857C817.034 824.368 816.569 824.7 815.989 824.853V824.925C816.436 825.006 816.839 825.197 817.197 825.499C817.555 825.797 817.841 826.169 818.054 826.616C818.267 827.058 818.376 827.541 818.38 828.064C818.376 828.733 818.195 829.328 817.837 829.851C817.483 830.371 816.989 830.779 816.358 831.077C815.73 831.371 815.003 831.518 814.178 831.518ZM814.178 830.189C814.738 830.189 815.221 830.099 815.627 829.918C816.034 829.737 816.348 829.481 816.569 829.151C816.79 828.821 816.903 828.435 816.907 827.992C816.903 827.525 816.782 827.113 816.545 826.754C816.307 826.396 815.983 826.115 815.573 825.909C815.166 825.704 814.701 825.601 814.178 825.601C813.651 825.601 813.18 825.704 812.766 825.909C812.355 826.115 812.031 826.396 811.794 826.754C811.56 827.113 811.446 827.525 811.45 827.992C811.446 828.435 811.552 828.821 811.77 829.151C811.991 829.481 812.307 829.737 812.717 829.918C813.128 830.099 813.615 830.189 814.178 830.189ZM814.178 824.322C814.621 824.322 815.013 824.233 815.355 824.056C815.702 823.879 815.973 823.631 816.17 823.313C816.368 822.995 816.468 822.623 816.472 822.197C816.468 821.778 816.37 821.414 816.177 821.104C815.983 820.79 815.716 820.549 815.374 820.379C815.032 820.206 814.633 820.12 814.178 820.12C813.715 820.12 813.311 820.206 812.965 820.379C812.619 820.549 812.351 820.79 812.162 821.104C811.973 821.414 811.88 821.778 811.884 822.197C811.88 822.623 811.975 822.995 812.168 823.313C812.365 823.631 812.637 823.879 812.983 824.056C813.329 824.233 813.728 824.322 814.178 824.322Z" fill="black"/>
<circle cx="871.914" cy="824.914" r="20.4143" fill="#D9D9D9" stroke="black"/>
<path d="M864.444 818.985V831.349H862.946V820.555H862.874L859.855 822.559V821.037L862.946 818.985H864.444ZM867.999 831.349V830.262L872.08 825.795C872.559 825.271 872.954 824.817 873.264 824.43C873.573 824.04 873.803 823.674 873.952 823.332C874.105 822.985 874.181 822.623 874.181 822.245C874.181 821.81 874.076 821.434 873.867 821.116C873.662 820.798 873.38 820.553 873.022 820.379C872.664 820.206 872.261 820.12 871.815 820.12C871.34 820.12 870.925 820.218 870.571 820.416C870.221 820.609 869.949 820.881 869.756 821.231C869.567 821.581 869.472 821.991 869.472 822.462H868.048C868.048 821.738 868.215 821.102 868.549 820.555C868.883 820.007 869.337 819.581 869.913 819.275C870.493 818.969 871.143 818.816 871.863 818.816C872.587 818.816 873.229 818.969 873.789 819.275C874.348 819.581 874.787 819.993 875.105 820.512C875.423 821.031 875.582 821.609 875.582 822.245C875.582 822.7 875.499 823.144 875.334 823.579C875.173 824.01 874.891 824.491 874.489 825.022C874.091 825.549 873.537 826.193 872.829 826.954L870.052 829.924V830.02H875.799V831.349H867.999ZM882.228 818.816C882.735 818.82 883.243 818.917 883.75 819.106C884.257 819.295 884.72 819.609 885.138 820.047C885.557 820.482 885.893 821.076 886.146 821.828C886.4 822.581 886.527 823.525 886.527 824.66C886.527 825.758 886.422 826.734 886.213 827.588C886.007 828.437 885.71 829.153 885.319 829.737C884.933 830.32 884.462 830.763 883.907 831.065C883.355 831.367 882.731 831.518 882.035 831.518C881.343 831.518 880.725 831.381 880.182 831.107C879.643 830.829 879.2 830.445 878.854 829.954C878.512 829.459 878.292 828.886 878.196 828.234H879.669C879.802 828.801 880.065 829.27 880.46 829.64C880.858 830.006 881.383 830.189 882.035 830.189C882.989 830.189 883.742 829.773 884.293 828.94C884.848 828.107 885.126 826.93 885.126 825.408H885.029C884.804 825.746 884.536 826.038 884.227 826.284C883.917 826.529 883.573 826.718 883.194 826.851C882.816 826.984 882.413 827.05 881.987 827.05C881.279 827.05 880.629 826.875 880.037 826.525C879.449 826.171 878.978 825.686 878.624 825.07C878.274 824.45 878.099 823.742 878.099 822.945C878.099 822.189 878.268 821.496 878.606 820.868C878.948 820.237 879.427 819.734 880.043 819.359C880.663 818.985 881.391 818.804 882.228 818.816ZM882.228 820.144C881.721 820.144 881.264 820.271 880.858 820.524C880.456 820.774 880.136 821.112 879.898 821.539C879.665 821.961 879.548 822.43 879.548 822.945C879.548 823.46 879.661 823.929 879.886 824.352C880.115 824.77 880.427 825.104 880.822 825.354C881.22 825.599 881.673 825.722 882.18 825.722C882.562 825.722 882.919 825.648 883.249 825.499C883.579 825.346 883.866 825.139 884.112 824.877C884.361 824.611 884.557 824.312 884.697 823.977C884.838 823.639 884.909 823.287 884.909 822.921C884.909 822.438 884.792 821.985 884.559 821.563C884.329 821.14 884.011 820.798 883.605 820.536C883.202 820.275 882.744 820.144 882.228 820.144Z" fill="black"/>
<circle cx="938.914" cy="824.914" r="20.4143" fill="#D9D9D9" stroke="black"/>
<path d="M930.444 819.059V831.423H928.946V820.629H928.874L925.855 822.633V821.112L928.946 819.059H930.444ZM938.177 831.592C937.38 831.592 936.67 831.455 936.046 831.181C935.426 830.908 934.933 830.527 934.567 830.04C934.205 829.549 934.007 828.98 933.975 828.332H935.496C935.529 828.73 935.666 829.074 935.907 829.364C936.148 829.65 936.464 829.871 936.855 830.028C937.245 830.185 937.678 830.264 938.153 830.264C938.684 830.264 939.155 830.171 939.565 829.986C939.976 829.801 940.298 829.543 940.531 829.213C940.765 828.883 940.881 828.501 940.881 828.066C940.881 827.612 940.769 827.211 940.543 826.865C940.318 826.515 939.988 826.241 939.553 826.044C939.119 825.847 938.587 825.748 937.96 825.748H936.969V824.42H937.96C938.451 824.42 938.881 824.331 939.251 824.154C939.626 823.977 939.918 823.728 940.127 823.406C940.34 823.084 940.447 822.706 940.447 822.271C940.447 821.852 940.354 821.488 940.169 821.178C939.984 820.868 939.722 820.627 939.384 820.454C939.05 820.281 938.656 820.194 938.201 820.194C937.774 820.194 937.372 820.273 936.994 820.43C936.619 820.583 936.313 820.806 936.076 821.1C935.839 821.389 935.71 821.74 935.69 822.15H934.241C934.265 821.502 934.46 820.935 934.826 820.448C935.193 819.957 935.672 819.574 936.263 819.301C936.859 819.027 937.513 818.89 938.225 818.89C938.99 818.89 939.646 819.045 940.193 819.355C940.741 819.661 941.161 820.065 941.455 820.568C941.749 821.072 941.896 821.615 941.896 822.198C941.896 822.895 941.712 823.488 941.346 823.979C940.984 824.47 940.491 824.81 939.867 825V825.096C940.648 825.225 941.258 825.557 941.696 826.092C942.135 826.623 942.354 827.282 942.354 828.066C942.354 828.738 942.171 829.342 941.805 829.877C941.443 830.409 940.948 830.827 940.32 831.133C939.692 831.439 938.978 831.592 938.177 831.592ZM948.856 831.592C947.947 831.592 947.172 831.344 946.532 830.849C945.892 830.35 945.403 829.628 945.065 828.682C944.727 827.732 944.558 826.585 944.558 825.241C944.558 823.905 944.727 822.764 945.065 821.818C945.407 820.868 945.898 820.144 946.538 819.645C947.182 819.142 947.955 818.89 948.856 818.89C949.758 818.89 950.528 819.142 951.168 819.645C951.812 820.144 952.303 820.868 952.641 821.818C952.983 822.764 953.154 823.905 953.154 825.241C953.154 826.585 952.985 827.732 952.647 828.682C952.309 829.628 951.82 830.35 951.18 830.849C950.541 831.344 949.766 831.592 948.856 831.592ZM948.856 830.264C949.758 830.264 950.458 829.829 950.957 828.96C951.456 828.09 951.706 826.851 951.706 825.241C951.706 824.17 951.591 823.259 951.362 822.506C951.136 821.754 950.81 821.18 950.384 820.786C949.961 820.391 949.452 820.194 948.856 820.194C947.963 820.194 947.264 820.635 946.761 821.516C946.258 822.394 946.007 823.635 946.007 825.241C946.007 826.312 946.119 827.221 946.345 827.97C946.57 828.718 946.894 829.288 947.317 829.678C947.743 830.069 948.257 830.264 948.856 830.264Z" fill="black"/>
<circle cx="1005.91" cy="825.914" r="20.4143" fill="#D9D9D9" stroke="black"/>
<path d="M998.221 820.133V832.497H996.723V821.703H996.651L993.633 823.707V822.186L996.723 820.133H998.221ZM1005.95 832.666C1005.16 832.666 1004.45 832.529 1003.82 832.256C1003.2 831.982 1002.71 831.602 1002.34 831.115C1001.98 830.624 1001.78 830.054 1001.75 829.406H1003.27C1003.31 829.805 1003.44 830.149 1003.68 830.438C1003.93 830.724 1004.24 830.946 1004.63 831.103C1005.02 831.259 1005.45 831.338 1005.93 831.338C1006.46 831.338 1006.93 831.245 1007.34 831.06C1007.75 830.875 1008.07 830.618 1008.31 830.288C1008.54 829.958 1008.66 829.575 1008.66 829.141C1008.66 828.686 1008.55 828.285 1008.32 827.939C1008.1 827.589 1007.77 827.315 1007.33 827.118C1006.9 826.921 1006.36 826.822 1005.74 826.822H1004.75V825.494H1005.74C1006.23 825.494 1006.66 825.406 1007.03 825.229C1007.4 825.052 1007.69 824.802 1007.9 824.48C1008.12 824.158 1008.22 823.78 1008.22 823.345C1008.22 822.927 1008.13 822.562 1007.95 822.252C1007.76 821.943 1007.5 821.701 1007.16 821.528C1006.83 821.355 1006.43 821.268 1005.98 821.268C1005.55 821.268 1005.15 821.347 1004.77 821.504C1004.4 821.657 1004.09 821.88 1003.85 822.174C1003.62 822.464 1003.49 822.814 1003.47 823.224H1002.02C1002.04 822.576 1002.24 822.009 1002.6 821.522C1002.97 821.031 1003.45 820.649 1004.04 820.375C1004.64 820.101 1005.29 819.964 1006 819.964C1006.77 819.964 1007.42 820.119 1007.97 820.429C1008.52 820.735 1008.94 821.14 1009.23 821.643C1009.53 822.146 1009.67 822.689 1009.67 823.273C1009.67 823.969 1009.49 824.563 1009.12 825.054C1008.76 825.545 1008.27 825.885 1007.64 826.074V826.17C1008.43 826.299 1009.03 826.631 1009.47 827.166C1009.91 827.698 1010.13 828.356 1010.13 829.141C1010.13 829.813 1009.95 830.416 1009.58 830.952C1009.22 831.483 1008.72 831.901 1008.1 832.207C1007.47 832.513 1006.75 832.666 1005.95 832.666ZM1016.95 820.133V832.497H1015.45V821.703H1015.38L1012.36 823.707V822.186L1015.45 820.133H1016.95Z" fill="black"/>
<path d="M88.1037 1V485.839H4.51819" stroke="black" stroke-width="2"/>
<path d="M77.9572 551.958H0" stroke="black" stroke-width="2"/>
<path d="M6.77722 626.995H79.1711V888H1526V1H79.1711" stroke="black" stroke-width="2"/>
<g filter="url(#filter0_d_1901_2635)">
<rect x="669.257" y="122.491" width="253.063" height="242.606" fill="#D9D9D9"/>
<rect x="669.757" y="122.991" width="252.063" height="241.606" stroke="black"/>
</g>
<path d="M1016.43 22.1028V391.24H1031.07V22.1028H1016.43Z" stroke="black" stroke-width="2"/>
<path d="M1016.43 391.24H602.332V406.926H1016.43V391.24Z" stroke="black" stroke-width="2"/>
<path d="M601.286 15.8286V391.24H585.6V15.8286H601.286Z" stroke="black" stroke-width="2"/>
<path d="M995.52 249.023H924.411V244.84V196.737L995.52 200.92V249.023Z" fill="#D9D9D9"/>
<path d="M924.411 244.84L995.52 249.023M995.52 249.023H924.411V196.737L995.52 200.92V249.023Z" stroke="#BFBFBF" stroke-width="2"/>
<path d="M715.578 257V220.636H729.925C732.683 220.636 735.033 221.163 736.974 222.217C738.915 223.258 740.395 224.708 741.413 226.567C742.443 228.413 742.958 230.544 742.958 232.959C742.958 235.374 742.437 237.504 741.395 239.351C740.354 241.197 738.844 242.636 736.868 243.665C734.903 244.695 732.523 245.21 729.73 245.21H720.586V239.049H728.487C729.967 239.049 731.186 238.795 732.145 238.286C733.115 237.765 733.837 237.049 734.311 236.137C734.796 235.214 735.039 234.154 735.039 232.959C735.039 231.751 734.796 230.698 734.311 229.798C733.837 228.887 733.115 228.183 732.145 227.685C731.174 227.176 729.943 226.922 728.451 226.922H723.267V257H715.578ZM750.02 257H741.781L754.335 220.636H764.242L776.778 257H768.539L759.431 228.946H759.146L750.02 257ZM749.505 242.707H768.965V248.708H749.505V242.707ZM781.155 257V220.636H788.843V250.661H804.432V257H781.155ZM840.192 233.367H832.415C832.273 232.361 831.983 231.467 831.545 230.686C831.107 229.893 830.545 229.218 829.858 228.662C829.172 228.106 828.379 227.679 827.479 227.384C826.591 227.088 825.627 226.94 824.585 226.94C822.703 226.94 821.064 227.407 819.667 228.342C818.27 229.266 817.187 230.615 816.417 232.391C815.648 234.154 815.263 236.297 815.263 238.818C815.263 241.411 815.648 243.589 816.417 245.352C817.199 247.116 818.288 248.448 819.684 249.347C821.081 250.247 822.697 250.697 824.532 250.697C825.562 250.697 826.515 250.561 827.39 250.288C828.278 250.016 829.065 249.62 829.752 249.099C830.439 248.566 831.007 247.921 831.456 247.163C831.918 246.406 832.238 245.542 832.415 244.571L840.192 244.607C839.991 246.276 839.488 247.885 838.683 249.436C837.89 250.975 836.819 252.354 835.469 253.573C834.132 254.781 832.534 255.739 830.675 256.45C828.829 257.148 826.739 257.497 824.407 257.497C821.164 257.497 818.264 256.763 815.707 255.295C813.162 253.828 811.15 251.703 809.67 248.921C808.202 246.139 807.469 242.772 807.469 238.818C807.469 234.853 808.214 231.479 809.706 228.697C811.197 225.916 813.221 223.797 815.778 222.341C818.335 220.873 821.211 220.139 824.407 220.139C826.515 220.139 828.468 220.435 830.267 221.027C832.078 221.619 833.682 222.483 835.079 223.619C836.475 224.744 837.612 226.123 838.488 227.756C839.376 229.39 839.944 231.26 840.192 233.367ZM879.122 238.818C879.122 242.784 878.37 246.157 876.867 248.939C875.375 251.721 873.339 253.845 870.759 255.313C868.19 256.769 865.302 257.497 862.094 257.497C858.862 257.497 855.962 256.763 853.394 255.295C850.825 253.828 848.795 251.703 847.303 248.921C845.812 246.139 845.066 242.772 845.066 238.818C845.066 234.853 845.812 231.479 847.303 228.697C848.795 225.916 850.825 223.797 853.394 222.341C855.962 220.873 858.862 220.139 862.094 220.139C865.302 220.139 868.19 220.873 870.759 222.341C873.339 223.797 875.375 225.916 876.867 228.697C878.37 231.479 879.122 234.853 879.122 238.818ZM871.327 238.818C871.327 236.25 870.942 234.083 870.173 232.32C869.415 230.556 868.344 229.218 866.959 228.307C865.574 227.395 863.952 226.94 862.094 226.94C860.235 226.94 858.614 227.395 857.229 228.307C855.844 229.218 854.767 230.556 853.997 232.32C853.24 234.083 852.861 236.25 852.861 238.818C852.861 241.387 853.24 243.553 853.997 245.317C854.767 247.08 855.844 248.418 857.229 249.33C858.614 250.241 860.235 250.697 862.094 250.697C863.952 250.697 865.574 250.241 866.959 249.33C868.344 248.418 869.415 247.08 870.173 245.317C870.942 243.553 871.327 241.387 871.327 238.818Z" fill="black"/>
<path d="M257.224 946.182C257.053 944.742 256.362 943.625 255.15 942.83C253.938 942.034 252.451 941.636 250.69 941.636C249.402 941.636 248.275 941.845 247.309 942.261C246.353 942.678 245.605 943.251 245.065 943.98C244.534 944.709 244.269 945.538 244.269 946.466C244.269 947.242 244.454 947.91 244.823 948.469C245.202 949.018 245.685 949.477 246.272 949.847C246.859 950.206 247.475 950.505 248.119 950.741C248.763 950.969 249.355 951.153 249.894 951.295L252.849 952.091C253.606 952.29 254.449 952.564 255.377 952.915C256.315 953.265 257.21 953.743 258.062 954.349C258.924 954.946 259.634 955.713 260.193 956.651C260.751 957.588 261.031 958.739 261.031 960.102C261.031 961.674 260.619 963.095 259.795 964.364C258.98 965.633 257.787 966.641 256.215 967.389C254.653 968.137 252.754 968.511 250.519 968.511C248.436 968.511 246.632 968.175 245.107 967.503C243.592 966.83 242.399 965.893 241.528 964.69C240.666 963.488 240.178 962.091 240.065 960.5H243.701C243.796 961.598 244.165 962.508 244.809 963.227C245.462 963.937 246.286 964.468 247.281 964.818C248.284 965.159 249.364 965.33 250.519 965.33C251.864 965.33 253.071 965.112 254.141 964.676C255.212 964.231 256.059 963.616 256.684 962.83C257.309 962.034 257.622 961.106 257.622 960.045C257.622 959.08 257.352 958.294 256.812 957.688C256.272 957.081 255.562 956.589 254.681 956.21C253.801 955.831 252.849 955.5 251.826 955.216L248.247 954.193C245.974 953.54 244.175 952.607 242.849 951.395C241.523 950.183 240.86 948.597 240.86 946.636C240.86 945.008 241.301 943.587 242.181 942.375C243.071 941.153 244.265 940.206 245.761 939.534C247.266 938.852 248.947 938.511 250.803 938.511C252.678 938.511 254.345 938.848 255.803 939.52C257.262 940.183 258.417 941.092 259.269 942.247C260.131 943.402 260.586 944.714 260.633 946.182H257.224ZM266.823 968V938.909H284.379V942.034H270.345V951.864H283.47V954.989H270.345V964.875H284.607V968H266.823ZM289.138 942.034V938.909H310.956V942.034H301.808V968H298.286V942.034H289.138ZM339.727 953.455C339.727 956.523 339.173 959.174 338.065 961.409C336.958 963.644 335.438 965.367 333.506 966.58C331.574 967.792 329.368 968.398 326.886 968.398C324.405 968.398 322.199 967.792 320.267 966.58C318.335 965.367 316.815 963.644 315.708 961.409C314.6 959.174 314.046 956.523 314.046 953.455C314.046 950.386 314.6 947.735 315.708 945.5C316.815 943.265 318.335 941.542 320.267 940.33C322.199 939.117 324.405 938.511 326.886 938.511C329.368 938.511 331.574 939.117 333.506 940.33C335.438 941.542 336.958 943.265 338.065 945.5C339.173 947.735 339.727 950.386 339.727 953.455ZM336.318 953.455C336.318 950.936 335.897 948.81 335.054 947.077C334.221 945.344 333.089 944.032 331.659 943.142C330.239 942.252 328.648 941.807 326.886 941.807C325.125 941.807 323.529 942.252 322.1 943.142C320.679 944.032 319.547 945.344 318.705 947.077C317.871 948.81 317.455 950.936 317.455 953.455C317.455 955.973 317.871 958.099 318.705 959.832C319.547 961.565 320.679 962.877 322.1 963.767C323.529 964.657 325.125 965.102 326.886 965.102C328.648 965.102 330.239 964.657 331.659 963.767C333.089 962.877 334.221 961.565 335.054 959.832C335.897 958.099 336.318 955.973 336.318 953.455ZM345.651 968V938.909H355.48C357.753 938.909 359.619 939.297 361.077 940.074C362.535 940.841 363.615 941.897 364.315 943.241C365.016 944.586 365.367 946.116 365.367 947.83C365.367 949.544 365.016 951.063 364.315 952.389C363.615 953.715 362.54 954.757 361.091 955.514C359.642 956.262 357.791 956.636 355.537 956.636H347.583V953.455H355.423C356.976 953.455 358.226 953.227 359.173 952.773C360.13 952.318 360.821 951.674 361.247 950.841C361.683 949.998 361.901 948.994 361.901 947.83C361.901 946.665 361.683 945.647 361.247 944.776C360.812 943.904 360.116 943.232 359.159 942.759C358.203 942.276 356.939 942.034 355.367 942.034H349.173V968H345.651ZM359.344 954.932L366.503 968H362.412L355.367 954.932H359.344ZM384.514 968H377.923L387.966 938.909H395.892L405.921 968H399.33L392.043 945.557H391.815L384.514 968ZM384.102 956.565H399.671V961.366H384.102V956.565Z" fill="black"/>
<path d="M731.871 938.182C731.7 936.742 731.009 935.625 729.797 934.83C728.585 934.034 727.098 933.636 725.337 933.636C724.049 933.636 722.922 933.845 721.956 934.261C720.999 934.678 720.251 935.251 719.712 935.98C719.181 936.709 718.916 937.538 718.916 938.466C718.916 939.242 719.101 939.91 719.47 940.469C719.849 941.018 720.332 941.477 720.919 941.847C721.506 942.206 722.122 942.505 722.766 942.741C723.41 942.969 724.001 943.153 724.541 943.295L727.496 944.091C728.253 944.29 729.096 944.564 730.024 944.915C730.962 945.265 731.857 945.743 732.709 946.349C733.571 946.946 734.281 947.713 734.839 948.651C735.398 949.588 735.678 950.739 735.678 952.102C735.678 953.674 735.266 955.095 734.442 956.364C733.627 957.633 732.434 958.641 730.862 959.389C729.3 960.137 727.401 960.511 725.166 960.511C723.083 960.511 721.279 960.175 719.754 959.503C718.239 958.83 717.046 957.893 716.175 956.69C715.313 955.488 714.825 954.091 714.712 952.5H718.348C718.443 953.598 718.812 954.508 719.456 955.227C720.109 955.937 720.933 956.468 721.928 956.818C722.931 957.159 724.011 957.33 725.166 957.33C726.511 957.33 727.718 957.112 728.788 956.676C729.858 956.231 730.706 955.616 731.331 954.83C731.956 954.034 732.268 953.106 732.268 952.045C732.268 951.08 731.999 950.294 731.459 949.688C730.919 949.081 730.209 948.589 729.328 948.21C728.447 947.831 727.496 947.5 726.473 947.216L722.893 946.193C720.621 945.54 718.821 944.607 717.496 943.395C716.17 942.183 715.507 940.597 715.507 938.636C715.507 937.008 715.947 935.587 716.828 934.375C717.718 933.153 718.911 932.206 720.408 931.534C721.913 930.852 723.594 930.511 725.45 930.511C727.325 930.511 728.992 930.848 730.45 931.52C731.909 932.183 733.064 933.092 733.916 934.247C734.778 935.402 735.232 936.714 735.28 938.182H731.871ZM741.469 960V930.909H759.026V934.034H744.992V943.864H758.117V946.989H744.992V956.875H759.254V960H741.469ZM763.785 934.034V930.909H785.603V934.034H776.455V960H772.932V934.034H763.785ZM814.374 945.455C814.374 948.523 813.82 951.174 812.712 953.409C811.604 955.644 810.084 957.367 808.153 958.58C806.221 959.792 804.014 960.398 801.533 960.398C799.052 960.398 796.846 959.792 794.914 958.58C792.982 957.367 791.462 955.644 790.354 953.409C789.246 951.174 788.692 948.523 788.692 945.455C788.692 942.386 789.246 939.735 790.354 937.5C791.462 935.265 792.982 933.542 794.914 932.33C796.846 931.117 799.052 930.511 801.533 930.511C804.014 930.511 806.221 931.117 808.153 932.33C810.084 933.542 811.604 935.265 812.712 937.5C813.82 939.735 814.374 942.386 814.374 945.455ZM810.965 945.455C810.965 942.936 810.544 940.81 809.701 939.077C808.868 937.344 807.736 936.032 806.306 935.142C804.886 934.252 803.295 933.807 801.533 933.807C799.772 933.807 798.176 934.252 796.746 935.142C795.326 936.032 794.194 937.344 793.352 939.077C792.518 940.81 792.102 942.936 792.102 945.455C792.102 947.973 792.518 950.099 793.352 951.832C794.194 953.565 795.326 954.877 796.746 955.767C798.176 956.657 799.772 957.102 801.533 957.102C803.295 957.102 804.886 956.657 806.306 955.767C807.736 954.877 808.868 953.565 809.701 951.832C810.544 950.099 810.965 947.973 810.965 945.455ZM820.298 960V930.909H830.127C832.4 930.909 834.265 931.297 835.724 932.074C837.182 932.841 838.262 933.897 838.962 935.241C839.663 936.586 840.013 938.116 840.013 939.83C840.013 941.544 839.663 943.063 838.962 944.389C838.262 945.715 837.187 946.757 835.738 947.514C834.289 948.262 832.438 948.636 830.184 948.636H822.229V945.455H830.07C831.623 945.455 832.873 945.227 833.82 944.773C834.777 944.318 835.468 943.674 835.894 942.841C836.33 941.998 836.548 940.994 836.548 939.83C836.548 938.665 836.33 937.647 835.894 936.776C835.459 935.904 834.763 935.232 833.806 934.759C832.85 934.276 831.585 934.034 830.013 934.034H823.82V960H820.298ZM833.991 946.932L841.15 960H837.059L830.013 946.932H833.991ZM854.147 960V930.909H865.795C867.935 930.909 869.72 931.226 871.15 931.861C872.58 932.495 873.655 933.376 874.374 934.503C875.094 935.62 875.454 936.908 875.454 938.366C875.454 939.503 875.227 940.502 874.772 941.364C874.317 942.216 873.692 942.917 872.897 943.466C872.111 944.006 871.211 944.389 870.198 944.616V944.901C871.306 944.948 872.343 945.26 873.309 945.838C874.284 946.416 875.075 947.225 875.681 948.267C876.287 949.299 876.59 950.53 876.59 951.96C876.59 953.504 876.207 954.882 875.44 956.094C874.682 957.296 873.56 958.248 872.073 958.949C870.586 959.65 868.754 960 866.576 960H854.147ZM860.298 954.972H865.312C867.026 954.972 868.276 954.645 869.062 953.991C869.848 953.329 870.241 952.448 870.241 951.349C870.241 950.545 870.047 949.834 869.658 949.219C869.27 948.603 868.716 948.12 867.996 947.77C867.286 947.42 866.439 947.244 865.454 947.244H860.298V954.972ZM860.298 943.082H864.857C865.7 943.082 866.448 942.936 867.102 942.642C867.764 942.339 868.285 941.913 868.664 941.364C869.052 940.814 869.246 940.156 869.246 939.389C869.246 938.338 868.872 937.491 868.124 936.847C867.386 936.203 866.334 935.881 864.971 935.881H860.298V943.082Z" fill="black"/>
<path d="M1218.15 935.182C1217.98 933.742 1217.28 932.625 1216.07 931.83C1214.86 931.034 1213.37 930.636 1211.61 930.636C1210.32 930.636 1209.2 930.845 1208.23 931.261C1207.27 931.678 1206.53 932.251 1205.99 932.98C1205.46 933.709 1205.19 934.538 1205.19 935.466C1205.19 936.242 1205.38 936.91 1205.75 937.469C1206.12 938.018 1206.61 938.477 1207.19 938.847C1207.78 939.206 1208.4 939.505 1209.04 939.741C1209.68 939.969 1210.28 940.153 1210.82 940.295L1213.77 941.091C1214.53 941.29 1215.37 941.564 1216.3 941.915C1217.24 942.265 1218.13 942.743 1218.98 943.349C1219.85 943.946 1220.56 944.713 1221.11 945.651C1221.67 946.588 1221.95 947.739 1221.95 949.102C1221.95 950.674 1221.54 952.095 1220.72 953.364C1219.9 954.633 1218.71 955.641 1217.14 956.389C1215.57 957.137 1213.68 957.511 1211.44 957.511C1209.36 957.511 1207.55 957.175 1206.03 956.503C1204.51 955.83 1203.32 954.893 1202.45 953.69C1201.59 952.488 1201.1 951.091 1200.99 949.5H1204.62C1204.72 950.598 1205.09 951.508 1205.73 952.227C1206.38 952.937 1207.21 953.468 1208.2 953.818C1209.21 954.159 1210.29 954.33 1211.44 954.33C1212.79 954.33 1213.99 954.112 1215.06 953.676C1216.13 953.231 1216.98 952.616 1217.61 951.83C1218.23 951.034 1218.54 950.106 1218.54 949.045C1218.54 948.08 1218.27 947.294 1217.73 946.688C1217.19 946.081 1216.48 945.589 1215.6 945.21C1214.72 944.831 1213.77 944.5 1212.75 944.216L1209.17 943.193C1206.9 942.54 1205.1 941.607 1203.77 940.395C1202.44 939.183 1201.78 937.597 1201.78 935.636C1201.78 934.008 1202.22 932.587 1203.1 931.375C1203.99 930.153 1205.19 929.206 1206.68 928.534C1208.19 927.852 1209.87 927.511 1211.73 927.511C1213.6 927.511 1215.27 927.848 1216.73 928.52C1218.18 929.183 1219.34 930.092 1220.19 931.247C1221.05 932.402 1221.51 933.714 1221.55 935.182H1218.15ZM1227.74 957V927.909H1245.3V931.034H1231.27V940.864H1244.39V943.989H1231.27V953.875H1245.53V957H1227.74ZM1250.06 931.034V927.909H1271.88V931.034H1262.73V957H1259.21V931.034H1250.06ZM1300.65 942.455C1300.65 945.523 1300.1 948.174 1298.99 950.409C1297.88 952.644 1296.36 954.367 1294.43 955.58C1292.5 956.792 1290.29 957.398 1287.81 957.398C1285.33 957.398 1283.12 956.792 1281.19 955.58C1279.26 954.367 1277.74 952.644 1276.63 950.409C1275.52 948.174 1274.97 945.523 1274.97 942.455C1274.97 939.386 1275.52 936.735 1276.63 934.5C1277.74 932.265 1279.26 930.542 1281.19 929.33C1283.12 928.117 1285.33 927.511 1287.81 927.511C1290.29 927.511 1292.5 928.117 1294.43 929.33C1296.36 930.542 1297.88 932.265 1298.99 934.5C1300.1 936.735 1300.65 939.386 1300.65 942.455ZM1297.24 942.455C1297.24 939.936 1296.82 937.81 1295.98 936.077C1295.14 934.344 1294.01 933.032 1292.58 932.142C1291.16 931.252 1289.57 930.807 1287.81 930.807C1286.05 930.807 1284.45 931.252 1283.02 932.142C1281.6 933.032 1280.47 934.344 1279.63 936.077C1278.79 937.81 1278.38 939.936 1278.38 942.455C1278.38 944.973 1278.79 947.099 1279.63 948.832C1280.47 950.565 1281.6 951.877 1283.02 952.767C1284.45 953.657 1286.05 954.102 1287.81 954.102C1289.57 954.102 1291.16 953.657 1292.58 952.767C1294.01 951.877 1295.14 950.565 1295.98 948.832C1296.82 947.099 1297.24 944.973 1297.24 942.455ZM1306.57 957V927.909H1316.4C1318.67 927.909 1320.54 928.297 1322 929.074C1323.46 929.841 1324.54 930.897 1325.24 932.241C1325.94 933.586 1326.29 935.116 1326.29 936.83C1326.29 938.544 1325.94 940.063 1325.24 941.389C1324.54 942.715 1323.46 943.757 1322.01 944.514C1320.56 945.262 1318.71 945.636 1316.46 945.636H1308.5V942.455H1316.35C1317.9 942.455 1319.15 942.227 1320.1 941.773C1321.05 941.318 1321.74 940.674 1322.17 939.841C1322.6 938.998 1322.82 937.994 1322.82 936.83C1322.82 935.665 1322.6 934.647 1322.17 933.776C1321.73 932.904 1321.04 932.232 1320.08 931.759C1319.12 931.276 1317.86 931.034 1316.29 931.034H1310.1V957H1306.57ZM1320.27 943.932L1327.42 957H1323.33L1316.29 943.932H1320.27ZM1366.09 938.094H1359.87C1359.75 937.289 1359.52 936.574 1359.17 935.949C1358.82 935.314 1358.37 934.775 1357.82 934.33C1357.27 933.884 1356.64 933.544 1355.92 933.307C1355.21 933.07 1354.44 932.952 1353.6 932.952C1352.1 932.952 1350.79 933.326 1349.67 934.074C1348.55 934.812 1347.69 935.892 1347.07 937.312C1346.45 938.723 1346.15 940.437 1346.15 942.455C1346.15 944.528 1346.45 946.271 1347.07 947.682C1347.69 949.093 1348.57 950.158 1349.68 950.878C1350.8 951.598 1352.09 951.957 1353.56 951.957C1354.39 951.957 1355.15 951.848 1355.85 951.631C1356.56 951.413 1357.19 951.096 1357.74 950.679C1358.29 950.253 1358.74 949.737 1359.1 949.131C1359.47 948.525 1359.73 947.833 1359.87 947.057L1366.09 947.085C1365.93 948.42 1365.53 949.708 1364.88 950.949C1364.25 952.18 1363.39 953.283 1362.31 954.259C1361.24 955.224 1359.96 955.991 1358.48 956.56C1357 957.118 1355.33 957.398 1353.46 957.398C1350.87 957.398 1348.55 956.811 1346.5 955.636C1344.47 954.462 1342.86 952.762 1341.67 950.537C1340.5 948.312 1339.91 945.617 1339.91 942.455C1339.91 939.282 1340.51 936.583 1341.7 934.358C1342.89 932.133 1344.51 930.437 1346.56 929.273C1348.6 928.098 1350.9 927.511 1353.46 927.511C1355.15 927.511 1356.71 927.748 1358.15 928.222C1359.6 928.695 1360.88 929.386 1362 930.295C1363.12 931.195 1364.03 932.298 1364.73 933.605C1365.44 934.912 1365.89 936.408 1366.09 938.094Z" fill="black"/>
<defs>
<filter id="filter0_d_1901_2635" x="669.257" y="122.491" width="257.063" height="246.606" filterUnits="userSpaceOnUse" color-interpolation-filters="sRGB">
<feFlood flood-opacity="0" result="BackgroundImageFix"/>
<feColorMatrix in="SourceAlpha" type="matrix" values="0 0 0 0 0 0 0 0 0 0 0 0 0 0 0 0 0 0 127 0" result="hardAlpha"/>
<feOffset dx="4" dy="4"/>
<feComposite in2="hardAlpha" operator="out"/>
<feColorMatrix type="matrix" values="0 0 0 0 0 0 0 0 0 0 0 0 0 0 0 0 0 0 0.25 0"/>
<feBlend mode="normal" in2="BackgroundImageFix" result="effect1_dropShadow_1901_2635"/>
<feBlend mode="normal" in="SourceGraphic" in2="effect1_dropShadow_1901_2635" result="shape"/>
</filter>
</defs>
</svg>
