<svg width="1527" height="1005" viewBox="0 0 1527 1005" fill="none" xmlns="http://www.w3.org/2000/svg">
<rect x="88" y="1" width="478" height="887" fill="#B3B470" fill-opacity="0.15"/>
<rect x="566" y="449" width="480" height="439" fill="#E00BCD" fill-opacity="0.15"/>
<rect x="1046" y="1" width="480" height="887" fill="#E0110B" fill-opacity="0.15"/>
<circle cx="1084.91" cy="43.9143" r="20.4143" fill="#D9D9D9" stroke="black"/>
<path d="M1075.91 37.6135V49.9772H1074.41V39.1831H1074.34L1071.32 41.1874V39.6661L1074.41 37.6135H1075.91ZM1083.64 50.1462C1082.84 50.1462 1082.13 50.0094 1081.51 49.7357C1080.89 49.462 1080.4 49.0817 1080.03 48.5947C1079.67 48.1037 1079.47 47.5342 1079.44 46.8863H1080.96C1080.99 47.2847 1081.13 47.6288 1081.37 47.9186C1081.61 48.2043 1081.93 48.4257 1082.32 48.5826C1082.71 48.7396 1083.14 48.8181 1083.62 48.8181C1084.15 48.8181 1084.62 48.7255 1085.03 48.5404C1085.44 48.3553 1085.76 48.0977 1085.99 47.7677C1086.23 47.4376 1086.34 47.0553 1086.34 46.6206C1086.34 46.1659 1086.23 45.7654 1086.01 45.4193C1085.78 45.0691 1085.45 44.7955 1085.02 44.5983C1084.58 44.4011 1084.05 44.3025 1083.42 44.3025H1082.43V42.9743H1083.42C1083.91 42.9743 1084.34 42.8858 1084.71 42.7087C1085.09 42.5316 1085.38 42.2821 1085.59 41.9601C1085.8 41.6382 1085.91 41.2598 1085.91 40.8252C1085.91 40.4066 1085.82 40.0424 1085.63 39.7325C1085.45 39.4226 1085.19 39.1811 1084.85 39.0081C1084.51 38.835 1084.12 38.7485 1083.66 38.7485C1083.24 38.7485 1082.84 38.827 1082.46 38.9839C1082.08 39.1369 1081.78 39.3602 1081.54 39.654C1081.3 39.9438 1081.17 40.2939 1081.15 40.7044H1079.7C1079.73 40.0565 1079.92 39.489 1080.29 39.002C1080.66 38.511 1081.13 38.1287 1081.73 37.855C1082.32 37.5813 1082.98 37.4445 1083.69 37.4445C1084.45 37.4445 1085.11 37.5994 1085.66 37.9093C1086.2 38.2152 1086.62 38.6197 1086.92 39.1228C1087.21 39.6258 1087.36 40.1692 1087.36 40.7527C1087.36 41.449 1087.18 42.0426 1086.81 42.5336C1086.45 43.0246 1085.95 43.3647 1085.33 43.5539V43.6505C1086.11 43.7793 1086.72 44.1113 1087.16 44.6466C1087.6 45.1778 1087.82 45.8358 1087.82 46.6206C1087.82 47.2928 1087.63 47.8964 1087.27 48.4317C1086.91 48.963 1086.41 49.3815 1085.78 49.6874C1085.16 49.9933 1084.44 50.1462 1083.64 50.1462ZM1090.29 49.9772V48.8905L1094.37 44.4232C1094.85 43.9 1095.24 43.4452 1095.55 43.0588C1095.86 42.6685 1096.09 42.3022 1096.24 41.9601C1096.39 41.614 1096.47 41.2518 1096.47 40.8735C1096.47 40.4388 1096.36 40.0625 1096.15 39.7446C1095.95 39.4266 1095.67 39.1811 1095.31 39.0081C1094.95 38.835 1094.55 38.7485 1094.1 38.7485C1093.63 38.7485 1093.21 38.8471 1092.86 39.0443C1092.51 39.2375 1092.24 39.5091 1092.04 39.8593C1091.85 40.2094 1091.76 40.6199 1091.76 41.0908H1090.33C1090.33 40.3664 1090.5 39.7305 1090.84 39.1831C1091.17 38.6358 1091.62 38.2092 1092.2 37.9033C1092.78 37.5974 1093.43 37.4445 1094.15 37.4445C1094.87 37.4445 1095.52 37.5974 1096.08 37.9033C1096.64 38.2092 1097.07 38.6217 1097.39 39.1409C1097.71 39.6601 1097.87 40.2376 1097.87 40.8735C1097.87 41.3283 1097.79 41.773 1097.62 42.2076C1097.46 42.6383 1097.18 43.1192 1096.78 43.6505C1096.38 44.1777 1095.82 44.8216 1095.12 45.5823L1092.34 48.5525V48.649H1098.09V49.9772H1090.29Z" fill="black"/>
<circle cx="1151.74" cy="43.9143" r="20.4143" fill="#D9D9D9" stroke="black"/>
<path d="M1142.81 37.6135V49.9772H1141.31V39.1831H1141.24L1138.22 41.1874V39.6661L1141.31 37.6135H1142.81ZM1150.54 50.1462C1149.75 50.1462 1149.04 50.0094 1148.41 49.7357C1147.79 49.462 1147.3 49.0817 1146.93 48.5947C1146.57 48.1037 1146.37 47.5342 1146.34 46.8863H1147.86C1147.89 47.2847 1148.03 47.6288 1148.27 47.9186C1148.51 48.2043 1148.83 48.4257 1149.22 48.5826C1149.61 48.7396 1150.04 48.8181 1150.52 48.8181C1151.05 48.8181 1151.52 48.7255 1151.93 48.5404C1152.34 48.3553 1152.66 48.0977 1152.9 47.7677C1153.13 47.4376 1153.25 47.0553 1153.25 46.6206C1153.25 46.1659 1153.13 45.7654 1152.91 45.4193C1152.68 45.0691 1152.35 44.7955 1151.92 44.5983C1151.48 44.4011 1150.95 44.3025 1150.33 44.3025H1149.33V42.9743H1150.33C1150.82 42.9743 1151.25 42.8858 1151.62 42.7087C1151.99 42.5316 1152.28 42.2821 1152.49 41.9601C1152.71 41.6382 1152.81 41.2598 1152.81 40.8252C1152.81 40.4066 1152.72 40.0424 1152.53 39.7325C1152.35 39.4226 1152.09 39.1811 1151.75 39.0081C1151.42 38.835 1151.02 38.7485 1150.57 38.7485C1150.14 38.7485 1149.74 38.827 1149.36 38.9839C1148.98 39.1369 1148.68 39.3602 1148.44 39.654C1148.2 39.9438 1148.08 40.2939 1148.06 40.7044H1146.61C1146.63 40.0565 1146.83 39.489 1147.19 39.002C1147.56 38.511 1148.04 38.1287 1148.63 37.855C1149.22 37.5813 1149.88 37.4445 1150.59 37.4445C1151.36 37.4445 1152.01 37.5994 1152.56 37.9093C1153.11 38.2152 1153.53 38.6197 1153.82 39.1228C1154.11 39.6258 1154.26 40.1692 1154.26 40.7527C1154.26 41.449 1154.08 42.0426 1153.71 42.5336C1153.35 43.0246 1152.86 43.3647 1152.23 43.5539V43.6505C1153.01 43.7793 1153.62 44.1113 1154.06 44.6466C1154.5 45.1778 1154.72 45.8358 1154.72 46.6206C1154.72 47.2928 1154.54 47.8964 1154.17 48.4317C1153.81 48.963 1153.31 49.3815 1152.69 49.6874C1152.06 49.9933 1151.34 50.1462 1150.54 50.1462ZM1161.37 50.1462C1160.57 50.1462 1159.86 50.0094 1159.24 49.7357C1158.62 49.462 1158.12 49.0817 1157.76 48.5947C1157.39 48.1037 1157.2 47.5342 1157.16 46.8863H1158.69C1158.72 47.2847 1158.86 47.6288 1159.1 47.9186C1159.34 48.2043 1159.65 48.4257 1160.04 48.5826C1160.43 48.7396 1160.87 48.8181 1161.34 48.8181C1161.87 48.8181 1162.34 48.7255 1162.76 48.5404C1163.17 48.3553 1163.49 48.0977 1163.72 47.7677C1163.95 47.4376 1164.07 47.0553 1164.07 46.6206C1164.07 46.1659 1163.96 45.7654 1163.73 45.4193C1163.51 45.0691 1163.18 44.7955 1162.74 44.5983C1162.31 44.4011 1161.78 44.3025 1161.15 44.3025H1160.16V42.9743H1161.15C1161.64 42.9743 1162.07 42.8858 1162.44 42.7087C1162.82 42.5316 1163.11 42.2821 1163.32 41.9601C1163.53 41.6382 1163.64 41.2598 1163.64 40.8252C1163.64 40.4066 1163.54 40.0424 1163.36 39.7325C1163.17 39.4226 1162.91 39.1811 1162.57 39.0081C1162.24 38.835 1161.85 38.7485 1161.39 38.7485C1160.96 38.7485 1160.56 38.827 1160.18 38.9839C1159.81 39.1369 1159.5 39.3602 1159.27 39.654C1159.03 39.9438 1158.9 40.2939 1158.88 40.7044H1157.43C1157.45 40.0565 1157.65 39.489 1158.02 39.002C1158.38 38.511 1158.86 38.1287 1159.45 37.855C1160.05 37.5813 1160.7 37.4445 1161.41 37.4445C1162.18 37.4445 1162.84 37.5994 1163.38 37.9093C1163.93 38.2152 1164.35 38.6197 1164.64 39.1228C1164.94 39.6258 1165.09 40.1692 1165.09 40.7527C1165.09 41.449 1164.9 42.0426 1164.54 42.5336C1164.17 43.0246 1163.68 43.3647 1163.06 43.5539V43.6505C1163.84 43.7793 1164.45 44.1113 1164.89 44.6466C1165.32 45.1778 1165.54 45.8358 1165.54 46.6206C1165.54 47.2928 1165.36 47.8964 1164.99 48.4317C1164.63 48.963 1164.14 49.3815 1163.51 49.6874C1162.88 49.9933 1162.17 50.1462 1161.37 50.1462Z" fill="black"/>
<circle cx="1084.91" cy="109.914" r="20.4143" fill="#D9D9D9" stroke="black"/>
<path d="M1076.44 103.836V116.2H1074.95V105.406H1074.87L1071.86 107.41V105.889L1074.95 103.836H1076.44ZM1084.18 116.369C1083.38 116.369 1082.67 116.232 1082.05 115.959C1081.43 115.685 1080.93 115.305 1080.57 114.818C1080.2 114.327 1080.01 113.757 1079.98 113.109H1081.5C1081.53 113.508 1081.67 113.852 1081.91 114.141C1082.15 114.427 1082.46 114.649 1082.86 114.805C1083.25 114.962 1083.68 115.041 1084.15 115.041C1084.68 115.041 1085.16 114.948 1085.57 114.763C1085.98 114.578 1086.3 114.321 1086.53 113.99C1086.76 113.66 1086.88 113.278 1086.88 112.843C1086.88 112.389 1086.77 111.988 1086.54 111.642C1086.32 111.292 1085.99 111.018 1085.55 110.821C1085.12 110.624 1084.59 110.525 1083.96 110.525H1082.97V109.197H1083.96C1084.45 109.197 1084.88 109.109 1085.25 108.932C1085.63 108.754 1085.92 108.505 1086.13 108.183C1086.34 107.861 1086.45 107.483 1086.45 107.048C1086.45 106.629 1086.35 106.265 1086.17 105.955C1085.98 105.645 1085.72 105.404 1085.38 105.231C1085.05 105.058 1084.66 104.971 1084.2 104.971C1083.77 104.971 1083.37 105.05 1082.99 105.207C1082.62 105.36 1082.31 105.583 1082.08 105.877C1081.84 106.167 1081.71 106.517 1081.69 106.927H1080.24C1080.27 106.279 1080.46 105.712 1080.83 105.225C1081.19 104.734 1081.67 104.352 1082.26 104.078C1082.86 103.804 1083.51 103.667 1084.23 103.667C1084.99 103.667 1085.65 103.822 1086.19 104.132C1086.74 104.438 1087.16 104.843 1087.46 105.346C1087.75 105.849 1087.9 106.392 1087.9 106.976C1087.9 107.672 1087.71 108.265 1087.35 108.756C1086.98 109.247 1086.49 109.588 1085.87 109.777V109.873C1086.65 110.002 1087.26 110.334 1087.7 110.869C1088.14 111.401 1088.35 112.059 1088.35 112.843C1088.35 113.516 1088.17 114.119 1087.81 114.655C1087.44 115.186 1086.95 115.604 1086.32 115.91C1085.69 116.216 1084.98 116.369 1084.18 116.369ZM1090.53 113.665V112.433L1095.97 103.836H1096.86V105.744H1096.26L1092.15 112.24V112.336H1099.47V113.665H1090.53ZM1096.35 116.2V113.29V112.717V103.836H1097.78V116.2H1096.35Z" fill="black"/>
<circle cx="1151.91" cy="109.914" r="20.4143" fill="#D9D9D9" stroke="black"/>
<path d="M1142.37 103.911V116.274H1140.87V105.48H1140.8L1137.78 107.485V105.963L1140.87 103.911H1142.37ZM1150.1 116.443C1149.31 116.443 1148.6 116.306 1147.97 116.033C1147.35 115.759 1146.86 115.379 1146.49 114.892C1146.13 114.401 1145.93 113.831 1145.9 113.183H1147.42C1147.45 113.582 1147.59 113.926 1147.83 114.216C1148.07 114.501 1148.39 114.723 1148.78 114.88C1149.17 115.037 1149.6 115.115 1150.08 115.115C1150.61 115.115 1151.08 115.023 1151.49 114.838C1151.9 114.652 1152.22 114.395 1152.46 114.065C1152.69 113.735 1152.81 113.352 1152.81 112.918C1152.81 112.463 1152.69 112.063 1152.47 111.716C1152.24 111.366 1151.91 111.093 1151.48 110.895C1151.04 110.698 1150.51 110.6 1149.89 110.6H1148.9V109.271H1149.89C1150.38 109.271 1150.81 109.183 1151.18 109.006C1151.55 108.829 1151.84 108.579 1152.05 108.257C1152.27 107.935 1152.37 107.557 1152.37 107.122C1152.37 106.704 1152.28 106.34 1152.1 106.03C1151.91 105.72 1151.65 105.478 1151.31 105.305C1150.98 105.132 1150.58 105.046 1150.13 105.046C1149.7 105.046 1149.3 105.124 1148.92 105.281C1148.55 105.434 1148.24 105.657 1148 105.951C1147.76 106.241 1147.64 106.591 1147.62 107.002H1146.17C1146.19 106.354 1146.39 105.786 1146.75 105.299C1147.12 104.808 1147.6 104.426 1148.19 104.152C1148.78 103.878 1149.44 103.742 1150.15 103.742C1150.92 103.742 1151.57 103.897 1152.12 104.206C1152.67 104.512 1153.09 104.917 1153.38 105.42C1153.67 105.923 1153.82 106.466 1153.82 107.05C1153.82 107.746 1153.64 108.34 1153.27 108.831C1152.91 109.322 1152.42 109.662 1151.79 109.851V109.948C1152.57 110.076 1153.18 110.408 1153.62 110.944C1154.06 111.475 1154.28 112.133 1154.28 112.918C1154.28 113.59 1154.1 114.194 1153.73 114.729C1153.37 115.26 1152.87 115.679 1152.25 115.985C1151.62 116.29 1150.9 116.443 1150.1 116.443ZM1160.61 116.443C1159.9 116.443 1159.27 116.302 1158.7 116.021C1158.13 115.739 1157.68 115.353 1157.34 114.862C1156.99 114.371 1156.81 113.811 1156.77 113.183H1158.22C1158.28 113.743 1158.53 114.206 1158.98 114.572C1159.44 114.934 1159.98 115.115 1160.61 115.115C1161.12 115.115 1161.57 114.996 1161.97 114.759C1162.36 114.522 1162.68 114.196 1162.9 113.781C1163.13 113.362 1163.25 112.89 1163.25 112.362C1163.25 111.823 1163.13 111.342 1162.89 110.92C1162.66 110.493 1162.33 110.157 1161.92 109.911C1161.51 109.666 1161.04 109.541 1160.52 109.537C1160.14 109.533 1159.75 109.591 1159.35 109.712C1158.95 109.829 1158.63 109.98 1158.37 110.165L1156.97 109.996L1157.72 103.911H1164.14V105.239H1158.97L1158.54 108.885H1158.61C1158.86 108.684 1159.18 108.517 1159.56 108.384C1159.95 108.251 1160.34 108.185 1160.76 108.185C1161.51 108.185 1162.19 108.366 1162.78 108.728C1163.38 109.086 1163.84 109.577 1164.18 110.201C1164.52 110.825 1164.69 111.537 1164.69 112.338C1164.69 113.127 1164.52 113.831 1164.16 114.451C1163.81 115.067 1163.33 115.554 1162.71 115.912C1162.1 116.266 1161.4 116.443 1160.61 116.443Z" fill="black"/>
<circle cx="1084.91" cy="177.914" r="20.4143" fill="#D9D9D9" stroke="black"/>
<path d="M1077.91 171.614V183.977H1076.41V173.183H1076.34L1073.32 175.187V173.666L1076.41 171.614H1077.91ZM1085.64 184.146C1084.84 184.146 1084.13 184.009 1083.51 183.736C1082.89 183.462 1082.4 183.082 1082.03 182.595C1081.67 182.104 1081.47 181.534 1081.44 180.886H1082.96C1082.99 181.285 1083.13 181.629 1083.37 181.919C1083.61 182.204 1083.93 182.426 1084.32 182.583C1084.71 182.74 1085.14 182.818 1085.62 182.818C1086.15 182.818 1086.62 182.726 1087.03 182.54C1087.44 182.355 1087.76 182.098 1087.99 181.768C1088.23 181.438 1088.34 181.055 1088.34 180.621C1088.34 180.166 1088.23 179.765 1088.01 179.419C1087.78 179.069 1087.45 178.795 1087.02 178.598C1086.58 178.401 1086.05 178.302 1085.42 178.302H1084.43V176.974H1085.42C1085.91 176.974 1086.34 176.886 1086.71 176.709C1087.09 176.532 1087.38 176.282 1087.59 175.96C1087.8 175.638 1087.91 175.26 1087.91 174.825C1087.91 174.407 1087.82 174.042 1087.63 173.732C1087.45 173.423 1087.19 173.181 1086.85 173.008C1086.51 172.835 1086.12 172.748 1085.66 172.748C1085.24 172.748 1084.84 172.827 1084.46 172.984C1084.08 173.137 1083.78 173.36 1083.54 173.654C1083.3 173.944 1083.17 174.294 1083.15 174.704H1081.7C1081.73 174.056 1081.92 173.489 1082.29 173.002C1082.66 172.511 1083.13 172.129 1083.73 171.855C1084.32 171.581 1084.98 171.445 1085.69 171.445C1086.45 171.445 1087.11 171.599 1087.66 171.909C1088.2 172.215 1088.62 172.62 1088.92 173.123C1089.21 173.626 1089.36 174.169 1089.36 174.753C1089.36 175.449 1089.18 176.043 1088.81 176.534C1088.45 177.025 1087.95 177.365 1087.33 177.554V177.65C1088.11 177.779 1088.72 178.111 1089.16 178.647C1089.6 179.178 1089.82 179.836 1089.82 180.621C1089.82 181.293 1089.63 181.896 1089.27 182.432C1088.91 182.963 1088.41 183.382 1087.78 183.687C1087.16 183.993 1086.44 184.146 1085.64 184.146ZM1096.39 184.146C1095.88 184.138 1095.38 184.042 1094.87 183.856C1094.36 183.671 1093.9 183.359 1093.48 182.921C1093.06 182.478 1092.73 181.88 1092.47 181.128C1092.22 180.371 1092.09 179.421 1092.09 178.278C1092.09 177.184 1092.2 176.214 1092.4 175.369C1092.61 174.519 1092.9 173.805 1093.29 173.225C1093.69 172.642 1094.16 172.199 1094.71 171.897C1095.26 171.595 1095.89 171.445 1096.58 171.445C1097.28 171.445 1097.89 171.583 1098.43 171.861C1098.98 172.135 1099.42 172.517 1099.76 173.008C1100.1 173.499 1100.32 174.065 1100.42 174.704H1098.95C1098.81 174.149 1098.55 173.688 1098.15 173.322C1097.76 172.956 1097.24 172.773 1096.58 172.773C1095.63 172.773 1094.87 173.189 1094.32 174.022C1093.77 174.855 1093.5 176.025 1093.49 177.53H1093.59C1093.82 177.188 1094.08 176.896 1094.39 176.654C1094.71 176.409 1095.05 176.22 1095.43 176.087C1095.81 175.954 1096.21 175.888 1096.63 175.888C1097.34 175.888 1097.99 176.065 1098.58 176.419C1099.16 176.769 1099.64 177.254 1099.99 177.874C1100.34 178.49 1100.52 179.196 1100.52 179.993C1100.52 180.757 1100.35 181.458 1100.01 182.094C1099.67 182.726 1099.18 183.229 1098.57 183.603C1097.95 183.973 1097.22 184.154 1096.39 184.146ZM1096.39 182.818C1096.9 182.818 1097.35 182.691 1097.76 182.438C1098.16 182.184 1098.48 181.844 1098.72 181.418C1098.95 180.991 1099.07 180.516 1099.07 179.993C1099.07 179.482 1098.96 179.017 1098.73 178.598C1098.5 178.176 1098.19 177.84 1097.79 177.59C1097.4 177.341 1096.95 177.216 1096.44 177.216C1096.06 177.216 1095.7 177.292 1095.37 177.445C1095.04 177.594 1094.75 177.799 1094.5 178.061C1094.26 178.323 1094.06 178.622 1093.92 178.96C1093.78 179.295 1093.71 179.647 1093.71 180.017C1093.71 180.508 1093.83 180.967 1094.06 181.393C1094.29 181.82 1094.61 182.164 1095.01 182.426C1095.42 182.687 1095.88 182.818 1096.39 182.818Z" fill="black"/>
<circle cx="1151.74" cy="177.914" r="20.4143" fill="#D9D9D9" stroke="black"/>
<path d="M1143.81 171.614V183.977H1142.31V173.183H1142.24L1139.22 175.187V173.666L1142.31 171.614H1143.81ZM1151.54 184.146C1150.75 184.146 1150.04 184.009 1149.41 183.736C1148.79 183.462 1148.3 183.082 1147.93 182.595C1147.57 182.104 1147.37 181.534 1147.34 180.886H1148.86C1148.89 181.285 1149.03 181.629 1149.27 181.919C1149.51 182.204 1149.83 182.426 1150.22 182.583C1150.61 182.74 1151.04 182.818 1151.52 182.818C1152.05 182.818 1152.52 182.726 1152.93 182.54C1153.34 182.355 1153.66 182.098 1153.9 181.768C1154.13 181.438 1154.25 181.055 1154.25 180.621C1154.25 180.166 1154.13 179.765 1153.91 179.419C1153.68 179.069 1153.35 178.795 1152.92 178.598C1152.48 178.401 1151.95 178.302 1151.33 178.302H1150.33V176.974H1151.33C1151.82 176.974 1152.25 176.886 1152.62 176.709C1152.99 176.532 1153.28 176.282 1153.49 175.96C1153.71 175.638 1153.81 175.26 1153.81 174.825C1153.81 174.407 1153.72 174.042 1153.53 173.732C1153.35 173.423 1153.09 173.181 1152.75 173.008C1152.42 172.835 1152.02 172.748 1151.57 172.748C1151.14 172.748 1150.74 172.827 1150.36 172.984C1149.98 173.137 1149.68 173.36 1149.44 173.654C1149.2 173.944 1149.08 174.294 1149.06 174.704H1147.61C1147.63 174.056 1147.83 173.489 1148.19 173.002C1148.56 172.511 1149.04 172.129 1149.63 171.855C1150.22 171.581 1150.88 171.445 1151.59 171.445C1152.36 171.445 1153.01 171.599 1153.56 171.909C1154.11 172.215 1154.53 172.62 1154.82 173.123C1155.11 173.626 1155.26 174.169 1155.26 174.753C1155.26 175.449 1155.08 176.043 1154.71 176.534C1154.35 177.025 1153.86 177.365 1153.23 177.554V177.65C1154.01 177.779 1154.62 178.111 1155.06 178.647C1155.5 179.178 1155.72 179.836 1155.72 180.621C1155.72 181.293 1155.54 181.896 1155.17 182.432C1154.81 182.963 1154.31 183.382 1153.69 183.687C1153.06 183.993 1152.34 184.146 1151.54 184.146ZM1158.58 183.977L1164.11 173.038V172.942H1157.73V171.614H1165.65V173.014L1160.14 183.977H1158.58Z" fill="black"/>
<circle cx="1084.91" cy="243.914" r="20.4143" fill="#D9D9D9" stroke="black"/>
<path d="M1075.44 238.836V251.2H1073.95V240.406H1073.87L1070.86 242.41V240.889L1073.95 238.836H1075.44ZM1083.18 251.369C1082.38 251.369 1081.67 251.232 1081.05 250.959C1080.43 250.685 1079.93 250.305 1079.57 249.818C1079.2 249.327 1079.01 248.757 1078.98 248.109H1080.5C1080.53 248.508 1080.67 248.852 1080.91 249.141C1081.15 249.427 1081.46 249.649 1081.86 249.805C1082.25 249.962 1082.68 250.041 1083.15 250.041C1083.68 250.041 1084.16 249.948 1084.57 249.763C1084.98 249.578 1085.3 249.321 1085.53 248.99C1085.76 248.66 1085.88 248.278 1085.88 247.843C1085.88 247.389 1085.77 246.988 1085.54 246.642C1085.32 246.292 1084.99 246.018 1084.55 245.821C1084.12 245.624 1083.59 245.525 1082.96 245.525H1081.97V244.197H1082.96C1083.45 244.197 1083.88 244.109 1084.25 243.932C1084.63 243.754 1084.92 243.505 1085.13 243.183C1085.34 242.861 1085.45 242.483 1085.45 242.048C1085.45 241.629 1085.35 241.265 1085.17 240.955C1084.98 240.645 1084.72 240.404 1084.38 240.231C1084.05 240.058 1083.66 239.971 1083.2 239.971C1082.77 239.971 1082.37 240.05 1081.99 240.207C1081.62 240.36 1081.31 240.583 1081.08 240.877C1080.84 241.167 1080.71 241.517 1080.69 241.927H1079.24C1079.27 241.279 1079.46 240.712 1079.83 240.225C1080.19 239.734 1080.67 239.352 1081.26 239.078C1081.86 238.804 1082.51 238.667 1083.23 238.667C1083.99 238.667 1084.65 238.822 1085.19 239.132C1085.74 239.438 1086.16 239.843 1086.46 240.346C1086.75 240.849 1086.9 241.392 1086.9 241.976C1086.9 242.672 1086.71 243.265 1086.35 243.756C1085.98 244.247 1085.49 244.588 1084.87 244.777V244.873C1085.65 245.002 1086.26 245.334 1086.7 245.869C1087.14 246.401 1087.35 247.059 1087.35 247.843C1087.35 248.516 1087.17 249.119 1086.81 249.655C1086.44 250.186 1085.95 250.604 1085.32 250.91C1084.69 251.216 1083.98 251.369 1083.18 251.369ZM1093.78 251.369C1092.95 251.369 1092.22 251.222 1091.59 250.928C1090.95 250.631 1090.46 250.222 1090.11 249.703C1089.75 249.18 1089.58 248.584 1089.58 247.916C1089.58 247.393 1089.68 246.91 1089.89 246.467C1090.1 246.02 1090.39 245.648 1090.75 245.35C1091.11 245.048 1091.52 244.857 1091.97 244.777V244.704C1091.38 244.551 1090.91 244.219 1090.56 243.708C1090.21 243.193 1090.04 242.607 1090.04 241.951C1090.04 241.324 1090.2 240.762 1090.52 240.267C1090.84 239.772 1091.28 239.382 1091.85 239.096C1092.41 238.81 1093.06 238.667 1093.78 238.667C1094.5 238.667 1095.14 238.81 1095.7 239.096C1096.27 239.382 1096.71 239.772 1097.03 240.267C1097.36 240.762 1097.52 241.324 1097.53 241.951C1097.52 242.607 1097.34 243.193 1096.99 243.708C1096.64 244.219 1096.17 244.551 1095.6 244.704V244.777C1096.04 244.857 1096.44 245.048 1096.8 245.35C1097.16 245.648 1097.45 246.02 1097.66 246.467C1097.87 246.91 1097.98 247.393 1097.99 247.916C1097.98 248.584 1097.8 249.18 1097.44 249.703C1097.09 250.222 1096.6 250.631 1095.96 250.928C1095.34 251.222 1094.61 251.369 1093.78 251.369ZM1093.78 250.041C1094.34 250.041 1094.83 249.95 1095.23 249.769C1095.64 249.588 1095.95 249.333 1096.17 249.003C1096.4 248.673 1096.51 248.286 1096.51 247.843C1096.51 247.377 1096.39 246.964 1096.15 246.606C1095.91 246.248 1095.59 245.966 1095.18 245.761C1094.77 245.555 1094.31 245.453 1093.78 245.453C1093.26 245.453 1092.79 245.555 1092.37 245.761C1091.96 245.966 1091.64 246.248 1091.4 246.606C1091.17 246.964 1091.05 247.377 1091.06 247.843C1091.05 248.286 1091.16 248.673 1091.38 249.003C1091.6 249.333 1091.91 249.588 1092.32 249.769C1092.73 249.95 1093.22 250.041 1093.78 250.041ZM1093.78 244.173C1094.23 244.173 1094.62 244.084 1094.96 243.907C1095.31 243.73 1095.58 243.483 1095.78 243.165C1095.97 242.847 1096.07 242.475 1096.08 242.048C1096.07 241.629 1095.98 241.265 1095.78 240.955C1095.59 240.641 1095.32 240.4 1094.98 240.231C1094.64 240.058 1094.24 239.971 1093.78 239.971C1093.32 239.971 1092.92 240.058 1092.57 240.231C1092.22 240.4 1091.96 240.641 1091.77 240.955C1091.58 241.265 1091.49 241.629 1091.49 242.048C1091.49 242.475 1091.58 242.847 1091.77 243.165C1091.97 243.483 1092.24 243.73 1092.59 243.907C1092.93 244.084 1093.33 244.173 1093.78 244.173Z" fill="black"/>
<circle cx="1151.91" cy="243.914" r="20.4143" fill="#D9D9D9" stroke="black"/>
<path d="M1142.37 237.911V250.274H1140.87V239.48H1140.8L1137.78 241.485V239.963L1140.87 237.911H1142.37ZM1150.1 250.443C1149.31 250.443 1148.6 250.306 1147.97 250.033C1147.35 249.759 1146.86 249.379 1146.49 248.892C1146.13 248.401 1145.93 247.831 1145.9 247.183H1147.42C1147.45 247.582 1147.59 247.926 1147.83 248.216C1148.07 248.501 1148.39 248.723 1148.78 248.88C1149.17 249.037 1149.6 249.115 1150.08 249.115C1150.61 249.115 1151.08 249.023 1151.49 248.838C1151.9 248.652 1152.22 248.395 1152.46 248.065C1152.69 247.735 1152.81 247.352 1152.81 246.918C1152.81 246.463 1152.69 246.063 1152.47 245.716C1152.24 245.366 1151.91 245.093 1151.48 244.895C1151.04 244.698 1150.51 244.6 1149.89 244.6H1148.9V243.271H1149.89C1150.38 243.271 1150.81 243.183 1151.18 243.006C1151.55 242.829 1151.84 242.579 1152.05 242.257C1152.27 241.935 1152.37 241.557 1152.37 241.122C1152.37 240.704 1152.28 240.34 1152.1 240.03C1151.91 239.72 1151.65 239.478 1151.31 239.305C1150.98 239.132 1150.58 239.046 1150.13 239.046C1149.7 239.046 1149.3 239.124 1148.92 239.281C1148.55 239.434 1148.24 239.657 1148 239.951C1147.76 240.241 1147.64 240.591 1147.62 241.002H1146.17C1146.19 240.354 1146.39 239.786 1146.75 239.299C1147.12 238.808 1147.6 238.426 1148.19 238.152C1148.78 237.878 1149.44 237.742 1150.15 237.742C1150.92 237.742 1151.57 237.897 1152.12 238.206C1152.67 238.512 1153.09 238.917 1153.38 239.42C1153.67 239.923 1153.82 240.466 1153.82 241.05C1153.82 241.746 1153.64 242.34 1153.27 242.831C1152.91 243.322 1152.42 243.662 1151.79 243.851V243.948C1152.57 244.076 1153.18 244.408 1153.62 244.944C1154.06 245.475 1154.28 246.133 1154.28 246.918C1154.28 247.59 1154.1 248.194 1153.73 248.729C1153.37 249.26 1152.87 249.679 1152.25 249.985C1151.62 250.29 1150.9 250.443 1150.1 250.443ZM1160.69 237.742C1161.19 237.746 1161.7 237.842 1162.21 238.031C1162.71 238.221 1163.18 238.534 1163.6 238.973C1164.01 239.408 1164.35 240.001 1164.6 240.754C1164.86 241.507 1164.98 242.45 1164.98 243.585C1164.98 244.684 1164.88 245.66 1164.67 246.513C1164.46 247.362 1164.17 248.079 1163.78 248.662C1163.39 249.246 1162.92 249.689 1162.36 249.991C1161.81 250.292 1161.19 250.443 1160.49 250.443C1159.8 250.443 1159.18 250.306 1158.64 250.033C1158.1 249.755 1157.66 249.371 1157.31 248.88C1156.97 248.385 1156.75 247.811 1156.65 247.159H1158.13C1158.26 247.727 1158.52 248.196 1158.92 248.566C1159.32 248.932 1159.84 249.115 1160.49 249.115C1161.45 249.115 1162.2 248.699 1162.75 247.866C1163.31 247.032 1163.58 245.855 1163.58 244.334H1163.49C1163.26 244.672 1162.99 244.964 1162.68 245.209C1162.37 245.455 1162.03 245.644 1161.65 245.777C1161.27 245.91 1160.87 245.976 1160.44 245.976C1159.74 245.976 1159.09 245.801 1158.49 245.451C1157.91 245.097 1157.44 244.612 1157.08 243.996C1156.73 243.376 1156.56 242.668 1156.56 241.871C1156.56 241.114 1156.73 240.422 1157.06 239.794C1157.41 239.162 1157.88 238.659 1158.5 238.285C1159.12 237.911 1159.85 237.73 1160.69 237.742ZM1160.69 239.07C1160.18 239.07 1159.72 239.197 1159.32 239.45C1158.91 239.7 1158.59 240.038 1158.36 240.464C1158.12 240.887 1158.01 241.356 1158.01 241.871C1158.01 242.386 1158.12 242.855 1158.34 243.277C1158.57 243.696 1158.88 244.03 1159.28 244.28C1159.68 244.525 1160.13 244.648 1160.64 244.648C1161.02 244.648 1161.38 244.573 1161.71 244.425C1162.04 244.272 1162.32 244.064 1162.57 243.803C1162.82 243.537 1163.01 243.237 1163.15 242.903C1163.3 242.565 1163.37 242.213 1163.37 241.847C1163.37 241.364 1163.25 240.911 1163.02 240.488C1162.79 240.066 1162.47 239.724 1162.06 239.462C1161.66 239.201 1161.2 239.07 1160.69 239.07Z" fill="black"/>
<circle cx="1084.91" cy="311.914" r="20.4143" fill="#D9D9D9" stroke="black"/>
<path d="M1075.91 305.614V317.977H1074.41V307.183H1074.34L1071.32 309.187V307.666L1074.41 305.614H1075.91ZM1079.17 315.442V314.21L1084.61 305.614H1085.5V307.521H1084.9L1080.79 314.017V314.114H1088.11V315.442H1079.17ZM1084.99 317.977V315.067V314.494V305.614H1086.42V317.977H1084.99ZM1094.4 318.146C1093.49 318.146 1092.72 317.899 1092.08 317.404C1091.44 316.905 1090.95 316.182 1090.61 315.236C1090.27 314.287 1090.1 313.14 1090.1 311.795C1090.1 310.459 1090.27 309.318 1090.61 308.372C1090.95 307.423 1091.44 306.698 1092.08 306.199C1092.73 305.696 1093.5 305.445 1094.4 305.445C1095.3 305.445 1096.07 305.696 1096.71 306.199C1097.36 306.698 1097.85 307.423 1098.19 308.372C1098.53 309.318 1098.7 310.459 1098.7 311.795C1098.7 313.14 1098.53 314.287 1098.19 315.236C1097.86 316.182 1097.37 316.905 1096.73 317.404C1096.09 317.899 1095.31 318.146 1094.4 318.146ZM1094.4 316.818C1095.3 316.818 1096 316.383 1096.5 315.514C1097 314.645 1097.25 313.405 1097.25 311.795C1097.25 310.725 1097.14 309.813 1096.91 309.061C1096.68 308.308 1096.36 307.735 1095.93 307.34C1095.51 306.946 1095 306.748 1094.4 306.748C1093.51 306.748 1092.81 307.189 1092.31 308.071C1091.8 308.948 1091.55 310.19 1091.55 311.795C1091.55 312.866 1091.67 313.775 1091.89 314.524C1092.12 315.273 1092.44 315.842 1092.86 316.232C1093.29 316.623 1093.8 316.818 1094.4 316.818Z" fill="black"/>
<circle cx="1151.74" cy="311.914" r="20.4143" fill="#D9D9D9" stroke="black"/>
<path d="M1143.81 305.614V317.977H1142.31V307.183H1142.24L1139.22 309.187V307.666L1142.31 305.614H1143.81ZM1147.08 315.442V314.21L1152.51 305.614H1153.4V307.521H1152.8L1148.69 314.017V314.114H1156.01V315.442H1147.08ZM1152.89 317.977V315.067V314.494V305.614H1154.32V317.977H1152.89ZM1162.45 305.614V317.977H1160.96V307.183H1160.88L1157.86 309.187V307.666L1160.96 305.614H1162.45Z" fill="black"/>
<circle cx="1084.91" cy="377.914" r="20.4143" fill="#D9D9D9" stroke="black"/>
<path d="M1077.44 371.836V384.2H1075.95V373.406H1075.87L1072.86 375.41V373.889L1075.95 371.836H1077.44ZM1080.71 381.665V380.433L1086.14 371.836H1087.04V373.744H1086.43L1082.33 380.24V380.336H1089.64V381.665H1080.71ZM1086.53 384.2V381.29V380.717V371.836H1087.95V384.2H1086.53ZM1091.91 384.2V383.113L1095.99 378.646C1096.47 378.123 1096.86 377.668 1097.17 377.282C1097.48 376.891 1097.71 376.525 1097.86 376.183C1098.01 375.837 1098.09 375.475 1098.09 375.096C1098.09 374.662 1097.98 374.285 1097.77 373.967C1097.57 373.649 1097.29 373.404 1096.93 373.231C1096.57 373.058 1096.17 372.971 1095.72 372.971C1095.25 372.971 1094.83 373.07 1094.48 373.267C1094.13 373.46 1093.86 373.732 1093.66 374.082C1093.47 374.432 1093.38 374.843 1093.38 375.314H1091.96C1091.96 374.589 1092.12 373.953 1092.46 373.406C1092.79 372.859 1093.24 372.432 1093.82 372.126C1094.4 371.82 1095.05 371.667 1095.77 371.667C1096.49 371.667 1097.14 371.82 1097.7 372.126C1098.26 372.432 1098.69 372.845 1099.01 373.364C1099.33 373.883 1099.49 374.46 1099.49 375.096C1099.49 375.551 1099.41 375.996 1099.24 376.43C1099.08 376.861 1098.8 377.342 1098.4 377.873C1098 378.401 1097.44 379.044 1096.74 379.805L1093.96 382.775V382.872H1099.71V384.2H1091.91Z" fill="black"/>
<circle cx="1151.91" cy="377.914" r="20.4143" fill="#D9D9D9" stroke="black"/>
<path d="M1144.37 371.911V384.274H1142.87V373.48H1142.8L1139.78 375.485V373.963L1142.87 371.911H1144.37ZM1147.64 381.739V380.507L1153.07 371.911H1153.96V373.818H1153.36L1149.25 380.314V380.411H1156.57V381.739H1147.64ZM1153.46 384.274V381.364V380.791V371.911H1154.88V384.274H1153.46ZM1163.01 384.443C1162.21 384.443 1161.5 384.306 1160.88 384.033C1160.26 383.759 1159.77 383.379 1159.4 382.892C1159.04 382.401 1158.84 381.831 1158.81 381.183H1160.33C1160.36 381.582 1160.5 381.926 1160.74 382.216C1160.98 382.501 1161.3 382.723 1161.69 382.88C1162.08 383.037 1162.51 383.115 1162.99 383.115C1163.52 383.115 1163.99 383.023 1164.4 382.838C1164.81 382.652 1165.13 382.395 1165.36 382.065C1165.6 381.735 1165.71 381.352 1165.71 380.918C1165.71 380.463 1165.6 380.063 1165.38 379.716C1165.15 379.366 1164.82 379.093 1164.39 378.895C1163.95 378.698 1163.42 378.6 1162.79 378.6H1161.8V377.271H1162.79C1163.28 377.271 1163.71 377.183 1164.08 377.006C1164.46 376.829 1164.75 376.579 1164.96 376.257C1165.17 375.935 1165.28 375.557 1165.28 375.122C1165.28 374.704 1165.19 374.34 1165 374.03C1164.82 373.72 1164.56 373.478 1164.22 373.305C1163.88 373.132 1163.49 373.046 1163.03 373.046C1162.61 373.046 1162.21 373.124 1161.83 373.281C1161.45 373.434 1161.15 373.657 1160.91 373.951C1160.67 374.241 1160.54 374.591 1160.52 375.002H1159.07C1159.1 374.354 1159.29 373.786 1159.66 373.299C1160.03 372.808 1160.5 372.426 1161.1 372.152C1161.69 371.878 1162.35 371.742 1163.06 371.742C1163.82 371.742 1164.48 371.897 1165.03 372.206C1165.57 372.512 1165.99 372.917 1166.29 373.42C1166.58 373.923 1166.73 374.466 1166.73 375.05C1166.73 375.746 1166.55 376.34 1166.18 376.831C1165.82 377.322 1165.32 377.662 1164.7 377.851V377.948C1165.48 378.076 1166.09 378.408 1166.53 378.944C1166.97 379.475 1167.19 380.133 1167.19 380.918C1167.19 381.59 1167 382.194 1166.64 382.729C1166.28 383.26 1165.78 383.679 1165.15 383.985C1164.53 384.29 1163.81 384.443 1163.01 384.443Z" fill="black"/>
<circle cx="1084.91" cy="445.914" r="20.4143" fill="#D9D9D9" stroke="black"/>
<path d="M1076.91 439.614V451.977H1075.41V441.183H1075.34L1072.32 443.187V441.666L1075.41 439.614H1076.91ZM1080.17 449.442V448.21L1085.61 439.614H1086.5V441.521H1085.9L1081.79 448.017V448.114H1089.11V449.442H1080.17ZM1085.99 451.977V449.067V448.494V439.614H1087.42V451.977H1085.99ZM1091.08 449.442V448.21L1096.51 439.614H1097.41V441.521H1096.8L1092.7 448.017V448.114H1100.01V449.442H1091.08ZM1096.9 451.977V449.067V448.494V439.614H1098.32V451.977H1096.9Z" fill="black"/>
<circle cx="1151.74" cy="445.914" r="20.4143" fill="#D9D9D9" stroke="black"/>
<path d="M1142.81 439.614V451.977H1141.31V441.183H1141.24L1138.22 443.187V441.666L1141.31 439.614H1142.81ZM1146.08 449.442V448.21L1151.51 439.614H1152.4V441.521H1151.8L1147.69 448.017V448.114H1155.01V449.442H1146.08ZM1151.89 451.977V449.067V448.494V439.614H1153.32V451.977H1151.89ZM1161.14 452.146C1160.43 452.146 1159.79 452.005 1159.22 451.724C1158.65 451.442 1158.2 451.056 1157.86 450.565C1157.52 450.074 1157.33 449.514 1157.3 448.886H1158.75C1158.8 449.446 1159.05 449.909 1159.51 450.275C1159.96 450.637 1160.5 450.818 1161.14 450.818C1161.64 450.818 1162.09 450.699 1162.49 450.462C1162.89 450.224 1163.2 449.898 1163.42 449.484C1163.65 449.065 1163.77 448.592 1163.77 448.065C1163.77 447.526 1163.65 447.045 1163.41 446.622C1163.18 446.196 1162.86 445.86 1162.45 445.614C1162.04 445.369 1161.57 445.244 1161.04 445.24C1160.66 445.236 1160.27 445.294 1159.87 445.415C1159.48 445.532 1159.15 445.683 1158.89 445.868L1157.49 445.699L1158.24 439.614H1164.66V440.942H1159.49L1159.06 444.588H1159.13C1159.38 444.387 1159.7 444.22 1160.09 444.087C1160.47 443.954 1160.87 443.888 1161.28 443.888C1162.04 443.888 1162.71 444.069 1163.3 444.431C1163.9 444.789 1164.37 445.28 1164.7 445.904C1165.05 446.528 1165.22 447.24 1165.22 448.041C1165.22 448.83 1165.04 449.534 1164.69 450.154C1164.34 450.77 1163.85 451.257 1163.24 451.615C1162.62 451.969 1161.92 452.146 1161.14 452.146Z" fill="black"/>
<circle cx="1084.91" cy="511.914" r="20.4143" fill="#D9D9D9" stroke="black"/>
<path d="M1076.44 506.836V519.2H1074.95V508.406H1074.87L1071.86 510.41V508.889L1074.95 506.836H1076.44ZM1079.71 516.665V515.433L1085.14 506.836H1086.04V508.744H1085.43L1081.33 515.24V515.336H1088.64V516.665H1079.71ZM1085.53 519.2V516.29V515.717V506.836H1086.95V519.2H1085.53ZM1095.01 519.369C1094.5 519.361 1094 519.264 1093.49 519.079C1092.98 518.894 1092.52 518.582 1092.1 518.144C1091.68 517.701 1091.35 517.103 1091.09 516.351C1090.84 515.594 1090.71 514.644 1090.71 513.501C1090.71 512.406 1090.82 511.437 1091.02 510.591C1091.23 509.742 1091.52 509.028 1091.91 508.448C1092.31 507.865 1092.78 507.422 1093.33 507.12C1093.88 506.818 1094.51 506.667 1095.21 506.667C1095.9 506.667 1096.51 506.806 1097.05 507.084C1097.6 507.358 1098.04 507.74 1098.38 508.231C1098.72 508.722 1098.94 509.287 1099.04 509.927H1097.57C1097.43 509.372 1097.17 508.911 1096.77 508.545C1096.38 508.179 1095.86 507.995 1095.21 507.995C1094.25 507.995 1093.49 508.412 1092.94 509.245C1092.39 510.078 1092.12 511.247 1092.11 512.753H1092.21C1092.44 512.41 1092.7 512.119 1093.01 511.877C1093.33 511.632 1093.67 511.443 1094.05 511.31C1094.43 511.177 1094.83 511.111 1095.25 511.111C1095.96 511.111 1096.61 511.288 1097.2 511.642C1097.78 511.992 1098.26 512.477 1098.61 513.097C1098.96 513.712 1099.14 514.419 1099.14 515.216C1099.14 515.98 1098.97 516.681 1098.63 517.316C1098.29 517.948 1097.8 518.451 1097.19 518.826C1096.57 519.196 1095.84 519.377 1095.01 519.369ZM1095.01 518.041C1095.52 518.041 1095.97 517.914 1096.38 517.661C1096.78 517.407 1097.1 517.067 1097.34 516.64C1097.57 516.214 1097.69 515.739 1097.69 515.216C1097.69 514.705 1097.58 514.24 1097.35 513.821C1097.12 513.399 1096.81 513.062 1096.41 512.813C1096.02 512.563 1095.57 512.439 1095.06 512.439C1094.68 512.439 1094.32 512.515 1093.99 512.668C1093.66 512.817 1093.37 513.022 1093.12 513.284C1092.88 513.545 1092.68 513.845 1092.54 514.183C1092.4 514.517 1092.33 514.87 1092.33 515.24C1092.33 515.731 1092.45 516.19 1092.68 516.616C1092.91 517.043 1093.23 517.387 1093.63 517.649C1094.04 517.91 1094.5 518.041 1095.01 518.041Z" fill="black"/>
<circle cx="1151.91" cy="511.914" r="20.4143" fill="#D9D9D9" stroke="black"/>
<path d="M1143.37 505.911V518.274H1141.87V507.48H1141.8L1138.78 509.485V507.963L1141.87 505.911H1143.37ZM1146.64 515.739V514.507L1152.07 505.911H1152.96V507.818H1152.36L1148.25 514.314V514.411H1155.57V515.739H1146.64ZM1152.46 518.274V515.364V514.791V505.911H1153.88V518.274H1152.46ZM1158.22 518.274L1163.75 507.335V507.239H1157.37V505.911H1165.29V507.311L1159.79 518.274H1158.22Z" fill="black"/>
<circle cx="1084.91" cy="579.914" r="20.4143" fill="#D9D9D9" stroke="black"/>
<path d="M1075.91 573.614V585.977H1074.41V575.183H1074.34L1071.32 577.187V575.666L1074.41 573.614H1075.91ZM1079.17 583.442V582.21L1084.61 573.614H1085.5V575.521H1084.9L1080.79 582.017V582.114H1088.11V583.442H1079.17ZM1084.99 585.977V583.067V582.494V573.614H1086.42V585.977H1084.99ZM1094.33 586.146C1093.5 586.146 1092.77 585.999 1092.13 585.706C1091.5 585.408 1091.01 584.999 1090.65 584.48C1090.3 583.957 1090.12 583.361 1090.13 582.693C1090.12 582.17 1090.23 581.687 1090.44 581.244C1090.65 580.797 1090.93 580.425 1091.29 580.127C1091.66 579.826 1092.07 579.634 1092.52 579.554V579.481C1091.93 579.328 1091.46 578.996 1091.11 578.485C1090.76 577.97 1090.58 577.385 1090.59 576.729C1090.58 576.101 1090.74 575.539 1091.06 575.044C1091.39 574.549 1091.83 574.159 1092.39 573.873C1092.96 573.587 1093.61 573.445 1094.33 573.445C1095.05 573.445 1095.69 573.587 1096.25 573.873C1096.81 574.159 1097.26 574.549 1097.58 575.044C1097.9 575.539 1098.07 576.101 1098.07 576.729C1098.07 577.385 1097.89 577.97 1097.54 578.485C1097.19 578.996 1096.72 579.328 1096.14 579.481V579.554C1096.59 579.634 1096.99 579.826 1097.35 580.127C1097.71 580.425 1097.99 580.797 1098.21 581.244C1098.42 581.687 1098.53 582.17 1098.53 582.693C1098.53 583.361 1098.35 583.957 1097.99 584.48C1097.63 584.999 1097.14 585.408 1096.51 585.706C1095.88 585.999 1095.15 586.146 1094.33 586.146ZM1094.33 584.818C1094.89 584.818 1095.37 584.728 1095.78 584.546C1096.19 584.365 1096.5 584.11 1096.72 583.78C1096.94 583.45 1097.05 583.063 1097.06 582.621C1097.05 582.154 1096.93 581.741 1096.7 581.383C1096.46 581.025 1096.13 580.743 1095.72 580.538C1095.32 580.333 1094.85 580.23 1094.33 580.23C1093.8 580.23 1093.33 580.333 1092.92 580.538C1092.51 580.743 1092.18 581.025 1091.95 581.383C1091.71 581.741 1091.6 582.154 1091.6 582.621C1091.6 583.063 1091.7 583.45 1091.92 583.78C1092.14 584.11 1092.46 584.365 1092.87 584.546C1093.28 584.728 1093.77 584.818 1094.33 584.818ZM1094.33 578.95C1094.77 578.95 1095.17 578.862 1095.51 578.685C1095.85 578.507 1096.12 578.26 1096.32 577.942C1096.52 577.624 1096.62 577.252 1096.62 576.825C1096.62 576.407 1096.52 576.042 1096.33 575.732C1096.13 575.419 1095.87 575.177 1095.53 575.008C1095.18 574.835 1094.78 574.748 1094.33 574.748C1093.87 574.748 1093.46 574.835 1093.12 575.008C1092.77 575.177 1092.5 575.419 1092.31 575.732C1092.12 576.042 1092.03 576.407 1092.04 576.825C1092.03 577.252 1092.13 577.624 1092.32 577.942C1092.52 578.26 1092.79 578.507 1093.13 578.685C1093.48 578.862 1093.88 578.95 1094.33 578.95Z" fill="black"/>
<circle cx="1151.74" cy="579.914" r="20.4143" fill="#D9D9D9" stroke="black"/>
<path d="M1143.81 573.614V585.977H1142.31V575.183H1142.24L1139.22 577.187V575.666L1142.31 573.614H1143.81ZM1147.08 583.442V582.21L1152.51 573.614H1153.4V575.521H1152.8L1148.69 582.017V582.114H1156.01V583.442H1147.08ZM1152.89 585.977V583.067V582.494V573.614H1154.32V585.977H1152.89ZM1162.21 573.445C1162.72 573.449 1163.22 573.545 1163.73 573.734C1164.24 573.923 1164.7 574.237 1165.12 574.676C1165.54 575.111 1165.87 575.704 1166.13 576.457C1166.38 577.21 1166.51 578.153 1166.51 579.288C1166.51 580.387 1166.4 581.363 1166.19 582.216C1165.99 583.065 1165.69 583.782 1165.3 584.365C1164.91 584.949 1164.44 585.392 1163.89 585.693C1163.33 585.995 1162.71 586.146 1162.01 586.146C1161.32 586.146 1160.7 586.009 1160.16 585.736C1159.62 585.458 1159.18 585.074 1158.83 584.583C1158.49 584.088 1158.27 583.514 1158.18 582.862H1159.65C1159.78 583.43 1160.04 583.898 1160.44 584.269C1160.84 584.635 1161.36 584.818 1162.01 584.818C1162.97 584.818 1163.72 584.402 1164.27 583.568C1164.83 582.735 1165.11 581.558 1165.11 580.037H1165.01C1164.78 580.375 1164.52 580.667 1164.21 580.912C1163.9 581.158 1163.55 581.347 1163.17 581.48C1162.8 581.612 1162.39 581.679 1161.97 581.679C1161.26 581.679 1160.61 581.504 1160.02 581.154C1159.43 580.799 1158.96 580.315 1158.6 579.699C1158.25 579.079 1158.08 578.371 1158.08 577.574C1158.08 576.817 1158.25 576.125 1158.59 575.497C1158.93 574.865 1159.41 574.362 1160.02 573.988C1160.64 573.614 1161.37 573.432 1162.21 573.445ZM1162.21 574.773C1161.7 574.773 1161.24 574.899 1160.84 575.153C1160.44 575.402 1160.12 575.741 1159.88 576.167C1159.64 576.59 1159.53 577.059 1159.53 577.574C1159.53 578.089 1159.64 578.558 1159.87 578.98C1160.1 579.399 1160.41 579.733 1160.8 579.982C1161.2 580.228 1161.65 580.351 1162.16 580.351C1162.54 580.351 1162.9 580.276 1163.23 580.127C1163.56 579.974 1163.85 579.767 1164.09 579.506C1164.34 579.24 1164.54 578.94 1164.68 578.606C1164.82 578.268 1164.89 577.916 1164.89 577.55C1164.89 577.067 1164.77 576.614 1164.54 576.191C1164.31 575.769 1163.99 575.427 1163.58 575.165C1163.18 574.903 1162.72 574.773 1162.21 574.773Z" fill="black"/>
<path d="M88.1038 1V485.839H4.51831" stroke="black" stroke-width="2"/>
<path d="M77.9572 551.958H0" stroke="black" stroke-width="2"/>
<path d="M6.7771 626.995H79.171V888H1526V1H79.171" stroke="black" stroke-width="2"/>
<g filter="url(#filter0_d_1902_2779)">
<rect x="669.257" y="122.491" width="253.063" height="242.606" fill="#D9D9D9"/>
<rect x="669.757" y="122.991" width="252.063" height="241.606" stroke="black"/>
</g>
<path d="M1016.43 22.1028V391.24H1031.07V22.1028H1016.43Z" stroke="black" stroke-width="2"/>
<path d="M1016.43 391.24H602.332V406.926H1016.43V391.24Z" stroke="black" stroke-width="2"/>
<path d="M601.286 15.8286V391.24H585.6V15.8286H601.286Z" stroke="black" stroke-width="2"/>
<path d="M995.52 249.023H924.411V244.84V196.737L995.52 200.92V249.023Z" fill="#D9D9D9"/>
<path d="M924.411 244.84L995.52 249.023M995.52 249.023H924.411V196.737L995.52 200.92V249.023Z" stroke="#BFBFBF" stroke-width="2"/>
<path d="M715.578 257V220.636H729.925C732.683 220.636 735.033 221.163 736.974 222.217C738.915 223.258 740.395 224.708 741.413 226.567C742.443 228.413 742.958 230.544 742.958 232.959C742.958 235.374 742.437 237.504 741.395 239.351C740.354 241.197 738.844 242.636 736.868 243.665C734.903 244.695 732.523 245.21 729.73 245.21H720.586V239.049H728.487C729.967 239.049 731.186 238.795 732.145 238.286C733.115 237.765 733.837 237.049 734.311 236.137C734.796 235.214 735.039 234.154 735.039 232.959C735.039 231.751 734.796 230.698 734.311 229.798C733.837 228.887 733.115 228.183 732.145 227.685C731.174 227.176 729.943 226.922 728.451 226.922H723.267V257H715.578ZM750.02 257H741.781L754.335 220.636H764.242L776.778 257H768.539L759.431 228.946H759.146L750.02 257ZM749.505 242.707H768.965V248.708H749.505V242.707ZM781.155 257V220.636H788.843V250.661H804.432V257H781.155ZM840.192 233.367H832.415C832.273 232.361 831.983 231.467 831.545 230.686C831.107 229.893 830.545 229.218 829.858 228.662C829.172 228.106 828.379 227.679 827.479 227.384C826.591 227.088 825.627 226.94 824.585 226.94C822.703 226.94 821.064 227.407 819.667 228.342C818.27 229.266 817.187 230.615 816.417 232.391C815.648 234.154 815.263 236.297 815.263 238.818C815.263 241.411 815.648 243.589 816.417 245.352C817.199 247.116 818.288 248.448 819.684 249.347C821.081 250.247 822.697 250.697 824.532 250.697C825.562 250.697 826.515 250.561 827.39 250.288C828.278 250.016 829.065 249.62 829.752 249.099C830.439 248.566 831.007 247.921 831.456 247.163C831.918 246.406 832.238 245.542 832.415 244.571L840.192 244.607C839.991 246.276 839.488 247.885 838.683 249.436C837.89 250.975 836.819 252.354 835.469 253.573C834.132 254.781 832.534 255.739 830.675 256.45C828.829 257.148 826.739 257.497 824.407 257.497C821.164 257.497 818.264 256.763 815.707 255.295C813.162 253.828 811.15 251.703 809.67 248.921C808.202 246.139 807.469 242.772 807.469 238.818C807.469 234.853 808.214 231.479 809.706 228.697C811.197 225.916 813.221 223.797 815.778 222.341C818.335 220.873 821.211 220.139 824.407 220.139C826.515 220.139 828.468 220.435 830.267 221.027C832.078 221.619 833.682 222.483 835.079 223.619C836.475 224.744 837.612 226.123 838.488 227.756C839.376 229.39 839.944 231.26 840.192 233.367ZM879.122 238.818C879.122 242.784 878.37 246.157 876.867 248.939C875.375 251.721 873.339 253.845 870.759 255.313C868.19 256.769 865.302 257.497 862.094 257.497C858.862 257.497 855.962 256.763 853.394 255.295C850.825 253.828 848.795 251.703 847.303 248.921C845.812 246.139 845.066 242.772 845.066 238.818C845.066 234.853 845.812 231.479 847.303 228.697C848.795 225.916 850.825 223.797 853.394 222.341C855.962 220.873 858.862 220.139 862.094 220.139C865.302 220.139 868.19 220.873 870.759 222.341C873.339 223.797 875.375 225.916 876.867 228.697C878.37 231.479 879.122 234.853 879.122 238.818ZM871.327 238.818C871.327 236.25 870.942 234.083 870.173 232.32C869.415 230.556 868.344 229.218 866.959 228.307C865.574 227.395 863.952 226.94 862.094 226.94C860.235 226.94 858.614 227.395 857.229 228.307C855.844 229.218 854.767 230.556 853.997 232.32C853.24 234.083 852.861 236.25 852.861 238.818C852.861 241.387 853.24 243.553 853.997 245.317C854.767 247.08 855.844 248.418 857.229 249.33C858.614 250.241 860.235 250.697 862.094 250.697C863.952 250.697 865.574 250.241 866.959 249.33C868.344 248.418 869.415 247.08 870.173 245.317C870.942 243.553 871.327 241.387 871.327 238.818Z" fill="black"/>
<path d="M257.224 946.182C257.053 944.742 256.362 943.625 255.15 942.83C253.938 942.034 252.451 941.636 250.69 941.636C249.402 941.636 248.275 941.845 247.309 942.261C246.353 942.678 245.605 943.251 245.065 943.98C244.534 944.709 244.269 945.538 244.269 946.466C244.269 947.242 244.454 947.91 244.823 948.469C245.202 949.018 245.685 949.477 246.272 949.847C246.859 950.206 247.475 950.505 248.119 950.741C248.763 950.969 249.355 951.153 249.894 951.295L252.849 952.091C253.606 952.29 254.449 952.564 255.377 952.915C256.315 953.265 257.21 953.743 258.062 954.349C258.924 954.946 259.634 955.713 260.193 956.651C260.751 957.588 261.031 958.739 261.031 960.102C261.031 961.674 260.619 963.095 259.795 964.364C258.98 965.633 257.787 966.641 256.215 967.389C254.653 968.137 252.754 968.511 250.519 968.511C248.436 968.511 246.632 968.175 245.107 967.503C243.592 966.83 242.399 965.893 241.528 964.69C240.666 963.488 240.178 962.091 240.065 960.5H243.701C243.796 961.598 244.165 962.508 244.809 963.227C245.462 963.937 246.286 964.468 247.281 964.818C248.284 965.159 249.364 965.33 250.519 965.33C251.864 965.33 253.071 965.112 254.141 964.676C255.212 964.231 256.059 963.616 256.684 962.83C257.309 962.034 257.622 961.106 257.622 960.045C257.622 959.08 257.352 958.294 256.812 957.688C256.272 957.081 255.562 956.589 254.681 956.21C253.801 955.831 252.849 955.5 251.826 955.216L248.247 954.193C245.974 953.54 244.175 952.607 242.849 951.395C241.523 950.183 240.86 948.597 240.86 946.636C240.86 945.008 241.301 943.587 242.181 942.375C243.071 941.153 244.265 940.206 245.761 939.534C247.266 938.852 248.947 938.511 250.803 938.511C252.678 938.511 254.345 938.848 255.803 939.52C257.262 940.183 258.417 941.092 259.269 942.247C260.131 943.402 260.586 944.714 260.633 946.182H257.224ZM266.823 968V938.909H284.379V942.034H270.345V951.864H283.47V954.989H270.345V964.875H284.607V968H266.823ZM289.138 942.034V938.909H310.956V942.034H301.808V968H298.286V942.034H289.138ZM339.727 953.455C339.727 956.523 339.173 959.174 338.065 961.409C336.958 963.644 335.438 965.367 333.506 966.58C331.574 967.792 329.368 968.398 326.886 968.398C324.405 968.398 322.199 967.792 320.267 966.58C318.335 965.367 316.815 963.644 315.708 961.409C314.6 959.174 314.046 956.523 314.046 953.455C314.046 950.386 314.6 947.735 315.708 945.5C316.815 943.265 318.335 941.542 320.267 940.33C322.199 939.117 324.405 938.511 326.886 938.511C329.368 938.511 331.574 939.117 333.506 940.33C335.438 941.542 336.958 943.265 338.065 945.5C339.173 947.735 339.727 950.386 339.727 953.455ZM336.318 953.455C336.318 950.936 335.897 948.81 335.054 947.077C334.221 945.344 333.089 944.032 331.659 943.142C330.239 942.252 328.648 941.807 326.886 941.807C325.125 941.807 323.529 942.252 322.1 943.142C320.679 944.032 319.547 945.344 318.705 947.077C317.871 948.81 317.455 950.936 317.455 953.455C317.455 955.973 317.871 958.099 318.705 959.832C319.547 961.565 320.679 962.877 322.1 963.767C323.529 964.657 325.125 965.102 326.886 965.102C328.648 965.102 330.239 964.657 331.659 963.767C333.089 962.877 334.221 961.565 335.054 959.832C335.897 958.099 336.318 955.973 336.318 953.455ZM345.651 968V938.909H355.48C357.753 938.909 359.619 939.297 361.077 940.074C362.535 940.841 363.615 941.897 364.315 943.241C365.016 944.586 365.367 946.116 365.367 947.83C365.367 949.544 365.016 951.063 364.315 952.389C363.615 953.715 362.54 954.757 361.091 955.514C359.642 956.262 357.791 956.636 355.537 956.636H347.583V953.455H355.423C356.976 953.455 358.226 953.227 359.173 952.773C360.13 952.318 360.821 951.674 361.247 950.841C361.683 949.998 361.901 948.994 361.901 947.83C361.901 946.665 361.683 945.647 361.247 944.776C360.812 943.904 360.116 943.232 359.159 942.759C358.203 942.276 356.939 942.034 355.367 942.034H349.173V968H345.651ZM359.344 954.932L366.503 968H362.412L355.367 954.932H359.344ZM384.514 968H377.923L387.966 938.909H395.892L405.921 968H399.33L392.043 945.557H391.815L384.514 968ZM384.102 956.565H399.671V961.366H384.102V956.565Z" fill="black"/>
<path d="M731.871 938.182C731.7 936.742 731.009 935.625 729.797 934.83C728.585 934.034 727.098 933.636 725.337 933.636C724.049 933.636 722.922 933.845 721.956 934.261C720.999 934.678 720.251 935.251 719.712 935.98C719.181 936.709 718.916 937.538 718.916 938.466C718.916 939.242 719.101 939.91 719.47 940.469C719.849 941.018 720.332 941.477 720.919 941.847C721.506 942.206 722.122 942.505 722.766 942.741C723.41 942.969 724.001 943.153 724.541 943.295L727.496 944.091C728.253 944.29 729.096 944.564 730.024 944.915C730.962 945.265 731.857 945.743 732.709 946.349C733.571 946.946 734.281 947.713 734.839 948.651C735.398 949.588 735.678 950.739 735.678 952.102C735.678 953.674 735.266 955.095 734.442 956.364C733.627 957.633 732.434 958.641 730.862 959.389C729.3 960.137 727.401 960.511 725.166 960.511C723.083 960.511 721.279 960.175 719.754 959.503C718.239 958.83 717.046 957.893 716.175 956.69C715.313 955.488 714.825 954.091 714.712 952.5H718.348C718.443 953.598 718.812 954.508 719.456 955.227C720.109 955.937 720.933 956.468 721.928 956.818C722.931 957.159 724.011 957.33 725.166 957.33C726.511 957.33 727.718 957.112 728.788 956.676C729.858 956.231 730.706 955.616 731.331 954.83C731.956 954.034 732.268 953.106 732.268 952.045C732.268 951.08 731.999 950.294 731.459 949.688C730.919 949.081 730.209 948.589 729.328 948.21C728.447 947.831 727.496 947.5 726.473 947.216L722.893 946.193C720.621 945.54 718.821 944.607 717.496 943.395C716.17 942.183 715.507 940.597 715.507 938.636C715.507 937.008 715.947 935.587 716.828 934.375C717.718 933.153 718.911 932.206 720.408 931.534C721.913 930.852 723.594 930.511 725.45 930.511C727.325 930.511 728.992 930.848 730.45 931.52C731.909 932.183 733.064 933.092 733.916 934.247C734.778 935.402 735.232 936.714 735.28 938.182H731.871ZM741.469 960V930.909H759.026V934.034H744.992V943.864H758.117V946.989H744.992V956.875H759.254V960H741.469ZM763.785 934.034V930.909H785.603V934.034H776.455V960H772.932V934.034H763.785ZM814.374 945.455C814.374 948.523 813.82 951.174 812.712 953.409C811.604 955.644 810.084 957.367 808.153 958.58C806.221 959.792 804.014 960.398 801.533 960.398C799.052 960.398 796.846 959.792 794.914 958.58C792.982 957.367 791.462 955.644 790.354 953.409C789.246 951.174 788.692 948.523 788.692 945.455C788.692 942.386 789.246 939.735 790.354 937.5C791.462 935.265 792.982 933.542 794.914 932.33C796.846 931.117 799.052 930.511 801.533 930.511C804.014 930.511 806.221 931.117 808.153 932.33C810.084 933.542 811.604 935.265 812.712 937.5C813.82 939.735 814.374 942.386 814.374 945.455ZM810.965 945.455C810.965 942.936 810.544 940.81 809.701 939.077C808.868 937.344 807.736 936.032 806.306 935.142C804.886 934.252 803.295 933.807 801.533 933.807C799.772 933.807 798.176 934.252 796.746 935.142C795.326 936.032 794.194 937.344 793.352 939.077C792.518 940.81 792.102 942.936 792.102 945.455C792.102 947.973 792.518 950.099 793.352 951.832C794.194 953.565 795.326 954.877 796.746 955.767C798.176 956.657 799.772 957.102 801.533 957.102C803.295 957.102 804.886 956.657 806.306 955.767C807.736 954.877 808.868 953.565 809.701 951.832C810.544 950.099 810.965 947.973 810.965 945.455ZM820.298 960V930.909H830.127C832.4 930.909 834.265 931.297 835.724 932.074C837.182 932.841 838.262 933.897 838.962 935.241C839.663 936.586 840.013 938.116 840.013 939.83C840.013 941.544 839.663 943.063 838.962 944.389C838.262 945.715 837.187 946.757 835.738 947.514C834.289 948.262 832.438 948.636 830.184 948.636H822.229V945.455H830.07C831.623 945.455 832.873 945.227 833.82 944.773C834.777 944.318 835.468 943.674 835.894 942.841C836.33 941.998 836.548 940.994 836.548 939.83C836.548 938.665 836.33 937.647 835.894 936.776C835.459 935.904 834.763 935.232 833.806 934.759C832.85 934.276 831.585 934.034 830.013 934.034H823.82V960H820.298ZM833.991 946.932L841.15 960H837.059L830.013 946.932H833.991ZM854.147 960V930.909H865.795C867.935 930.909 869.72 931.226 871.15 931.861C872.58 932.495 873.655 933.376 874.374 934.503C875.094 935.62 875.454 936.908 875.454 938.366C875.454 939.503 875.227 940.502 874.772 941.364C874.317 942.216 873.692 942.917 872.897 943.466C872.111 944.006 871.211 944.389 870.198 944.616V944.901C871.306 944.948 872.343 945.26 873.309 945.838C874.284 946.416 875.075 947.225 875.681 948.267C876.287 949.299 876.59 950.53 876.59 951.96C876.59 953.504 876.207 954.882 875.44 956.094C874.682 957.296 873.56 958.248 872.073 958.949C870.586 959.65 868.754 960 866.576 960H854.147ZM860.298 954.972H865.312C867.026 954.972 868.276 954.645 869.062 953.991C869.848 953.329 870.241 952.448 870.241 951.349C870.241 950.545 870.047 949.834 869.658 949.219C869.27 948.603 868.716 948.12 867.996 947.77C867.286 947.42 866.439 947.244 865.454 947.244H860.298V954.972ZM860.298 943.082H864.857C865.7 943.082 866.448 942.936 867.102 942.642C867.764 942.339 868.285 941.913 868.664 941.364C869.052 940.814 869.246 940.156 869.246 939.389C869.246 938.338 868.872 937.491 868.124 936.847C867.386 936.203 866.334 935.881 864.971 935.881H860.298V943.082Z" fill="black"/>
<path d="M1218.15 935.182C1217.98 933.742 1217.28 932.625 1216.07 931.83C1214.86 931.034 1213.37 930.636 1211.61 930.636C1210.32 930.636 1209.2 930.845 1208.23 931.261C1207.27 931.678 1206.53 932.251 1205.99 932.98C1205.46 933.709 1205.19 934.538 1205.19 935.466C1205.19 936.242 1205.38 936.91 1205.75 937.469C1206.12 938.018 1206.61 938.477 1207.19 938.847C1207.78 939.206 1208.4 939.505 1209.04 939.741C1209.68 939.969 1210.28 940.153 1210.82 940.295L1213.77 941.091C1214.53 941.29 1215.37 941.564 1216.3 941.915C1217.24 942.265 1218.13 942.743 1218.98 943.349C1219.85 943.946 1220.56 944.713 1221.11 945.651C1221.67 946.588 1221.95 947.739 1221.95 949.102C1221.95 950.674 1221.54 952.095 1220.72 953.364C1219.9 954.633 1218.71 955.641 1217.14 956.389C1215.57 957.137 1213.68 957.511 1211.44 957.511C1209.36 957.511 1207.55 957.175 1206.03 956.503C1204.51 955.83 1203.32 954.893 1202.45 953.69C1201.59 952.488 1201.1 951.091 1200.99 949.5H1204.62C1204.72 950.598 1205.09 951.508 1205.73 952.227C1206.38 952.937 1207.21 953.468 1208.2 953.818C1209.21 954.159 1210.29 954.33 1211.44 954.33C1212.79 954.33 1213.99 954.112 1215.06 953.676C1216.13 953.231 1216.98 952.616 1217.61 951.83C1218.23 951.034 1218.54 950.106 1218.54 949.045C1218.54 948.08 1218.27 947.294 1217.73 946.688C1217.19 946.081 1216.48 945.589 1215.6 945.21C1214.72 944.831 1213.77 944.5 1212.75 944.216L1209.17 943.193C1206.9 942.54 1205.1 941.607 1203.77 940.395C1202.44 939.183 1201.78 937.597 1201.78 935.636C1201.78 934.008 1202.22 932.587 1203.1 931.375C1203.99 930.153 1205.19 929.206 1206.68 928.534C1208.19 927.852 1209.87 927.511 1211.73 927.511C1213.6 927.511 1215.27 927.848 1216.73 928.52C1218.18 929.183 1219.34 930.092 1220.19 931.247C1221.05 932.402 1221.51 933.714 1221.55 935.182H1218.15ZM1227.74 957V927.909H1245.3V931.034H1231.27V940.864H1244.39V943.989H1231.27V953.875H1245.53V957H1227.74ZM1250.06 931.034V927.909H1271.88V931.034H1262.73V957H1259.21V931.034H1250.06ZM1300.65 942.455C1300.65 945.523 1300.1 948.174 1298.99 950.409C1297.88 952.644 1296.36 954.367 1294.43 955.58C1292.5 956.792 1290.29 957.398 1287.81 957.398C1285.33 957.398 1283.12 956.792 1281.19 955.58C1279.26 954.367 1277.74 952.644 1276.63 950.409C1275.52 948.174 1274.97 945.523 1274.97 942.455C1274.97 939.386 1275.52 936.735 1276.63 934.5C1277.74 932.265 1279.26 930.542 1281.19 929.33C1283.12 928.117 1285.33 927.511 1287.81 927.511C1290.29 927.511 1292.5 928.117 1294.43 929.33C1296.36 930.542 1297.88 932.265 1298.99 934.5C1300.1 936.735 1300.65 939.386 1300.65 942.455ZM1297.24 942.455C1297.24 939.936 1296.82 937.81 1295.98 936.077C1295.14 934.344 1294.01 933.032 1292.58 932.142C1291.16 931.252 1289.57 930.807 1287.81 930.807C1286.05 930.807 1284.45 931.252 1283.02 932.142C1281.6 933.032 1280.47 934.344 1279.63 936.077C1278.79 937.81 1278.38 939.936 1278.38 942.455C1278.38 944.973 1278.79 947.099 1279.63 948.832C1280.47 950.565 1281.6 951.877 1283.02 952.767C1284.45 953.657 1286.05 954.102 1287.81 954.102C1289.57 954.102 1291.16 953.657 1292.58 952.767C1294.01 951.877 1295.14 950.565 1295.98 948.832C1296.82 947.099 1297.24 944.973 1297.24 942.455ZM1306.57 957V927.909H1316.4C1318.67 927.909 1320.54 928.297 1322 929.074C1323.46 929.841 1324.54 930.897 1325.24 932.241C1325.94 933.586 1326.29 935.116 1326.29 936.83C1326.29 938.544 1325.94 940.063 1325.24 941.389C1324.54 942.715 1323.46 943.757 1322.01 944.514C1320.56 945.262 1318.71 945.636 1316.46 945.636H1308.5V942.455H1316.35C1317.9 942.455 1319.15 942.227 1320.1 941.773C1321.05 941.318 1321.74 940.674 1322.17 939.841C1322.6 938.998 1322.82 937.994 1322.82 936.83C1322.82 935.665 1322.6 934.647 1322.17 933.776C1321.73 932.904 1321.04 932.232 1320.08 931.759C1319.12 931.276 1317.86 931.034 1316.29 931.034H1310.1V957H1306.57ZM1320.27 943.932L1327.42 957H1323.33L1316.29 943.932H1320.27ZM1366.09 938.094H1359.87C1359.75 937.289 1359.52 936.574 1359.17 935.949C1358.82 935.314 1358.37 934.775 1357.82 934.33C1357.27 933.884 1356.64 933.544 1355.92 933.307C1355.21 933.07 1354.44 932.952 1353.6 932.952C1352.1 932.952 1350.79 933.326 1349.67 934.074C1348.55 934.812 1347.69 935.892 1347.07 937.312C1346.45 938.723 1346.15 940.437 1346.15 942.455C1346.15 944.528 1346.45 946.271 1347.07 947.682C1347.69 949.093 1348.57 950.158 1349.68 950.878C1350.8 951.598 1352.09 951.957 1353.56 951.957C1354.39 951.957 1355.15 951.848 1355.85 951.631C1356.56 951.413 1357.19 951.096 1357.74 950.679C1358.29 950.253 1358.74 949.737 1359.1 949.131C1359.47 948.525 1359.73 947.833 1359.87 947.057L1366.09 947.085C1365.93 948.42 1365.53 949.708 1364.88 950.949C1364.25 952.18 1363.39 953.283 1362.31 954.259C1361.24 955.224 1359.96 955.991 1358.48 956.56C1357 957.118 1355.33 957.398 1353.46 957.398C1350.87 957.398 1348.55 956.811 1346.5 955.636C1344.47 954.462 1342.86 952.762 1341.67 950.537C1340.5 948.312 1339.91 945.617 1339.91 942.455C1339.91 939.282 1340.51 936.583 1341.7 934.358C1342.89 932.133 1344.51 930.437 1346.56 929.273C1348.6 928.098 1350.9 927.511 1353.46 927.511C1355.15 927.511 1356.71 927.748 1358.15 928.222C1359.6 928.695 1360.88 929.386 1362 930.295C1363.12 931.195 1364.03 932.298 1364.73 933.605C1365.44 934.912 1365.89 936.408 1366.09 938.094Z" fill="black"/>
<defs>
<filter id="filter0_d_1902_2779" x="669.257" y="122.491" width="257.063" height="246.606" filterUnits="userSpaceOnUse" color-interpolation-filters="sRGB">
<feFlood flood-opacity="0" result="BackgroundImageFix"/>
<feColorMatrix in="SourceAlpha" type="matrix" values="0 0 0 0 0 0 0 0 0 0 0 0 0 0 0 0 0 0 127 0" result="hardAlpha"/>
<feOffset dx="4" dy="4"/>
<feComposite in2="hardAlpha" operator="out"/>
<feColorMatrix type="matrix" values="0 0 0 0 0 0 0 0 0 0 0 0 0 0 0 0 0 0 0.25 0"/>
<feBlend mode="normal" in2="BackgroundImageFix" result="effect1_dropShadow_1902_2779"/>
<feBlend mode="normal" in="SourceGraphic" in2="effect1_dropShadow_1902_2779" result="shape"/>
</filter>
</defs>
</svg>
