<svg width="1527" height="1005" viewBox="0 0 1527 1005" fill="none" xmlns="http://www.w3.org/2000/svg">
<rect x="88" y="1" width="478" height="887" fill="#B3B470" fill-opacity="0.15"/>
<rect x="566" y="449" width="480" height="439" fill="#E00BCD" fill-opacity="0.15"/>
<rect x="1046" y="1" width="480" height="887" fill="#E0110B" fill-opacity="0.15"/>
<circle cx="603.914" cy="490.914" r="20.4143" fill="#D9D9D9" stroke="black"/>
<path d="M599.496 484.445C600.003 484.449 600.51 484.545 601.017 484.734C601.524 484.923 601.987 485.237 602.406 485.676C602.824 486.111 603.16 486.704 603.414 487.457C603.667 488.21 603.794 489.153 603.794 490.288C603.794 491.387 603.69 492.363 603.48 493.216C603.275 494.065 602.977 494.782 602.587 495.365C602.2 495.949 601.73 496.392 601.174 496.693C600.623 496.995 599.999 497.146 599.303 497.146C598.611 497.146 597.993 497.009 597.449 496.736C596.91 496.458 596.467 496.074 596.121 495.583C595.779 495.088 595.56 494.514 595.463 493.862H596.936C597.069 494.43 597.333 494.898 597.727 495.269C598.126 495.635 598.651 495.818 599.303 495.818C600.257 495.818 601.009 495.402 601.561 494.568C602.116 493.735 602.394 492.558 602.394 491.037H602.297C602.072 491.375 601.804 491.667 601.494 491.912C601.184 492.158 600.84 492.347 600.462 492.48C600.084 492.612 599.681 492.679 599.254 492.679C598.546 492.679 597.896 492.504 597.305 492.154C596.717 491.799 596.246 491.315 595.892 490.699C595.542 490.079 595.367 489.371 595.367 488.574C595.367 487.817 595.536 487.125 595.874 486.497C596.216 485.865 596.695 485.362 597.311 484.988C597.93 484.614 598.659 484.432 599.496 484.445ZM599.496 485.773C598.989 485.773 598.532 485.899 598.126 486.153C597.723 486.402 597.403 486.741 597.166 487.167C596.932 487.59 596.816 488.059 596.816 488.574C596.816 489.089 596.928 489.558 597.154 489.98C597.383 490.399 597.695 490.733 598.089 490.982C598.488 491.228 598.941 491.351 599.448 491.351C599.83 491.351 600.186 491.276 600.516 491.127C600.846 490.974 601.134 490.767 601.379 490.506C601.629 490.24 601.824 489.94 601.965 489.606C602.106 489.268 602.176 488.916 602.176 488.55C602.176 488.067 602.06 487.614 601.826 487.191C601.597 486.769 601.279 486.427 600.872 486.165C600.47 485.903 600.011 485.773 599.496 485.773ZM610.201 497.146C609.291 497.146 608.517 496.899 607.877 496.404C607.237 495.905 606.748 495.182 606.41 494.236C606.072 493.287 605.903 492.14 605.903 490.795C605.903 489.459 606.072 488.318 606.41 487.372C606.752 486.423 607.243 485.698 607.883 485.199C608.527 484.696 609.299 484.445 610.201 484.445C611.102 484.445 611.873 484.696 612.513 485.199C613.157 485.698 613.648 486.423 613.986 487.372C614.328 488.318 614.499 489.459 614.499 490.795C614.499 492.14 614.33 493.287 613.992 494.236C613.654 495.182 613.165 495.905 612.525 496.404C611.885 496.899 611.11 497.146 610.201 497.146ZM610.201 495.818C611.102 495.818 611.803 495.383 612.302 494.514C612.801 493.645 613.05 492.405 613.05 490.795C613.05 489.725 612.936 488.813 612.706 488.061C612.481 487.308 612.155 486.735 611.728 486.34C611.306 485.946 610.797 485.748 610.201 485.748C609.307 485.748 608.609 486.189 608.106 487.071C607.603 487.948 607.351 489.19 607.351 490.795C607.351 491.866 607.464 492.775 607.69 493.524C607.915 494.273 608.239 494.842 608.662 495.232C609.088 495.623 609.601 495.818 610.201 495.818Z" fill="black"/>
<circle cx="670.743" cy="490.914" r="20.4143" fill="#D9D9D9" stroke="black"/>
<path d="M666.399 484.445C666.906 484.449 667.413 484.545 667.92 484.734C668.427 484.923 668.89 485.237 669.309 485.676C669.727 486.111 670.063 486.704 670.317 487.457C670.57 488.21 670.697 489.153 670.697 490.288C670.697 491.387 670.592 492.363 670.383 493.216C670.178 494.065 669.88 494.782 669.49 495.365C669.103 495.949 668.632 496.392 668.077 496.693C667.526 496.995 666.902 497.146 666.206 497.146C665.513 497.146 664.896 497.009 664.352 496.736C663.813 496.458 663.37 496.074 663.024 495.583C662.682 495.088 662.463 494.514 662.366 493.862H663.839C663.972 494.43 664.236 494.898 664.63 495.269C665.028 495.635 665.554 495.818 666.206 495.818C667.159 495.818 667.912 495.402 668.463 494.568C669.019 493.735 669.296 492.558 669.296 491.037H669.2C668.975 491.375 668.707 491.667 668.397 491.912C668.087 492.158 667.743 492.347 667.365 492.48C666.986 492.612 666.584 492.679 666.157 492.679C665.449 492.679 664.799 492.504 664.207 492.154C663.62 491.799 663.149 491.315 662.795 490.699C662.445 490.079 662.27 489.371 662.27 488.574C662.27 487.817 662.439 487.125 662.777 486.497C663.119 485.865 663.598 485.362 664.213 484.988C664.833 484.614 665.562 484.432 666.399 484.445ZM666.399 485.773C665.892 485.773 665.435 485.899 665.028 486.153C664.626 486.402 664.306 486.741 664.069 487.167C663.835 487.59 663.718 488.059 663.718 488.574C663.718 489.089 663.831 489.558 664.056 489.98C664.286 490.399 664.598 490.733 664.992 490.982C665.391 491.228 665.843 491.351 666.35 491.351C666.733 491.351 667.089 491.276 667.419 491.127C667.749 490.974 668.037 490.767 668.282 490.506C668.532 490.24 668.727 489.94 668.868 489.606C669.009 489.268 669.079 488.916 669.079 488.55C669.079 488.067 668.962 487.614 668.729 487.191C668.5 486.769 668.182 486.427 667.775 486.165C667.373 485.903 666.914 485.773 666.399 485.773ZM677.418 484.614V496.977H675.921V486.183H675.848L672.83 488.187V486.666L675.921 484.614H677.418Z" fill="black"/>
<circle cx="737.572" cy="491.914" r="20.4143" fill="#D9D9D9" stroke="black"/>
<path d="M732.616 485.519C733.123 485.523 733.63 485.619 734.137 485.808C734.644 485.998 735.107 486.312 735.526 486.75C735.944 487.185 736.28 487.779 736.534 488.531C736.788 489.284 736.914 490.228 736.914 491.362C736.914 492.461 736.81 493.437 736.6 494.29C736.395 495.14 736.097 495.856 735.707 496.44C735.321 497.023 734.85 497.466 734.294 497.768C733.743 498.07 733.119 498.22 732.423 498.22C731.731 498.22 731.113 498.084 730.57 497.81C730.03 497.532 729.588 497.148 729.241 496.657C728.899 496.162 728.68 495.588 728.583 494.936H730.056C730.189 495.504 730.453 495.973 730.847 496.343C731.246 496.709 731.771 496.892 732.423 496.892C733.377 496.892 734.129 496.476 734.681 495.643C735.236 494.81 735.514 493.632 735.514 492.111H735.417C735.192 492.449 734.924 492.741 734.614 492.986C734.304 493.232 733.96 493.421 733.582 493.554C733.204 493.687 732.801 493.753 732.375 493.753C731.666 493.753 731.016 493.578 730.425 493.228C729.837 492.874 729.366 492.389 729.012 491.773C728.662 491.153 728.487 490.445 728.487 489.648C728.487 488.891 728.656 488.199 728.994 487.571C729.336 486.939 729.815 486.436 730.431 486.062C731.05 485.688 731.779 485.507 732.616 485.519ZM732.616 486.847C732.109 486.847 731.652 486.974 731.246 487.227C730.843 487.477 730.523 487.815 730.286 488.241C730.052 488.664 729.936 489.133 729.936 489.648C729.936 490.163 730.048 490.632 730.274 491.055C730.503 491.473 730.815 491.807 731.209 492.057C731.608 492.302 732.061 492.425 732.568 492.425C732.95 492.425 733.306 492.351 733.636 492.202C733.966 492.049 734.254 491.841 734.5 491.58C734.749 491.314 734.944 491.014 735.085 490.68C735.226 490.342 735.296 489.99 735.296 489.624C735.296 489.141 735.18 488.688 734.946 488.266C734.717 487.843 734.399 487.501 733.992 487.239C733.59 486.978 733.131 486.847 732.616 486.847ZM739.288 498.051V496.965L743.369 492.497C743.848 491.974 744.243 491.519 744.553 491.133C744.862 490.743 745.092 490.376 745.241 490.034C745.394 489.688 745.47 489.326 745.47 488.948C745.47 488.513 745.366 488.137 745.156 487.819C744.951 487.501 744.669 487.255 744.311 487.082C743.953 486.909 743.55 486.823 743.104 486.823C742.629 486.823 742.214 486.921 741.86 487.119C741.51 487.312 741.238 487.583 741.045 487.933C740.856 488.284 740.761 488.694 740.761 489.165H739.337C739.337 488.441 739.504 487.805 739.838 487.257C740.172 486.71 740.627 486.283 741.202 485.978C741.782 485.672 742.432 485.519 743.152 485.519C743.876 485.519 744.518 485.672 745.078 485.978C745.637 486.283 746.076 486.696 746.394 487.215C746.712 487.734 746.871 488.312 746.871 488.948C746.871 489.402 746.788 489.847 746.623 490.282C746.462 490.712 746.181 491.193 745.778 491.725C745.38 492.252 744.826 492.896 744.118 493.657L741.341 496.627V496.723H747.088V498.051H739.288Z" fill="black"/>
<circle cx="804.4" cy="491.914" r="20.4143" fill="#D9D9D9" stroke="black"/>
<path d="M799.519 485.519C800.026 485.523 800.533 485.619 801.04 485.808C801.547 485.998 802.01 486.312 802.429 486.75C802.847 487.185 803.183 487.779 803.437 488.531C803.69 489.284 803.817 490.228 803.817 491.362C803.817 492.461 803.713 493.437 803.503 494.29C803.298 495.14 803 495.856 802.61 496.44C802.223 497.023 801.753 497.466 801.197 497.768C800.646 498.07 800.022 498.22 799.326 498.22C798.633 498.22 798.016 498.084 797.472 497.81C796.933 497.532 796.49 497.148 796.144 496.657C795.802 496.162 795.583 495.588 795.486 494.936H796.959C797.092 495.504 797.356 495.973 797.75 496.343C798.149 496.709 798.674 496.892 799.326 496.892C800.28 496.892 801.032 496.476 801.584 495.643C802.139 494.81 802.417 493.632 802.417 492.111H802.32C802.095 492.449 801.827 492.741 801.517 492.986C801.207 493.232 800.863 493.421 800.485 493.554C800.106 493.687 799.704 493.753 799.277 493.753C798.569 493.753 797.919 493.578 797.327 493.228C796.74 492.874 796.269 492.389 795.915 491.773C795.565 491.153 795.39 490.445 795.39 489.648C795.39 488.891 795.559 488.199 795.897 487.571C796.239 486.939 796.718 486.436 797.334 486.062C797.953 485.688 798.682 485.507 799.519 485.519ZM799.519 486.847C799.012 486.847 798.555 486.974 798.149 487.227C797.746 487.477 797.426 487.815 797.189 488.241C796.955 488.664 796.838 489.133 796.838 489.648C796.838 490.163 796.951 490.632 797.177 491.055C797.406 491.473 797.718 491.807 798.112 492.057C798.511 492.302 798.963 492.425 799.471 492.425C799.853 492.425 800.209 492.351 800.539 492.202C800.869 492.049 801.157 491.841 801.402 491.58C801.652 491.314 801.847 491.014 801.988 490.68C802.129 490.342 802.199 489.99 802.199 489.624C802.199 489.141 802.083 488.688 801.849 488.266C801.62 487.843 801.302 487.501 800.895 487.239C800.493 486.978 800.034 486.847 799.519 486.847ZM810.369 498.22C809.572 498.22 808.862 498.084 808.238 497.81C807.618 497.536 807.125 497.156 806.759 496.669C806.396 496.178 806.199 495.608 806.167 494.96H807.688C807.721 495.359 807.857 495.703 808.099 495.993C808.34 496.279 808.656 496.5 809.047 496.657C809.437 496.814 809.87 496.892 810.345 496.892C810.876 496.892 811.347 496.8 811.757 496.615C812.168 496.429 812.49 496.172 812.723 495.842C812.957 495.512 813.073 495.13 813.073 494.695C813.073 494.24 812.961 493.84 812.735 493.494C812.51 493.143 812.18 492.87 811.745 492.672C811.311 492.475 810.779 492.377 810.151 492.377H809.161V491.049H810.151C810.642 491.049 811.073 490.96 811.443 490.783C811.818 490.606 812.109 490.356 812.319 490.034C812.532 489.712 812.639 489.334 812.639 488.899C812.639 488.481 812.546 488.117 812.361 487.807C812.176 487.497 811.914 487.255 811.576 487.082C811.242 486.909 810.848 486.823 810.393 486.823C809.966 486.823 809.564 486.901 809.186 487.058C808.811 487.211 808.505 487.434 808.268 487.728C808.03 488.018 807.902 488.368 807.882 488.779H806.433C806.457 488.131 806.652 487.563 807.018 487.076C807.385 486.585 807.863 486.203 808.455 485.929C809.051 485.656 809.705 485.519 810.417 485.519C811.182 485.519 811.838 485.674 812.385 485.984C812.932 486.289 813.353 486.694 813.647 487.197C813.941 487.7 814.088 488.243 814.088 488.827C814.088 489.523 813.904 490.117 813.538 490.608C813.176 491.099 812.683 491.439 812.059 491.628V491.725C812.84 491.853 813.45 492.186 813.888 492.721C814.327 493.252 814.546 493.91 814.546 494.695C814.546 495.367 814.363 495.971 813.997 496.506C813.635 497.037 813.14 497.456 812.512 497.762C811.884 498.067 811.17 498.22 810.369 498.22Z" fill="black"/>
<circle cx="871.229" cy="489.914" r="20.4143" fill="#D9D9D9" stroke="black"/>
<path d="M866.273 484.593C866.78 484.597 867.287 484.694 867.795 484.883C868.302 485.072 868.765 485.386 869.183 485.825C869.602 486.259 869.938 486.853 870.191 487.605C870.445 488.358 870.572 489.302 870.572 490.437C870.572 491.536 870.467 492.512 870.258 493.365C870.052 494.214 869.755 494.93 869.364 495.514C868.978 496.097 868.507 496.54 867.952 496.842C867.4 497.144 866.776 497.295 866.08 497.295C865.388 497.295 864.77 497.158 864.227 496.884C863.687 496.607 863.245 496.222 862.899 495.731C862.557 495.236 862.337 494.663 862.241 494.011H863.714C863.846 494.578 864.11 495.047 864.504 495.417C864.903 495.784 865.428 495.967 866.08 495.967C867.034 495.967 867.787 495.55 868.338 494.717C868.893 493.884 869.171 492.707 869.171 491.185H869.074C868.849 491.523 868.581 491.815 868.272 492.061C867.962 492.306 867.618 492.495 867.239 492.628C866.861 492.761 866.458 492.827 866.032 492.827C865.323 492.827 864.673 492.652 864.082 492.302C863.494 491.948 863.023 491.463 862.669 490.847C862.319 490.228 862.144 489.519 862.144 488.722C862.144 487.966 862.313 487.273 862.651 486.646C862.993 486.014 863.472 485.511 864.088 485.136C864.708 484.762 865.436 484.581 866.273 484.593ZM866.273 485.921C865.766 485.921 865.309 486.048 864.903 486.302C864.5 486.551 864.18 486.889 863.943 487.316C863.71 487.738 863.593 488.207 863.593 488.722C863.593 489.237 863.706 489.706 863.931 490.129C864.16 490.547 864.472 490.882 864.867 491.131C865.265 491.377 865.718 491.499 866.225 491.499C866.607 491.499 866.964 491.425 867.294 491.276C867.624 491.123 867.911 490.916 868.157 490.654C868.406 490.389 868.602 490.089 868.742 489.755C868.883 489.417 868.954 489.064 868.954 488.698C868.954 488.215 868.837 487.762 868.604 487.34C868.374 486.917 868.056 486.575 867.65 486.314C867.247 486.052 866.788 485.921 866.273 485.921ZM872.656 494.59V493.359L878.089 484.762H878.983V486.67H878.379L874.274 493.166V493.262H881.59V494.59H872.656ZM878.475 497.126V494.216V493.642V484.762H879.9V497.126H878.475Z" fill="black"/>
<circle cx="938.057" cy="489.914" r="20.4143" fill="#D9D9D9" stroke="black"/>
<path d="M933.176 483.593C933.683 483.597 934.19 483.694 934.697 483.883C935.205 484.072 935.667 484.386 936.086 484.825C936.504 485.259 936.841 485.853 937.094 486.605C937.348 487.358 937.474 488.302 937.474 489.437C937.474 490.536 937.37 491.512 937.16 492.365C936.955 493.214 936.657 493.93 936.267 494.514C935.881 495.097 935.41 495.54 934.854 495.842C934.303 496.144 933.679 496.295 932.983 496.295C932.291 496.295 931.673 496.158 931.13 495.884C930.59 495.607 930.148 495.222 929.801 494.731C929.459 494.236 929.24 493.663 929.143 493.011H930.616C930.749 493.578 931.013 494.047 931.407 494.417C931.806 494.784 932.331 494.967 932.983 494.967C933.937 494.967 934.689 494.55 935.241 493.717C935.796 492.884 936.074 491.707 936.074 490.185H935.977C935.752 490.523 935.484 490.815 935.174 491.061C934.864 491.306 934.52 491.495 934.142 491.628C933.764 491.761 933.361 491.827 932.935 491.827C932.226 491.827 931.576 491.652 930.985 491.302C930.397 490.948 929.926 490.463 929.572 489.847C929.222 489.228 929.047 488.519 929.047 487.722C929.047 486.966 929.216 486.273 929.554 485.646C929.896 485.014 930.375 484.511 930.991 484.136C931.611 483.762 932.339 483.581 933.176 483.593ZM933.176 484.921C932.669 484.921 932.212 485.048 931.806 485.302C931.403 485.551 931.083 485.889 930.846 486.316C930.612 486.738 930.496 487.207 930.496 487.722C930.496 488.237 930.608 488.706 930.834 489.129C931.063 489.547 931.375 489.882 931.77 490.131C932.168 490.377 932.621 490.499 933.128 490.499C933.51 490.499 933.866 490.425 934.196 490.276C934.526 490.123 934.814 489.916 935.06 489.654C935.309 489.389 935.504 489.089 935.645 488.755C935.786 488.417 935.857 488.064 935.857 487.698C935.857 487.215 935.74 486.762 935.506 486.34C935.277 485.917 934.959 485.575 934.553 485.314C934.15 485.052 933.691 484.921 933.176 484.921ZM943.712 496.295C943.004 496.295 942.366 496.154 941.798 495.872C941.231 495.59 940.776 495.204 940.434 494.713C940.092 494.222 939.905 493.663 939.873 493.035H941.321C941.378 493.594 941.631 494.057 942.082 494.423C942.537 494.786 943.08 494.967 943.712 494.967C944.219 494.967 944.67 494.848 945.064 494.61C945.463 494.373 945.775 494.047 946 493.632C946.229 493.214 946.344 492.741 946.344 492.214C946.344 491.675 946.225 491.194 945.988 490.771C945.755 490.344 945.433 490.008 945.022 489.763C944.612 489.517 944.143 489.393 943.615 489.389C943.237 489.384 942.849 489.443 942.45 489.564C942.052 489.68 941.724 489.831 941.466 490.016L940.066 489.847L940.814 483.762H947.238V485.09H942.07L941.635 488.737H941.708C941.961 488.535 942.279 488.368 942.662 488.235C943.044 488.103 943.442 488.036 943.857 488.036C944.614 488.036 945.288 488.217 945.879 488.58C946.475 488.938 946.942 489.429 947.28 490.053C947.622 490.676 947.793 491.389 947.793 492.19C947.793 492.978 947.616 493.683 947.262 494.303C946.912 494.918 946.429 495.405 945.813 495.764C945.197 496.118 944.497 496.295 943.712 496.295Z" fill="black"/>
<circle cx="1004.89" cy="489.914" r="20.4143" fill="#D9D9D9" stroke="black"/>
<path d="M999.931 483.667C1000.44 483.671 1000.94 483.768 1001.45 483.957C1001.96 484.146 1002.42 484.46 1002.84 484.899C1003.26 485.334 1003.59 485.927 1003.85 486.68C1004.1 487.432 1004.23 488.376 1004.23 489.511C1004.23 490.61 1004.12 491.586 1003.91 492.439C1003.71 493.288 1003.41 494.005 1003.02 494.588C1002.64 495.172 1002.16 495.614 1001.61 495.916C1001.06 496.218 1000.43 496.369 999.737 496.369C999.045 496.369 998.427 496.232 997.884 495.959C997.345 495.681 996.902 495.296 996.556 494.805C996.214 494.31 995.994 493.737 995.898 493.085H997.371C997.504 493.652 997.767 494.121 998.162 494.492C998.56 494.858 999.085 495.041 999.737 495.041C1000.69 495.041 1001.44 494.624 1002 493.791C1002.55 492.958 1002.83 491.781 1002.83 490.26H1002.73C1002.51 490.598 1002.24 490.89 1001.93 491.135C1001.62 491.381 1001.27 491.57 1000.9 491.702C1000.52 491.835 1000.12 491.902 999.689 491.902C998.981 491.902 998.331 491.727 997.739 491.377C997.152 491.022 996.681 490.537 996.326 489.922C995.976 489.302 995.801 488.593 995.801 487.797C995.801 487.04 995.97 486.348 996.308 485.72C996.65 485.088 997.129 484.585 997.745 484.211C998.365 483.836 999.093 483.655 999.931 483.667ZM999.931 484.995C999.423 484.995 998.967 485.122 998.56 485.376C998.158 485.625 997.838 485.963 997.6 486.39C997.367 486.813 997.25 487.281 997.25 487.797C997.25 488.312 997.363 488.781 997.588 489.203C997.818 489.622 998.129 489.956 998.524 490.205C998.922 490.451 999.375 490.574 999.882 490.574C1000.26 490.574 1000.62 490.499 1000.95 490.35C1001.28 490.197 1001.57 489.99 1001.81 489.728C1002.06 489.463 1002.26 489.163 1002.4 488.829C1002.54 488.491 1002.61 488.139 1002.61 487.772C1002.61 487.29 1002.49 486.837 1002.26 486.414C1002.03 485.992 1001.71 485.649 1001.31 485.388C1000.9 485.126 1000.45 484.995 999.931 484.995ZM1010.71 496.369C1010.2 496.361 1009.69 496.264 1009.19 496.079C1008.68 495.894 1008.22 495.582 1007.8 495.144C1007.38 494.701 1007.04 494.103 1006.79 493.351C1006.54 492.594 1006.41 491.644 1006.41 490.501C1006.41 489.406 1006.51 488.437 1006.72 487.591C1006.92 486.742 1007.22 486.028 1007.61 485.448C1008 484.865 1008.47 484.422 1009.02 484.12C1009.58 483.818 1010.2 483.667 1010.9 483.667C1011.59 483.667 1012.21 483.806 1012.75 484.084C1013.29 484.358 1013.73 484.74 1014.08 485.231C1014.42 485.722 1014.64 486.287 1014.74 486.927H1013.27C1013.13 486.372 1012.87 485.911 1012.47 485.545C1012.08 485.179 1011.55 484.995 1010.9 484.995C1009.94 484.995 1009.19 485.412 1008.64 486.245C1008.09 487.078 1007.81 488.247 1007.81 489.753H1007.91C1008.13 489.41 1008.4 489.119 1008.71 488.877C1009.02 488.632 1009.37 488.443 1009.75 488.31C1010.13 488.177 1010.53 488.111 1010.95 488.111C1011.66 488.111 1012.31 488.288 1012.89 488.642C1013.48 488.992 1013.95 489.477 1014.31 490.097C1014.66 490.712 1014.84 491.419 1014.84 492.216C1014.84 492.98 1014.67 493.681 1014.32 494.316C1013.98 494.948 1013.5 495.451 1012.88 495.826C1012.27 496.196 1011.54 496.377 1010.71 496.369ZM1010.71 495.041C1011.22 495.041 1011.67 494.914 1012.07 494.661C1012.48 494.407 1012.8 494.067 1013.03 493.64C1013.27 493.214 1013.39 492.739 1013.39 492.216C1013.39 491.705 1013.27 491.24 1013.04 490.821C1012.82 490.399 1012.51 490.062 1012.11 489.813C1011.71 489.563 1011.26 489.439 1010.76 489.439C1010.37 489.439 1010.02 489.515 1009.69 489.668C1009.36 489.817 1009.07 490.022 1008.82 490.284C1008.57 490.545 1008.38 490.845 1008.24 491.183C1008.1 491.517 1008.03 491.87 1008.03 492.24C1008.03 492.731 1008.14 493.19 1008.37 493.616C1008.61 494.043 1008.92 494.387 1009.33 494.649C1009.73 494.91 1010.19 495.041 1010.71 495.041Z" fill="black"/>
<circle cx="603.914" cy="556.914" r="20.4143" fill="#D9D9D9" stroke="black"/>
<path d="M599.033 551.667C599.54 551.671 600.047 551.768 600.554 551.957C601.061 552.146 601.524 552.46 601.943 552.899C602.361 553.334 602.697 553.927 602.951 554.68C603.205 555.432 603.331 556.376 603.331 557.511C603.331 558.61 603.227 559.586 603.017 560.439C602.812 561.288 602.514 562.005 602.124 562.588C601.738 563.172 601.267 563.614 600.711 563.916C600.16 564.218 599.536 564.369 598.84 564.369C598.148 564.369 597.53 564.232 596.987 563.959C596.447 563.681 596.005 563.296 595.658 562.805C595.316 562.31 595.097 561.737 595 561.085H596.473C596.606 561.652 596.87 562.121 597.264 562.492C597.663 562.858 598.188 563.041 598.84 563.041C599.794 563.041 600.546 562.624 601.098 561.791C601.653 560.958 601.931 559.781 601.931 558.26H601.834C601.609 558.598 601.341 558.89 601.031 559.135C600.721 559.381 600.377 559.57 599.999 559.702C599.621 559.835 599.218 559.902 598.792 559.902C598.083 559.902 597.433 559.727 596.842 559.377C596.254 559.022 595.783 558.537 595.429 557.922C595.079 557.302 594.904 556.593 594.904 555.797C594.904 555.04 595.073 554.348 595.411 553.72C595.753 553.088 596.232 552.585 596.848 552.211C597.467 551.836 598.196 551.655 599.033 551.667ZM599.033 552.995C598.526 552.995 598.069 553.122 597.663 553.376C597.26 553.625 596.94 553.963 596.703 554.39C596.469 554.813 596.353 555.281 596.353 555.797C596.353 556.312 596.465 556.781 596.691 557.203C596.92 557.622 597.232 557.956 597.626 558.205C598.025 558.451 598.478 558.574 598.985 558.574C599.367 558.574 599.723 558.499 600.053 558.35C600.383 558.197 600.671 557.99 600.917 557.728C601.166 557.463 601.361 557.163 601.502 556.829C601.643 556.491 601.713 556.139 601.713 555.772C601.713 555.29 601.597 554.837 601.363 554.414C601.134 553.992 600.816 553.649 600.409 553.388C600.007 553.126 599.548 552.995 599.033 552.995ZM605.76 564.2L611.29 553.261V553.165H604.915V551.836H612.835V553.237L607.329 564.2H605.76Z" fill="black"/>
<circle cx="670.914" cy="556.914" r="20.4143" fill="#D9D9D9" stroke="black"/>
<path d="M665.959 551.742C666.466 551.746 666.973 551.842 667.48 552.031C667.987 552.221 668.45 552.534 668.869 552.973C669.287 553.408 669.623 554.001 669.877 554.754C670.13 555.507 670.257 556.45 670.257 557.585C670.257 558.684 670.152 559.66 669.943 560.513C669.738 561.362 669.44 562.079 669.05 562.662C668.663 563.246 668.192 563.689 667.637 563.991C667.086 564.292 666.462 564.443 665.766 564.443C665.073 564.443 664.456 564.306 663.912 564.033C663.373 563.755 662.93 563.371 662.584 562.88C662.242 562.385 662.023 561.811 661.926 561.159H663.399C663.532 561.727 663.796 562.196 664.19 562.566C664.588 562.932 665.114 563.115 665.766 563.115C666.719 563.115 667.472 562.699 668.023 561.866C668.579 561.032 668.857 559.855 668.857 558.334H668.76C668.535 558.672 668.267 558.964 667.957 559.209C667.647 559.455 667.303 559.644 666.925 559.777C666.546 559.91 666.144 559.976 665.717 559.976C665.009 559.976 664.359 559.801 663.767 559.451C663.18 559.097 662.709 558.612 662.355 557.996C662.005 557.376 661.83 556.668 661.83 555.871C661.83 555.114 661.999 554.422 662.337 553.794C662.679 553.162 663.158 552.659 663.773 552.285C664.393 551.911 665.122 551.73 665.959 551.742ZM665.959 553.07C665.452 553.07 664.995 553.197 664.588 553.45C664.186 553.7 663.866 554.038 663.629 554.464C663.395 554.887 663.278 555.356 663.278 555.871C663.278 556.386 663.391 556.855 663.616 557.277C663.846 557.696 664.158 558.03 664.552 558.28C664.951 558.525 665.403 558.648 665.911 558.648C666.293 558.648 666.649 558.573 666.979 558.425C667.309 558.272 667.597 558.064 667.842 557.803C668.092 557.537 668.287 557.237 668.428 556.903C668.569 556.565 668.639 556.213 668.639 555.847C668.639 555.364 668.523 554.911 668.289 554.488C668.06 554.066 667.742 553.724 667.335 553.462C666.933 553.201 666.474 553.07 665.959 553.07ZM676.591 564.443C675.762 564.443 675.03 564.296 674.394 564.003C673.762 563.705 673.269 563.296 672.915 562.777C672.561 562.254 672.386 561.658 672.39 560.99C672.386 560.467 672.488 559.984 672.698 559.541C672.907 559.095 673.193 558.722 673.555 558.425C673.921 558.123 674.33 557.931 674.78 557.851V557.779C674.189 557.626 673.718 557.294 673.368 556.782C673.018 556.267 672.844 555.682 672.848 555.026C672.844 554.398 673.003 553.836 673.325 553.341C673.647 552.846 674.09 552.456 674.654 552.17C675.221 551.884 675.867 551.742 676.591 551.742C677.308 551.742 677.948 551.884 678.511 552.17C679.075 552.456 679.517 552.846 679.839 553.341C680.165 553.836 680.33 554.398 680.334 555.026C680.33 555.682 680.151 556.267 679.797 556.782C679.447 557.294 678.982 557.626 678.402 557.779V557.851C678.849 557.931 679.252 558.123 679.61 558.425C679.968 558.722 680.254 559.095 680.467 559.541C680.68 559.984 680.789 560.467 680.793 560.99C680.789 561.658 680.608 562.254 680.25 562.777C679.896 563.296 679.403 563.705 678.771 564.003C678.143 564.296 677.416 564.443 676.591 564.443ZM676.591 563.115C677.151 563.115 677.634 563.025 678.04 562.844C678.447 562.662 678.761 562.407 678.982 562.077C679.203 561.747 679.316 561.36 679.32 560.918C679.316 560.451 679.195 560.038 678.958 559.68C678.72 559.322 678.396 559.04 677.986 558.835C677.579 558.63 677.115 558.527 676.591 558.527C676.064 558.527 675.593 558.63 675.179 558.835C674.768 559.04 674.444 559.322 674.207 559.68C673.973 560.038 673.859 560.451 673.863 560.918C673.859 561.36 673.965 561.747 674.183 562.077C674.404 562.407 674.72 562.662 675.13 562.844C675.541 563.025 676.028 563.115 676.591 563.115ZM676.591 557.247C677.034 557.247 677.426 557.159 677.769 556.982C678.115 556.805 678.386 556.557 678.584 556.239C678.781 555.921 678.881 555.549 678.885 555.122C678.881 554.704 678.783 554.34 678.59 554.03C678.396 553.716 678.129 553.474 677.787 553.305C677.445 553.132 677.046 553.046 676.591 553.046C676.129 553.046 675.724 553.132 675.378 553.305C675.032 553.474 674.764 553.716 674.575 554.03C674.386 554.34 674.293 554.704 674.297 555.122C674.293 555.549 674.388 555.921 674.581 556.239C674.778 556.557 675.05 556.805 675.396 556.982C675.742 557.159 676.141 557.247 676.591 557.247Z" fill="black"/>
<circle cx="737.914" cy="556.914" r="20.4143" fill="#D9D9D9" stroke="black"/>
<path d="M732.033 550.742C732.54 550.746 733.047 550.842 733.554 551.031C734.061 551.221 734.524 551.534 734.943 551.973C735.361 552.408 735.697 553.001 735.951 553.754C736.205 554.507 736.331 555.45 736.331 556.585C736.331 557.684 736.227 558.66 736.017 559.513C735.812 560.362 735.514 561.079 735.124 561.662C734.738 562.246 734.267 562.689 733.711 562.991C733.16 563.292 732.536 563.443 731.84 563.443C731.148 563.443 730.53 563.306 729.987 563.033C729.447 562.755 729.005 562.371 728.658 561.88C728.316 561.385 728.097 560.811 728 560.159H729.473C729.606 560.727 729.87 561.196 730.264 561.566C730.663 561.932 731.188 562.115 731.84 562.115C732.794 562.115 733.546 561.699 734.098 560.866C734.653 560.032 734.931 558.855 734.931 557.334H734.834C734.609 557.672 734.341 557.964 734.031 558.209C733.721 558.455 733.377 558.644 732.999 558.777C732.621 558.91 732.218 558.976 731.792 558.976C731.083 558.976 730.433 558.801 729.842 558.451C729.254 558.097 728.783 557.612 728.429 556.996C728.079 556.376 727.904 555.668 727.904 554.871C727.904 554.114 728.073 553.422 728.411 552.794C728.753 552.162 729.232 551.659 729.848 551.285C730.467 550.911 731.196 550.73 732.033 550.742ZM732.033 552.07C731.526 552.07 731.069 552.197 730.663 552.45C730.26 552.7 729.94 553.038 729.703 553.464C729.469 553.887 729.353 554.356 729.353 554.871C729.353 555.386 729.465 555.855 729.691 556.277C729.92 556.696 730.232 557.03 730.626 557.28C731.025 557.525 731.478 557.648 731.985 557.648C732.367 557.648 732.723 557.573 733.053 557.425C733.383 557.272 733.671 557.064 733.917 556.803C734.166 556.537 734.361 556.237 734.502 555.903C734.643 555.565 734.713 555.213 734.713 554.847C734.713 554.364 734.597 553.911 734.363 553.488C734.134 553.066 733.816 552.724 733.409 552.462C733.007 552.201 732.548 552.07 732.033 552.07ZM742.641 550.742C743.149 550.746 743.656 550.842 744.163 551.031C744.67 551.221 745.133 551.534 745.551 551.973C745.97 552.408 746.306 553.001 746.559 553.754C746.813 554.507 746.94 555.45 746.94 556.585C746.94 557.684 746.835 558.66 746.626 559.513C746.421 560.362 746.123 561.079 745.732 561.662C745.346 562.246 744.875 562.689 744.32 562.991C743.768 563.292 743.145 563.443 742.448 563.443C741.756 563.443 741.138 563.306 740.595 563.033C740.056 562.755 739.613 562.371 739.267 561.88C738.925 561.385 738.705 560.811 738.609 560.159H740.082C740.215 560.727 740.478 561.196 740.873 561.566C741.271 561.932 741.796 562.115 742.448 562.115C743.402 562.115 744.155 561.699 744.706 560.866C745.261 560.032 745.539 558.855 745.539 557.334H745.443C745.217 557.672 744.95 557.964 744.64 558.209C744.33 558.455 743.986 558.644 743.607 558.777C743.229 558.91 742.827 558.976 742.4 558.976C741.692 558.976 741.042 558.801 740.45 558.451C739.862 558.097 739.392 557.612 739.037 556.996C738.687 556.376 738.512 555.668 738.512 554.871C738.512 554.114 738.681 553.422 739.019 552.794C739.361 552.162 739.84 551.659 740.456 551.285C741.076 550.911 741.804 550.73 742.641 550.742ZM742.641 552.07C742.134 552.07 741.678 552.197 741.271 552.45C740.869 552.7 740.549 553.038 740.311 553.464C740.078 553.887 739.961 554.356 739.961 554.871C739.961 555.386 740.074 555.855 740.299 556.277C740.529 556.696 740.84 557.03 741.235 557.28C741.633 557.525 742.086 557.648 742.593 557.648C742.975 557.648 743.332 557.573 743.662 557.425C743.992 557.272 744.279 557.064 744.525 556.803C744.774 556.537 744.97 556.237 745.111 555.903C745.251 555.565 745.322 555.213 745.322 554.847C745.322 554.364 745.205 553.911 744.972 553.488C744.742 553.066 744.424 552.724 744.018 552.462C743.615 552.201 743.157 552.07 742.641 552.07Z" fill="black"/>
<circle cx="804.914" cy="556.914" r="20.4143" fill="#D9D9D9" stroke="black"/>
<path d="M796.369 550.985V563.349H794.872V552.555H794.8L791.781 554.559V553.037L794.872 550.985H796.369ZM803.958 563.518C803.048 563.518 802.273 563.27 801.634 562.775C800.994 562.276 800.505 561.554 800.167 560.608C799.829 559.658 799.659 558.511 799.659 557.167C799.659 555.831 799.829 554.69 800.167 553.744C800.509 552.794 801 552.07 801.64 551.571C802.284 551.067 803.056 550.816 803.958 550.816C804.859 550.816 805.63 551.067 806.27 551.571C806.914 552.07 807.405 552.794 807.743 553.744C808.085 554.69 808.256 555.831 808.256 557.167C808.256 558.511 808.087 559.658 807.749 560.608C807.411 561.554 806.922 562.276 806.282 562.775C805.642 563.27 804.867 563.518 803.958 563.518ZM803.958 562.189C804.859 562.189 805.56 561.755 806.059 560.886C806.558 560.016 806.807 558.777 806.807 557.167C806.807 556.096 806.692 555.185 806.463 554.432C806.238 553.679 805.912 553.106 805.485 552.711C805.063 552.317 804.553 552.12 803.958 552.12C803.064 552.12 802.366 552.561 801.863 553.442C801.36 554.319 801.108 555.561 801.108 557.167C801.108 558.237 801.221 559.147 801.446 559.895C801.672 560.644 801.996 561.214 802.418 561.604C802.845 561.994 803.358 562.189 803.958 562.189ZM814.583 563.518C813.673 563.518 812.898 563.27 812.259 562.775C811.619 562.276 811.13 561.554 810.792 560.608C810.454 559.658 810.284 558.511 810.284 557.167C810.284 555.831 810.454 554.69 810.792 553.744C811.134 552.794 811.625 552.07 812.265 551.571C812.909 551.067 813.681 550.816 814.583 550.816C815.484 550.816 816.255 551.067 816.895 551.571C817.539 552.07 818.03 552.794 818.368 553.744C818.71 554.69 818.881 555.831 818.881 557.167C818.881 558.511 818.712 559.658 818.374 560.608C818.036 561.554 817.547 562.276 816.907 562.775C816.267 563.27 815.492 563.518 814.583 563.518ZM814.583 562.189C815.484 562.189 816.185 561.755 816.684 560.886C817.183 560.016 817.432 558.777 817.432 557.167C817.432 556.096 817.317 555.185 817.088 554.432C816.863 553.679 816.537 553.106 816.11 552.711C815.688 552.317 815.178 552.12 814.583 552.12C813.689 552.12 812.991 552.561 812.488 553.442C811.985 554.319 811.733 555.561 811.733 557.167C811.733 558.237 811.846 559.147 812.071 559.895C812.297 560.644 812.621 561.214 813.043 561.604C813.47 561.994 813.983 562.189 814.583 562.189Z" fill="black"/>
<circle cx="871.914" cy="556.914" r="20.4143" fill="#D9D9D9" stroke="black"/>
<path d="M864.444 550.985V563.349H862.946V552.555H862.874L859.855 554.559V553.037L862.946 550.985H864.444ZM872.032 563.518C871.122 563.518 870.348 563.27 869.708 562.775C869.068 562.276 868.579 561.554 868.241 560.608C867.903 559.658 867.734 558.511 867.734 557.167C867.734 555.831 867.903 554.69 868.241 553.744C868.583 552.794 869.074 552.07 869.714 551.571C870.358 551.067 871.13 550.816 872.032 550.816C872.933 550.816 873.704 551.067 874.344 551.571C874.988 552.07 875.479 552.794 875.817 553.744C876.159 554.69 876.33 555.831 876.33 557.167C876.33 558.511 876.161 559.658 875.823 560.608C875.485 561.554 874.996 562.276 874.356 562.775C873.716 563.27 872.942 563.518 872.032 563.518ZM872.032 562.189C872.933 562.189 873.634 561.755 874.133 560.886C874.632 560.016 874.881 558.777 874.881 557.167C874.881 556.096 874.767 555.185 874.537 554.432C874.312 553.679 873.986 553.106 873.559 552.711C873.137 552.317 872.628 552.12 872.032 552.12C871.139 552.12 870.44 552.561 869.937 553.442C869.434 554.319 869.183 555.561 869.183 557.167C869.183 558.237 869.295 559.147 869.521 559.895C869.746 560.644 870.07 561.214 870.493 561.604C870.919 561.994 871.432 562.189 872.032 562.189ZM882.971 550.985V563.349H881.474V552.555H881.401L878.383 554.559V553.037L881.474 550.985H882.971Z" fill="black"/>
<circle cx="938.914" cy="556.914" r="20.4143" fill="#D9D9D9" stroke="black"/>
<path d="M930.444 551.059V563.423H928.946V552.629H928.874L925.855 554.633V553.112L928.946 551.059H930.444ZM938.032 563.592C937.122 563.592 936.348 563.344 935.708 562.849C935.068 562.35 934.579 561.628 934.241 560.682C933.903 559.732 933.734 558.585 933.734 557.241C933.734 555.905 933.903 554.764 934.241 553.818C934.583 552.868 935.074 552.144 935.714 551.645C936.358 551.142 937.13 550.89 938.032 550.89C938.933 550.89 939.704 551.142 940.344 551.645C940.988 552.144 941.479 552.868 941.817 553.818C942.159 554.764 942.33 555.905 942.33 557.241C942.33 558.585 942.161 559.732 941.823 560.682C941.485 561.628 940.996 562.35 940.356 562.849C939.716 563.344 938.942 563.592 938.032 563.592ZM938.032 562.264C938.933 562.264 939.634 561.829 940.133 560.96C940.632 560.09 940.881 558.851 940.881 557.241C940.881 556.17 940.767 555.259 940.537 554.506C940.312 553.754 939.986 553.18 939.559 552.786C939.137 552.391 938.628 552.194 938.032 552.194C937.139 552.194 936.44 552.635 935.937 553.516C935.434 554.394 935.183 555.635 935.183 557.241C935.183 558.312 935.295 559.221 935.521 559.97C935.746 560.718 936.07 561.288 936.493 561.678C936.919 562.069 937.432 562.264 938.032 562.264ZM944.624 563.423V562.336L948.705 557.869C949.184 557.346 949.579 556.891 949.889 556.505C950.198 556.114 950.428 555.748 950.577 555.406C950.73 555.06 950.806 554.697 950.806 554.319C950.806 553.884 950.701 553.508 950.492 553.19C950.287 552.872 950.005 552.627 949.647 552.454C949.289 552.281 948.886 552.194 948.44 552.194C947.965 552.194 947.55 552.293 947.196 552.49C946.846 552.683 946.574 552.955 946.381 553.305C946.192 553.655 946.097 554.066 946.097 554.536H944.673C944.673 553.812 944.84 553.176 945.174 552.629C945.508 552.081 945.962 551.655 946.538 551.349C947.118 551.043 947.768 550.89 948.488 550.89C949.212 550.89 949.854 551.043 950.414 551.349C950.973 551.655 951.412 552.067 951.73 552.587C952.048 553.106 952.207 553.683 952.207 554.319C952.207 554.774 952.124 555.219 951.959 555.653C951.798 556.084 951.516 556.565 951.114 557.096C950.716 557.623 950.162 558.267 949.454 559.028L946.677 561.998V562.095H952.424V563.423H944.624Z" fill="black"/>
<circle cx="1005.91" cy="557.914" r="20.4143" fill="#D9D9D9" stroke="black"/>
<path d="M997.221 552.133V564.497H995.723V553.703H995.651L992.633 555.707V554.186L995.723 552.133H997.221ZM1004.81 564.666C1003.9 564.666 1003.12 564.419 1002.48 563.924C1001.84 563.425 1001.36 562.702 1001.02 561.756C1000.68 560.806 1000.51 559.659 1000.51 558.315C1000.51 556.979 1000.68 555.838 1001.02 554.892C1001.36 553.943 1001.85 553.218 1002.49 552.719C1003.13 552.216 1003.91 551.964 1004.81 551.964C1005.71 551.964 1006.48 552.216 1007.12 552.719C1007.77 553.218 1008.26 553.943 1008.59 554.892C1008.94 555.838 1009.11 556.979 1009.11 558.315C1009.11 559.659 1008.94 560.806 1008.6 561.756C1008.26 562.702 1007.77 563.425 1007.13 563.924C1006.49 564.419 1005.72 564.666 1004.81 564.666ZM1004.81 563.338C1005.71 563.338 1006.41 562.903 1006.91 562.034C1007.41 561.165 1007.66 559.925 1007.66 558.315C1007.66 557.245 1007.54 556.333 1007.31 555.581C1007.09 554.828 1006.76 554.254 1006.34 553.86C1005.91 553.466 1005.4 553.268 1004.81 553.268C1003.92 553.268 1003.22 553.709 1002.71 554.59C1002.21 555.468 1001.96 556.709 1001.96 558.315C1001.96 559.386 1002.07 560.295 1002.3 561.044C1002.52 561.793 1002.85 562.362 1003.27 562.752C1003.7 563.143 1004.21 563.338 1004.81 563.338ZM1015.58 564.666C1014.78 564.666 1014.07 564.529 1013.45 564.256C1012.83 563.982 1012.34 563.602 1011.97 563.115C1011.61 562.624 1011.41 562.054 1011.38 561.406H1012.9C1012.93 561.805 1013.07 562.149 1013.31 562.438C1013.55 562.724 1013.87 562.946 1014.26 563.103C1014.65 563.259 1015.08 563.338 1015.55 563.338C1016.09 563.338 1016.56 563.245 1016.97 563.06C1017.38 562.875 1017.7 562.618 1017.93 562.288C1018.17 561.958 1018.28 561.575 1018.28 561.141C1018.28 560.686 1018.17 560.285 1017.95 559.939C1017.72 559.589 1017.39 559.315 1016.96 559.118C1016.52 558.921 1015.99 558.822 1015.36 558.822H1014.37V557.494H1015.36C1015.85 557.494 1016.28 557.406 1016.65 557.229C1017.03 557.052 1017.32 556.802 1017.53 556.48C1017.74 556.158 1017.85 555.78 1017.85 555.345C1017.85 554.927 1017.76 554.562 1017.57 554.252C1017.39 553.943 1017.12 553.701 1016.79 553.528C1016.45 553.355 1016.06 553.268 1015.6 553.268C1015.18 553.268 1014.77 553.347 1014.4 553.504C1014.02 553.657 1013.72 553.88 1013.48 554.174C1013.24 554.464 1013.11 554.814 1013.09 555.224H1011.64C1011.67 554.576 1011.86 554.009 1012.23 553.522C1012.59 553.031 1013.07 552.649 1013.67 552.375C1014.26 552.101 1014.91 551.964 1015.63 551.964C1016.39 551.964 1017.05 552.119 1017.6 552.429C1018.14 552.735 1018.56 553.14 1018.86 553.643C1019.15 554.146 1019.3 554.689 1019.3 555.273C1019.3 555.969 1019.11 556.563 1018.75 557.054C1018.39 557.545 1017.89 557.885 1017.27 558.074V558.17C1018.05 558.299 1018.66 558.631 1019.1 559.166C1019.54 559.698 1019.76 560.356 1019.76 561.141C1019.76 561.813 1019.57 562.416 1019.21 562.952C1018.84 563.483 1018.35 563.901 1017.72 564.207C1017.09 564.513 1016.38 564.666 1015.58 564.666Z" fill="black"/>
<path d="M88.1037 1V485.839H4.51822" stroke="black" stroke-width="2"/>
<path d="M77.9572 551.958H0" stroke="black" stroke-width="2"/>
<path d="M6.77719 626.995H79.1711V888H1526V1H79.1711" stroke="black" stroke-width="2"/>
<g filter="url(#filter0_d_1901_2563)">
<rect x="669.257" y="122.491" width="253.063" height="242.606" fill="#D9D9D9"/>
<rect x="669.757" y="122.991" width="252.063" height="241.606" stroke="black"/>
</g>
<path d="M1016.43 22.1028V391.24H1031.07V22.1028H1016.43Z" stroke="black" stroke-width="2"/>
<path d="M1016.43 391.24H602.332V406.926H1016.43V391.24Z" stroke="black" stroke-width="2"/>
<path d="M601.286 15.8286V391.24H585.6V15.8286H601.286Z" stroke="black" stroke-width="2"/>
<path d="M995.52 249.023H924.411V244.84V196.737L995.52 200.92V249.023Z" fill="#D9D9D9"/>
<path d="M924.411 244.84L995.52 249.023M995.52 249.023H924.411V196.737L995.52 200.92V249.023Z" stroke="#BFBFBF" stroke-width="2"/>
<path d="M715.578 257V220.636H729.925C732.683 220.636 735.033 221.163 736.974 222.217C738.915 223.258 740.395 224.708 741.413 226.567C742.443 228.413 742.958 230.544 742.958 232.959C742.958 235.374 742.437 237.504 741.395 239.351C740.354 241.197 738.844 242.636 736.868 243.665C734.903 244.695 732.523 245.21 729.73 245.21H720.586V239.049H728.487C729.967 239.049 731.186 238.795 732.145 238.286C733.115 237.765 733.837 237.049 734.311 236.137C734.796 235.214 735.039 234.154 735.039 232.959C735.039 231.751 734.796 230.698 734.311 229.798C733.837 228.887 733.115 228.183 732.145 227.685C731.174 227.176 729.943 226.922 728.451 226.922H723.267V257H715.578ZM750.02 257H741.781L754.335 220.636H764.242L776.778 257H768.539L759.431 228.946H759.146L750.02 257ZM749.505 242.707H768.965V248.708H749.505V242.707ZM781.155 257V220.636H788.843V250.661H804.432V257H781.155ZM840.192 233.367H832.415C832.273 232.361 831.983 231.467 831.545 230.686C831.107 229.893 830.545 229.218 829.858 228.662C829.172 228.106 828.379 227.679 827.479 227.384C826.591 227.088 825.627 226.94 824.585 226.94C822.703 226.94 821.064 227.407 819.667 228.342C818.27 229.266 817.187 230.615 816.417 232.391C815.648 234.154 815.263 236.297 815.263 238.818C815.263 241.411 815.648 243.589 816.417 245.352C817.199 247.116 818.288 248.448 819.684 249.347C821.081 250.247 822.697 250.697 824.532 250.697C825.562 250.697 826.515 250.561 827.39 250.288C828.278 250.016 829.065 249.62 829.752 249.099C830.439 248.566 831.007 247.921 831.456 247.163C831.918 246.406 832.238 245.542 832.415 244.571L840.192 244.607C839.991 246.276 839.488 247.885 838.683 249.436C837.89 250.975 836.819 252.354 835.469 253.573C834.132 254.781 832.534 255.739 830.675 256.45C828.829 257.148 826.739 257.497 824.407 257.497C821.164 257.497 818.264 256.763 815.707 255.295C813.162 253.828 811.15 251.703 809.67 248.921C808.202 246.139 807.469 242.772 807.469 238.818C807.469 234.853 808.214 231.479 809.706 228.697C811.197 225.916 813.221 223.797 815.778 222.341C818.335 220.873 821.211 220.139 824.407 220.139C826.515 220.139 828.468 220.435 830.267 221.027C832.078 221.619 833.682 222.483 835.079 223.619C836.475 224.744 837.612 226.123 838.488 227.756C839.376 229.39 839.944 231.26 840.192 233.367ZM879.122 238.818C879.122 242.784 878.37 246.157 876.867 248.939C875.375 251.721 873.339 253.845 870.759 255.313C868.19 256.769 865.302 257.497 862.094 257.497C858.862 257.497 855.962 256.763 853.394 255.295C850.825 253.828 848.795 251.703 847.303 248.921C845.812 246.139 845.066 242.772 845.066 238.818C845.066 234.853 845.812 231.479 847.303 228.697C848.795 225.916 850.825 223.797 853.394 222.341C855.962 220.873 858.862 220.139 862.094 220.139C865.302 220.139 868.19 220.873 870.759 222.341C873.339 223.797 875.375 225.916 876.867 228.697C878.37 231.479 879.122 234.853 879.122 238.818ZM871.327 238.818C871.327 236.25 870.942 234.083 870.173 232.32C869.415 230.556 868.344 229.218 866.959 228.307C865.574 227.395 863.952 226.94 862.094 226.94C860.235 226.94 858.614 227.395 857.229 228.307C855.844 229.218 854.767 230.556 853.997 232.32C853.24 234.083 852.861 236.25 852.861 238.818C852.861 241.387 853.24 243.553 853.997 245.317C854.767 247.08 855.844 248.418 857.229 249.33C858.614 250.241 860.235 250.697 862.094 250.697C863.952 250.697 865.574 250.241 866.959 249.33C868.344 248.418 869.415 247.08 870.173 245.317C870.942 243.553 871.327 241.387 871.327 238.818Z" fill="black"/>
<path d="M257.224 946.182C257.053 944.742 256.362 943.625 255.15 942.83C253.938 942.034 252.451 941.636 250.69 941.636C249.402 941.636 248.275 941.845 247.309 942.261C246.353 942.678 245.605 943.251 245.065 943.98C244.534 944.709 244.269 945.538 244.269 946.466C244.269 947.242 244.454 947.91 244.823 948.469C245.202 949.018 245.685 949.477 246.272 949.847C246.859 950.206 247.475 950.505 248.119 950.741C248.763 950.969 249.355 951.153 249.894 951.295L252.849 952.091C253.606 952.29 254.449 952.564 255.377 952.915C256.315 953.265 257.21 953.743 258.062 954.349C258.924 954.946 259.634 955.713 260.193 956.651C260.751 957.588 261.031 958.739 261.031 960.102C261.031 961.674 260.619 963.095 259.795 964.364C258.98 965.633 257.787 966.641 256.215 967.389C254.653 968.137 252.754 968.511 250.519 968.511C248.436 968.511 246.632 968.175 245.107 967.503C243.592 966.83 242.399 965.893 241.528 964.69C240.666 963.488 240.178 962.091 240.065 960.5H243.701C243.796 961.598 244.165 962.508 244.809 963.227C245.462 963.937 246.286 964.468 247.281 964.818C248.284 965.159 249.364 965.33 250.519 965.33C251.864 965.33 253.071 965.112 254.141 964.676C255.212 964.231 256.059 963.616 256.684 962.83C257.309 962.034 257.622 961.106 257.622 960.045C257.622 959.08 257.352 958.294 256.812 957.688C256.272 957.081 255.562 956.589 254.681 956.21C253.801 955.831 252.849 955.5 251.826 955.216L248.247 954.193C245.974 953.54 244.175 952.607 242.849 951.395C241.523 950.183 240.86 948.597 240.86 946.636C240.86 945.008 241.301 943.587 242.181 942.375C243.071 941.153 244.265 940.206 245.761 939.534C247.266 938.852 248.947 938.511 250.803 938.511C252.678 938.511 254.345 938.848 255.803 939.52C257.262 940.183 258.417 941.092 259.269 942.247C260.131 943.402 260.586 944.714 260.633 946.182H257.224ZM266.823 968V938.909H284.379V942.034H270.345V951.864H283.47V954.989H270.345V964.875H284.607V968H266.823ZM289.138 942.034V938.909H310.956V942.034H301.808V968H298.286V942.034H289.138ZM339.727 953.455C339.727 956.523 339.173 959.174 338.065 961.409C336.958 963.644 335.438 965.367 333.506 966.58C331.574 967.792 329.368 968.398 326.886 968.398C324.405 968.398 322.199 967.792 320.267 966.58C318.335 965.367 316.815 963.644 315.708 961.409C314.6 959.174 314.046 956.523 314.046 953.455C314.046 950.386 314.6 947.735 315.708 945.5C316.815 943.265 318.335 941.542 320.267 940.33C322.199 939.117 324.405 938.511 326.886 938.511C329.368 938.511 331.574 939.117 333.506 940.33C335.438 941.542 336.958 943.265 338.065 945.5C339.173 947.735 339.727 950.386 339.727 953.455ZM336.318 953.455C336.318 950.936 335.897 948.81 335.054 947.077C334.221 945.344 333.089 944.032 331.659 943.142C330.239 942.252 328.648 941.807 326.886 941.807C325.125 941.807 323.529 942.252 322.1 943.142C320.679 944.032 319.547 945.344 318.705 947.077C317.871 948.81 317.455 950.936 317.455 953.455C317.455 955.973 317.871 958.099 318.705 959.832C319.547 961.565 320.679 962.877 322.1 963.767C323.529 964.657 325.125 965.102 326.886 965.102C328.648 965.102 330.239 964.657 331.659 963.767C333.089 962.877 334.221 961.565 335.054 959.832C335.897 958.099 336.318 955.973 336.318 953.455ZM345.651 968V938.909H355.48C357.753 938.909 359.619 939.297 361.077 940.074C362.535 940.841 363.615 941.897 364.315 943.241C365.016 944.586 365.367 946.116 365.367 947.83C365.367 949.544 365.016 951.063 364.315 952.389C363.615 953.715 362.54 954.757 361.091 955.514C359.642 956.262 357.791 956.636 355.537 956.636H347.583V953.455H355.423C356.976 953.455 358.226 953.227 359.173 952.773C360.13 952.318 360.821 951.674 361.247 950.841C361.683 949.998 361.901 948.994 361.901 947.83C361.901 946.665 361.683 945.647 361.247 944.776C360.812 943.904 360.116 943.232 359.159 942.759C358.203 942.276 356.939 942.034 355.367 942.034H349.173V968H345.651ZM359.344 954.932L366.503 968H362.412L355.367 954.932H359.344ZM384.514 968H377.923L387.966 938.909H395.892L405.921 968H399.33L392.043 945.557H391.815L384.514 968ZM384.102 956.565H399.671V961.366H384.102V956.565Z" fill="black"/>
<path d="M731.871 938.182C731.7 936.742 731.009 935.625 729.797 934.83C728.585 934.034 727.098 933.636 725.337 933.636C724.049 933.636 722.922 933.845 721.956 934.261C720.999 934.678 720.251 935.251 719.712 935.98C719.181 936.709 718.916 937.538 718.916 938.466C718.916 939.242 719.101 939.91 719.47 940.469C719.849 941.018 720.332 941.477 720.919 941.847C721.506 942.206 722.122 942.505 722.766 942.741C723.41 942.969 724.001 943.153 724.541 943.295L727.496 944.091C728.253 944.29 729.096 944.564 730.024 944.915C730.962 945.265 731.857 945.743 732.709 946.349C733.571 946.946 734.281 947.713 734.839 948.651C735.398 949.588 735.678 950.739 735.678 952.102C735.678 953.674 735.266 955.095 734.442 956.364C733.627 957.633 732.434 958.641 730.862 959.389C729.3 960.137 727.401 960.511 725.166 960.511C723.083 960.511 721.279 960.175 719.754 959.503C718.239 958.83 717.046 957.893 716.175 956.69C715.313 955.488 714.825 954.091 714.712 952.5H718.348C718.443 953.598 718.812 954.508 719.456 955.227C720.109 955.937 720.933 956.468 721.928 956.818C722.931 957.159 724.011 957.33 725.166 957.33C726.511 957.33 727.718 957.112 728.788 956.676C729.858 956.231 730.706 955.616 731.331 954.83C731.956 954.034 732.268 953.106 732.268 952.045C732.268 951.08 731.999 950.294 731.459 949.688C730.919 949.081 730.209 948.589 729.328 948.21C728.447 947.831 727.496 947.5 726.473 947.216L722.893 946.193C720.621 945.54 718.821 944.607 717.496 943.395C716.17 942.183 715.507 940.597 715.507 938.636C715.507 937.008 715.947 935.587 716.828 934.375C717.718 933.153 718.911 932.206 720.408 931.534C721.913 930.852 723.594 930.511 725.45 930.511C727.325 930.511 728.992 930.848 730.45 931.52C731.909 932.183 733.064 933.092 733.916 934.247C734.778 935.402 735.232 936.714 735.28 938.182H731.871ZM741.469 960V930.909H759.026V934.034H744.992V943.864H758.117V946.989H744.992V956.875H759.254V960H741.469ZM763.785 934.034V930.909H785.603V934.034H776.455V960H772.932V934.034H763.785ZM814.374 945.455C814.374 948.523 813.82 951.174 812.712 953.409C811.604 955.644 810.084 957.367 808.153 958.58C806.221 959.792 804.014 960.398 801.533 960.398C799.052 960.398 796.846 959.792 794.914 958.58C792.982 957.367 791.462 955.644 790.354 953.409C789.246 951.174 788.692 948.523 788.692 945.455C788.692 942.386 789.246 939.735 790.354 937.5C791.462 935.265 792.982 933.542 794.914 932.33C796.846 931.117 799.052 930.511 801.533 930.511C804.014 930.511 806.221 931.117 808.153 932.33C810.084 933.542 811.604 935.265 812.712 937.5C813.82 939.735 814.374 942.386 814.374 945.455ZM810.965 945.455C810.965 942.936 810.544 940.81 809.701 939.077C808.868 937.344 807.736 936.032 806.306 935.142C804.886 934.252 803.295 933.807 801.533 933.807C799.772 933.807 798.176 934.252 796.746 935.142C795.326 936.032 794.194 937.344 793.352 939.077C792.518 940.81 792.102 942.936 792.102 945.455C792.102 947.973 792.518 950.099 793.352 951.832C794.194 953.565 795.326 954.877 796.746 955.767C798.176 956.657 799.772 957.102 801.533 957.102C803.295 957.102 804.886 956.657 806.306 955.767C807.736 954.877 808.868 953.565 809.701 951.832C810.544 950.099 810.965 947.973 810.965 945.455ZM820.298 960V930.909H830.127C832.4 930.909 834.265 931.297 835.724 932.074C837.182 932.841 838.262 933.897 838.962 935.241C839.663 936.586 840.013 938.116 840.013 939.83C840.013 941.544 839.663 943.063 838.962 944.389C838.262 945.715 837.187 946.757 835.738 947.514C834.289 948.262 832.438 948.636 830.184 948.636H822.229V945.455H830.07C831.623 945.455 832.873 945.227 833.82 944.773C834.777 944.318 835.468 943.674 835.894 942.841C836.33 941.998 836.548 940.994 836.548 939.83C836.548 938.665 836.33 937.647 835.894 936.776C835.459 935.904 834.763 935.232 833.806 934.759C832.85 934.276 831.585 934.034 830.013 934.034H823.82V960H820.298ZM833.991 946.932L841.15 960H837.059L830.013 946.932H833.991ZM854.147 960V930.909H865.795C867.935 930.909 869.72 931.226 871.15 931.861C872.58 932.495 873.655 933.376 874.374 934.503C875.094 935.62 875.454 936.908 875.454 938.366C875.454 939.503 875.227 940.502 874.772 941.364C874.317 942.216 873.692 942.917 872.897 943.466C872.111 944.006 871.211 944.389 870.198 944.616V944.901C871.306 944.948 872.343 945.26 873.309 945.838C874.284 946.416 875.075 947.225 875.681 948.267C876.287 949.299 876.59 950.53 876.59 951.96C876.59 953.504 876.207 954.882 875.44 956.094C874.682 957.296 873.56 958.248 872.073 958.949C870.586 959.65 868.754 960 866.576 960H854.147ZM860.298 954.972H865.312C867.026 954.972 868.276 954.645 869.062 953.991C869.848 953.329 870.241 952.448 870.241 951.349C870.241 950.545 870.047 949.834 869.658 949.219C869.27 948.603 868.716 948.12 867.996 947.77C867.286 947.42 866.439 947.244 865.454 947.244H860.298V954.972ZM860.298 943.082H864.857C865.7 943.082 866.448 942.936 867.102 942.642C867.764 942.339 868.285 941.913 868.664 941.364C869.052 940.814 869.246 940.156 869.246 939.389C869.246 938.338 868.872 937.491 868.124 936.847C867.386 936.203 866.334 935.881 864.971 935.881H860.298V943.082Z" fill="black"/>
<path d="M1218.15 935.182C1217.98 933.742 1217.28 932.625 1216.07 931.83C1214.86 931.034 1213.37 930.636 1211.61 930.636C1210.32 930.636 1209.2 930.845 1208.23 931.261C1207.27 931.678 1206.53 932.251 1205.99 932.98C1205.46 933.709 1205.19 934.538 1205.19 935.466C1205.19 936.242 1205.38 936.91 1205.75 937.469C1206.12 938.018 1206.61 938.477 1207.19 938.847C1207.78 939.206 1208.4 939.505 1209.04 939.741C1209.68 939.969 1210.28 940.153 1210.82 940.295L1213.77 941.091C1214.53 941.29 1215.37 941.564 1216.3 941.915C1217.24 942.265 1218.13 942.743 1218.98 943.349C1219.85 943.946 1220.56 944.713 1221.11 945.651C1221.67 946.588 1221.95 947.739 1221.95 949.102C1221.95 950.674 1221.54 952.095 1220.72 953.364C1219.9 954.633 1218.71 955.641 1217.14 956.389C1215.57 957.137 1213.68 957.511 1211.44 957.511C1209.36 957.511 1207.55 957.175 1206.03 956.503C1204.51 955.83 1203.32 954.893 1202.45 953.69C1201.59 952.488 1201.1 951.091 1200.99 949.5H1204.62C1204.72 950.598 1205.09 951.508 1205.73 952.227C1206.38 952.937 1207.21 953.468 1208.2 953.818C1209.21 954.159 1210.29 954.33 1211.44 954.33C1212.79 954.33 1213.99 954.112 1215.06 953.676C1216.13 953.231 1216.98 952.616 1217.61 951.83C1218.23 951.034 1218.54 950.106 1218.54 949.045C1218.54 948.08 1218.27 947.294 1217.73 946.688C1217.19 946.081 1216.48 945.589 1215.6 945.21C1214.72 944.831 1213.77 944.5 1212.75 944.216L1209.17 943.193C1206.9 942.54 1205.1 941.607 1203.77 940.395C1202.44 939.183 1201.78 937.597 1201.78 935.636C1201.78 934.008 1202.22 932.587 1203.1 931.375C1203.99 930.153 1205.19 929.206 1206.68 928.534C1208.19 927.852 1209.87 927.511 1211.73 927.511C1213.6 927.511 1215.27 927.848 1216.73 928.52C1218.18 929.183 1219.34 930.092 1220.19 931.247C1221.05 932.402 1221.51 933.714 1221.55 935.182H1218.15ZM1227.74 957V927.909H1245.3V931.034H1231.27V940.864H1244.39V943.989H1231.27V953.875H1245.53V957H1227.74ZM1250.06 931.034V927.909H1271.88V931.034H1262.73V957H1259.21V931.034H1250.06ZM1300.65 942.455C1300.65 945.523 1300.1 948.174 1298.99 950.409C1297.88 952.644 1296.36 954.367 1294.43 955.58C1292.5 956.792 1290.29 957.398 1287.81 957.398C1285.33 957.398 1283.12 956.792 1281.19 955.58C1279.26 954.367 1277.74 952.644 1276.63 950.409C1275.52 948.174 1274.97 945.523 1274.97 942.455C1274.97 939.386 1275.52 936.735 1276.63 934.5C1277.74 932.265 1279.26 930.542 1281.19 929.33C1283.12 928.117 1285.33 927.511 1287.81 927.511C1290.29 927.511 1292.5 928.117 1294.43 929.33C1296.36 930.542 1297.88 932.265 1298.99 934.5C1300.1 936.735 1300.65 939.386 1300.65 942.455ZM1297.24 942.455C1297.24 939.936 1296.82 937.81 1295.98 936.077C1295.14 934.344 1294.01 933.032 1292.58 932.142C1291.16 931.252 1289.57 930.807 1287.81 930.807C1286.05 930.807 1284.45 931.252 1283.02 932.142C1281.6 933.032 1280.47 934.344 1279.63 936.077C1278.79 937.81 1278.38 939.936 1278.38 942.455C1278.38 944.973 1278.79 947.099 1279.63 948.832C1280.47 950.565 1281.6 951.877 1283.02 952.767C1284.45 953.657 1286.05 954.102 1287.81 954.102C1289.57 954.102 1291.16 953.657 1292.58 952.767C1294.01 951.877 1295.14 950.565 1295.98 948.832C1296.82 947.099 1297.24 944.973 1297.24 942.455ZM1306.57 957V927.909H1316.4C1318.67 927.909 1320.54 928.297 1322 929.074C1323.46 929.841 1324.54 930.897 1325.24 932.241C1325.94 933.586 1326.29 935.116 1326.29 936.83C1326.29 938.544 1325.94 940.063 1325.24 941.389C1324.54 942.715 1323.46 943.757 1322.01 944.514C1320.56 945.262 1318.71 945.636 1316.46 945.636H1308.5V942.455H1316.35C1317.9 942.455 1319.15 942.227 1320.1 941.773C1321.05 941.318 1321.74 940.674 1322.17 939.841C1322.6 938.998 1322.82 937.994 1322.82 936.83C1322.82 935.665 1322.6 934.647 1322.17 933.776C1321.73 932.904 1321.04 932.232 1320.08 931.759C1319.12 931.276 1317.86 931.034 1316.29 931.034H1310.1V957H1306.57ZM1320.27 943.932L1327.42 957H1323.33L1316.29 943.932H1320.27ZM1366.09 938.094H1359.87C1359.75 937.289 1359.52 936.574 1359.17 935.949C1358.82 935.314 1358.37 934.775 1357.82 934.33C1357.27 933.884 1356.64 933.544 1355.92 933.307C1355.21 933.07 1354.44 932.952 1353.6 932.952C1352.1 932.952 1350.79 933.326 1349.67 934.074C1348.55 934.812 1347.69 935.892 1347.07 937.312C1346.45 938.723 1346.15 940.437 1346.15 942.455C1346.15 944.528 1346.45 946.271 1347.07 947.682C1347.69 949.093 1348.57 950.158 1349.68 950.878C1350.8 951.598 1352.09 951.957 1353.56 951.957C1354.39 951.957 1355.15 951.848 1355.85 951.631C1356.56 951.413 1357.19 951.096 1357.74 950.679C1358.29 950.253 1358.74 949.737 1359.1 949.131C1359.47 948.525 1359.73 947.833 1359.87 947.057L1366.09 947.085C1365.93 948.42 1365.53 949.708 1364.88 950.949C1364.25 952.18 1363.39 953.283 1362.31 954.259C1361.24 955.224 1359.96 955.991 1358.48 956.56C1357 957.118 1355.33 957.398 1353.46 957.398C1350.87 957.398 1348.55 956.811 1346.5 955.636C1344.47 954.462 1342.86 952.762 1341.67 950.537C1340.5 948.312 1339.91 945.617 1339.91 942.455C1339.91 939.282 1340.51 936.583 1341.7 934.358C1342.89 932.133 1344.51 930.437 1346.56 929.273C1348.6 928.098 1350.9 927.511 1353.46 927.511C1355.15 927.511 1356.71 927.748 1358.15 928.222C1359.6 928.695 1360.88 929.386 1362 930.295C1363.12 931.195 1364.03 932.298 1364.73 933.605C1365.44 934.912 1365.89 936.408 1366.09 938.094Z" fill="black"/>
<defs>
<filter id="filter0_d_1901_2563" x="669.257" y="122.491" width="257.063" height="246.606" filterUnits="userSpaceOnUse" color-interpolation-filters="sRGB">
<feFlood flood-opacity="0" result="BackgroundImageFix"/>
<feColorMatrix in="SourceAlpha" type="matrix" values="0 0 0 0 0 0 0 0 0 0 0 0 0 0 0 0 0 0 127 0" result="hardAlpha"/>
<feOffset dx="4" dy="4"/>
<feComposite in2="hardAlpha" operator="out"/>
<feColorMatrix type="matrix" values="0 0 0 0 0 0 0 0 0 0 0 0 0 0 0 0 0 0 0.25 0"/>
<feBlend mode="normal" in2="BackgroundImageFix" result="effect1_dropShadow_1901_2563"/>
<feBlend mode="normal" in="SourceGraphic" in2="effect1_dropShadow_1901_2563" result="shape"/>
</filter>
</defs>
</svg>
