<svg width="1527" height="1005" viewBox="0 0 1527 1005" fill="none" xmlns="http://www.w3.org/2000/svg">
<rect x="88" y="1" width="478" height="887" fill="#B3B470" fill-opacity="0.15"/>
<rect x="566" y="449" width="480" height="439" fill="#E00BCD" fill-opacity="0.15"/>
<rect x="1046" y="1" width="480" height="887" fill="#E0110B" fill-opacity="0.15"/>
<circle cx="460.171" cy="36.9371" r="20.4143" fill="#D9D9D9" stroke="black"/>
<path d="M452.203 43L457.733 32.0611V31.9645H451.358V30.6364H459.279V32.0369L453.773 43H452.203ZM461.529 43V41.9134L465.61 37.446C466.089 36.9228 466.483 36.468 466.793 36.0817C467.103 35.6913 467.332 35.325 467.481 34.983C467.634 34.6368 467.711 34.2746 467.711 33.8963C467.711 33.4616 467.606 33.0853 467.397 32.7674C467.191 32.4495 466.91 32.204 466.552 32.0309C466.193 31.8578 465.791 31.7713 465.344 31.7713C464.869 31.7713 464.455 31.8699 464.101 32.0671C463.75 32.2603 463.479 32.532 463.286 32.8821C463.096 33.2322 463.002 33.6428 463.002 34.1136H461.577C461.577 33.3892 461.744 32.7533 462.078 32.206C462.412 31.6586 462.867 31.232 463.443 30.9261C464.022 30.6203 464.672 30.4673 465.392 30.4673C466.117 30.4673 466.759 30.6203 467.318 30.9261C467.878 31.232 468.316 31.6445 468.634 32.1637C468.952 32.6829 469.111 33.2604 469.111 33.8963C469.111 34.3511 469.029 34.7958 468.864 35.2305C468.703 35.6611 468.421 36.142 468.019 36.6733C467.62 37.2005 467.067 37.8445 466.358 38.6051L463.581 41.5753V41.6719H469.329V43H461.529Z" fill="black"/>
<circle cx="527.097" cy="36.9371" r="20.4143" fill="#D9D9D9" stroke="black"/>
<path d="M519.203 43L524.733 32.0611V31.9645H518.358V30.6364H526.279V32.0369L520.773 43H519.203ZM532.424 43.169C531.627 43.169 530.917 43.0322 530.293 42.7585C529.673 42.4848 529.18 42.1045 528.814 41.6175C528.452 41.1265 528.255 40.5571 528.222 39.9091H529.744C529.776 40.3075 529.913 40.6516 530.154 40.9414C530.396 41.2272 530.712 41.4485 531.102 41.6055C531.492 41.7624 531.925 41.8409 532.4 41.8409C532.931 41.8409 533.402 41.7483 533.813 41.5632C534.223 41.3781 534.545 41.1205 534.779 40.7905C535.012 40.4605 535.129 40.0781 535.129 39.6435C535.129 39.1887 535.016 38.7882 534.791 38.4421C534.565 38.092 534.235 37.8183 533.801 37.6211C533.366 37.4239 532.835 37.3253 532.207 37.3253H531.217V35.9972H532.207C532.698 35.9972 533.128 35.9086 533.499 35.7315C533.873 35.5545 534.165 35.3049 534.374 34.983C534.587 34.661 534.694 34.2827 534.694 33.848C534.694 33.4295 534.602 33.0652 534.416 32.7553C534.231 32.4454 533.97 32.204 533.632 32.0309C533.298 31.8578 532.903 31.7713 532.448 31.7713C532.022 31.7713 531.619 31.8498 531.241 32.0067C530.867 32.1597 530.561 32.383 530.323 32.6768C530.086 32.9666 529.957 33.3168 529.937 33.7273H528.488C528.512 33.0793 528.707 32.5118 529.074 32.0249C529.44 31.5339 529.919 31.1515 530.51 30.8778C531.106 30.6042 531.76 30.4673 532.472 30.4673C533.237 30.4673 533.893 30.6223 534.441 30.9322C534.988 31.238 535.408 31.6425 535.702 32.1456C535.996 32.6487 536.143 33.192 536.143 33.7756C536.143 34.4718 535.96 35.0655 535.594 35.5565C535.231 36.0475 534.738 36.3875 534.115 36.5767V36.6733C534.895 36.8021 535.505 37.1341 535.944 37.6694C536.382 38.2006 536.602 38.8587 536.602 39.6435C536.602 40.3156 536.419 40.9193 536.052 41.4545C535.69 41.9858 535.195 42.4044 534.567 42.7102C533.939 43.0161 533.225 43.169 532.424 43.169Z" fill="black"/>
<circle cx="460.171" cy="103.863" r="20.4143" fill="#D9D9D9" stroke="black"/>
<path d="M451.666 110L457.196 99.0611V98.9645H450.821V97.6364H458.741V99.0369L453.236 110H451.666ZM459.706 107.464V106.233L465.139 97.6364H466.033V99.544H465.429L461.324 106.04V106.136H468.641V107.464H459.706ZM465.525 110V107.09V106.517V97.6364H466.95V110H465.525Z" fill="black"/>
<circle cx="527.097" cy="103.863" r="20.4143" fill="#D9D9D9" stroke="black"/>
<path d="M518.666 110L524.196 99.0611V98.9645H517.821V97.6364H525.741V99.0369L520.236 110H518.666ZM531.689 110.169C530.981 110.169 530.343 110.028 529.776 109.746C529.208 109.465 528.753 109.078 528.411 108.587C528.069 108.096 527.882 107.537 527.85 106.909H529.299C529.355 107.469 529.609 107.931 530.059 108.298C530.514 108.66 531.057 108.841 531.689 108.841C532.196 108.841 532.647 108.722 533.042 108.485C533.44 108.247 533.752 107.921 533.977 107.507C534.207 107.088 534.321 106.615 534.321 106.088C534.321 105.549 534.203 105.068 533.965 104.645C533.732 104.219 533.41 103.883 532.999 103.637C532.589 103.392 532.12 103.267 531.593 103.263C531.214 103.259 530.826 103.317 530.428 103.438C530.029 103.555 529.701 103.705 529.444 103.891L528.043 103.722L528.792 97.6364H535.215V98.9645H530.047L529.613 102.611H529.685C529.939 102.41 530.257 102.243 530.639 102.11C531.021 101.977 531.42 101.911 531.834 101.911C532.591 101.911 533.265 102.092 533.857 102.454C534.452 102.812 534.919 103.303 535.257 103.927C535.599 104.551 535.77 105.263 535.77 106.064C535.77 106.853 535.593 107.557 535.239 108.177C534.889 108.793 534.406 109.28 533.79 109.638C533.174 109.992 532.474 110.169 531.689 110.169Z" fill="black"/>
<circle cx="460.171" cy="170.789" r="20.4143" fill="#D9D9D9" stroke="black"/>
<path d="M452.666 178L458.196 167.061V166.964H451.821V165.636H459.741V167.037L454.236 178H452.666ZM465.831 178.169C465.324 178.161 464.817 178.064 464.31 177.879C463.803 177.694 463.34 177.382 462.921 176.944C462.503 176.501 462.167 175.903 461.913 175.151C461.66 174.394 461.533 173.444 461.533 172.301C461.533 171.206 461.636 170.237 461.841 169.391C462.046 168.542 462.344 167.828 462.734 167.248C463.125 166.665 463.596 166.222 464.147 165.92C464.702 165.618 465.328 165.467 466.024 165.467C466.717 165.467 467.332 165.606 467.872 165.884C468.415 166.158 468.858 166.54 469.2 167.031C469.542 167.522 469.763 168.087 469.864 168.727H468.391C468.254 168.172 467.988 167.711 467.594 167.345C467.2 166.979 466.676 166.795 466.024 166.795C465.067 166.795 464.312 167.212 463.761 168.045C463.213 168.878 462.938 170.047 462.934 171.553H463.03C463.255 171.21 463.523 170.919 463.833 170.677C464.147 170.432 464.493 170.243 464.871 170.11C465.25 169.977 465.65 169.911 466.073 169.911C466.781 169.911 467.429 170.088 468.017 170.442C468.604 170.792 469.075 171.277 469.429 171.897C469.783 172.512 469.96 173.219 469.96 174.016C469.96 174.78 469.789 175.481 469.447 176.116C469.105 176.748 468.624 177.251 468.005 177.626C467.389 177.996 466.664 178.177 465.831 178.169ZM465.831 176.841C466.338 176.841 466.793 176.714 467.196 176.461C467.602 176.207 467.922 175.867 468.155 175.44C468.393 175.014 468.512 174.539 468.512 174.016C468.512 173.504 468.397 173.04 468.168 172.621C467.942 172.199 467.63 171.862 467.232 171.613C466.837 171.363 466.387 171.239 465.88 171.239C465.497 171.239 465.141 171.315 464.811 171.468C464.481 171.617 464.191 171.822 463.942 172.084C463.696 172.345 463.503 172.645 463.362 172.983C463.221 173.317 463.151 173.67 463.151 174.04C463.151 174.531 463.266 174.99 463.495 175.416C463.728 175.843 464.046 176.187 464.449 176.449C464.855 176.71 465.316 176.841 465.831 176.841Z" fill="black"/>
<circle cx="527.097" cy="170.789" r="20.4143" fill="#D9D9D9" stroke="black"/>
<path d="M518.666 177L524.196 166.061V165.964H517.821V164.636H525.741V166.037L520.236 177H518.666ZM528.71 177L534.24 166.061V165.964H527.865V164.636H535.785V166.037L530.28 177H528.71Z" fill="black"/>
<circle cx="460.171" cy="237.714" r="20.4143" fill="#D9D9D9" stroke="black"/>
<path d="M452.666 244L458.196 233.061V232.964H451.821V231.636H459.741V233.037L454.236 244H452.666ZM465.703 244.169C464.874 244.169 464.141 244.022 463.506 243.728C462.874 243.431 462.381 243.022 462.026 242.503C461.672 241.98 461.497 241.384 461.501 240.716C461.497 240.193 461.6 239.71 461.809 239.267C462.018 238.82 462.304 238.448 462.666 238.15C463.033 237.848 463.441 237.657 463.892 237.577V237.504C463.3 237.351 462.829 237.019 462.479 236.508C462.129 235.993 461.956 235.407 461.96 234.751C461.956 234.124 462.115 233.562 462.437 233.067C462.759 232.572 463.202 232.182 463.765 231.896C464.333 231.61 464.979 231.467 465.703 231.467C466.419 231.467 467.059 231.61 467.623 231.896C468.186 232.182 468.629 232.572 468.951 233.067C469.277 233.562 469.442 234.124 469.446 234.751C469.442 235.407 469.263 235.993 468.909 236.508C468.558 237.019 468.094 237.351 467.514 237.504V237.577C467.961 237.657 468.363 237.848 468.721 238.15C469.08 238.448 469.365 238.82 469.579 239.267C469.792 239.71 469.901 240.193 469.905 240.716C469.901 241.384 469.72 241.98 469.361 242.503C469.007 243.022 468.514 243.431 467.882 243.728C467.254 244.022 466.528 244.169 465.703 244.169ZM465.703 242.841C466.262 242.841 466.745 242.75 467.152 242.569C467.558 242.388 467.872 242.133 468.094 241.803C468.315 241.473 468.428 241.086 468.432 240.643C468.428 240.177 468.307 239.764 468.069 239.406C467.832 239.048 467.508 238.766 467.097 238.561C466.691 238.355 466.226 238.253 465.703 238.253C465.176 238.253 464.705 238.355 464.29 238.561C463.88 238.766 463.556 239.048 463.318 239.406C463.085 239.764 462.97 240.177 462.974 240.643C462.97 241.086 463.077 241.473 463.294 241.803C463.516 242.133 463.831 242.388 464.242 242.569C464.653 242.75 465.14 242.841 465.703 242.841ZM465.703 236.973C466.146 236.973 466.538 236.884 466.88 236.707C467.226 236.53 467.498 236.283 467.695 235.965C467.892 235.647 467.993 235.275 467.997 234.848C467.993 234.429 467.894 234.065 467.701 233.755C467.508 233.441 467.24 233.2 466.898 233.031C466.556 232.858 466.158 232.771 465.703 232.771C465.24 232.771 464.836 232.858 464.49 233.031C464.143 233.2 463.876 233.441 463.687 233.755C463.497 234.065 463.405 234.429 463.409 234.848C463.405 235.275 463.499 235.647 463.693 235.965C463.89 236.283 464.162 236.53 464.508 236.707C464.854 236.884 465.252 236.973 465.703 236.973Z" fill="black"/>
<circle cx="527.097" cy="237.714" r="20.4143" fill="#D9D9D9" stroke="black"/>
<path d="M518.666 245L524.196 234.061V233.964H517.821V232.636H525.741V234.037L520.236 245H518.666ZM531.762 232.467C532.269 232.471 532.776 232.568 533.283 232.757C533.79 232.946 534.253 233.26 534.672 233.699C535.09 234.134 535.426 234.727 535.68 235.48C535.933 236.232 536.06 237.176 536.06 238.311C536.06 239.41 535.955 240.386 535.746 241.239C535.541 242.088 535.243 242.805 534.853 243.388C534.466 243.972 533.995 244.414 533.44 244.716C532.889 245.018 532.265 245.169 531.569 245.169C530.876 245.169 530.259 245.032 529.715 244.759C529.176 244.481 528.733 244.096 528.387 243.605C528.045 243.11 527.826 242.537 527.729 241.885H529.202C529.335 242.452 529.599 242.921 529.993 243.292C530.391 243.658 530.917 243.841 531.569 243.841C532.522 243.841 533.275 243.424 533.826 242.591C534.382 241.758 534.66 240.581 534.66 239.06H534.563C534.338 239.398 534.07 239.69 533.76 239.935C533.45 240.181 533.106 240.37 532.728 240.502C532.349 240.635 531.947 240.702 531.52 240.702C530.812 240.702 530.162 240.527 529.57 240.176C528.983 239.822 528.512 239.337 528.158 238.722C527.808 238.102 527.633 237.393 527.633 236.597C527.633 235.84 527.802 235.148 528.14 234.52C528.482 233.888 528.961 233.385 529.576 233.011C530.196 232.636 530.925 232.455 531.762 232.467ZM531.762 233.795C531.255 233.795 530.798 233.922 530.391 234.176C529.989 234.425 529.669 234.763 529.432 235.19C529.198 235.613 529.081 236.081 529.081 236.597C529.081 237.112 529.194 237.581 529.419 238.003C529.649 238.422 529.961 238.756 530.355 239.005C530.754 239.251 531.206 239.374 531.714 239.374C532.096 239.374 532.452 239.299 532.782 239.15C533.112 238.997 533.4 238.79 533.645 238.528C533.895 238.263 534.09 237.963 534.231 237.629C534.372 237.291 534.442 236.939 534.442 236.572C534.442 236.089 534.325 235.637 534.092 235.214C533.863 234.792 533.545 234.449 533.138 234.188C532.736 233.926 532.277 233.795 531.762 233.795Z" fill="black"/>
<circle cx="460.171" cy="304.64" r="20.4143" fill="#D9D9D9" stroke="black"/>
<path d="M454.24 312.169C453.411 312.169 452.679 312.022 452.043 311.728C451.411 311.431 450.918 311.022 450.564 310.503C450.209 309.98 450.034 309.384 450.038 308.716C450.034 308.193 450.137 307.71 450.346 307.267C450.556 306.82 450.841 306.448 451.203 306.15C451.57 305.848 451.978 305.657 452.429 305.577V305.504C451.837 305.351 451.366 305.019 451.016 304.508C450.666 303.993 450.493 303.407 450.497 302.751C450.493 302.124 450.652 301.562 450.974 301.067C451.296 300.572 451.739 300.182 452.302 299.896C452.87 299.61 453.516 299.467 454.24 299.467C454.956 299.467 455.596 299.61 456.16 299.896C456.723 300.182 457.166 300.572 457.488 301.067C457.814 301.562 457.979 302.124 457.983 302.751C457.979 303.407 457.8 303.993 457.446 304.508C457.096 305.019 456.631 305.351 456.051 305.504V305.577C456.498 305.657 456.9 305.848 457.259 306.15C457.617 306.448 457.902 306.82 458.116 307.267C458.329 307.71 458.438 308.193 458.442 308.716C458.438 309.384 458.257 309.98 457.898 310.503C457.544 311.022 457.051 311.431 456.419 311.728C455.792 312.022 455.065 312.169 454.24 312.169ZM454.24 310.841C454.799 310.841 455.282 310.75 455.689 310.569C456.095 310.388 456.409 310.133 456.631 309.803C456.852 309.473 456.965 309.086 456.969 308.643C456.965 308.177 456.844 307.764 456.607 307.406C456.369 307.048 456.045 306.766 455.635 306.561C455.228 306.355 454.763 306.253 454.24 306.253C453.713 306.253 453.242 306.355 452.827 306.561C452.417 306.766 452.093 307.048 451.855 307.406C451.622 307.764 451.507 308.177 451.511 308.643C451.507 309.086 451.614 309.473 451.831 309.803C452.053 310.133 452.369 310.388 452.779 310.569C453.19 310.75 453.677 310.841 454.24 310.841ZM454.24 304.973C454.683 304.973 455.075 304.884 455.417 304.707C455.763 304.53 456.035 304.283 456.232 303.965C456.429 303.647 456.53 303.275 456.534 302.848C456.53 302.429 456.431 302.065 456.238 301.755C456.045 301.441 455.777 301.2 455.435 301.031C455.093 300.858 454.695 300.771 454.24 300.771C453.777 300.771 453.373 300.858 453.027 301.031C452.681 301.2 452.413 301.441 452.224 301.755C452.035 302.065 451.942 302.429 451.946 302.848C451.942 303.275 452.037 303.647 452.23 303.965C452.427 304.283 452.699 304.53 453.045 304.707C453.391 304.884 453.789 304.973 454.24 304.973ZM464.788 312.169C463.879 312.169 463.104 311.922 462.464 311.426C461.824 310.927 461.335 310.205 460.997 309.259C460.659 308.309 460.49 307.162 460.49 305.818C460.49 304.482 460.659 303.341 460.997 302.395C461.339 301.445 461.83 300.721 462.47 300.222C463.114 299.719 463.887 299.467 464.788 299.467C465.69 299.467 466.46 299.719 467.1 300.222C467.744 300.721 468.235 301.445 468.573 302.395C468.915 303.341 469.086 304.482 469.086 305.818C469.086 307.162 468.917 308.309 468.579 309.259C468.241 310.205 467.752 310.927 467.112 311.426C466.472 311.922 465.698 312.169 464.788 312.169ZM464.788 310.841C465.69 310.841 466.39 310.406 466.889 309.537C467.388 308.668 467.638 307.428 467.638 305.818C467.638 304.748 467.523 303.836 467.293 303.083C467.068 302.331 466.742 301.757 466.315 301.363C465.893 300.969 465.384 300.771 464.788 300.771C463.895 300.771 463.196 301.212 462.693 302.093C462.19 302.971 461.939 304.212 461.939 305.818C461.939 306.889 462.051 307.798 462.277 308.547C462.502 309.295 462.826 309.865 463.249 310.255C463.675 310.646 464.188 310.841 464.788 310.841Z" fill="black"/>
<circle cx="527.097" cy="304.64" r="20.4143" fill="#D9D9D9" stroke="black"/>
<path d="M522.24 312.169C521.411 312.169 520.679 312.022 520.043 311.728C519.411 311.431 518.918 311.022 518.564 310.503C518.209 309.98 518.034 309.384 518.038 308.716C518.034 308.193 518.137 307.71 518.346 307.267C518.556 306.82 518.841 306.448 519.203 306.15C519.57 305.848 519.978 305.657 520.429 305.577V305.504C519.837 305.351 519.366 305.019 519.016 304.508C518.666 303.993 518.493 303.407 518.497 302.751C518.493 302.124 518.652 301.562 518.974 301.067C519.296 300.572 519.739 300.182 520.302 299.896C520.87 299.61 521.516 299.467 522.24 299.467C522.956 299.467 523.596 299.61 524.16 299.896C524.723 300.182 525.166 300.572 525.488 301.067C525.814 301.562 525.979 302.124 525.983 302.751C525.979 303.407 525.8 303.993 525.446 304.508C525.096 305.019 524.631 305.351 524.051 305.504V305.577C524.498 305.657 524.9 305.848 525.259 306.15C525.617 306.448 525.902 306.82 526.116 307.267C526.329 307.71 526.438 308.193 526.442 308.716C526.438 309.384 526.257 309.98 525.898 310.503C525.544 311.022 525.051 311.431 524.419 311.728C523.792 312.022 523.065 312.169 522.24 312.169ZM522.24 310.841C522.799 310.841 523.282 310.75 523.689 310.569C524.095 310.388 524.409 310.133 524.631 309.803C524.852 309.473 524.965 309.086 524.969 308.643C524.965 308.177 524.844 307.764 524.607 307.406C524.369 307.048 524.045 306.766 523.635 306.561C523.228 306.355 522.763 306.253 522.24 306.253C521.713 306.253 521.242 306.355 520.827 306.561C520.417 306.766 520.093 307.048 519.855 307.406C519.622 307.764 519.507 308.177 519.511 308.643C519.507 309.086 519.614 309.473 519.831 309.803C520.053 310.133 520.369 310.388 520.779 310.569C521.19 310.75 521.677 310.841 522.24 310.841ZM522.24 304.973C522.683 304.973 523.075 304.884 523.417 304.707C523.763 304.53 524.035 304.283 524.232 303.965C524.429 303.647 524.53 303.275 524.534 302.848C524.53 302.429 524.431 302.065 524.238 301.755C524.045 301.441 523.777 301.2 523.435 301.031C523.093 300.858 522.695 300.771 522.24 300.771C521.777 300.771 521.373 300.858 521.027 301.031C520.681 301.2 520.413 301.441 520.224 301.755C520.035 302.065 519.942 302.429 519.946 302.848C519.942 303.275 520.037 303.647 520.23 303.965C520.427 304.283 520.699 304.53 521.045 304.707C521.391 304.884 521.789 304.973 522.24 304.973ZM533.102 299.636V312H531.605V301.206H531.532L528.514 303.21V301.689L531.605 299.636H533.102Z" fill="black"/>
<circle cx="460.171" cy="371.566" r="20.4143" fill="#D9D9D9" stroke="black"/>
<path d="M455.24 378.169C454.411 378.169 453.679 378.022 453.043 377.728C452.411 377.431 451.918 377.022 451.564 376.503C451.209 375.98 451.034 375.384 451.038 374.716C451.034 374.193 451.137 373.71 451.346 373.267C451.556 372.82 451.841 372.448 452.203 372.15C452.57 371.848 452.978 371.657 453.429 371.577V371.504C452.837 371.351 452.366 371.019 452.016 370.508C451.666 369.993 451.493 369.407 451.497 368.751C451.493 368.124 451.652 367.562 451.974 367.067C452.296 366.572 452.739 366.182 453.302 365.896C453.87 365.61 454.516 365.467 455.24 365.467C455.956 365.467 456.596 365.61 457.16 365.896C457.723 366.182 458.166 366.572 458.488 367.067C458.814 367.562 458.979 368.124 458.983 368.751C458.979 369.407 458.8 369.993 458.446 370.508C458.096 371.019 457.631 371.351 457.051 371.504V371.577C457.498 371.657 457.9 371.848 458.259 372.15C458.617 372.448 458.902 372.82 459.116 373.267C459.329 373.71 459.438 374.193 459.442 374.716C459.438 375.384 459.257 375.98 458.898 376.503C458.544 377.022 458.051 377.431 457.419 377.728C456.792 378.022 456.065 378.169 455.24 378.169ZM455.24 376.841C455.799 376.841 456.282 376.75 456.689 376.569C457.095 376.388 457.409 376.133 457.631 375.803C457.852 375.473 457.965 375.086 457.969 374.643C457.965 374.177 457.844 373.764 457.607 373.406C457.369 373.048 457.045 372.766 456.635 372.561C456.228 372.355 455.763 372.253 455.24 372.253C454.713 372.253 454.242 372.355 453.827 372.561C453.417 372.766 453.093 373.048 452.855 373.406C452.622 373.764 452.507 374.177 452.511 374.643C452.507 375.086 452.614 375.473 452.831 375.803C453.053 376.133 453.369 376.388 453.779 376.569C454.19 376.75 454.677 376.841 455.24 376.841ZM455.24 370.973C455.683 370.973 456.075 370.884 456.417 370.707C456.763 370.53 457.035 370.283 457.232 369.965C457.429 369.647 457.53 369.275 457.534 368.848C457.53 368.429 457.431 368.065 457.238 367.755C457.045 367.441 456.777 367.2 456.435 367.031C456.093 366.858 455.695 366.771 455.24 366.771C454.777 366.771 454.373 366.858 454.027 367.031C453.681 367.2 453.413 367.441 453.224 367.755C453.035 368.065 452.942 368.429 452.946 368.848C452.942 369.275 453.037 369.647 453.23 369.965C453.427 370.283 453.699 370.53 454.045 370.707C454.391 370.884 454.789 370.973 455.24 370.973ZM461.755 378V376.913L465.836 372.446C466.315 371.923 466.71 371.468 467.02 371.082C467.33 370.691 467.559 370.325 467.708 369.983C467.861 369.637 467.937 369.275 467.937 368.896C467.937 368.462 467.833 368.085 467.623 367.767C467.418 367.449 467.136 367.204 466.778 367.031C466.42 366.858 466.017 366.771 465.571 366.771C465.096 366.771 464.681 366.87 464.327 367.067C463.977 367.26 463.705 367.532 463.512 367.882C463.323 368.232 463.228 368.643 463.228 369.114H461.804C461.804 368.389 461.971 367.753 462.305 367.206C462.639 366.659 463.094 366.232 463.669 365.926C464.249 365.62 464.899 365.467 465.619 365.467C466.343 365.467 466.985 365.62 467.545 365.926C468.104 366.232 468.543 366.645 468.861 367.164C469.179 367.683 469.338 368.26 469.338 368.896C469.338 369.351 469.255 369.796 469.09 370.23C468.929 370.661 468.648 371.142 468.245 371.673C467.847 372.201 467.293 372.844 466.585 373.605L463.808 376.575V376.672H469.555V378H461.755Z" fill="black"/>
<circle cx="527.097" cy="371.566" r="20.4143" fill="#D9D9D9" stroke="black"/>
<path d="M522.24 378.169C521.411 378.169 520.679 378.022 520.043 377.728C519.411 377.431 518.918 377.022 518.564 376.503C518.209 375.98 518.034 375.384 518.038 374.716C518.034 374.193 518.137 373.71 518.346 373.267C518.556 372.82 518.841 372.448 519.203 372.15C519.57 371.848 519.978 371.657 520.429 371.577V371.504C519.837 371.351 519.366 371.019 519.016 370.508C518.666 369.993 518.493 369.407 518.497 368.751C518.493 368.124 518.652 367.562 518.974 367.067C519.296 366.572 519.739 366.182 520.302 365.896C520.87 365.61 521.516 365.467 522.24 365.467C522.956 365.467 523.596 365.61 524.16 365.896C524.723 366.182 525.166 366.572 525.488 367.067C525.814 367.562 525.979 368.124 525.983 368.751C525.979 369.407 525.8 369.993 525.446 370.508C525.096 371.019 524.631 371.351 524.051 371.504V371.577C524.498 371.657 524.9 371.848 525.259 372.15C525.617 372.448 525.902 372.82 526.116 373.267C526.329 373.71 526.438 374.193 526.442 374.716C526.438 375.384 526.257 375.98 525.898 376.503C525.544 377.022 525.051 377.431 524.419 377.728C523.792 378.022 523.065 378.169 522.24 378.169ZM522.24 376.841C522.799 376.841 523.282 376.75 523.689 376.569C524.095 376.388 524.409 376.133 524.631 375.803C524.852 375.473 524.965 375.086 524.969 374.643C524.965 374.177 524.844 373.764 524.607 373.406C524.369 373.048 524.045 372.766 523.635 372.561C523.228 372.355 522.763 372.253 522.24 372.253C521.713 372.253 521.242 372.355 520.827 372.561C520.417 372.766 520.093 373.048 519.855 373.406C519.622 373.764 519.507 374.177 519.511 374.643C519.507 375.086 519.614 375.473 519.831 375.803C520.053 376.133 520.369 376.388 520.779 376.569C521.19 376.75 521.677 376.841 522.24 376.841ZM522.24 370.973C522.683 370.973 523.075 370.884 523.417 370.707C523.763 370.53 524.035 370.283 524.232 369.965C524.429 369.647 524.53 369.275 524.534 368.848C524.53 368.429 524.431 368.065 524.238 367.755C524.045 367.441 523.777 367.2 523.435 367.031C523.093 366.858 522.695 366.771 522.24 366.771C521.777 366.771 521.373 366.858 521.027 367.031C520.681 367.2 520.413 367.441 520.224 367.755C520.035 368.065 519.942 368.429 519.946 368.848C519.942 369.275 520.037 369.647 520.23 369.965C520.427 370.283 520.699 370.53 521.045 370.707C521.391 370.884 521.789 370.973 522.24 370.973ZM532.933 378.169C532.136 378.169 531.426 378.032 530.802 377.759C530.182 377.485 529.689 377.105 529.323 376.618C528.961 376.127 528.763 375.557 528.731 374.909H530.253C530.285 375.308 530.422 375.652 530.663 375.941C530.905 376.227 531.22 376.449 531.611 376.605C532.001 376.762 532.434 376.841 532.909 376.841C533.44 376.841 533.911 376.748 534.321 376.563C534.732 376.378 535.054 376.121 535.287 375.79C535.521 375.46 535.638 375.078 535.638 374.643C535.638 374.189 535.525 373.788 535.299 373.442C535.074 373.092 534.744 372.818 534.309 372.621C533.875 372.424 533.343 372.325 532.716 372.325H531.726V370.997H532.716C533.207 370.997 533.637 370.909 534.008 370.732C534.382 370.554 534.674 370.305 534.883 369.983C535.096 369.661 535.203 369.283 535.203 368.848C535.203 368.429 535.11 368.065 534.925 367.755C534.74 367.445 534.478 367.204 534.14 367.031C533.806 366.858 533.412 366.771 532.957 366.771C532.531 366.771 532.128 366.85 531.75 367.007C531.375 367.16 531.07 367.383 530.832 367.677C530.595 367.967 530.466 368.317 530.446 368.727H528.997C529.021 368.079 529.216 367.512 529.582 367.025C529.949 366.534 530.428 366.152 531.019 365.878C531.615 365.604 532.269 365.467 532.981 365.467C533.746 365.467 534.402 365.622 534.949 365.932C535.497 366.238 535.917 366.643 536.211 367.146C536.505 367.649 536.652 368.192 536.652 368.776C536.652 369.472 536.469 370.065 536.102 370.556C535.74 371.047 535.247 371.388 534.623 371.577V371.673C535.404 371.802 536.014 372.134 536.453 372.669C536.891 373.201 537.111 373.859 537.111 374.643C537.111 375.316 536.927 375.919 536.561 376.455C536.199 376.986 535.704 377.404 535.076 377.71C534.448 378.016 533.734 378.169 532.933 378.169Z" fill="black"/>
<circle cx="459.691" cy="438.914" r="20.4143" fill="#D9D9D9" stroke="black"/>
<path d="M453.834 445.592C453.005 445.592 452.273 445.445 451.637 445.151C451.005 444.853 450.512 444.445 450.158 443.926C449.804 443.402 449.629 442.807 449.633 442.139C449.629 441.616 449.731 441.133 449.94 440.69C450.15 440.243 450.436 439.871 450.798 439.573C451.164 439.271 451.572 439.08 452.023 439V438.927C451.432 438.774 450.961 438.442 450.611 437.931C450.26 437.416 450.087 436.83 450.091 436.174C450.087 435.546 450.246 434.985 450.568 434.49C450.89 433.995 451.333 433.605 451.896 433.319C452.464 433.033 453.11 432.89 453.834 432.89C454.551 432.89 455.191 433.033 455.754 433.319C456.317 433.605 456.76 433.995 457.082 434.49C457.408 434.985 457.573 435.546 457.577 436.174C457.573 436.83 457.394 437.416 457.04 437.931C456.69 438.442 456.225 438.774 455.645 438.927V439C456.092 439.08 456.495 439.271 456.853 439.573C457.211 439.871 457.497 440.243 457.71 440.69C457.923 441.133 458.032 441.616 458.036 442.139C458.032 442.807 457.851 443.402 457.493 443.926C457.139 444.445 456.645 444.853 456.014 445.151C455.386 445.445 454.659 445.592 453.834 445.592ZM453.834 444.264C454.394 444.264 454.877 444.173 455.283 443.992C455.69 443.811 456.004 443.555 456.225 443.225C456.446 442.895 456.559 442.509 456.563 442.066C456.559 441.599 456.438 441.187 456.201 440.829C455.963 440.471 455.639 440.189 455.229 439.984C454.822 439.778 454.357 439.676 453.834 439.676C453.307 439.676 452.836 439.778 452.422 439.984C452.011 440.189 451.687 440.471 451.45 440.829C451.216 441.187 451.102 441.599 451.106 442.066C451.102 442.509 451.208 442.895 451.426 443.225C451.647 443.555 451.963 443.811 452.373 443.992C452.784 444.173 453.271 444.264 453.834 444.264ZM453.834 438.396C454.277 438.396 454.669 438.307 455.011 438.13C455.358 437.953 455.629 437.706 455.826 437.388C456.024 437.07 456.124 436.697 456.128 436.271C456.124 435.852 456.026 435.488 455.833 435.178C455.639 434.864 455.372 434.623 455.03 434.454C454.688 434.281 454.289 434.194 453.834 434.194C453.371 434.194 452.967 434.281 452.621 434.454C452.275 434.623 452.007 434.864 451.818 435.178C451.629 435.488 451.536 435.852 451.54 436.271C451.536 436.697 451.631 437.07 451.824 437.388C452.021 437.706 452.293 437.953 452.639 438.13C452.985 438.307 453.384 438.396 453.834 438.396ZM460.06 442.887V441.656L465.493 433.059H466.387V434.967H465.783L461.678 441.463V441.559H468.995V442.887H460.06ZM465.879 445.423V442.513V441.94V433.059H467.304V445.423H465.879Z" fill="black"/>
<circle cx="526.914" cy="438.914" r="20.4143" fill="#D9D9D9" stroke="black"/>
<path d="M521.834 445.666C521.005 445.666 520.273 445.519 519.637 445.225C519.005 444.928 518.512 444.519 518.158 444C517.804 443.477 517.629 442.881 517.633 442.213C517.629 441.69 517.731 441.207 517.94 440.764C518.15 440.317 518.436 439.945 518.798 439.647C519.164 439.345 519.572 439.154 520.023 439.074V439.001C519.432 438.848 518.961 438.516 518.611 438.005C518.26 437.49 518.087 436.905 518.091 436.248C518.087 435.621 518.246 435.059 518.568 434.564C518.89 434.069 519.333 433.679 519.896 433.393C520.464 433.107 521.11 432.964 521.834 432.964C522.551 432.964 523.191 433.107 523.754 433.393C524.317 433.679 524.76 434.069 525.082 434.564C525.408 435.059 525.573 435.621 525.577 436.248C525.573 436.905 525.394 437.49 525.04 438.005C524.69 438.516 524.225 438.848 523.645 439.001V439.074C524.092 439.154 524.495 439.345 524.853 439.647C525.211 439.945 525.497 440.317 525.71 440.764C525.923 441.207 526.032 441.69 526.036 442.213C526.032 442.881 525.851 443.477 525.493 444C525.139 444.519 524.645 444.928 524.014 445.225C523.386 445.519 522.659 445.666 521.834 445.666ZM521.834 444.338C522.394 444.338 522.877 444.247 523.283 444.066C523.69 443.885 524.004 443.63 524.225 443.3C524.446 442.97 524.559 442.583 524.563 442.141C524.559 441.674 524.438 441.261 524.201 440.903C523.963 440.545 523.639 440.263 523.229 440.058C522.822 439.853 522.357 439.75 521.834 439.75C521.307 439.75 520.836 439.853 520.422 440.058C520.011 440.263 519.687 440.545 519.45 440.903C519.216 441.261 519.102 441.674 519.106 442.141C519.102 442.583 519.208 442.97 519.426 443.3C519.647 443.63 519.963 443.885 520.373 444.066C520.784 444.247 521.271 444.338 521.834 444.338ZM521.834 438.47C522.277 438.47 522.669 438.382 523.011 438.204C523.358 438.027 523.629 437.78 523.826 437.462C524.024 437.144 524.124 436.772 524.128 436.345C524.124 435.927 524.026 435.562 523.833 435.252C523.639 434.938 523.372 434.697 523.03 434.528C522.688 434.355 522.289 434.268 521.834 434.268C521.371 434.268 520.967 434.355 520.621 434.528C520.275 434.697 520.007 434.938 519.818 435.252C519.629 435.562 519.536 435.927 519.54 436.345C519.536 436.772 519.631 437.144 519.824 437.462C520.021 437.78 520.293 438.027 520.639 438.204C520.985 438.382 521.384 438.47 521.834 438.47ZM532.213 445.666C531.505 445.666 530.867 445.525 530.3 445.244C529.732 444.962 529.277 444.575 528.935 444.084C528.593 443.593 528.406 443.034 528.374 442.406H529.823C529.879 442.966 530.133 443.428 530.583 443.795C531.038 444.157 531.581 444.338 532.213 444.338C532.72 444.338 533.171 444.219 533.566 443.982C533.964 443.744 534.276 443.418 534.501 443.004C534.731 442.585 534.845 442.112 534.845 441.585C534.845 441.046 534.727 440.565 534.489 440.142C534.256 439.716 533.934 439.38 533.523 439.134C533.113 438.889 532.644 438.764 532.117 438.76C531.738 438.756 531.35 438.814 530.952 438.935C530.553 439.052 530.225 439.203 529.968 439.388L528.567 439.219L529.316 433.133H535.739V434.462H530.571L530.137 438.108H530.209C530.463 437.907 530.781 437.74 531.163 437.607C531.545 437.474 531.944 437.408 532.358 437.408C533.115 437.408 533.789 437.589 534.381 437.951C534.976 438.309 535.443 438.8 535.781 439.424C536.123 440.048 536.294 440.76 536.294 441.561C536.294 442.35 536.117 443.054 535.763 443.674C535.413 444.29 534.93 444.777 534.314 445.135C533.698 445.489 532.998 445.666 532.213 445.666Z" fill="black"/>
<circle cx="459.766" cy="505.914" r="20.4143" fill="#D9D9D9" stroke="black"/>
<path d="M453.909 512.666C453.08 512.666 452.347 512.519 451.711 512.225C451.079 511.928 450.586 511.519 450.232 511C449.878 510.477 449.703 509.881 449.707 509.213C449.703 508.69 449.806 508.207 450.015 507.764C450.224 507.317 450.51 506.945 450.872 506.647C451.238 506.345 451.647 506.154 452.098 506.074V506.001C451.506 505.848 451.035 505.516 450.685 505.005C450.335 504.49 450.162 503.905 450.166 503.249C450.162 502.621 450.321 502.059 450.643 501.564C450.965 501.069 451.407 500.679 451.971 500.393C452.538 500.107 453.184 499.964 453.909 499.964C454.625 499.964 455.265 500.107 455.829 500.393C456.392 500.679 456.835 501.069 457.157 501.564C457.483 502.059 457.648 502.621 457.652 503.249C457.648 503.905 457.469 504.49 457.114 505.005C456.764 505.516 456.299 505.848 455.72 506.001V506.074C456.167 506.154 456.569 506.345 456.927 506.647C457.285 506.945 457.571 507.317 457.784 507.764C457.998 508.207 458.106 508.69 458.11 509.213C458.106 509.881 457.925 510.477 457.567 511C457.213 511.519 456.72 511.928 456.088 512.225C455.46 512.519 454.734 512.666 453.909 512.666ZM453.909 511.338C454.468 511.338 454.951 511.247 455.358 511.066C455.764 510.885 456.078 510.63 456.299 510.3C456.521 509.97 456.633 509.583 456.637 509.141C456.633 508.674 456.513 508.261 456.275 507.903C456.038 507.545 455.714 507.263 455.303 507.058C454.897 506.853 454.432 506.75 453.909 506.75C453.382 506.75 452.911 506.853 452.496 507.058C452.086 507.263 451.762 507.545 451.524 507.903C451.291 508.261 451.176 508.674 451.18 509.141C451.176 509.583 451.283 509.97 451.5 510.3C451.721 510.63 452.037 510.885 452.448 511.066C452.858 511.247 453.345 511.338 453.909 511.338ZM453.909 505.47C454.351 505.47 454.744 505.382 455.086 505.205C455.432 505.027 455.704 504.78 455.901 504.462C456.098 504.144 456.199 503.772 456.203 503.345C456.199 502.927 456.1 502.562 455.907 502.252C455.714 501.939 455.446 501.697 455.104 501.528C454.762 501.355 454.364 501.268 453.909 501.268C453.446 501.268 453.041 501.355 452.695 501.528C452.349 501.697 452.082 501.939 451.892 502.252C451.703 502.562 451.611 502.927 451.615 503.345C451.611 503.772 451.705 504.144 451.898 504.462C452.096 504.78 452.367 505.027 452.713 505.205C453.06 505.382 453.458 505.47 453.909 505.47ZM464.529 512.666C464.022 512.658 463.515 512.562 463.008 512.376C462.501 512.191 462.038 511.879 461.619 511.441C461.201 510.998 460.865 510.4 460.611 509.648C460.358 508.891 460.231 507.941 460.231 506.798C460.231 505.704 460.334 504.734 460.539 503.888C460.744 503.039 461.042 502.325 461.432 501.745C461.823 501.162 462.294 500.719 462.845 500.417C463.4 500.115 464.026 499.964 464.722 499.964C465.415 499.964 466.03 500.103 466.57 500.381C467.113 500.655 467.556 501.037 467.898 501.528C468.24 502.019 468.461 502.584 468.562 503.224H467.089C466.952 502.669 466.686 502.208 466.292 501.842C465.898 501.476 465.374 501.293 464.722 501.293C463.765 501.293 463.01 501.709 462.459 502.542C461.911 503.375 461.636 504.544 461.632 506.05H461.728C461.953 505.708 462.221 505.416 462.531 505.174C462.845 504.929 463.191 504.74 463.569 504.607C463.948 504.474 464.348 504.408 464.771 504.408C465.479 504.408 466.127 504.585 466.715 504.939C467.302 505.289 467.773 505.774 468.127 506.394C468.481 507.01 468.658 507.716 468.658 508.513C468.658 509.277 468.487 509.978 468.145 510.614C467.803 511.245 467.322 511.749 466.703 512.123C466.087 512.493 465.362 512.674 464.529 512.666ZM464.529 511.338C465.036 511.338 465.491 511.211 465.894 510.958C466.3 510.704 466.62 510.364 466.853 509.937C467.091 509.511 467.21 509.036 467.21 508.513C467.21 508.002 467.095 507.537 466.866 507.118C466.64 506.696 466.328 506.36 465.93 506.11C465.535 505.861 465.085 505.736 464.578 505.736C464.195 505.736 463.839 505.812 463.509 505.965C463.179 506.114 462.889 506.319 462.64 506.581C462.394 506.843 462.201 507.142 462.06 507.48C461.919 507.814 461.849 508.167 461.849 508.537C461.849 509.028 461.964 509.487 462.193 509.913C462.426 510.34 462.744 510.684 463.147 510.946C463.553 511.207 464.014 511.338 464.529 511.338Z" fill="black"/>
<circle cx="526.914" cy="505.914" r="20.4143" fill="#D9D9D9" stroke="black"/>
<path d="M520.76 512.74C519.931 512.74 519.199 512.593 518.563 512.3C517.931 512.002 517.438 511.593 517.084 511.074C516.729 510.551 516.554 509.955 516.558 509.287C516.554 508.764 516.657 508.281 516.866 507.838C517.076 507.392 517.361 507.019 517.723 506.721C518.09 506.42 518.498 506.228 518.949 506.148V506.076C518.357 505.923 517.886 505.591 517.536 505.079C517.186 504.564 517.013 503.979 517.017 503.323C517.013 502.695 517.172 502.133 517.494 501.638C517.816 501.143 518.259 500.753 518.822 500.467C519.39 500.181 520.036 500.039 520.76 500.039C521.476 500.039 522.116 500.181 522.68 500.467C523.243 500.753 523.686 501.143 524.008 501.638C524.334 502.133 524.499 502.695 524.503 503.323C524.499 503.979 524.32 504.564 523.966 505.079C523.616 505.591 523.151 505.923 522.571 506.076V506.148C523.018 506.228 523.42 506.42 523.779 506.721C524.137 507.019 524.422 507.392 524.636 507.838C524.849 508.281 524.958 508.764 524.962 509.287C524.958 509.955 524.777 510.551 524.418 511.074C524.064 511.593 523.571 512.002 522.939 512.3C522.312 512.593 521.585 512.74 520.76 512.74ZM520.76 511.412C521.319 511.412 521.802 511.322 522.209 511.141C522.615 510.959 522.929 510.704 523.151 510.374C523.372 510.044 523.485 509.657 523.489 509.215C523.485 508.748 523.364 508.335 523.127 507.977C522.889 507.619 522.565 507.337 522.155 507.132C521.748 506.927 521.283 506.824 520.76 506.824C520.233 506.824 519.762 506.927 519.347 507.132C518.937 507.337 518.613 507.619 518.375 507.977C518.142 508.335 518.027 508.748 518.031 509.215C518.027 509.657 518.134 510.044 518.351 510.374C518.573 510.704 518.889 510.959 519.299 511.141C519.71 511.322 520.197 511.412 520.76 511.412ZM520.76 505.544C521.203 505.544 521.595 505.456 521.937 505.279C522.283 505.102 522.555 504.854 522.752 504.536C522.949 504.218 523.05 503.846 523.054 503.419C523.05 503.001 522.951 502.636 522.758 502.327C522.565 502.013 522.297 501.771 521.955 501.602C521.613 501.429 521.215 501.343 520.76 501.343C520.297 501.343 519.893 501.429 519.547 501.602C519.201 501.771 518.933 502.013 518.744 502.327C518.555 502.636 518.462 503.001 518.466 503.419C518.462 503.846 518.557 504.218 518.75 504.536C518.947 504.854 519.219 505.102 519.565 505.279C519.911 505.456 520.309 505.544 520.76 505.544ZM527.662 512.571L533.192 501.632V501.536H526.817V500.208H534.737V501.608L529.231 512.571H527.662Z" fill="black"/>
<circle cx="460.171" cy="573.343" r="20.4143" fill="#D9D9D9" stroke="black"/>
<path d="M454.24 580.169C453.411 580.169 452.679 580.022 452.043 579.728C451.411 579.431 450.918 579.022 450.564 578.503C450.209 577.98 450.034 577.384 450.038 576.716C450.034 576.193 450.137 575.71 450.346 575.267C450.556 574.82 450.841 574.448 451.203 574.15C451.57 573.848 451.978 573.657 452.429 573.577V573.504C451.837 573.351 451.366 573.019 451.016 572.508C450.666 571.993 450.493 571.407 450.497 570.751C450.493 570.124 450.652 569.562 450.974 569.067C451.296 568.572 451.739 568.182 452.302 567.896C452.87 567.61 453.516 567.467 454.24 567.467C454.956 567.467 455.596 567.61 456.16 567.896C456.723 568.182 457.166 568.572 457.488 569.067C457.814 569.562 457.979 570.124 457.983 570.751C457.979 571.407 457.8 571.993 457.446 572.508C457.096 573.019 456.631 573.351 456.051 573.504V573.577C456.498 573.657 456.9 573.848 457.259 574.15C457.617 574.448 457.902 574.82 458.116 575.267C458.329 575.71 458.438 576.193 458.442 576.716C458.438 577.384 458.257 577.98 457.898 578.503C457.544 579.022 457.051 579.431 456.419 579.728C455.792 580.022 455.065 580.169 454.24 580.169ZM454.24 578.841C454.799 578.841 455.282 578.75 455.689 578.569C456.095 578.388 456.409 578.133 456.631 577.803C456.852 577.473 456.965 577.086 456.969 576.643C456.965 576.177 456.844 575.764 456.607 575.406C456.369 575.048 456.045 574.766 455.635 574.561C455.228 574.355 454.763 574.253 454.24 574.253C453.713 574.253 453.242 574.355 452.827 574.561C452.417 574.766 452.093 575.048 451.855 575.406C451.622 575.764 451.507 576.177 451.511 576.643C451.507 577.086 451.614 577.473 451.831 577.803C452.053 578.133 452.369 578.388 452.779 578.569C453.19 578.75 453.677 578.841 454.24 578.841ZM454.24 572.973C454.683 572.973 455.075 572.884 455.417 572.707C455.763 572.53 456.035 572.283 456.232 571.965C456.429 571.647 456.53 571.275 456.534 570.848C456.53 570.429 456.431 570.065 456.238 569.755C456.045 569.441 455.777 569.2 455.435 569.031C455.093 568.858 454.695 568.771 454.24 568.771C453.777 568.771 453.373 568.858 453.027 569.031C452.681 569.2 452.413 569.441 452.224 569.755C452.035 570.065 451.942 570.429 451.946 570.848C451.942 571.275 452.037 571.647 452.23 571.965C452.427 572.283 452.699 572.53 453.045 572.707C453.391 572.884 453.789 572.973 454.24 572.973ZM464.716 580.169C463.887 580.169 463.154 580.022 462.518 579.728C461.886 579.431 461.393 579.022 461.039 578.503C460.685 577.98 460.51 577.384 460.514 576.716C460.51 576.193 460.613 575.71 460.822 575.267C461.031 574.82 461.317 574.448 461.679 574.15C462.045 573.848 462.454 573.657 462.905 573.577V573.504C462.313 573.351 461.842 573.019 461.492 572.508C461.142 571.993 460.969 571.407 460.973 570.751C460.969 570.124 461.128 569.562 461.45 569.067C461.772 568.572 462.214 568.182 462.778 567.896C463.345 567.61 463.991 567.467 464.716 567.467C465.432 567.467 466.072 567.61 466.635 567.896C467.199 568.182 467.642 568.572 467.964 569.067C468.29 569.562 468.455 570.124 468.459 570.751C468.455 571.407 468.275 571.993 467.921 572.508C467.571 573.019 467.106 573.351 466.527 573.504V573.577C466.973 573.657 467.376 573.848 467.734 574.15C468.092 574.448 468.378 574.82 468.591 575.267C468.805 575.71 468.913 576.193 468.917 576.716C468.913 577.384 468.732 577.98 468.374 578.503C468.02 579.022 467.527 579.431 466.895 579.728C466.267 580.022 465.541 580.169 464.716 580.169ZM464.716 578.841C465.275 578.841 465.758 578.75 466.165 578.569C466.571 578.388 466.885 578.133 467.106 577.803C467.328 577.473 467.44 577.086 467.444 576.643C467.44 576.177 467.32 575.764 467.082 575.406C466.845 575.048 466.521 574.766 466.11 574.561C465.704 574.355 465.239 574.253 464.716 574.253C464.188 574.253 463.718 574.355 463.303 574.561C462.892 574.766 462.569 575.048 462.331 575.406C462.098 575.764 461.983 576.177 461.987 576.643C461.983 577.086 462.09 577.473 462.307 577.803C462.528 578.133 462.844 578.388 463.255 578.569C463.665 578.75 464.152 578.841 464.716 578.841ZM464.716 572.973C465.158 572.973 465.551 572.884 465.893 572.707C466.239 572.53 466.511 572.283 466.708 571.965C466.905 571.647 467.006 571.275 467.01 570.848C467.006 570.429 466.907 570.065 466.714 569.755C466.521 569.441 466.253 569.2 465.911 569.031C465.569 568.858 465.17 568.771 464.716 568.771C464.253 568.771 463.848 568.858 463.502 569.031C463.156 569.2 462.888 569.441 462.699 569.755C462.51 570.065 462.418 570.429 462.422 570.848C462.418 571.275 462.512 571.647 462.705 571.965C462.903 572.283 463.174 572.53 463.52 572.707C463.866 572.884 464.265 572.973 464.716 572.973Z" fill="black"/>
<circle cx="527.097" cy="573.343" r="20.4143" fill="#D9D9D9" stroke="black"/>
<path d="M521.24 580.169C520.411 580.169 519.679 580.022 519.043 579.728C518.411 579.431 517.918 579.022 517.564 578.503C517.209 577.98 517.034 577.384 517.038 576.716C517.034 576.193 517.137 575.71 517.346 575.267C517.556 574.82 517.841 574.448 518.203 574.15C518.57 573.848 518.978 573.657 519.429 573.577V573.504C518.837 573.351 518.366 573.019 518.016 572.508C517.666 571.993 517.493 571.407 517.497 570.751C517.493 570.124 517.652 569.562 517.974 569.067C518.296 568.572 518.739 568.182 519.302 567.896C519.87 567.61 520.516 567.467 521.24 567.467C521.956 567.467 522.596 567.61 523.16 567.896C523.723 568.182 524.166 568.572 524.488 569.067C524.814 569.562 524.979 570.124 524.983 570.751C524.979 571.407 524.8 571.993 524.446 572.508C524.096 573.019 523.631 573.351 523.051 573.504V573.577C523.498 573.657 523.9 573.848 524.259 574.15C524.617 574.448 524.902 574.82 525.116 575.267C525.329 575.71 525.438 576.193 525.442 576.716C525.438 577.384 525.257 577.98 524.898 578.503C524.544 579.022 524.051 579.431 523.419 579.728C522.792 580.022 522.065 580.169 521.24 580.169ZM521.24 578.841C521.799 578.841 522.282 578.75 522.689 578.569C523.095 578.388 523.409 578.133 523.631 577.803C523.852 577.473 523.965 577.086 523.969 576.643C523.965 576.177 523.844 575.764 523.607 575.406C523.369 575.048 523.045 574.766 522.635 574.561C522.228 574.355 521.763 574.253 521.24 574.253C520.713 574.253 520.242 574.355 519.827 574.561C519.417 574.766 519.093 575.048 518.855 575.406C518.622 575.764 518.507 576.177 518.511 576.643C518.507 577.086 518.614 577.473 518.831 577.803C519.053 578.133 519.369 578.388 519.779 578.569C520.19 578.75 520.677 578.841 521.24 578.841ZM521.24 572.973C521.683 572.973 522.075 572.884 522.417 572.707C522.763 572.53 523.035 572.283 523.232 571.965C523.429 571.647 523.53 571.275 523.534 570.848C523.53 570.429 523.431 570.065 523.238 569.755C523.045 569.441 522.777 569.2 522.435 569.031C522.093 568.858 521.695 568.771 521.24 568.771C520.777 568.771 520.373 568.858 520.027 569.031C519.681 569.2 519.413 569.441 519.224 569.755C519.035 570.065 518.942 570.429 518.946 570.848C518.942 571.275 519.037 571.647 519.23 571.965C519.427 572.283 519.699 572.53 520.045 572.707C520.391 572.884 520.789 572.973 521.24 572.973ZM531.691 567.467C532.199 567.471 532.706 567.568 533.213 567.757C533.72 567.946 534.183 568.26 534.601 568.699C535.02 569.134 535.356 569.727 535.609 570.48C535.863 571.232 535.99 572.176 535.99 573.311C535.99 574.41 535.885 575.386 535.676 576.239C535.471 577.088 535.173 577.805 534.782 578.388C534.396 578.972 533.925 579.414 533.37 579.716C532.818 580.018 532.195 580.169 531.498 580.169C530.806 580.169 530.188 580.032 529.645 579.759C529.106 579.481 528.663 579.096 528.317 578.605C527.975 578.11 527.755 577.537 527.659 576.885H529.132C529.265 577.452 529.528 577.921 529.923 578.292C530.321 578.658 530.846 578.841 531.498 578.841C532.452 578.841 533.205 578.424 533.756 577.591C534.312 576.758 534.589 575.581 534.589 574.06H534.493C534.267 574.398 534 574.69 533.69 574.935C533.38 575.181 533.036 575.37 532.657 575.502C532.279 575.635 531.877 575.702 531.45 575.702C530.742 575.702 530.092 575.527 529.5 575.176C528.912 574.822 528.442 574.337 528.087 573.722C527.737 573.102 527.562 572.393 527.562 571.597C527.562 570.84 527.731 570.148 528.069 569.52C528.411 568.888 528.89 568.385 529.506 568.011C530.126 567.636 530.854 567.455 531.691 567.467ZM531.691 568.795C531.184 568.795 530.728 568.922 530.321 569.176C529.919 569.425 529.599 569.763 529.361 570.19C529.128 570.613 529.011 571.081 529.011 571.597C529.011 572.112 529.124 572.581 529.349 573.003C529.579 573.422 529.89 573.756 530.285 574.005C530.683 574.251 531.136 574.374 531.643 574.374C532.026 574.374 532.382 574.299 532.712 574.15C533.042 573.997 533.33 573.79 533.575 573.528C533.825 573.263 534.02 572.963 534.161 572.629C534.301 572.291 534.372 571.939 534.372 571.572C534.372 571.089 534.255 570.637 534.022 570.214C533.792 569.792 533.474 569.449 533.068 569.188C532.665 568.926 532.207 568.795 531.691 568.795Z" fill="black"/>
<path d="M88.1037 1V485.839H4.51819" stroke="black" stroke-width="2"/>
<path d="M77.9572 551.958H0" stroke="black" stroke-width="2"/>
<path d="M6.77722 626.995H79.1711V888H1526V1H79.1711" stroke="black" stroke-width="2"/>
<g filter="url(#filter0_d_1835_2594)">
<rect x="669.257" y="122.491" width="253.063" height="242.606" fill="#D9D9D9"/>
<rect x="669.757" y="122.991" width="252.063" height="241.606" stroke="black"/>
</g>
<path d="M1016.43 22.1028V391.24H1031.07V22.1028H1016.43Z" stroke="black" stroke-width="2"/>
<path d="M1016.43 391.24H602.332V406.926H1016.43V391.24Z" stroke="black" stroke-width="2"/>
<path d="M601.286 15.8286V391.24H585.6V15.8286H601.286Z" stroke="black" stroke-width="2"/>
<path d="M995.52 249.023H924.411V244.84V196.737L995.52 200.92V249.023Z" fill="#D9D9D9"/>
<path d="M924.411 244.84L995.52 249.023M995.52 249.023H924.411V196.737L995.52 200.92V249.023Z" stroke="#BFBFBF" stroke-width="2"/>
<path d="M715.578 257V220.636H729.925C732.683 220.636 735.033 221.163 736.974 222.217C738.915 223.258 740.395 224.708 741.413 226.567C742.443 228.413 742.958 230.544 742.958 232.959C742.958 235.374 742.437 237.504 741.395 239.351C740.354 241.197 738.844 242.636 736.868 243.665C734.903 244.695 732.523 245.21 729.73 245.21H720.586V239.049H728.487C729.967 239.049 731.186 238.795 732.145 238.286C733.115 237.765 733.837 237.049 734.311 236.137C734.796 235.214 735.039 234.154 735.039 232.959C735.039 231.751 734.796 230.698 734.311 229.798C733.837 228.887 733.115 228.183 732.145 227.685C731.174 227.176 729.943 226.922 728.451 226.922H723.267V257H715.578ZM750.02 257H741.781L754.335 220.636H764.242L776.778 257H768.539L759.431 228.946H759.146L750.02 257ZM749.505 242.707H768.965V248.708H749.505V242.707ZM781.155 257V220.636H788.843V250.661H804.432V257H781.155ZM840.192 233.367H832.415C832.273 232.361 831.983 231.467 831.545 230.686C831.107 229.893 830.545 229.218 829.858 228.662C829.172 228.106 828.379 227.679 827.479 227.384C826.591 227.088 825.627 226.94 824.585 226.94C822.703 226.94 821.064 227.407 819.667 228.342C818.27 229.266 817.187 230.615 816.417 232.391C815.648 234.154 815.263 236.297 815.263 238.818C815.263 241.411 815.648 243.589 816.417 245.352C817.199 247.116 818.288 248.448 819.684 249.347C821.081 250.247 822.697 250.697 824.532 250.697C825.562 250.697 826.515 250.561 827.39 250.288C828.278 250.016 829.065 249.62 829.752 249.099C830.439 248.566 831.007 247.921 831.456 247.163C831.918 246.406 832.238 245.542 832.415 244.571L840.192 244.607C839.991 246.276 839.488 247.885 838.683 249.436C837.89 250.975 836.819 252.354 835.469 253.573C834.132 254.781 832.534 255.739 830.675 256.45C828.829 257.148 826.739 257.497 824.407 257.497C821.164 257.497 818.264 256.763 815.707 255.295C813.162 253.828 811.15 251.703 809.67 248.921C808.202 246.139 807.469 242.772 807.469 238.818C807.469 234.853 808.214 231.479 809.706 228.697C811.197 225.916 813.221 223.797 815.778 222.341C818.335 220.873 821.211 220.139 824.407 220.139C826.515 220.139 828.468 220.435 830.267 221.027C832.078 221.619 833.682 222.483 835.079 223.619C836.475 224.744 837.612 226.123 838.488 227.756C839.376 229.39 839.944 231.26 840.192 233.367ZM879.122 238.818C879.122 242.784 878.37 246.157 876.867 248.939C875.375 251.721 873.339 253.845 870.759 255.313C868.19 256.769 865.302 257.497 862.094 257.497C858.862 257.497 855.962 256.763 853.394 255.295C850.825 253.828 848.795 251.703 847.303 248.921C845.812 246.139 845.066 242.772 845.066 238.818C845.066 234.853 845.812 231.479 847.303 228.697C848.795 225.916 850.825 223.797 853.394 222.341C855.962 220.873 858.862 220.139 862.094 220.139C865.302 220.139 868.19 220.873 870.759 222.341C873.339 223.797 875.375 225.916 876.867 228.697C878.37 231.479 879.122 234.853 879.122 238.818ZM871.327 238.818C871.327 236.25 870.942 234.083 870.173 232.32C869.415 230.556 868.344 229.218 866.959 228.307C865.574 227.395 863.952 226.94 862.094 226.94C860.235 226.94 858.614 227.395 857.229 228.307C855.844 229.218 854.767 230.556 853.997 232.32C853.24 234.083 852.861 236.25 852.861 238.818C852.861 241.387 853.24 243.553 853.997 245.317C854.767 247.08 855.844 248.418 857.229 249.33C858.614 250.241 860.235 250.697 862.094 250.697C863.952 250.697 865.574 250.241 866.959 249.33C868.344 248.418 869.415 247.08 870.173 245.317C870.942 243.553 871.327 241.387 871.327 238.818Z" fill="black"/>
<path d="M257.224 946.182C257.053 944.742 256.362 943.625 255.15 942.83C253.938 942.034 252.451 941.636 250.69 941.636C249.402 941.636 248.275 941.845 247.309 942.261C246.353 942.678 245.605 943.251 245.065 943.98C244.534 944.709 244.269 945.538 244.269 946.466C244.269 947.242 244.454 947.91 244.823 948.469C245.202 949.018 245.685 949.477 246.272 949.847C246.859 950.206 247.475 950.505 248.119 950.741C248.763 950.969 249.355 951.153 249.894 951.295L252.849 952.091C253.606 952.29 254.449 952.564 255.377 952.915C256.315 953.265 257.21 953.743 258.062 954.349C258.924 954.946 259.634 955.713 260.193 956.651C260.751 957.588 261.031 958.739 261.031 960.102C261.031 961.674 260.619 963.095 259.795 964.364C258.98 965.633 257.787 966.641 256.215 967.389C254.653 968.137 252.754 968.511 250.519 968.511C248.436 968.511 246.632 968.175 245.107 967.503C243.592 966.83 242.399 965.893 241.528 964.69C240.666 963.488 240.178 962.091 240.065 960.5H243.701C243.796 961.598 244.165 962.508 244.809 963.227C245.462 963.937 246.286 964.468 247.281 964.818C248.284 965.159 249.364 965.33 250.519 965.33C251.864 965.33 253.071 965.112 254.141 964.676C255.212 964.231 256.059 963.616 256.684 962.83C257.309 962.034 257.622 961.106 257.622 960.045C257.622 959.08 257.352 958.294 256.812 957.688C256.272 957.081 255.562 956.589 254.681 956.21C253.801 955.831 252.849 955.5 251.826 955.216L248.247 954.193C245.974 953.54 244.175 952.607 242.849 951.395C241.523 950.183 240.86 948.597 240.86 946.636C240.86 945.008 241.301 943.587 242.181 942.375C243.071 941.153 244.265 940.206 245.761 939.534C247.266 938.852 248.947 938.511 250.803 938.511C252.678 938.511 254.345 938.848 255.803 939.52C257.262 940.183 258.417 941.092 259.269 942.247C260.131 943.402 260.586 944.714 260.633 946.182H257.224ZM266.823 968V938.909H284.379V942.034H270.345V951.864H283.47V954.989H270.345V964.875H284.607V968H266.823ZM289.138 942.034V938.909H310.956V942.034H301.808V968H298.286V942.034H289.138ZM339.727 953.455C339.727 956.523 339.173 959.174 338.065 961.409C336.958 963.644 335.438 965.367 333.506 966.58C331.574 967.792 329.368 968.398 326.886 968.398C324.405 968.398 322.199 967.792 320.267 966.58C318.335 965.367 316.815 963.644 315.708 961.409C314.6 959.174 314.046 956.523 314.046 953.455C314.046 950.386 314.6 947.735 315.708 945.5C316.815 943.265 318.335 941.542 320.267 940.33C322.199 939.117 324.405 938.511 326.886 938.511C329.368 938.511 331.574 939.117 333.506 940.33C335.438 941.542 336.958 943.265 338.065 945.5C339.173 947.735 339.727 950.386 339.727 953.455ZM336.318 953.455C336.318 950.936 335.897 948.81 335.054 947.077C334.221 945.344 333.089 944.032 331.659 943.142C330.239 942.252 328.648 941.807 326.886 941.807C325.125 941.807 323.529 942.252 322.1 943.142C320.679 944.032 319.547 945.344 318.705 947.077C317.871 948.81 317.455 950.936 317.455 953.455C317.455 955.973 317.871 958.099 318.705 959.832C319.547 961.565 320.679 962.877 322.1 963.767C323.529 964.657 325.125 965.102 326.886 965.102C328.648 965.102 330.239 964.657 331.659 963.767C333.089 962.877 334.221 961.565 335.054 959.832C335.897 958.099 336.318 955.973 336.318 953.455ZM345.651 968V938.909H355.48C357.753 938.909 359.619 939.297 361.077 940.074C362.535 940.841 363.615 941.897 364.315 943.241C365.016 944.586 365.367 946.116 365.367 947.83C365.367 949.544 365.016 951.063 364.315 952.389C363.615 953.715 362.54 954.757 361.091 955.514C359.642 956.262 357.791 956.636 355.537 956.636H347.583V953.455H355.423C356.976 953.455 358.226 953.227 359.173 952.773C360.13 952.318 360.821 951.674 361.247 950.841C361.683 949.998 361.901 948.994 361.901 947.83C361.901 946.665 361.683 945.647 361.247 944.776C360.812 943.904 360.116 943.232 359.159 942.759C358.203 942.276 356.939 942.034 355.367 942.034H349.173V968H345.651ZM359.344 954.932L366.503 968H362.412L355.367 954.932H359.344ZM384.514 968H377.923L387.966 938.909H395.892L405.921 968H399.33L392.043 945.557H391.815L384.514 968ZM384.102 956.565H399.671V961.366H384.102V956.565Z" fill="black"/>
<path d="M731.871 938.182C731.7 936.742 731.009 935.625 729.797 934.83C728.585 934.034 727.098 933.636 725.337 933.636C724.049 933.636 722.922 933.845 721.956 934.261C720.999 934.678 720.251 935.251 719.712 935.98C719.181 936.709 718.916 937.538 718.916 938.466C718.916 939.242 719.101 939.91 719.47 940.469C719.849 941.018 720.332 941.477 720.919 941.847C721.506 942.206 722.122 942.505 722.766 942.741C723.41 942.969 724.001 943.153 724.541 943.295L727.496 944.091C728.253 944.29 729.096 944.564 730.024 944.915C730.962 945.265 731.857 945.743 732.709 946.349C733.571 946.946 734.281 947.713 734.839 948.651C735.398 949.588 735.678 950.739 735.678 952.102C735.678 953.674 735.266 955.095 734.442 956.364C733.627 957.633 732.434 958.641 730.862 959.389C729.3 960.137 727.401 960.511 725.166 960.511C723.083 960.511 721.279 960.175 719.754 959.503C718.239 958.83 717.046 957.893 716.175 956.69C715.313 955.488 714.825 954.091 714.712 952.5H718.348C718.443 953.598 718.812 954.508 719.456 955.227C720.109 955.937 720.933 956.468 721.928 956.818C722.931 957.159 724.011 957.33 725.166 957.33C726.511 957.33 727.718 957.112 728.788 956.676C729.858 956.231 730.706 955.616 731.331 954.83C731.956 954.034 732.268 953.106 732.268 952.045C732.268 951.08 731.999 950.294 731.459 949.688C730.919 949.081 730.209 948.589 729.328 948.21C728.447 947.831 727.496 947.5 726.473 947.216L722.893 946.193C720.621 945.54 718.821 944.607 717.496 943.395C716.17 942.183 715.507 940.597 715.507 938.636C715.507 937.008 715.947 935.587 716.828 934.375C717.718 933.153 718.911 932.206 720.408 931.534C721.913 930.852 723.594 930.511 725.45 930.511C727.325 930.511 728.992 930.848 730.45 931.52C731.909 932.183 733.064 933.092 733.916 934.247C734.778 935.402 735.232 936.714 735.28 938.182H731.871ZM741.469 960V930.909H759.026V934.034H744.992V943.864H758.117V946.989H744.992V956.875H759.254V960H741.469ZM763.785 934.034V930.909H785.603V934.034H776.455V960H772.932V934.034H763.785ZM814.374 945.455C814.374 948.523 813.82 951.174 812.712 953.409C811.604 955.644 810.084 957.367 808.153 958.58C806.221 959.792 804.014 960.398 801.533 960.398C799.052 960.398 796.846 959.792 794.914 958.58C792.982 957.367 791.462 955.644 790.354 953.409C789.246 951.174 788.692 948.523 788.692 945.455C788.692 942.386 789.246 939.735 790.354 937.5C791.462 935.265 792.982 933.542 794.914 932.33C796.846 931.117 799.052 930.511 801.533 930.511C804.014 930.511 806.221 931.117 808.153 932.33C810.084 933.542 811.604 935.265 812.712 937.5C813.82 939.735 814.374 942.386 814.374 945.455ZM810.965 945.455C810.965 942.936 810.544 940.81 809.701 939.077C808.868 937.344 807.736 936.032 806.306 935.142C804.886 934.252 803.295 933.807 801.533 933.807C799.772 933.807 798.176 934.252 796.746 935.142C795.326 936.032 794.194 937.344 793.352 939.077C792.518 940.81 792.102 942.936 792.102 945.455C792.102 947.973 792.518 950.099 793.352 951.832C794.194 953.565 795.326 954.877 796.746 955.767C798.176 956.657 799.772 957.102 801.533 957.102C803.295 957.102 804.886 956.657 806.306 955.767C807.736 954.877 808.868 953.565 809.701 951.832C810.544 950.099 810.965 947.973 810.965 945.455ZM820.298 960V930.909H830.127C832.4 930.909 834.265 931.297 835.724 932.074C837.182 932.841 838.262 933.897 838.962 935.241C839.663 936.586 840.013 938.116 840.013 939.83C840.013 941.544 839.663 943.063 838.962 944.389C838.262 945.715 837.187 946.757 835.738 947.514C834.289 948.262 832.438 948.636 830.184 948.636H822.229V945.455H830.07C831.623 945.455 832.873 945.227 833.82 944.773C834.777 944.318 835.468 943.674 835.894 942.841C836.33 941.998 836.548 940.994 836.548 939.83C836.548 938.665 836.33 937.647 835.894 936.776C835.459 935.904 834.763 935.232 833.806 934.759C832.85 934.276 831.585 934.034 830.013 934.034H823.82V960H820.298ZM833.991 946.932L841.15 960H837.059L830.013 946.932H833.991ZM854.147 960V930.909H865.795C867.935 930.909 869.72 931.226 871.15 931.861C872.58 932.495 873.655 933.376 874.374 934.503C875.094 935.62 875.454 936.908 875.454 938.366C875.454 939.503 875.227 940.502 874.772 941.364C874.317 942.216 873.692 942.917 872.897 943.466C872.111 944.006 871.211 944.389 870.198 944.616V944.901C871.306 944.948 872.343 945.26 873.309 945.838C874.284 946.416 875.075 947.225 875.681 948.267C876.287 949.299 876.59 950.53 876.59 951.96C876.59 953.504 876.207 954.882 875.44 956.094C874.682 957.296 873.56 958.248 872.073 958.949C870.586 959.65 868.754 960 866.576 960H854.147ZM860.298 954.972H865.312C867.026 954.972 868.276 954.645 869.062 953.991C869.848 953.329 870.241 952.448 870.241 951.349C870.241 950.545 870.047 949.834 869.658 949.219C869.27 948.603 868.716 948.12 867.996 947.77C867.286 947.42 866.439 947.244 865.454 947.244H860.298V954.972ZM860.298 943.082H864.857C865.7 943.082 866.448 942.936 867.102 942.642C867.764 942.339 868.285 941.913 868.664 941.364C869.052 940.814 869.246 940.156 869.246 939.389C869.246 938.338 868.872 937.491 868.124 936.847C867.386 936.203 866.334 935.881 864.971 935.881H860.298V943.082Z" fill="black"/>
<path d="M1218.15 935.182C1217.98 933.742 1217.28 932.625 1216.07 931.83C1214.86 931.034 1213.37 930.636 1211.61 930.636C1210.32 930.636 1209.2 930.845 1208.23 931.261C1207.27 931.678 1206.53 932.251 1205.99 932.98C1205.46 933.709 1205.19 934.538 1205.19 935.466C1205.19 936.242 1205.38 936.91 1205.75 937.469C1206.12 938.018 1206.61 938.477 1207.19 938.847C1207.78 939.206 1208.4 939.505 1209.04 939.741C1209.68 939.969 1210.28 940.153 1210.82 940.295L1213.77 941.091C1214.53 941.29 1215.37 941.564 1216.3 941.915C1217.24 942.265 1218.13 942.743 1218.98 943.349C1219.85 943.946 1220.56 944.713 1221.11 945.651C1221.67 946.588 1221.95 947.739 1221.95 949.102C1221.95 950.674 1221.54 952.095 1220.72 953.364C1219.9 954.633 1218.71 955.641 1217.14 956.389C1215.57 957.137 1213.68 957.511 1211.44 957.511C1209.36 957.511 1207.55 957.175 1206.03 956.503C1204.51 955.83 1203.32 954.893 1202.45 953.69C1201.59 952.488 1201.1 951.091 1200.99 949.5H1204.62C1204.72 950.598 1205.09 951.508 1205.73 952.227C1206.38 952.937 1207.21 953.468 1208.2 953.818C1209.21 954.159 1210.29 954.33 1211.44 954.33C1212.79 954.33 1213.99 954.112 1215.06 953.676C1216.13 953.231 1216.98 952.616 1217.61 951.83C1218.23 951.034 1218.54 950.106 1218.54 949.045C1218.54 948.08 1218.27 947.294 1217.73 946.688C1217.19 946.081 1216.48 945.589 1215.6 945.21C1214.72 944.831 1213.77 944.5 1212.75 944.216L1209.17 943.193C1206.9 942.54 1205.1 941.607 1203.77 940.395C1202.44 939.183 1201.78 937.597 1201.78 935.636C1201.78 934.008 1202.22 932.587 1203.1 931.375C1203.99 930.153 1205.19 929.206 1206.68 928.534C1208.19 927.852 1209.87 927.511 1211.73 927.511C1213.6 927.511 1215.27 927.848 1216.73 928.52C1218.18 929.183 1219.34 930.092 1220.19 931.247C1221.05 932.402 1221.51 933.714 1221.55 935.182H1218.15ZM1227.74 957V927.909H1245.3V931.034H1231.27V940.864H1244.39V943.989H1231.27V953.875H1245.53V957H1227.74ZM1250.06 931.034V927.909H1271.88V931.034H1262.73V957H1259.21V931.034H1250.06ZM1300.65 942.455C1300.65 945.523 1300.1 948.174 1298.99 950.409C1297.88 952.644 1296.36 954.367 1294.43 955.58C1292.5 956.792 1290.29 957.398 1287.81 957.398C1285.33 957.398 1283.12 956.792 1281.19 955.58C1279.26 954.367 1277.74 952.644 1276.63 950.409C1275.52 948.174 1274.97 945.523 1274.97 942.455C1274.97 939.386 1275.52 936.735 1276.63 934.5C1277.74 932.265 1279.26 930.542 1281.19 929.33C1283.12 928.117 1285.33 927.511 1287.81 927.511C1290.29 927.511 1292.5 928.117 1294.43 929.33C1296.36 930.542 1297.88 932.265 1298.99 934.5C1300.1 936.735 1300.65 939.386 1300.65 942.455ZM1297.24 942.455C1297.24 939.936 1296.82 937.81 1295.98 936.077C1295.14 934.344 1294.01 933.032 1292.58 932.142C1291.16 931.252 1289.57 930.807 1287.81 930.807C1286.05 930.807 1284.45 931.252 1283.02 932.142C1281.6 933.032 1280.47 934.344 1279.63 936.077C1278.79 937.81 1278.38 939.936 1278.38 942.455C1278.38 944.973 1278.79 947.099 1279.63 948.832C1280.47 950.565 1281.6 951.877 1283.02 952.767C1284.45 953.657 1286.05 954.102 1287.81 954.102C1289.57 954.102 1291.16 953.657 1292.58 952.767C1294.01 951.877 1295.14 950.565 1295.98 948.832C1296.82 947.099 1297.24 944.973 1297.24 942.455ZM1306.57 957V927.909H1316.4C1318.67 927.909 1320.54 928.297 1322 929.074C1323.46 929.841 1324.54 930.897 1325.24 932.241C1325.94 933.586 1326.29 935.116 1326.29 936.83C1326.29 938.544 1325.94 940.063 1325.24 941.389C1324.54 942.715 1323.46 943.757 1322.01 944.514C1320.56 945.262 1318.71 945.636 1316.46 945.636H1308.5V942.455H1316.35C1317.9 942.455 1319.15 942.227 1320.1 941.773C1321.05 941.318 1321.74 940.674 1322.17 939.841C1322.6 938.998 1322.82 937.994 1322.82 936.83C1322.82 935.665 1322.6 934.647 1322.17 933.776C1321.73 932.904 1321.04 932.232 1320.08 931.759C1319.12 931.276 1317.86 931.034 1316.29 931.034H1310.1V957H1306.57ZM1320.27 943.932L1327.42 957H1323.33L1316.29 943.932H1320.27ZM1366.09 938.094H1359.87C1359.75 937.289 1359.52 936.574 1359.17 935.949C1358.82 935.314 1358.37 934.775 1357.82 934.33C1357.27 933.884 1356.64 933.544 1355.92 933.307C1355.21 933.07 1354.44 932.952 1353.6 932.952C1352.1 932.952 1350.79 933.326 1349.67 934.074C1348.55 934.812 1347.69 935.892 1347.07 937.312C1346.45 938.723 1346.15 940.437 1346.15 942.455C1346.15 944.528 1346.45 946.271 1347.07 947.682C1347.69 949.093 1348.57 950.158 1349.68 950.878C1350.8 951.598 1352.09 951.957 1353.56 951.957C1354.39 951.957 1355.15 951.848 1355.85 951.631C1356.56 951.413 1357.19 951.096 1357.74 950.679C1358.29 950.253 1358.74 949.737 1359.1 949.131C1359.47 948.525 1359.73 947.833 1359.87 947.057L1366.09 947.085C1365.93 948.42 1365.53 949.708 1364.88 950.949C1364.25 952.18 1363.39 953.283 1362.31 954.259C1361.24 955.224 1359.96 955.991 1358.48 956.56C1357 957.118 1355.33 957.398 1353.46 957.398C1350.87 957.398 1348.55 956.811 1346.5 955.636C1344.47 954.462 1342.86 952.762 1341.67 950.537C1340.5 948.312 1339.91 945.617 1339.91 942.455C1339.91 939.282 1340.51 936.583 1341.7 934.358C1342.89 932.133 1344.51 930.437 1346.56 929.273C1348.6 928.098 1350.9 927.511 1353.46 927.511C1355.15 927.511 1356.71 927.748 1358.15 928.222C1359.6 928.695 1360.88 929.386 1362 930.295C1363.12 931.195 1364.03 932.298 1364.73 933.605C1365.44 934.912 1365.89 936.408 1366.09 938.094Z" fill="black"/>
<defs>
<filter id="filter0_d_1835_2594" x="669.257" y="122.491" width="257.063" height="246.606" filterUnits="userSpaceOnUse" color-interpolation-filters="sRGB">
<feFlood flood-opacity="0" result="BackgroundImageFix"/>
<feColorMatrix in="SourceAlpha" type="matrix" values="0 0 0 0 0 0 0 0 0 0 0 0 0 0 0 0 0 0 127 0" result="hardAlpha"/>
<feOffset dx="4" dy="4"/>
<feComposite in2="hardAlpha" operator="out"/>
<feColorMatrix type="matrix" values="0 0 0 0 0 0 0 0 0 0 0 0 0 0 0 0 0 0 0.25 0"/>
<feBlend mode="normal" in2="BackgroundImageFix" result="effect1_dropShadow_1835_2594"/>
<feBlend mode="normal" in="SourceGraphic" in2="effect1_dropShadow_1835_2594" result="shape"/>
</filter>
</defs>
</svg>
